<svg width="17" height="16" viewBox="0 0 17 16" fill="none" xmlns="http://www.w3.org/2000/svg">
<path fill-rule="evenodd" clip-rule="evenodd" d="M8.33386 1C5.29574 1 2.8291 3.46396 2.8291 6.4988C2.8291 7.88749 3.65682 9.53863 4.6802 11.0073C6.15098 13.1189 7.98957 14.86 7.98957 14.86C8.18273 15.0424 8.48499 15.0424 8.67816 14.86C8.67816 14.86 10.5168 13.1189 11.9875 11.0073C13.0109 9.53863 13.8386 7.88749 13.8386 6.4988C13.8386 3.46396 11.372 1 8.33386 1ZM8.33386 3.7494C6.81455 3.7494 5.58148 4.98113 5.58148 6.4988C5.58148 8.01647 6.81455 9.2482 8.33386 9.2482C9.85318 9.2482 11.0862 8.01647 11.0862 6.4988C11.0862 4.98113 9.85318 3.7494 8.33386 3.7494ZM8.33386 4.74918C9.3007 4.74918 10.0854 5.53301 10.0854 6.4988C10.0854 7.46459 9.3007 8.24842 8.33386 8.24842C7.36703 8.24842 6.58235 7.46459 6.58235 6.4988C6.58235 5.53301 7.36703 4.74918 8.33386 4.74918Z" fill="#EBEBEB"/>
</svg>
