<svg width="14" height="15" viewBox="0 0 14 15" fill="none" xmlns="http://www.w3.org/2000/svg">
<path d="M4.50375 6.31982H3.14188C3.02623 6.31982 2.93262 6.41396 2.93262 6.53026V7.89976C2.93262 8.01592 3.02623 8.1102 3.14188 8.1102H4.50375C4.6194 8.1102 4.71301 8.01592 4.71301 7.89976V6.53026C4.71301 6.4141 4.6194 6.31982 4.50375 6.31982ZM4.29449 7.68933H3.35114V6.74069H4.29449V7.68933Z" fill="#FE5E3A"/>
<path d="M7.68051 6.31982H6.31864C6.20298 6.31982 6.10938 6.41396 6.10938 6.53026V7.89976C6.10938 8.01592 6.20298 8.1102 6.31864 8.1102H7.68051C7.79602 8.1102 7.88977 8.01592 7.88977 7.89976V6.53026C7.88977 6.4141 7.79602 6.31982 7.68051 6.31982ZM7.47125 7.68933H6.5279V6.74069H7.47125V7.68933Z" fill="#FE5E3A"/>
<path d="M10.7586 6.31982H9.39676C9.28125 6.31982 9.1875 6.41396 9.1875 6.53026V7.89976C9.1875 8.01592 9.28125 8.1102 9.39676 8.1102H10.7586C10.8741 8.1102 10.9679 8.01592 10.9679 7.89976V6.53026C10.9679 6.4141 10.8741 6.31982 10.7586 6.31982ZM10.5494 7.68933H9.60602V6.74069H10.5494V7.68933Z" fill="#FE5E3A"/>
<path d="M4.50375 9.43945H3.14188C3.02623 9.43945 2.93262 9.53373 2.93262 9.64989V11.0194C2.93262 11.1356 3.02623 11.2298 3.14188 11.2298H4.50375C4.6194 11.2298 4.71301 11.1356 4.71301 11.0194V9.64989C4.71301 9.53373 4.6194 9.43945 4.50375 9.43945ZM4.29449 10.809H3.35114V9.86032H4.29449V10.809Z" fill="#FE5E3A"/>
<path d="M7.68051 9.43945H6.31864C6.20298 9.43945 6.10938 9.53373 6.10938 9.64989V11.0194C6.10938 11.1356 6.20298 11.2298 6.31864 11.2298H7.68051C7.79602 11.2298 7.88977 11.1356 7.88977 11.0194V9.64989C7.88977 9.53373 7.79602 9.43945 7.68051 9.43945ZM7.47125 10.809H6.5279V9.86032H7.47125V10.809Z" fill="#FE5E3A"/>
<path d="M10.7586 9.43945H9.39676C9.28125 9.43945 9.1875 9.53373 9.1875 9.64989V11.0194C9.1875 11.1356 9.28125 11.2298 9.39676 11.2298H10.7586C10.8741 11.2298 10.9679 11.1356 10.9679 11.0194V9.64989C10.9679 9.53373 10.8741 9.43945 10.7586 9.43945ZM10.5494 10.809H9.60602V9.86032H10.5494V10.809Z" fill="#FE5E3A"/>
<path d="M12.4159 2.24488H11.0338C11.032 2.24488 11.0305 2.2453 11.0286 2.24544V1.96514C11.0286 1.50668 10.6578 1.13379 10.2019 1.13379C9.74601 1.13379 9.3752 1.50682 9.3752 1.96514V2.24488H7.81788V1.96514C7.81788 1.50668 7.44706 1.13379 6.99115 1.13379C6.53524 1.13379 6.16443 1.50682 6.16443 1.96514V2.24488H4.60697V1.96514C4.60697 1.50668 4.23616 1.13379 3.78025 1.13379C3.32434 1.13379 2.95353 1.50682 2.95353 1.96514V2.24502C2.95283 2.24502 2.95213 2.24488 2.95144 2.24488H1.56961C1.45396 2.24488 1.36035 2.33901 1.36035 2.45531V13.3622C1.36035 13.4784 1.45396 13.5727 1.56961 13.5727H12.4159C12.5314 13.5727 12.6252 13.4784 12.6252 13.3622V2.45531C12.6252 2.33901 12.5314 2.24488 12.4159 2.24488ZM9.79372 1.96514C9.79372 1.73872 9.97676 1.55466 10.2019 1.55466C10.4271 1.55466 10.6101 1.73872 10.6101 1.96514V3.12632C10.6101 3.3526 10.4271 3.5368 10.2019 3.5368C9.97676 3.5368 9.79372 3.35274 9.79372 3.12632V1.96514ZM6.99115 1.55466C7.21618 1.55466 7.39935 1.73872 7.39935 1.96514V3.12632C7.39935 3.3526 7.21632 3.5368 6.99115 3.5368C6.76599 3.5368 6.58295 3.35274 6.58295 3.12632V2.47495C6.58351 2.46836 6.58491 2.46205 6.58491 2.45517C6.58491 2.4483 6.58351 2.44199 6.58295 2.43539V1.96514C6.58295 1.73872 6.76599 1.55466 6.99115 1.55466ZM3.37205 1.96514C3.37205 1.73872 3.55508 1.55466 3.78025 1.55466C4.00528 1.55466 4.18845 1.73872 4.18845 1.96514V3.12632C4.18845 3.3526 4.00541 3.5368 3.78025 3.5368C3.55508 3.5368 3.37205 3.35274 3.37205 3.12632V1.96514ZM12.2066 13.1518H1.77887V2.66575H2.95144C2.95213 2.66575 2.95283 2.66561 2.95353 2.66561V3.12646C2.95353 3.58492 3.32448 3.95781 3.78025 3.95781C4.23602 3.95781 4.60697 3.58492 4.60697 3.12646V2.66589H6.16443V3.12646C6.16443 3.58492 6.53538 3.95781 6.99115 3.95781C7.44693 3.95781 7.81788 3.58492 7.81788 3.12646V2.66589H9.3752V3.12646C9.3752 3.58492 9.74601 3.95781 10.2019 3.95781C10.6578 3.95781 11.0286 3.58492 11.0286 3.12646V2.66519C11.0305 2.66519 11.032 2.66575 11.0338 2.66575H12.2066V13.1518Z" fill="#FE5E3A"/>
</svg>
