<svg width="16" height="16" viewBox="0 0 16 16" fill="none" xmlns="http://www.w3.org/2000/svg">
<g clip-path="url(#clip0_1349_314)">
<path d="M2.62495 0C3.03745 0 3.44995 0 3.87495 0C3.87495 0.4125 3.87495 0.825 3.87495 1.25C6.59745 1.25 9.31995 1.25 12.125 1.25C12.125 0.8375 12.125 0.425 12.125 0C12.5375 0 12.95 0 13.375 0C13.375 0.4125 13.375 0.825 13.375 1.25C13.7166 1.24509 13.7166 1.24509 14.0583 1.23874C14.6027 1.23201 15.0605 1.39077 15.4599 1.77063C15.8791 2.20064 16.0097 2.66589 16.0083 3.25228C16.0084 3.30042 16.0086 3.34855 16.0087 3.39669C16.0091 3.52859 16.0091 3.6605 16.009 3.79241C16.009 3.93482 16.0094 4.07722 16.0097 4.21963C16.0102 4.49851 16.0104 4.77739 16.0104 5.05627C16.0104 5.28302 16.0105 5.50978 16.0107 5.73653C16.0113 6.37975 16.0116 7.02297 16.0115 7.66619C16.0115 7.71819 16.0115 7.71819 16.0115 7.77123C16.0115 7.80594 16.0115 7.84064 16.0115 7.8764C16.0115 8.4387 16.0121 9.00099 16.013 9.56329C16.0139 10.141 16.0143 10.7187 16.0143 11.2964C16.0142 11.6206 16.0144 11.9448 16.0151 12.269C16.0156 12.545 16.0158 12.8211 16.0154 13.0971C16.0152 13.2379 16.0151 13.3786 16.0157 13.5194C16.0162 13.6484 16.0161 13.7775 16.0156 13.9065C16.0155 13.953 16.0156 13.9995 16.0159 14.046C16.0198 14.5949 15.8608 15.0588 15.4793 15.46C15.1398 15.791 14.7178 16.0075 14.237 16.008C14.215 16.0081 14.193 16.0083 14.1703 16.0084C14.097 16.0087 14.0236 16.0085 13.9502 16.0084C13.8969 16.0085 13.8436 16.0086 13.7903 16.0088C13.6442 16.0092 13.498 16.0092 13.3519 16.0091C13.1941 16.0091 13.0364 16.0094 12.8786 16.0097C12.5697 16.0102 12.2607 16.0104 11.9518 16.0104C11.7006 16.0105 11.4494 16.0106 11.1982 16.0108C10.4858 16.0113 9.77341 16.0116 9.06101 16.0116C9.02262 16.0116 8.98422 16.0116 8.94466 16.0116C8.90622 16.0116 8.86777 16.0116 8.82817 16.0116C8.20524 16.0115 7.58232 16.0121 6.9594 16.013C6.31956 16.0139 5.67972 16.0144 5.03987 16.0143C4.68074 16.0143 4.32161 16.0145 3.96248 16.0151C3.65669 16.0157 3.3509 16.0158 3.04511 16.0154C2.88917 16.0152 2.73324 16.0152 2.57731 16.0157C2.43437 16.0162 2.29144 16.0161 2.1485 16.0156C2.09697 16.0155 2.04545 16.0156 1.99393 16.016C1.42995 16.0195 0.955432 15.8744 0.53999 15.4794C0.120752 15.0494 -0.0097559 14.5841 -0.00840625 13.9977C-0.00852311 13.9496 -0.00866702 13.9014 -0.0088354 13.8533C-0.00921691 13.7214 -0.00920935 13.5895 -0.00913557 13.4576C-0.0091228 13.3152 -0.00946807 13.1728 -0.00976428 13.0304C-0.010283 12.7515 -0.0104552 12.4726 -0.01049 12.1937C-0.0105197 11.967 -0.0106484 11.7402 -0.0108465 11.5135C-0.0113968 10.8702 -0.0116851 10.227 -0.0116383 9.58381C-0.0116358 9.54914 -0.0116332 9.51448 -0.0116306 9.47877C-0.0116281 9.44406 -0.0116256 9.40936 -0.011623 9.3736C-0.0115976 8.8113 -0.0121955 8.24901 -0.0130769 7.68671C-0.0139752 7.10902 -0.0144061 6.53132 -0.0143522 5.95363C-0.0143314 5.62943 -0.0145022 5.30524 -0.0151757 4.98104C-0.0157455 4.70498 -0.0158803 4.42893 -0.0154565 4.15287C-0.0152528 4.01212 -0.0152475 3.87138 -0.015791 3.73064C-0.0162843 3.60157 -0.0161913 3.47252 -0.0156482 3.34346C-0.0155527 3.29699 -0.0156643 3.25051 -0.0160144 3.20404C-0.0198729 2.65512 0.139113 2.19118 0.520581 1.79004C0.846256 1.47252 1.26321 1.24277 1.72718 1.24293C1.76069 1.24341 1.76069 1.24341 1.79487 1.2439C1.81612 1.24396 1.83737 1.24402 1.85926 1.24409C1.93741 1.24441 2.01556 1.24528 2.0937 1.24609C2.26901 1.24738 2.44433 1.24867 2.62495 1.25C2.62495 0.8375 2.62495 0.425 2.62495 0ZM1.4062 2.71875C1.0386 3.19551 1.24995 4.30336 1.24995 4.625C5.70495 4.625 10.16 4.625 14.75 4.625C14.8694 3.66073 14.8694 3.66073 14.5312 2.65625C14.3516 2.5178 14.1634 2.49576 13.9426 2.49695C13.9126 2.49703 13.8826 2.4971 13.8517 2.49718C13.8143 2.49747 13.7768 2.49775 13.7382 2.49805C13.5584 2.49901 13.5584 2.49901 13.375 2.5C13.375 2.9125 13.375 3.325 13.375 3.75C12.9625 3.75 12.55 3.75 12.125 3.75C12.125 3.3375 12.125 2.925 12.125 2.5C9.40245 2.5 6.67995 2.5 3.87495 2.5C3.87495 2.9125 3.87495 3.325 3.87495 3.75C3.46245 3.75 3.04995 3.75 2.62495 3.75C2.62495 3.3375 2.62495 2.925 2.62495 2.5C2.50636 2.49871 2.38776 2.49742 2.26558 2.49609C2.2287 2.49552 2.19182 2.49496 2.15382 2.49437C1.86957 2.49288 1.61947 2.51306 1.4062 2.71875ZM1.24995 5.875C1.24866 7.23109 1.24737 8.58719 1.24604 9.98438C1.24548 10.4128 1.24491 10.8412 1.24432 11.2827C1.24411 11.6662 1.24411 11.6662 1.24399 12.0497C1.24393 12.2207 1.2437 12.3918 1.24335 12.5628C1.24295 12.7601 1.24277 12.9574 1.24286 13.1546C1.2429 13.2555 1.2428 13.3564 1.2425 13.4573C1.24219 13.5655 1.24226 13.6736 1.24243 13.7817C1.24225 13.8131 1.24207 13.8445 1.24188 13.8768C1.24304 14.1481 1.27329 14.3911 1.4687 14.5938C1.65834 14.74 1.85647 14.7539 2.08864 14.754C2.10946 14.7541 2.13028 14.7541 2.15174 14.7542C2.22145 14.7543 2.29116 14.7543 2.36087 14.7542C2.41139 14.7542 2.4619 14.7543 2.51241 14.7544C2.65117 14.7546 2.78994 14.7546 2.9287 14.7545C3.07837 14.7545 3.22804 14.7547 3.37771 14.7549C3.67092 14.7551 3.96412 14.7552 4.25733 14.7552C4.49563 14.7552 4.73393 14.7553 4.97224 14.7554C5.64775 14.7557 6.32326 14.7558 6.99877 14.7558C7.0534 14.7558 7.0534 14.7558 7.10913 14.7558C7.14559 14.7558 7.18205 14.7558 7.21962 14.7558C7.81073 14.7558 8.40183 14.7561 8.99293 14.7565C9.59975 14.757 10.2066 14.7572 10.8134 14.7572C11.1541 14.7571 11.4949 14.7572 11.8356 14.7576C12.1257 14.7578 12.4157 14.7579 12.7058 14.7577C12.8538 14.7576 13.0018 14.7576 13.1498 14.7579C13.2853 14.7581 13.4208 14.7581 13.5564 14.7578C13.6054 14.7578 13.6544 14.7578 13.7033 14.758C14.1871 14.7655 14.1871 14.7656 14.5937 14.5312C14.7667 14.3069 14.7545 14.0587 14.7537 13.7893C14.7537 13.7555 14.7538 13.7217 14.7538 13.6869C14.7538 13.5734 14.7537 13.4599 14.7535 13.3464C14.7535 13.2638 14.7535 13.1811 14.7535 13.0985C14.7535 12.8996 14.7534 12.7006 14.7532 12.5016C14.753 12.2715 14.7529 12.0413 14.7529 11.8111C14.7527 11.2035 14.7523 10.5959 14.7519 9.98828C14.7513 8.6309 14.7506 7.27352 14.75 5.875C10.295 5.875 5.83995 5.875 1.24995 5.875Z" fill="#666666"/>
<path d="M9.875 12.1875C10.2875 12.1875 10.7 12.1875 11.125 12.1875C11.125 12.6 11.125 13.0125 11.125 13.4375C10.7125 13.4375 10.3 13.4375 9.875 13.4375C9.875 13.025 9.875 12.6125 9.875 12.1875Z" fill="#666666"/>
<path d="M7.375 12.1875C7.7875 12.1875 8.2 12.1875 8.625 12.1875C8.625 12.6 8.625 13.0125 8.625 13.4375C8.2125 13.4375 7.8 13.4375 7.375 13.4375C7.375 13.025 7.375 12.6125 7.375 12.1875Z" fill="#666666"/>
<path d="M4.875 12.1875C5.2875 12.1875 5.7 12.1875 6.125 12.1875C6.125 12.6 6.125 13.0125 6.125 13.4375C5.7125 13.4375 5.3 13.4375 4.875 13.4375C4.875 13.025 4.875 12.6125 4.875 12.1875Z" fill="#666666"/>
<path d="M2.375 12.1875C2.7875 12.1875 3.2 12.1875 3.625 12.1875C3.625 12.6 3.625 13.0125 3.625 13.4375C3.2125 13.4375 2.8 13.4375 2.375 13.4375C2.375 13.025 2.375 12.6125 2.375 12.1875Z" fill="#666666"/>
<path d="M12.375 9.6875C12.7875 9.6875 13.2 9.6875 13.625 9.6875C13.625 10.1 13.625 10.5125 13.625 10.9375C13.2125 10.9375 12.8 10.9375 12.375 10.9375C12.375 10.525 12.375 10.1125 12.375 9.6875Z" fill="#666666"/>
<path d="M9.875 9.6875C10.2875 9.6875 10.7 9.6875 11.125 9.6875C11.125 10.1 11.125 10.5125 11.125 10.9375C10.7125 10.9375 10.3 10.9375 9.875 10.9375C9.875 10.525 9.875 10.1125 9.875 9.6875Z" fill="#666666"/>
<path d="M7.375 9.6875C7.7875 9.6875 8.2 9.6875 8.625 9.6875C8.625 10.1 8.625 10.5125 8.625 10.9375C8.2125 10.9375 7.8 10.9375 7.375 10.9375C7.375 10.525 7.375 10.1125 7.375 9.6875Z" fill="#666666"/>
<path d="M4.875 9.6875C5.2875 9.6875 5.7 9.6875 6.125 9.6875C6.125 10.1 6.125 10.5125 6.125 10.9375C5.7125 10.9375 5.3 10.9375 4.875 10.9375C4.875 10.525 4.875 10.1125 4.875 9.6875Z" fill="#666666"/>
<path d="M2.375 9.6875C2.7875 9.6875 3.2 9.6875 3.625 9.6875C3.625 10.1 3.625 10.5125 3.625 10.9375C3.2125 10.9375 2.8 10.9375 2.375 10.9375C2.375 10.525 2.375 10.1125 2.375 9.6875Z" fill="#666666"/>
<path d="M12.375 7.1875C12.7875 7.1875 13.2 7.1875 13.625 7.1875C13.625 7.6 13.625 8.0125 13.625 8.4375C13.2125 8.4375 12.8 8.4375 12.375 8.4375C12.375 8.025 12.375 7.6125 12.375 7.1875Z" fill="#666666"/>
<path d="M9.875 7.1875C10.2875 7.1875 10.7 7.1875 11.125 7.1875C11.125 7.6 11.125 8.0125 11.125 8.4375C10.7125 8.4375 10.3 8.4375 9.875 8.4375C9.875 8.025 9.875 7.6125 9.875 7.1875Z" fill="#666666"/>
<path d="M7.375 7.1875C7.7875 7.1875 8.2 7.1875 8.625 7.1875C8.625 7.6 8.625 8.0125 8.625 8.4375C8.2125 8.4375 7.8 8.4375 7.375 8.4375C7.375 8.025 7.375 7.6125 7.375 7.1875Z" fill="#666666"/>
<path d="M4.875 7.1875C5.2875 7.1875 5.7 7.1875 6.125 7.1875C6.125 7.6 6.125 8.0125 6.125 8.4375C5.7125 8.4375 5.3 8.4375 4.875 8.4375C4.875 8.025 4.875 7.6125 4.875 7.1875Z" fill="#666666"/>
<path d="M2.375 7.1875C2.7875 7.1875 3.2 7.1875 3.625 7.1875C3.625 7.6 3.625 8.0125 3.625 8.4375C3.2125 8.4375 2.8 8.4375 2.375 8.4375C2.375 8.025 2.375 7.6125 2.375 7.1875Z" fill="#666666"/>
</g>
<defs>
<clipPath id="clip0_1349_314">
<rect width="16" height="16" fill="white"/>
</clipPath>
</defs>
</svg>
