<svg width="24" height="24" viewBox="0 0 24 24" fill="none" xmlns="http://www.w3.org/2000/svg">
<path d="M12.4 10.1999C8.87077 10.1999 6 13.0711 6 16.5999C6 20.1291 8.87081 22.9999 12.4 22.9999C15.9288 22.9999 18.8 20.129 18.8 16.5999C18.8 13.0711 15.9288 10.1999 12.4 10.1999ZM10.8924 11.2119C10.316 11.9071 9.85561 12.6399 9.51759 13.3999H7.81083C8.5448 12.3503 9.62883 11.5663 10.8924 11.2119ZM7.34798 14.1999H9.21037C8.99798 14.8527 8.87119 15.5211 8.83598 16.1999H6.81998C6.8708 15.4883 7.05483 14.8143 7.34798 14.1999ZM6.81998 16.9999H8.83519C8.87077 17.6775 8.99878 18.3463 9.21277 18.9999H7.34798C7.05483 18.3859 6.8708 17.7119 6.81998 16.9999ZM7.81083 19.7999H9.52205C9.86044 20.5587 10.3216 21.2919 10.8984 21.9895C9.63202 21.6363 8.54602 20.8511 7.81083 19.7999ZM12 22.0171C11.3348 21.3155 10.804 20.5727 10.4156 19.7999H12V22.0171ZM12 18.9999H10.066C9.82556 18.3467 9.68719 17.6775 9.64678 16.9999H12V18.9999ZM12 16.1999H9.64678C9.68677 15.5211 9.82317 14.8519 10.0616 14.1999H12V16.1999ZM12 13.3999H10.41C10.7988 12.6239 11.332 11.8803 12 11.1811V13.3999ZM12.8 11.1551C13.4796 11.8619 14.0208 12.6143 14.4144 13.3999H12.8V11.1551ZM12.8 14.1999H14.7628C15.0012 14.8519 15.1376 15.5211 15.1776 16.1999H12.8V14.1999ZM12.8 16.9999H15.1776C15.1372 17.6775 14.9988 18.3467 14.7584 18.9999H12.8V16.9999ZM12.8 19.7999H14.4088C14.0156 20.5823 13.4764 21.3339 12.8 22.0431V19.7999ZM13.9328 21.9815C14.5064 21.2859 14.9652 20.5559 15.3024 19.7999H16.9888C16.2596 20.8427 15.1856 21.6239 13.9328 21.9815ZM17.452 18.9999H15.6116C15.8256 18.3463 15.9536 17.6775 15.9892 16.9999H17.9796C17.9288 17.7119 17.7448 18.3859 17.452 18.9999ZM17.9796 16.1999H15.9884C15.9532 15.5211 15.8264 14.8527 15.614 14.1999H17.452C17.7448 14.8143 17.9288 15.4883 17.9796 16.1999ZM15.3068 13.3999C14.97 12.6431 14.512 11.9131 13.9388 11.2203C15.1892 11.5783 16.2608 12.3591 16.9888 13.3999H15.3068Z" fill="#FE5E3A"/>
<path d="M21.9184 8.20006H20.0016C19.9908 8.20006 19.982 8.19486 19.9716 8.19406C19.962 8.19326 19.9528 8.19725 19.9428 8.19566C19.9328 8.19444 18.9732 8.05808 18.06 8.19523C18.0397 8.19842 18.0193 8.20001 17.9996 8.20001C17.8048 8.20001 17.6348 8.05841 17.6044 7.86003C17.5712 7.64164 17.7212 7.43801 17.9396 7.40483C18.8936 7.26003 19.8488 7.37562 20.0288 7.40004H20.3816C20.132 3.83684 17.1852 1.00006 13.634 1.00006C11.4652 1.00006 9.36483 2.06248 8.06123 3.79564L8.21203 3.88925C9.31083 4.52483 10 5.71967 10 7.00006C10 7.22126 9.82083 7.40004 9.60005 7.40004C9.37884 7.40004 9.20006 7.22126 9.20006 7.00006C9.20006 6.00406 8.66367 5.07528 7.80084 4.57484L5.95641 3.43048C4.17998 3.65009 2.79998 5.16528 2.79998 7.00006C2.79998 7.05087 2.8028 7.10084 2.80598 7.15086V7.15245C1.14281 8.05967 0 9.95965 0 11.8617C0 14.6949 2.30442 17 5.13759 17H5.22C5.21278 16.8668 5.19998 16.7352 5.19998 16.6001C5.19998 12.6301 8.43 9.40006 12.4 9.40006C16.3696 9.40006 19.6 12.6301 19.6 16.6001C19.6 16.7285 19.5872 16.8537 19.5804 16.9801C22.0504 16.7796 24 14.7097 24 12.1888C24 10.58 23.176 9.09486 21.9184 8.20006Z" fill="#FE5E3A"/>
</svg>
