<svg width="16" height="16" viewBox="0 0 16 16" fill="none" xmlns="http://www.w3.org/2000/svg">
<g clip-path="url(#clip0_709_557)">
<path fill-rule="evenodd" clip-rule="evenodd" d="M1.25 5.75C1.25 3.127 3.6265 1 6.75 1C9.2365 1 11.75 3.127 11.75 5.75C11.75 8.3735 9.7875 10.5 6.75 10.5C6.3035 10.5 5.372 10.449 4.9565 10.3625L3.25 11.5V9.728C2.0305 8.7385 1.25 7.417 1.25 5.75ZM5.0685 11.368C5.457 11.4315 6.3405 11.5 6.75 11.5C10.34 11.5 12.75 8.8285 12.75 5.6875C12.75 2.5465 9.7385 0 6.75 0C3.1555 0 0.25 2.5465 0.25 5.6875C0.25 7.5075 0.9435 9.052 2.25 10.1645V13L5.0685 11.368ZM13.7245 4.5695C13.734 4.7125 13.75 4.8545 13.75 5C13.75 5.318 13.719 5.6295 13.6745 5.937C14.3475 6.725 14.75 7.696 14.75 8.75C14.75 10.417 13.754 11.8805 12.25 12.728V14.5L10.5435 13.3625C10.128 13.449 9.6965 13.5 9.25 13.5C7.955 13.5 7.267 13.111 6.327 12.4645C6.0545 12.4865 5.7795 12.5 5.5 12.5C5.301 12.5 5.106 12.486 4.91 12.4745C6.1005 13.638 7.3245 14.375 9.25 14.375C9.6595 14.375 10.059 14.338 10.4475 14.2745L13.25 16V13.1645C14.77 12.123 15.75 10.5075 15.75 8.6875C15.75 7.0655 14.9695 5.6055 13.7245 4.5695ZM9.5 6.5C9.9145 6.5 10.25 6.1645 10.25 5.75C10.25 5.336 9.9145 5 9.5 5C9.0855 5 8.75 5.336 8.75 5.75C8.75 6.1645 9.0855 6.5 9.5 6.5ZM3.5 6.5C3.9145 6.5 4.25 6.1645 4.25 5.75C4.25 5.336 3.9145 5 3.5 5C3.0855 5 2.75 5.336 2.75 5.75C2.75 6.1645 3.0855 6.5 3.5 6.5ZM6.5 6.5C6.9145 6.5 7.25 6.1645 7.25 5.75C7.25 5.336 6.9145 5 6.5 5C6.0855 5 5.75 5.336 5.75 5.75C5.75 6.1645 6.0855 6.5 6.5 6.5Z" fill="#666666"/>
</g>
<defs>
<clipPath id="clip0_709_557">
<rect width="16" height="16" fill="white"/>
</clipPath>
</defs>
</svg>
