<svg width="16" height="16" viewBox="0 0 16 16" fill="none" xmlns="http://www.w3.org/2000/svg">
<g clip-path="url(#clip0_1349_351)">
<path d="M2.59554 0.484152C2.64433 0.484007 2.69313 0.483809 2.74192 0.483561C2.87464 0.483044 3.00735 0.483295 3.14007 0.483684C3.28373 0.483969 3.4274 0.48353 3.57106 0.483187C3.85196 0.482633 4.13285 0.48275 4.41375 0.483113C4.64216 0.483396 4.87058 0.483434 5.09899 0.483298C5.13158 0.483279 5.16416 0.483259 5.19774 0.48324C5.26395 0.4832 5.33015 0.483159 5.39636 0.483118C6.01631 0.482762 6.63626 0.483171 7.25621 0.483843C7.78744 0.484402 8.31868 0.484305 8.84992 0.483728C9.46774 0.483059 10.0856 0.482797 10.7034 0.48318C10.7693 0.48322 10.8353 0.483259 10.9013 0.483298C10.9499 0.483327 10.9499 0.483327 10.9996 0.483356C11.2276 0.483464 11.4555 0.483283 11.6835 0.482988C11.9616 0.482636 12.2396 0.482734 12.5177 0.483398C12.6594 0.483725 12.8011 0.483857 12.9428 0.483442C13.0728 0.483066 13.2028 0.483279 13.3328 0.483939C13.3795 0.484077 13.4263 0.484011 13.473 0.483705C13.8842 0.481222 14.2703 0.548826 14.6368 0.744165C14.6576 0.754893 14.6784 0.765621 14.6998 0.776674C14.8668 0.865255 15.0139 0.969479 15.1564 1.09377C15.1866 1.1179 15.2169 1.14203 15.248 1.16689C15.5415 1.41183 15.7495 1.76751 15.8751 2.12502C15.8855 2.15433 15.896 2.18364 15.9067 2.21383C16.0242 2.59228 16.0178 2.96333 16.0163 3.35671C16.0165 3.43299 16.0167 3.50927 16.017 3.58555C16.0175 3.77019 16.0174 3.95483 16.017 4.13948C16.0168 4.28971 16.0167 4.43994 16.0168 4.59017C16.0169 4.61165 16.0169 4.63314 16.0169 4.65527C16.0169 4.69893 16.017 4.74259 16.017 4.78625C16.0174 5.19446 16.017 5.60266 16.0163 6.01087C16.0157 6.36018 16.0158 6.70949 16.0164 7.0588C16.0171 7.46567 16.0174 7.87254 16.017 8.27942C16.0169 8.3229 16.0169 8.36639 16.0168 8.40988C16.0168 8.43127 16.0168 8.45266 16.0168 8.4747C16.0167 8.62453 16.0169 8.77437 16.0172 8.9242C16.0175 9.12632 16.0173 9.32844 16.0165 9.53057C16.0164 9.60445 16.0164 9.67833 16.0167 9.75221C16.0184 10.2473 15.9937 10.6906 15.756 11.1367C15.7453 11.1575 15.7346 11.1783 15.7235 11.1996C15.635 11.3667 15.5301 11.5134 15.4064 11.6563C15.3877 11.681 15.3691 11.7058 15.3499 11.7313C15.0986 12.0292 14.7407 12.248 14.3751 12.375C14.346 12.3855 14.3169 12.3959 14.287 12.4067C13.9034 12.5268 13.5263 12.5153 13.1276 12.5111C13.0496 12.5108 12.9717 12.5105 12.8937 12.5103C12.7266 12.5097 12.5596 12.5088 12.3925 12.5076C12.1281 12.5057 11.8637 12.5051 11.5993 12.5048C11.5086 12.5046 11.4179 12.5045 11.3271 12.5043C11.3045 12.5043 11.2818 12.5042 11.2584 12.5042C11.0013 12.5038 10.7441 12.503 10.487 12.5022C10.4635 12.5021 10.4401 12.5021 10.4159 12.502C10.0351 12.5007 9.6544 12.4985 9.27367 12.496C8.88168 12.4935 8.4897 12.4925 8.0977 12.4927C7.85645 12.4927 7.61527 12.4916 7.37404 12.4889C7.18914 12.487 7.00426 12.4871 6.81935 12.4878C6.74376 12.4878 6.66818 12.4872 6.5926 12.4858C6.14226 12.4648 6.14226 12.4648 5.75722 12.6623C5.68487 12.7395 5.62394 12.8199 5.56262 12.9063C5.52595 12.949 5.48896 12.9914 5.45129 13.0332C5.43482 13.0526 5.41834 13.072 5.40137 13.0919C5.31392 13.1898 5.21988 13.2809 5.12651 13.373C5.04509 13.4538 4.96698 13.5357 4.8927 13.6231C4.78334 13.7514 4.66388 13.8684 4.54402 13.9868C4.43917 14.0908 4.34084 14.1981 4.24512 14.3107C4.15772 14.4085 4.06372 14.4996 3.9704 14.5916C3.88764 14.6737 3.80826 14.7571 3.73254 14.8457C3.32044 15.3265 3.32044 15.3265 3.10681 15.3543C2.91905 15.3569 2.80191 15.3501 2.65637 15.2188C2.51751 15.0611 2.49558 14.9689 2.49658 14.7634C2.49657 14.739 2.49657 14.7147 2.49656 14.6895C2.49658 14.6087 2.49683 14.5279 2.49707 14.447C2.49713 14.3911 2.49717 14.3351 2.49721 14.2792C2.49732 14.1317 2.49763 13.9843 2.49798 13.8368C2.4983 13.6864 2.49844 13.536 2.4986 13.3856C2.49893 13.0904 2.49947 12.7952 2.50012 12.5C2.47224 12.5002 2.44436 12.5005 2.41564 12.5007C2.37906 12.5008 2.34248 12.501 2.30479 12.5012C2.26853 12.5014 2.23227 12.5016 2.19491 12.5018C1.70832 12.4931 1.20335 12.2199 0.843873 11.9063C0.81362 11.8821 0.783367 11.858 0.752198 11.8332C0.458776 11.5882 0.250705 11.2325 0.125123 10.875C0.114706 10.8457 0.104288 10.8164 0.0935555 10.7862C-0.0239338 10.4078 -0.0175281 10.0367 -0.0160515 9.64334C-0.0162212 9.56706 -0.0164439 9.49078 -0.0167153 9.4145C-0.0172235 9.22986 -0.0171527 9.04522 -0.0167887 8.86057C-0.016505 8.71034 -0.0164687 8.56011 -0.0166042 8.40988C-0.0166233 8.3884 -0.0166424 8.36691 -0.0166621 8.34478C-0.0167021 8.30112 -0.0167426 8.25746 -0.0167837 8.2138C-0.0171391 7.80559 -0.016732 7.39738 -0.0160587 6.98918C-0.0155003 6.63987 -0.0155974 6.29056 -0.0161736 5.94125C-0.0168444 5.53438 -0.0171048 5.12751 -0.016722 4.72063C-0.0166821 4.67715 -0.016643 4.63366 -0.0166042 4.59017C-0.0165849 4.56878 -0.0165656 4.54739 -0.0165458 4.52535C-0.0164384 4.37552 -0.0166188 4.22568 -0.0169141 4.07585C-0.0173039 3.87372 -0.0170215 3.67161 -0.0163023 3.46948C-0.016138 3.3956 -0.0161829 3.32172 -0.0164602 3.24784C-0.0181461 2.75276 0.00653078 2.30939 0.244263 1.86331C0.254991 1.84253 0.265719 1.82174 0.276772 1.80033C0.365353 1.63336 0.469577 1.48623 0.593873 1.34377C0.630067 1.2984 0.630067 1.2984 0.666993 1.2521C1.13738 0.68859 1.89054 0.479536 2.59554 0.484152ZM1.36731 2.04104C1.05389 2.40753 0.995083 2.83152 0.995944 3.29686C0.995873 3.3254 0.995803 3.35394 0.99573 3.38334C0.995533 3.47826 0.995557 3.57317 0.995583 3.66809C0.99549 3.73643 0.995383 3.80478 0.995265 3.87313C0.99499 4.05831 0.994916 4.24349 0.994896 4.42867C0.994874 4.5445 0.994807 4.66033 0.994724 4.77616C0.99445 5.15981 0.994305 5.54345 0.994328 5.92709C0.994329 5.94774 0.994331 5.96838 0.994332 5.98965C0.994333 6.01032 0.994335 6.03099 0.994336 6.05228C0.994348 6.36622 0.994104 6.68016 0.993691 6.9941C0.993212 7.35941 0.992949 7.72471 0.992971 8.09001C0.992979 8.28311 0.992891 8.4762 0.99256 8.6693C0.992256 8.851 0.992255 9.0327 0.992482 9.21441C0.992514 9.28086 0.992442 9.34731 0.992252 9.41375C0.990561 10.0474 1.00738 10.5892 1.47205 11.0677C1.81569 11.3919 2.20972 11.4944 2.67139 11.5055C2.70065 11.5063 2.72992 11.507 2.76007 11.5078C2.8202 11.5091 2.88035 11.5101 2.94049 11.5107C3.12559 11.5162 3.2337 11.5337 3.37512 11.6563C3.47919 11.7998 3.50352 11.9235 3.50654 12.098C3.50716 12.1299 3.50779 12.1618 3.50843 12.1947C3.50895 12.2289 3.50947 12.2631 3.51001 12.2984C3.51066 12.3336 3.51131 12.3688 3.51198 12.405C3.51402 12.5174 3.51586 12.6298 3.5177 12.7422C3.51905 12.8184 3.52041 12.8946 3.52179 12.9708C3.52514 13.1577 3.52832 13.3445 3.53137 13.5313C3.55502 13.5076 3.57868 13.4839 3.60304 13.4595C3.6655 13.3971 3.72808 13.3349 3.79089 13.2729C3.96172 13.1035 4.13111 12.9355 4.2865 12.7517C4.38017 12.6469 4.48126 12.5495 4.58125 12.4508C4.68598 12.3468 4.7842 12.2396 4.87988 12.1272C5.00698 11.9848 5.14555 11.8528 5.28137 11.7188C5.30868 11.6902 5.336 11.6617 5.36414 11.6322C5.46259 11.5388 5.53576 11.5274 5.66622 11.5271C5.69392 11.527 5.72161 11.5269 5.75015 11.5267C5.7806 11.5267 5.81106 11.5267 5.84244 11.5268C5.87477 11.5266 5.90711 11.5265 5.94042 11.5264C6.04931 11.5261 6.15819 11.526 6.26708 11.5259C6.34494 11.5257 6.4228 11.5254 6.50067 11.5252C6.66866 11.5248 6.83665 11.5244 7.00465 11.5241C7.24798 11.5237 7.49132 11.523 7.73465 11.5223C8.13002 11.5211 8.52538 11.52 8.92075 11.519C8.95625 11.5189 8.95625 11.5189 8.99248 11.5188C9.32784 11.518 9.6632 11.5172 9.99856 11.5165C10.0221 11.5165 10.0457 11.5164 10.07 11.5164C10.1053 11.5163 10.1053 11.5163 10.1414 11.5162C10.5349 11.5154 10.9284 11.5143 11.3219 11.513C11.5643 11.5123 11.8068 11.5117 12.0493 11.5114C12.2356 11.5111 12.4218 11.5105 12.608 11.5098C12.6841 11.5096 12.7602 11.5095 12.8364 11.5095C13.782 11.5113 13.782 11.5113 14.5677 11.0281C14.9269 10.6474 15.0052 10.2087 15.0043 9.70319C15.0044 9.67465 15.0044 9.64611 15.0045 9.61671C15.0047 9.52179 15.0047 9.42688 15.0047 9.33196C15.0048 9.26362 15.0049 9.19527 15.005 9.12692C15.0053 8.94174 15.0053 8.75656 15.0054 8.57138C15.0054 8.45555 15.0054 8.33972 15.0055 8.22389C15.0058 7.84024 15.0059 7.4566 15.0059 7.07296C15.0059 7.05231 15.0059 7.03167 15.0059 7.0104C15.0059 6.98973 15.0059 6.96906 15.0059 6.94777C15.0059 6.63383 15.0061 6.31989 15.0066 6.00595C15.007 5.64064 15.0073 5.27534 15.0073 4.91004C15.0073 4.71694 15.0074 4.52385 15.0077 4.33075C15.008 4.14905 15.008 3.96734 15.0078 3.78564C15.0077 3.71919 15.0078 3.65274 15.008 3.58629C15.0097 2.95269 14.9929 2.41089 14.5282 1.9324C14.0948 1.52354 13.6154 1.49515 13.0477 1.49585C13.0023 1.49579 12.957 1.49572 12.9116 1.49563C12.7877 1.49544 12.6638 1.49544 12.5398 1.49548C12.4059 1.49549 12.272 1.49532 12.138 1.49517C11.8759 1.49491 11.6138 1.49482 11.3517 1.4948C11.1386 1.49479 10.9254 1.49473 10.7123 1.49463C10.1075 1.49435 9.50267 1.49421 8.89786 1.49423C8.86529 1.49423 8.83272 1.49423 8.79916 1.49423C8.76654 1.49424 8.73393 1.49424 8.70033 1.49424C8.17178 1.49425 7.64324 1.49395 7.11469 1.49351C6.57146 1.49306 6.02823 1.49285 5.485 1.49287C5.18023 1.49288 4.87545 1.4928 4.57068 1.49246C4.31121 1.49218 4.05174 1.49211 3.79227 1.49232C3.66 1.49242 3.52774 1.49243 3.39547 1.49215C3.27416 1.49191 3.15286 1.49195 3.03155 1.49223C2.9879 1.49227 2.94424 1.49222 2.90058 1.49204C2.28047 1.48972 1.80323 1.579 1.36731 2.04104Z" fill="#666666"/>
<path d="M11.4964 5.58569C11.7572 5.74119 11.9194 5.95643 11.9998 6.25C12.031 6.59687 12.0108 6.89795 11.7889 7.18164C11.6121 7.37094 11.3919 7.48722 11.1331 7.5105C10.7979 7.51804 10.5215 7.47892 10.2664 7.24072C10.0354 6.98374 9.98166 6.71142 9.99008 6.37463C10.0049 6.11258 10.1178 5.89366 10.3123 5.71875C10.6479 5.46639 11.1113 5.40088 11.4964 5.58569Z" fill="#666666"/>
<path d="M8.49643 5.58569C8.7572 5.74119 8.91936 5.95643 8.99985 6.25C9.03105 6.59687 9.01077 6.89795 8.78891 7.18164C8.61211 7.37094 8.3919 7.48722 8.13315 7.5105C7.79785 7.51804 7.52149 7.47892 7.26645 7.24072C7.0354 6.98374 6.98166 6.71142 6.99008 6.37463C7.0049 6.11258 7.11781 5.89366 7.31235 5.71875C7.64793 5.46639 8.1113 5.40088 8.49643 5.58569Z" fill="#666666"/>
<path d="M5.49643 5.58569C5.7572 5.74119 5.91936 5.95643 5.99985 6.25C6.03105 6.59687 6.01077 6.89795 5.78891 7.18164C5.61211 7.37094 5.3919 7.48722 5.13315 7.5105C4.79785 7.51804 4.52149 7.47892 4.26645 7.24072C4.0354 6.98374 3.98166 6.71142 3.99008 6.37463C4.0049 6.11258 4.11781 5.89366 4.31235 5.71875C4.64793 5.46639 5.1113 5.40088 5.49643 5.58569Z" fill="#666666"/>
</g>
<defs>
<clipPath id="clip0_1349_351">
<rect width="16" height="16" fill="white"/>
</clipPath>
</defs>
</svg>
