<svg width="32" height="32" viewBox="0 0 32 32" fill="none" xmlns="http://www.w3.org/2000/svg">
<g clip-path="url(#clip0_811_18)">
<path d="M21.5201 25.2535C21.1086 24.842 7.28639 11.0195 6.74589 10.4789C6.33783 10.0708 5.67664 10.0708 5.26858 10.4789C4.86052 10.8866 4.86052 11.5484 5.26858 11.9562L6.2802 12.9679L0.0596426 30.6066C-0.0743574 30.9861 0.0215176 31.4085 0.306205 31.6928C0.592455 31.9791 1.01577 32.0725 1.39245 31.9394L19.0308 25.7188L20.0429 26.7308C20.451 27.1389 21.1121 27.139 21.5202 26.7308C21.9282 26.3231 21.9282 25.6613 21.5201 25.2535ZM8.65495 27.1625L4.83652 23.3445L5.99227 20.0676L11.9318 26.0068L8.65495 27.1625Z" fill="white"/>
<path d="M24.0427 7.95693C23.6346 7.54886 22.9734 7.54886 22.5654 7.95693L16.0434 14.4786C15.6353 14.8863 15.6353 15.5479 16.0434 15.9559C16.4514 16.364 17.1125 16.3641 17.5207 15.9559L24.0427 9.43424C24.4507 9.02655 24.4507 8.36499 24.0427 7.95693Z" fill="white"/>
<path d="M22.9555 17.5601H19.3045C18.7277 17.5601 18.2598 18.0277 18.2598 18.6047C18.2598 19.1819 18.7277 19.6494 19.3045 19.6494H22.9555C23.5323 19.6494 24.0002 19.1818 24.0002 18.6047C24.0002 18.0276 23.5323 17.5601 22.9555 17.5601Z" fill="white"/>
<path d="M13.3943 7.99902C12.8175 7.99902 12.3496 8.46659 12.3496 9.04371V12.6951C12.3496 13.2723 12.8175 13.7398 13.3943 13.7398C13.971 13.7398 14.439 13.2722 14.439 12.6951V9.04371C14.439 8.46665 13.971 7.99902 13.3943 7.99902Z" fill="white"/>
<path d="M31.0814 16.3888C29.8578 15.1645 27.8744 15.1636 26.6495 16.3884C25.425 17.6121 25.4232 19.5961 26.6495 20.821C27.8732 22.0454 29.8568 22.0463 31.0814 20.821C32.3058 19.5973 32.3077 17.6136 31.0814 16.3888ZM29.6042 19.3433C29.6042 19.3437 29.6042 19.3437 29.6042 19.3437C28.9803 19.9676 27.8209 19.5606 27.8209 18.6048C27.8209 18.032 28.2838 17.5604 28.8656 17.5604C29.7992 17.5603 30.2564 18.6911 29.6042 19.3433Z" fill="white"/>
<path d="M15.6105 0.917016C14.389 -0.304484 12.4002 -0.304484 11.1773 0.917703C9.95641 2.13958 9.95641 4.1277 11.178 5.34958C12.3993 6.5717 14.389 6.57139 15.6105 5.34995V5.34958C16.8352 4.12639 16.8364 2.14295 15.6105 0.917016ZM14.1332 3.87202V3.87239C13.7258 4.27945 13.064 4.28008 12.6552 3.87239C12.2485 3.46495 12.2485 2.80214 12.6552 2.39508C13.0628 1.98814 13.7239 1.98683 14.1332 2.3947C14.5424 2.80464 14.5409 3.46433 14.1332 3.87202Z" fill="white"/>
<path d="M26.6912 13.7393C27.2681 13.7393 27.7359 13.2716 27.7359 12.6946C27.7359 12.1176 27.2681 11.6499 26.6912 11.6499C26.1142 11.6499 25.6465 12.1176 25.6465 12.6946C25.6465 13.2716 26.1142 13.7393 26.6912 13.7393Z" fill="white"/>
<path d="M19.3045 6.35256C19.8814 6.35256 20.3491 5.88484 20.3491 5.30787C20.3491 4.73091 19.8814 4.26318 19.3045 4.26318C18.7275 4.26318 18.2598 4.73091 18.2598 5.30787C18.2598 5.88484 18.7275 6.35256 19.3045 6.35256Z" fill="white"/>
<path d="M26.6912 25.5591C27.2681 25.5591 27.7359 25.0914 27.7359 24.5144C27.7359 23.9374 27.2681 23.4697 26.6912 23.4697C26.1142 23.4697 25.6465 23.9374 25.6465 24.5144C25.6465 25.0914 26.1142 25.5591 26.6912 25.5591Z" fill="white"/>
<path d="M7.48414 6.35256C8.06111 6.35256 8.52883 5.88484 8.52883 5.30787C8.52883 4.73091 8.06111 4.26318 7.48414 4.26318C6.90718 4.26318 6.43945 4.73091 6.43945 5.30787C6.43945 5.88484 6.90718 6.35256 7.48414 6.35256Z" fill="white"/>
<path d="M27.7361 0.0839844C27.1593 0.0839844 26.6914 0.551609 26.6914 1.12867V2.17336C26.6914 2.75048 27.1593 3.21805 27.7361 3.21805C28.3128 3.21805 28.7808 2.75042 28.7808 2.17336V1.12873C28.7808 0.551609 28.3128 0.0839844 27.7361 0.0839844Z" fill="white"/>
<path d="M27.7361 5.30762C27.1593 5.30762 26.6914 5.77524 26.6914 6.3523V7.39699C26.6914 7.97412 27.1593 8.44168 27.7361 8.44168C28.3128 8.44168 28.7808 7.97405 28.7808 7.39699V6.3523C28.7808 5.77524 28.3128 5.30762 27.7361 5.30762Z" fill="white"/>
<path d="M25.647 3.21826H24.6023C24.0256 3.21826 23.5576 3.68589 23.5576 4.26295C23.5576 4.84001 24.0256 5.30764 24.6023 5.30764H25.647C26.2237 5.30764 26.6917 4.84001 26.6917 4.26295C26.6917 3.68589 26.2237 3.21826 25.647 3.21826Z" fill="white"/>
<path d="M30.8706 3.21826H29.8259C29.2492 3.21826 28.7812 3.68589 28.7812 4.26295C28.7812 4.84001 29.2492 5.30764 29.8259 5.30764H30.8706C31.4474 5.30764 31.9153 4.84001 31.9153 4.26295C31.9153 3.68589 31.4474 3.21826 30.8706 3.21826Z" fill="white"/>
</g>
<defs>
<clipPath id="clip0_811_18">
<rect width="32" height="32" fill="white"/>
</clipPath>
</defs>
</svg>
