<svg width="52" height="52" viewBox="0 0 52 52" fill="none" xmlns="http://www.w3.org/2000/svg">
<g clip-path="url(#clip0_1349_230)">
<path d="M16.162 0.0659621C17.0063 0.508952 17.4298 1.37425 17.8369 2.19005C17.9441 2.40014 18.0515 2.61014 18.1591 2.82005C18.2132 2.92603 18.2674 3.03201 18.3231 3.1412C18.5682 3.61543 18.824 4.08358 19.0811 4.55137C19.5454 5.39822 20.0066 6.24667 20.4649 7.09679C20.5544 7.26249 20.5544 7.26249 20.6457 7.43155C20.7023 7.53657 20.7589 7.64159 20.8172 7.7498C20.8669 7.84195 20.9165 7.9341 20.9677 8.02905C21.0456 8.17714 21.0456 8.17714 21.125 8.32823C21.1898 8.44023 21.2546 8.55224 21.3214 8.66763C21.6496 9.33099 21.781 10.072 21.9478 10.7887C21.9873 10.955 22.0269 11.1212 22.0665 11.2875C22.1724 11.7328 22.277 12.1783 22.3811 12.624C22.4448 12.8963 22.5088 13.1685 22.5729 13.4406C22.8607 14.6632 23.1459 15.8863 23.4303 17.1097C23.5472 17.6124 23.6643 18.1151 23.7814 18.6177C23.9203 19.214 24.0592 19.8102 24.1979 20.4065C24.5542 21.937 24.9116 23.4672 25.27 24.9972C25.3155 25.1914 25.361 25.3855 25.4065 25.5797C25.5027 25.9907 25.599 26.4017 25.6953 26.8126C25.9946 26.8126 26.1348 26.6573 26.3745 26.4825C26.6755 26.2635 26.9408 26.0897 27.2823 25.9366C27.4733 25.8353 27.4733 25.8353 27.625 25.6954C27.6963 25.3921 27.7157 25.1951 27.706 24.892C27.7064 24.8121 27.7068 24.7321 27.7072 24.6498C27.7078 24.4771 27.7069 24.3044 27.7046 24.1317C27.6988 23.6711 27.7051 23.2107 27.7099 22.7501C27.7106 22.6563 27.7114 22.5626 27.7121 22.466C27.7214 21.5557 27.7841 20.6539 27.8662 19.7477C27.8758 19.6378 27.8758 19.6378 27.8855 19.5257C27.9483 18.8042 28.0239 18.0884 28.1439 17.3736C28.3999 16.2174 28.3999 16.2174 28.0313 15.152C27.8973 15.0089 27.7619 14.867 27.625 14.7267C26.8658 13.5099 26.6236 12.1108 26.8792 10.7034C27.1913 9.47234 27.8223 8.61962 28.6788 7.71645C29.9915 6.32781 31.5698 4.41448 31.6875 2.43761C31.6675 2.01985 31.6367 1.60251 31.5879 1.18712C31.5471 0.739507 31.5362 0.574519 31.8149 0.201247C32.1059 -0.00862662 32.3092 -0.0985572 32.6722 -0.0752732C33.213 0.0988838 33.6162 0.53382 34.0235 0.914168C34.0936 0.977402 34.1638 1.04064 34.2361 1.10579C34.8351 1.67167 35.3313 2.3271 35.8274 2.98246C35.9329 3.12175 36.0397 3.26004 36.1468 3.39808C37.8951 5.75257 38.698 8.51923 38.3597 11.439C38.1799 12.584 37.8518 13.8339 37.123 14.7541C36.311 15.7879 36.2242 16.6142 36.2578 17.9005C36.259 18.1708 36.2584 18.441 36.2578 18.7112C36.2576 18.8904 36.2579 19.0697 36.2589 19.2489C36.2626 20.0135 36.2248 20.769 36.1626 21.5314C36.1539 21.6402 36.1452 21.749 36.1363 21.8611C36.0653 22.7022 35.9719 23.5396 35.8516 24.3751C35.913 24.395 35.9744 24.415 36.0377 24.4355C36.3186 24.527 36.5993 24.6193 36.8799 24.7115C36.9765 24.7429 37.0731 24.7742 37.1727 24.8065C37.669 24.9703 38.1288 25.1493 38.5938 25.3907C38.6608 25.3907 38.7278 25.3907 38.7969 25.3907C39.3071 24.173 39.8149 22.9542 40.3203 21.7345C40.3484 21.6669 40.3764 21.5994 40.4053 21.5298C41.3717 19.236 41.3717 19.236 41.9426 16.8238C41.9591 16.7102 41.9757 16.5966 41.9928 16.4796C42.0239 16.2558 42.0524 16.0317 42.078 15.8072C42.1703 15.1104 42.3022 14.6657 42.8594 14.2189C43.2602 13.9376 43.6755 13.6867 44.0972 13.4381C44.2158 13.3669 44.3343 13.2955 44.4528 13.224C44.6901 13.0808 44.9277 12.9381 45.1655 12.7956C45.628 12.5166 46.085 12.2295 46.541 11.94C46.6184 11.8914 46.6957 11.8428 46.7753 11.7927C47.1318 11.5678 47.4846 11.3394 47.832 11.1006C49.0059 10.2992 49.0059 10.2992 49.7657 10.3595C50.2131 10.6398 50.3477 10.8641 50.4655 11.3723C50.481 11.4366 50.4964 11.5009 50.5124 11.5672C50.5486 11.7185 50.5838 11.87 50.6183 12.0217C50.6882 12.3262 50.7615 12.6298 50.835 12.9334C50.9842 13.5515 51.1299 14.1703 51.2745 14.7894C51.3657 15.1791 51.4581 15.5685 51.5505 15.9579C51.6089 16.2075 51.6672 16.4571 51.7255 16.7067C51.7531 16.8222 51.7807 16.9376 51.8091 17.0565C52.1375 18.4798 52.1375 18.4798 51.8477 19.1319C51.66 19.4256 51.4411 19.6888 51.2193 19.9571C50.0752 21.3643 49.3355 23.0383 48.6746 24.7135C48.3014 25.653 47.918 26.5879 47.5298 27.5213C47.4198 27.7861 47.3103 28.051 47.2009 28.316C46.864 29.1306 46.5251 29.9438 46.173 30.7519C46.0283 31.084 45.8852 31.4168 45.7421 31.7496C45.6746 31.9054 45.6062 32.0609 45.537 32.216C45.0539 33.2559 45.0539 33.2559 45.0475 34.3803C45.1432 34.9029 45.1083 35.4426 45.1065 35.9723C45.1069 36.0877 45.1073 36.2031 45.1077 36.322C45.107 36.8868 45.0936 37.4284 44.9922 37.9845C45.1232 37.9994 45.1232 37.9994 45.2568 38.0146C47.345 38.2788 49.1693 39.0303 50.5133 40.6948C51.7107 42.294 52.1564 44.1897 51.9142 46.1588C51.8093 46.8651 51.6007 47.4974 51.2891 48.1407C51.2413 48.2415 51.1935 48.3423 51.1443 48.4462C50.2943 50.0618 48.878 51.1494 47.1695 51.7398C46.576 51.9234 46.043 52.0128 45.4202 52.014C45.3518 52.0143 45.2835 52.0146 45.2131 52.0148C44.9836 52.0156 44.7542 52.0157 44.5247 52.0157C44.3587 52.0161 44.1927 52.0166 44.0267 52.0171C43.5701 52.0183 43.1135 52.0189 42.6569 52.0193C42.1646 52.0199 41.6722 52.0211 41.1799 52.0222C39.9906 52.0247 38.8012 52.0262 37.6119 52.0275C37.2759 52.0279 36.9398 52.0283 36.6038 52.0287C34.5161 52.0313 32.4285 52.0335 30.3408 52.0348C29.8573 52.0351 29.3738 52.0354 28.8903 52.0357C28.7701 52.0357 28.6499 52.0358 28.5261 52.0359C26.5806 52.0372 24.6351 52.0406 22.6896 52.0448C20.6913 52.0491 18.6929 52.0515 16.6946 52.052C15.573 52.0524 14.4514 52.0535 13.3298 52.0569C12.3743 52.0597 11.4188 52.0609 10.4633 52.0597C9.9762 52.0592 9.48915 52.0595 9.00206 52.062C8.55513 52.0643 8.10827 52.0642 7.66134 52.0623C7.50064 52.062 7.33994 52.0626 7.17925 52.0641C5.18312 52.082 3.45654 51.468 2.01025 50.0553C0.516918 48.5307 -0.0536194 46.8529 -0.0428185 44.7462C0.00460712 42.8322 0.8131 41.2924 2.11896 39.9181C3.1963 38.8985 4.53841 38.3959 5.96194 38.081C6.04382 38.0629 6.12569 38.0448 6.21005 38.0261C6.27223 38.0124 6.3344 37.9986 6.39847 37.9845C6.37685 37.9327 6.35524 37.8808 6.33297 37.8274C5.206 35.1249 4.08077 32.4218 2.96022 29.7166C2.66265 28.9983 2.36469 28.2802 2.06654 27.5621C1.88007 27.113 1.69382 26.6637 1.50814 26.2142C1.21015 25.493 0.911653 24.7723 0.602659 24.0557C0.558735 23.9526 0.514811 23.8495 0.469556 23.7432C0.393411 23.5648 0.316065 23.3868 0.237073 23.2096C-0.0215441 22.5987 -0.11107 22.0283 0.0710426 21.3802C0.104165 21.3191 0.137288 21.2579 0.171415 21.1949C0.203229 21.1325 0.235042 21.07 0.26782 21.0057C0.680425 20.4536 1.27189 20.2401 1.88925 19.9917C1.98493 19.9524 2.08061 19.9131 2.17919 19.8726C2.48926 19.7455 2.79981 19.6196 3.11038 19.4938C3.32283 19.407 3.53526 19.3201 3.74765 19.2332C4.2666 19.0209 4.78591 18.8096 5.30535 18.5986C5.70187 18.4373 6.098 18.2751 6.49408 18.1127C6.95015 17.926 7.40627 17.7394 7.86279 17.5538C7.94634 17.5198 8.02989 17.4858 8.11598 17.4508C8.60734 17.2575 9.03524 17.1633 9.55285 17.3352C10.3523 17.6994 10.7106 18.2991 11.0235 19.0875C11.0559 19.1664 11.0882 19.2452 11.1216 19.3265C11.2282 19.5871 11.3334 19.8483 11.4385 20.1095C11.5137 20.2939 11.589 20.4783 11.6645 20.6627C11.8243 21.0536 11.9835 21.4447 12.1425 21.836C12.5161 22.755 12.896 23.6714 13.2754 24.5881C13.4392 24.9843 13.6029 25.3805 13.7665 25.7768C13.8814 26.0548 13.9962 26.3328 14.1111 26.6109C14.2415 26.9265 14.3719 27.2422 14.5022 27.5579C14.6486 27.9126 14.7955 28.2672 14.9424 28.6217C15.0027 28.7679 15.0027 28.7679 15.0642 28.9171C15.0997 29.0025 15.1352 29.0879 15.1717 29.1759C15.2163 29.2837 15.2163 29.2837 15.2618 29.3936C15.3251 29.5556 15.3251 29.5556 15.4375 29.6564C15.7296 29.6136 16.0173 29.5651 16.3072 29.5104C16.389 29.4954 16.4709 29.4804 16.5553 29.4649C16.7583 29.4277 16.9612 29.3897 17.1641 29.3517C17.1139 29.1373 17.0637 28.9229 17.0134 28.7085C16.9673 28.5117 16.9212 28.3148 16.8752 28.118C16.7417 27.5482 16.6082 26.9784 16.4747 26.4086C16.2045 25.2559 15.9346 24.1032 15.666 22.9501C15.515 22.3022 15.3639 21.6543 15.2126 21.0065C15.1827 20.8783 15.1527 20.7502 15.1219 20.6181C14.7618 19.0772 14.3941 17.5386 14.0089 16.0037C12.7717 11.0583 12.7717 11.0583 12.9493 8.83219C13.0054 8.12769 13.0267 7.42304 13.0476 6.71672C13.0779 5.72726 13.1099 4.73796 13.1488 3.74879C13.1547 3.59063 13.1547 3.59063 13.1607 3.42927C13.2514 1.17205 13.2514 1.17205 13.7994 0.621779C14.4872 -0.00289921 15.2364 -0.215447 16.162 0.0659621ZM15.1328 1.82823C15.0203 2.67482 14.998 3.5211 14.9741 4.37364C14.9698 4.52116 14.9653 4.66867 14.9609 4.81619C14.9501 5.17436 14.9398 5.53254 14.9297 5.89073C15.7269 6.10494 16.2329 5.9952 16.9606 5.63524C17.1713 5.50354 17.1713 5.50354 17.2471 5.3124C17.2754 4.95538 17.123 4.7423 16.953 4.43077C16.9198 4.36919 16.8866 4.30761 16.8523 4.24416C16.7818 4.1141 16.7108 3.98436 16.6392 3.85492C16.53 3.65766 16.4226 3.45956 16.3155 3.26121C15.9321 2.50697 15.9321 2.50697 15.4375 1.82823C15.337 1.82823 15.2364 1.82823 15.1328 1.82823ZM33.5157 3.25011C33.4821 3.36531 33.4486 3.48053 33.4141 3.59923C32.9696 4.91803 32.3237 6.10417 31.4844 7.21104C31.4405 7.26929 31.3966 7.32753 31.3514 7.38754C30.8685 8.02552 30.3719 8.63609 29.8213 9.2169C29.0946 10.0024 28.7272 10.8427 28.6026 11.902C28.6613 12.4987 28.8014 13.0619 29.0469 13.6095C29.0784 13.6881 29.1098 13.7668 29.1422 13.8478C29.3165 14.1663 29.4533 14.3202 29.7578 14.5235C30.481 14.7217 31.254 14.7083 31.9986 14.733C32.2055 14.7431 32.4124 14.7536 32.6192 14.7646C33.1549 14.7915 33.6904 14.8132 34.2266 14.8282C34.344 14.8326 34.4614 14.8371 34.5824 14.8416C34.8488 14.8547 34.8488 14.8547 35.0296 14.6489C35.2069 14.3725 35.381 14.0961 35.5469 13.8126C35.6018 13.7208 35.6566 13.6291 35.7131 13.5345C36.629 11.8665 36.849 9.86322 36.3569 8.02793C35.8356 6.28071 34.94 4.52569 33.6172 3.25011C33.5837 3.25011 33.5502 3.25011 33.5157 3.25011ZM17.1685 7.47407C16.6404 7.71879 16.1876 7.73061 15.6089 7.7252C15.4815 7.72429 15.3541 7.72337 15.2229 7.72243C15.1261 7.72125 15.0294 7.72007 14.9297 7.71886C14.8214 8.34918 14.799 8.97159 14.7901 9.61046C14.7863 9.71441 14.7825 9.81836 14.7786 9.92546C14.7663 10.5477 14.7663 10.5477 15.0662 11.078C15.1552 11.1425 15.2442 11.207 15.336 11.2735C15.4323 11.3469 15.5287 11.4202 15.628 11.4957C16.2365 11.8486 16.8745 11.9898 17.5703 11.8829C18.3652 11.6287 18.9242 11.1398 19.3985 10.461C19.5951 10.0729 19.6324 9.77681 19.6016 9.34386C19.4846 9.05371 19.4846 9.05371 19.3128 8.77336C19.2234 8.61822 19.2234 8.61822 19.1323 8.45994C19.0378 8.30048 19.0378 8.30048 18.9414 8.1378C18.847 7.9748 18.847 7.9748 18.7506 7.80852C18.5953 7.54095 18.4389 7.27414 18.2813 7.00792C17.8824 7.00792 17.5153 7.29181 17.1685 7.47407ZM19.6524 12.7843C19.5529 12.8573 19.4534 12.9304 19.3509 13.0057C19.094 13.1942 19.094 13.1942 18.8907 13.4064C18.9102 13.6188 18.9102 13.6188 18.9819 13.857C19.0173 13.9935 19.0173 13.9935 19.0533 14.1328C19.1048 14.3224 19.1564 14.5121 19.208 14.7017C19.3643 15.3052 19.5132 15.931 19.3985 16.5548C19.1889 16.8323 19.0972 16.8587 18.7447 16.942C18.3802 16.9612 18.2693 16.9541 17.9766 16.7579C17.8799 16.5776 17.8799 16.5776 17.8159 16.3584C17.7917 16.2767 17.7676 16.1951 17.7427 16.1109C17.6203 15.649 17.5062 15.1859 17.399 14.7203C17.3761 14.6227 17.3533 14.5251 17.3297 14.4246C17.2741 14.1868 17.2191 13.9489 17.1641 13.711C16.5943 13.644 16.0246 13.577 15.4375 13.5079C15.5142 14.1525 15.5142 14.1525 15.6363 14.7793C15.6554 14.8607 15.6744 14.9421 15.694 15.0259C15.7147 15.1124 15.7353 15.1988 15.7566 15.2879C15.7786 15.3814 15.8006 15.4748 15.8233 15.5712C15.8961 15.8802 15.9695 16.1891 16.0429 16.4981C16.0948 16.7177 16.1466 16.9374 16.1984 17.1571C16.3355 17.7382 16.4731 18.3192 16.6109 18.9002C16.7733 19.5859 16.9353 20.2717 17.0972 20.9576C17.2306 21.5228 17.3644 22.0879 17.4991 22.6528C17.743 23.6771 17.9835 24.7017 18.2087 25.7303C18.3068 26.1784 18.4068 26.626 18.5068 27.0736C18.5534 27.285 18.5991 27.4967 18.6438 27.7086C18.7051 27.9996 18.7697 28.2898 18.835 28.58C18.8522 28.6661 18.8694 28.7522 18.8871 28.841C18.9425 29.1061 18.9425 29.1061 19.0938 29.4532C19.3857 29.618 19.3857 29.618 19.7032 29.6564C19.8108 29.6849 19.9184 29.7134 20.0293 29.7428C20.1353 29.7688 20.2414 29.7947 20.3506 29.8214C20.541 29.8679 20.7315 29.9145 20.9219 29.961C20.6734 28.7154 20.3895 27.4787 20.0983 26.2425C20.06 26.0795 20.0217 25.9166 19.9833 25.7536C19.8242 25.0773 19.6648 24.401 19.5044 23.7249C19.4053 23.3066 19.3068 22.8882 19.2087 22.4697C19.1715 22.3116 19.1341 22.1537 19.0964 21.9958C19.044 21.7761 18.9925 21.5563 18.9411 21.3364C18.9117 21.2119 18.8822 21.0874 18.8519 20.9591C18.7744 20.5373 18.7148 20.1695 18.897 19.7731C19.1903 19.5176 19.4212 19.5067 19.8047 19.5001C20.084 19.5826 20.084 19.5826 20.3125 19.8048C20.3932 20.0142 20.3932 20.0142 20.4644 20.2653C20.4902 20.3565 20.5161 20.4477 20.5428 20.5417C20.6543 20.9593 20.7564 21.3784 20.8537 21.7995C20.8752 21.8915 20.8967 21.9834 20.9189 22.0782C20.9651 22.2757 21.0111 22.4732 21.057 22.6708C21.1297 22.9833 21.2028 23.2957 21.2761 23.6081C21.4842 24.4955 21.6917 25.383 21.8984 26.2707C22.0252 26.8153 22.1527 27.3597 22.2807 27.9041C22.3293 28.1113 22.3776 28.3187 22.4256 28.5261C22.4925 28.8148 22.5603 29.1033 22.6283 29.3917C22.6479 29.4777 22.6676 29.5637 22.6879 29.6523C22.7865 30.1041 22.7865 30.1041 23.0547 30.4689C23.1013 30.3868 23.1479 30.3047 23.196 30.2201C23.2583 30.1116 23.3206 30.003 23.3848 29.8912C23.4461 29.784 23.5073 29.6768 23.5705 29.5663C23.7657 29.2501 23.7657 29.2501 24.0053 29.0323C24.4664 28.2297 23.7443 26.5289 23.5324 25.6415C23.4886 25.457 23.4449 25.2725 23.4013 25.088C23.3087 24.697 23.2159 24.3062 23.1229 23.9153C22.9778 23.3058 22.8333 22.6961 22.6889 22.0864C22.6649 21.9851 22.6409 21.8838 22.6162 21.7794C22.5677 21.5748 22.5192 21.3702 22.4708 21.1656C22.3981 20.8588 22.3254 20.5521 22.2527 20.2453C21.8284 18.4553 21.4089 16.6643 20.9917 14.8727C20.9615 14.7428 20.9312 14.613 20.9001 14.4792C20.7379 13.7831 20.5759 13.0869 20.4141 12.3907C20.0898 12.3907 19.9085 12.5949 19.6524 12.7843ZM47.3282 13.6095C47.2663 13.6488 47.2045 13.6882 47.1408 13.7287C46.6577 14.0361 46.1747 14.3435 45.6916 14.6509C45.5936 14.7145 45.4956 14.7782 45.3945 14.8438C45.0938 15.0314 45.0938 15.0314 44.7783 15.1977C44.22 15.4929 44.22 15.4929 43.8624 15.9905C43.7999 16.284 43.7693 16.5665 43.7481 16.8658C43.6364 17.8602 43.4249 18.7408 43.0557 19.6719C42.878 20.1471 42.878 20.1471 42.916 20.6408C43.3369 21.5328 44.0905 22.1802 44.9922 22.547C45.3719 22.6708 45.7437 22.6691 46.1411 22.6739C46.3354 22.6779 46.3354 22.6779 46.5335 22.6819C46.9807 22.6435 47.2487 22.5789 47.6328 22.3439C47.8382 22.0668 47.9775 21.7675 48.1216 21.4552C48.4451 20.7977 48.7827 20.1704 49.1944 19.5636C49.2354 19.5027 49.2765 19.4419 49.3189 19.3792C49.4998 19.1157 49.6733 18.8818 49.9029 18.6582C50.3692 17.8915 49.8079 16.6114 49.607 15.7804C49.5731 15.6382 49.5393 15.4961 49.5056 15.3539C49.4237 15.0092 49.341 14.6648 49.2578 14.3204C49.0018 14.6322 48.8524 14.9364 48.7048 15.311C48.6604 15.4229 48.616 15.5348 48.5703 15.6501C48.5022 15.8245 48.5022 15.8245 48.4326 16.0025C48.3633 16.1776 48.3633 16.1776 48.2926 16.3562C48.0532 16.9593 48.0532 16.9593 47.836 17.5704C47.5641 17.661 47.4039 17.6857 47.125 17.6847C47.0213 17.6851 47.0213 17.6851 46.9156 17.6855C46.7188 17.672 46.7188 17.672 46.4141 17.5704C46.1884 16.642 46.4907 15.9786 46.8711 15.1329C46.9791 14.8879 47.0855 14.6424 47.1917 14.3966C47.2397 14.2892 47.2876 14.1819 47.3371 14.0713C47.3829 13.9432 47.3829 13.9432 47.4297 13.8126C47.3794 13.7121 47.3794 13.7121 47.3282 13.6095ZM30.1641 16.3517C30.1541 16.4129 30.1441 16.4742 30.1338 16.5373C30.1204 16.6192 30.107 16.7011 30.0933 16.7854C30.0794 16.8707 30.0654 16.9561 30.0511 17.044C30.0221 17.2214 29.9929 17.3987 29.9635 17.576C29.8981 17.9838 29.8388 18.3745 29.8594 18.7892C30.9857 19.0136 32.07 19.1025 33.2173 19.1066C33.3129 19.107 33.4086 19.1075 33.5071 19.108C33.6419 19.1077 33.6419 19.1077 33.7795 19.1073C33.9012 19.1072 33.9012 19.1072 34.0255 19.107C34.2343 19.1064 34.2343 19.1064 34.4297 18.9923C34.4297 18.2214 34.4297 17.4506 34.4297 16.6564C33.9964 16.548 33.583 16.5216 33.1396 16.5004C33.0545 16.4961 32.9694 16.4917 32.8817 16.4872C32.6106 16.4734 32.3395 16.4601 32.0684 16.4469C31.8843 16.4376 31.7002 16.4283 31.5161 16.4189C31.0655 16.3961 30.6148 16.3737 30.1641 16.3517ZM8.30641 19.3581C8.22011 19.3937 8.13381 19.4294 8.04489 19.4662C7.95128 19.5055 7.85767 19.5449 7.76123 19.5854C7.61428 19.6464 7.61428 19.6464 7.46436 19.7086C7.14905 19.8396 6.83406 19.9714 6.51907 20.1031C6.31431 20.1884 6.10954 20.2736 5.90474 20.3588C5.59855 20.4862 5.29237 20.6136 4.98628 20.7412C3.93564 21.1789 2.88219 21.6097 1.82815 22.0392C2.6439 24.1004 3.4913 26.1479 4.34262 28.1947C4.70887 29.0753 5.07452 29.9561 5.43997 30.837C5.49267 30.964 5.49267 30.964 5.54644 31.0936C6.34386 33.0159 7.13362 34.9413 7.9219 36.8673C7.98893 36.8673 8.05597 36.8673 8.12503 36.8673C8.17864 36.7143 8.17864 36.7143 8.23334 36.5582C8.72068 35.196 9.30941 34.0122 10.2578 32.9064C10.3274 32.8148 10.3274 32.8148 10.3983 32.7215C11.2183 31.6657 12.4578 30.9954 13.6094 30.3673C13.4083 29.831 13.2072 29.2948 13 28.7423C12.2142 28.9906 11.4719 29.3059 10.7202 29.6421C9.60135 30.1329 9.60135 30.1329 9.06448 29.9864C8.83597 29.8595 8.83597 29.8595 8.63284 29.5548C8.57773 28.9485 8.57773 28.9485 8.74088 28.6386C9.0116 28.3619 9.3237 28.2457 9.67822 28.1091C9.74993 28.0804 9.82163 28.0517 9.89551 28.022C10.1238 27.9309 10.3526 27.8415 10.5816 27.7521C10.7368 27.6904 10.892 27.6287 11.0471 27.5668C11.4268 27.4157 11.807 27.2661 12.1875 27.1173C12.1177 26.7462 12.0209 26.4194 11.8765 26.0699C11.8213 25.9354 11.8213 25.9354 11.765 25.7982C11.7228 25.697 11.7228 25.697 11.6797 25.5939C11.3199 25.6545 11.0208 25.7539 10.6895 25.9049C10.2147 26.0993 9.75286 26.2176 9.24222 26.1017C9.0219 25.9418 8.94891 25.8485 8.88992 25.5816C8.88835 25.4651 8.88835 25.4651 8.88675 25.3463C8.88361 25.2689 8.88046 25.1915 8.87723 25.1118C8.96834 24.766 9.14999 24.6703 9.44534 24.4767C9.69264 24.358 9.93449 24.2489 10.188 24.1466C10.2535 24.1194 10.3191 24.0921 10.3866 24.0641C10.5465 23.9977 10.7068 23.9324 10.8672 23.8673C10.8237 23.7083 10.779 23.5497 10.7339 23.3912C10.7092 23.3028 10.6844 23.2145 10.6589 23.1234C10.557 22.836 10.4177 22.6027 10.2578 22.3439C10.1836 22.3736 10.1093 22.4033 10.0328 22.4339C9.26147 22.7424 8.49013 23.0509 7.71878 23.3595C7.6269 23.3973 7.53503 23.4351 7.44037 23.474C7.06706 23.6182 6.79819 23.6007 6.39847 23.5626C6.14456 23.4039 6.14456 23.4039 5.99222 23.1564C5.93509 22.8072 5.93509 22.8072 5.99222 22.4454C6.34432 22.0225 6.68131 21.8291 7.19034 21.6321C7.25475 21.6065 7.31917 21.5809 7.38553 21.5545C7.58925 21.4736 7.79356 21.3944 7.99808 21.3155C8.20401 21.2359 8.40975 21.1559 8.61497 21.0744C8.80005 21.0009 8.98576 20.929 9.1715 20.8573C9.47694 20.7432 9.47694 20.7432 9.5469 20.4142C9.44725 20.1083 9.44725 20.1083 9.29935 19.7857C9.22727 19.6202 9.22727 19.6202 9.15375 19.4513C9.11591 19.3669 9.07807 19.2824 9.03909 19.1954C8.73028 19.1954 8.58632 19.2413 8.30641 19.3581ZM29.6563 20.6173C29.5661 21.5778 29.542 22.5284 29.5484 23.4928C29.5489 23.6287 29.5493 23.7645 29.5498 23.9004C29.5509 24.2279 29.5526 24.5554 29.5547 24.8829C29.6953 24.8425 29.6953 24.8425 29.8388 24.8012C31.1731 24.434 32.5365 24.2512 33.9219 24.2735C34.0689 23.6225 34.1655 22.9748 34.2393 22.3121C34.2526 22.1938 34.2526 22.1938 34.2662 22.0731C34.3077 21.6867 34.3321 21.3111 34.3282 20.922C34.1808 20.9135 34.1808 20.9135 34.0305 20.9049C33.6603 20.8837 33.29 20.8623 32.9198 20.8408C32.7606 20.8316 32.6015 20.8224 32.4423 20.8133C31.5124 20.7601 30.584 20.7014 29.6563 20.6173ZM41.9453 22.6485C41.725 23.1612 41.5063 23.6745 41.2889 24.1883C41.2147 24.3631 41.1401 24.5376 41.0651 24.712C40.9574 24.9627 40.8512 25.2139 40.7452 25.4653C40.7114 25.5432 40.6775 25.6211 40.6427 25.7013C40.4306 26.2003 40.4306 26.2003 40.5235 26.711C40.7329 26.9089 40.7329 26.9089 40.9932 27.0919C41.48 27.4676 41.8694 27.8548 42.25 28.336C42.322 28.4259 42.394 28.5157 42.4682 28.6082C43.0514 29.3585 43.524 30.143 43.9766 30.9767C44.2814 30.6197 44.4417 30.2187 44.6121 29.7873C44.6431 29.7104 44.6741 29.6335 44.7059 29.5543C44.8062 29.305 44.9055 29.0554 45.0049 28.8058C45.0734 28.6351 45.1419 28.4645 45.2104 28.2939C45.3461 27.9563 45.4816 27.6185 45.6168 27.2807C45.8605 26.6727 46.1082 26.0665 46.357 25.4606C46.3946 25.3687 46.4323 25.2768 46.4711 25.1821C46.5536 24.9808 46.6362 24.7795 46.7188 24.5782C46.6095 24.5695 46.5001 24.5607 46.3875 24.5516C44.629 24.3908 43.2976 23.7835 41.9453 22.6485ZM27.0157 28.336C26.8947 28.4354 26.8947 28.4354 26.7713 28.5368C25.4561 29.653 24.7145 30.9903 24.0176 32.5382C23.8672 32.8048 23.8672 32.8048 23.5371 32.9635C22.8935 33.0386 22.4966 32.7364 21.9693 32.4112C20.1326 31.2932 17.9072 30.926 15.8057 31.4337C13.5811 32.0804 11.7342 33.455 10.5776 35.468C9.91833 36.7122 9.62709 37.9829 9.50525 39.3794C9.44534 39.711 9.44534 39.711 9.31799 39.9078C9.08162 40.0517 8.92083 40.0495 8.64554 40.0411C8.55991 40.0395 8.47429 40.038 8.38608 40.0364C8.12503 40.0157 8.12503 40.0157 7.87707 39.9649C6.48857 39.6936 5.12025 40.0537 3.96097 40.8282C2.98595 41.5454 2.1673 42.582 1.86902 43.7751C1.64873 45.4091 1.8432 46.8887 2.84378 48.2423C3.68081 49.2693 4.71036 49.8518 5.99222 50.172C6.33904 50.2022 6.33904 50.2022 6.70123 50.1981C6.80325 50.1986 6.80325 50.1986 6.90734 50.1992C7.13445 50.2001 7.36154 50.1996 7.58866 50.1991C7.75346 50.1995 7.91826 50.2 8.08306 50.2005C8.53534 50.2018 8.98762 50.2018 9.43991 50.2015C9.92793 50.2015 10.416 50.2026 10.904 50.2036C11.86 50.2052 12.8159 50.2058 13.7719 50.2059C14.5491 50.206 15.3262 50.2064 16.1034 50.2071C18.3074 50.2089 20.5114 50.2098 22.7154 50.2096C22.8342 50.2096 22.953 50.2096 23.0754 50.2096C23.2538 50.2096 23.2538 50.2096 23.4359 50.2096C25.3632 50.2095 27.2906 50.2115 29.218 50.2143C31.1975 50.2172 33.177 50.2186 35.1566 50.2185C36.2677 50.2184 37.3788 50.219 38.49 50.2211C39.4361 50.223 40.3823 50.2234 41.3284 50.2221C41.8109 50.2214 42.2934 50.2214 42.7759 50.2231C43.2182 50.2247 43.6604 50.2244 44.1026 50.2227C44.2621 50.2224 44.4215 50.2227 44.581 50.2239C46.2259 50.2348 47.5452 49.8253 48.7691 48.6993C49.8024 47.6237 50.2154 46.2829 50.2088 44.8169C50.1798 43.4784 49.6339 42.3615 48.7437 41.3678C47.3988 40.1164 45.8682 39.8657 44.0972 39.9253C43.9431 39.9292 43.9431 39.9292 43.7858 39.9332C43.693 39.9367 43.6002 39.9403 43.5047 39.9439C43.2657 39.9142 43.2657 39.9142 43.0859 39.7741C42.9083 39.54 42.8791 39.3977 42.8594 39.1017C42.9079 38.7951 42.9837 38.4956 43.0562 38.194C43.6357 35.5402 43.157 32.9308 41.7688 30.6093C40.2929 28.3333 37.9844 26.7957 35.3438 26.2032C32.3879 25.6825 29.3068 26.318 27.0157 28.336Z" fill="#111111"/>
<path d="M29.6391 39.226C29.9414 39.4733 30.2098 39.7226 30.4686 40.0155C30.4686 40.0826 30.4686 40.1496 30.4686 40.2186C30.6637 40.1426 30.8588 40.0666 31.0538 39.9905C32.1581 39.6186 33.2695 39.7797 34.328 40.2186C35.2752 40.7174 36.0484 41.4549 36.4608 42.453C36.5329 42.8693 36.5051 42.996 36.2704 43.348C36.0108 43.6153 35.9304 43.6666 35.5595 43.6908C35.2374 43.6715 35.1032 43.6381 34.8358 43.4686C34.6843 43.2667 34.6843 43.2667 34.5438 43.0307C34.1049 42.347 33.6038 41.9389 32.8046 41.7421C32.0057 41.6519 31.3358 41.9088 30.6718 42.3515C30.2256 42.3946 29.9781 42.4178 29.5863 42.1991C29.388 41.9847 29.2622 41.8063 29.1166 41.558C28.6586 40.7965 28.0479 40.3515 27.204 40.0826C26.2058 39.8518 25.333 40.0498 24.4503 40.5523C23.7395 41.0374 23.276 41.7256 23.0546 42.5546C23.0226 42.9288 23.0226 42.9288 23.0292 43.3163C23.0287 43.4451 23.0281 43.574 23.0276 43.7067C23.054 44.0703 23.1332 44.3471 23.2577 44.6874C23.3013 45.102 23.2991 45.3222 23.099 45.6903C22.7739 45.9738 22.569 46.0077 22.1405 46.0077C21.8175 45.9025 21.681 45.7891 21.5149 45.4932C20.9855 44.3415 20.908 42.8925 21.2899 41.6786C21.7924 40.4214 22.5237 39.5193 23.664 38.7968C23.7288 38.7557 23.7936 38.7146 23.8603 38.6722C25.7094 37.6304 27.9969 37.9991 29.6391 39.226Z" fill="#111111"/>
<path d="M32.5002 27.7266C32.8174 27.9707 32.895 28.0909 33.0016 28.482C33.0088 28.8907 32.9674 29.0434 32.7033 29.3516C32.3626 29.513 32.0533 29.5838 31.6813 29.6309C30.7604 29.7924 29.8944 30.1846 29.3033 30.927C29.0394 31.358 28.8582 31.8192 28.6773 32.2894C28.5528 32.5708 28.4785 32.7261 28.2345 32.9063C27.8383 33.009 27.6159 33.0489 27.2379 32.8809C26.9899 32.6824 26.8265 32.5224 26.79 32.1965C26.8728 30.9961 27.528 29.9428 28.3492 29.0953C29.4953 28.1067 30.9684 27.4816 32.5002 27.7266Z" fill="#111111"/>
<path d="M16.0467 33.8203C16.3477 34.0342 16.4359 34.1732 16.5482 34.5249C16.556 34.9057 16.4884 35.0496 16.2498 35.3438C16.034 35.4897 16.034 35.4897 15.742 35.6484C14.9363 36.1057 14.4502 36.6159 14.0916 37.4766C14.0474 37.6536 14.0063 37.8315 13.9734 38.011C13.8532 38.6434 13.8532 38.6434 13.6473 38.9048C13.29 39.0458 12.9667 39.0746 12.5936 39C12.2889 38.8159 12.2889 38.8159 12.0858 38.4922C11.9099 37.4404 12.2655 36.4626 12.8249 35.5858C13.5271 34.6145 14.7767 33.497 16.0467 33.8203Z" fill="#111111"/>
<path d="M35.0391 7.51565C35.5087 7.94822 35.5331 8.38745 35.5675 9.0014C35.5825 10.259 35.4022 11.3076 34.8486 12.4478C34.8154 12.5168 34.7821 12.5858 34.7479 12.6569C34.5342 13.0725 34.3276 13.3548 33.9219 13.6094C33.6185 13.6862 33.431 13.6502 33.1094 13.6094C32.7906 13.4051 32.7189 13.246 32.5889 12.8921C32.6051 12.38 32.7946 12.092 33.0518 11.6575C33.2674 11.2747 33.4045 10.8848 33.5156 10.461C33.5353 10.3884 33.5549 10.3159 33.5751 10.2412C33.6482 9.74071 33.6092 9.23348 33.5864 8.72925C33.5775 8.3081 33.5806 8.08431 33.8025 7.71561C34.206 7.35049 34.5301 7.39064 35.0391 7.51565Z" fill="#111111"/>
</g>
<defs>
<clipPath id="clip0_1349_230">
<rect width="52" height="52" fill="white"/>
</clipPath>
</defs>
</svg>
