<svg width="64" height="64" viewBox="0 0 64 64" fill="none" xmlns="http://www.w3.org/2000/svg">
<g clip-path="url(#clip0_135_1179)">
<rect x="17" y="10" width="56" height="56" rx="2" fill="#F2F3F6"/>
<path fill-rule="evenodd" clip-rule="evenodd" d="M17.8383 40.4451C17.5916 40.4451 17.389 40.2445 17.389 39.9961C17.389 39.7477 17.5916 39.547 17.8383 39.547H19.6526V37.7326C19.6526 37.4844 19.8553 37.2836 20.1014 37.2836C20.3496 37.2836 20.5506 37.4842 20.5506 37.7326V39.547H22.365C22.6133 39.547 22.8138 39.7477 22.8138 39.9961C22.8138 40.2445 22.6133 40.4451 22.365 40.4451H20.5506V42.2595C20.5506 42.5079 20.3498 42.7086 20.1014 42.7086C19.8553 42.7086 19.6526 42.508 19.6526 42.2595V40.4451H17.8383ZM38.2819 5.37324H45.3715C45.5795 5.37324 45.7545 5.51562 45.8059 5.70537L51.0448 20.5929H56.1756C56.4239 20.5929 56.6244 20.7935 56.6244 21.0419C56.6244 21.2864 56.4239 21.4871 56.1756 21.4871H50.7271C50.5424 21.4871 50.3691 21.3704 50.3051 21.1879L45.0556 6.27124H38.2819C38.185 6.89912 37.8893 7.46137 37.4603 7.88862C36.9313 8.41774 36.199 8.74637 35.3923 8.74637C34.5855 8.74637 33.8533 8.41774 33.3243 7.88862C32.7965 7.35912 32.4679 6.62912 32.4679 5.82224C32.4679 5.01549 32.7965 4.28174 33.3243 3.75224C33.8533 3.22649 34.5855 2.89799 35.3923 2.89799C36.199 2.89799 36.9313 3.22649 37.4603 3.75224C37.8875 4.18312 38.1849 4.74537 38.2819 5.37324ZM38.2819 14.646H45.3951C45.5996 14.646 45.7728 14.7846 45.8278 14.9745L48.6406 22.2794H58.9428C59.191 22.2794 59.3915 22.4801 59.3915 22.7284C59.3915 22.9766 59.191 23.1774 58.9428 23.1774H48.3358C48.1568 23.1739 47.987 23.0679 47.9176 22.889L45.0885 15.5439H38.2819C38.185 16.1716 37.8893 16.734 37.4603 17.1647C36.9313 17.6941 36.199 18.019 35.3923 18.019C34.5855 18.019 33.8533 17.6904 33.3243 17.1647C32.7965 16.6355 32.4679 15.9017 32.4679 15.0949C32.4679 14.288 32.7965 13.5579 33.3243 13.0286C33.8533 12.4992 34.5855 12.1706 35.3923 12.1706C36.199 12.1706 36.9313 12.4992 37.4603 13.0286C37.8893 13.4557 38.1849 14.0181 38.2819 14.646ZM38.2819 42.4712H45.0539L50.3051 27.4124C50.3691 27.2297 50.5424 27.1129 50.7271 27.1129H56.1756C56.4239 27.1129 56.6244 27.3137 56.6244 27.562C56.6244 27.8065 56.4239 28.011 56.1756 28.011H51.0448L45.8059 43.0336C45.7546 43.227 45.5795 43.3696 45.3715 43.3696H38.2819C38.185 43.9974 37.8875 44.5596 37.4603 44.9869C36.9313 45.5161 36.199 45.8446 35.3923 45.8446C34.5855 45.8446 33.8533 45.5161 33.3243 44.9869L33.3024 44.9686C32.7874 44.4392 32.4679 43.7164 32.4679 42.9205C32.4679 42.1136 32.7965 41.3836 33.3243 40.8542C33.8533 40.325 34.5855 39.9965 35.3923 39.9965C36.199 39.9965 36.9313 40.325 37.4603 40.8542C37.8893 41.281 38.1849 41.8432 38.2819 42.4712ZM38.2819 33.1949H45.0885L47.9176 25.8535C47.987 25.6746 48.1568 25.5687 48.3358 25.5687L58.9428 25.5651C59.191 25.5651 59.3915 25.7659 59.3915 26.0141C59.3915 26.2624 59.191 26.4634 58.9428 26.4634H48.6406L45.8278 33.7681C45.7729 33.9544 45.5996 34.0931 45.3951 34.0931H38.2819C38.185 34.721 37.8893 35.2832 37.4603 35.714C36.9313 36.2434 36.199 36.5684 35.3923 36.5684C34.5855 36.5684 33.8533 36.2434 33.3243 35.714C32.7965 35.1849 32.4679 34.4546 32.4679 33.644C32.4679 32.8374 32.7965 32.1071 33.3243 31.5779C33.8533 31.0486 34.5855 30.72 35.3923 30.72C36.199 30.72 36.9313 31.0486 37.4603 31.5779C37.8893 32.0047 38.1849 32.5669 38.2819 33.1949ZM8.31163 52.0031C8.06338 52.0031 7.86288 51.8022 7.86288 51.5539C7.86288 51.3057 8.06338 51.1047 8.31163 51.1047H39.0355C39.2821 51.1047 39.483 51.3056 39.483 51.5539C39.483 51.8021 39.2821 52.0031 39.0355 52.0031H8.31163ZM26.3021 53.8722C26.0539 53.8722 25.8529 53.6715 25.8529 53.4231C25.8529 53.1747 26.0538 52.9741 26.3021 52.9741H47.5619C47.8101 52.9741 48.0106 53.1747 48.0106 53.4231C48.0106 53.6715 47.8101 53.8722 47.5619 53.8722H26.3021ZM49.7395 53.8722C49.4913 53.8722 49.2903 53.6715 49.2903 53.4231C49.2903 53.1747 49.4911 52.9741 49.7395 52.9741H52.3971C52.6438 52.9741 52.8459 53.1747 52.8459 53.4231C52.8459 53.6715 52.6438 53.8722 52.3971 53.8722H49.7395ZM7.10138 53.8139C6.8535 53.8139 6.65263 53.6131 6.65263 53.3684C6.65263 53.1202 6.8535 52.9194 7.10138 52.9194H17.1754C17.422 52.9194 17.6246 53.1201 17.6246 53.3684C17.6246 53.6131 17.422 53.8139 17.1754 53.8139H7.10138ZM17.5535 10.4257C17.3053 10.4257 17.1043 10.2249 17.1043 9.97674C17.1043 9.72849 17.3051 9.52774 17.5535 9.52774H22.6699C22.9181 9.52774 23.1186 9.72837 23.1186 9.97674C23.1186 10.2247 22.9181 10.4257 22.6699 10.4257H17.5535ZM25.7328 4.46062C24.2926 3.01862 22.3009 2.12799 20.1014 2.12799C17.9019 2.12799 15.9106 3.01862 14.4721 4.45712C13.0301 5.89899 12.1396 7.88874 12.1396 10.09C12.1396 12.2877 13.032 14.2809 14.4721 15.7194C15.8136 17.0627 17.6338 17.928 19.6526 18.0375V23.9222H7.357V14.4161C7.7 14.332 8.00663 14.1569 8.248 13.9122C8.591 13.5727 8.8025 13.0981 8.8025 12.5761C8.8025 12.0541 8.59113 11.5795 8.248 11.2364C7.90625 10.8932 7.432 10.6815 6.91 10.6815C6.38575 10.6815 5.91325 10.8932 5.57025 11.2364C5.2285 11.5795 5.01538 12.0541 5.01538 12.5761C5.01538 13.0982 5.22863 13.5729 5.57025 13.9122C5.81113 14.1569 6.11775 14.332 6.46088 14.4161V23.9222H3.69925C3.451 23.9222 3.25 24.1231 3.25 24.3715C3.25 24.6195 3.45088 24.8205 3.69925 24.8205H6.46075V34.3269C6.11763 34.4107 5.811 34.5859 5.57013 34.8269C5.22838 35.17 5.01525 35.6447 5.01525 36.1667C5.01525 36.6887 5.2285 37.1635 5.57013 37.5065C5.91325 37.8497 6.38563 38.0614 6.90988 38.0614C7.43188 38.0614 7.90613 37.8497 8.24788 37.5065C8.59088 37.1635 8.80238 36.6887 8.80238 36.1667C8.80238 35.6447 8.591 35.17 8.24788 34.8269C8.0065 34.5859 7.69988 34.4107 7.35688 34.3269V24.8205H19.6524V32.0451C17.6318 32.1582 15.8116 33.0235 14.4719 34.3632C13.0299 35.8051 12.1394 37.7949 12.1394 39.9962C12.1394 42.1939 13.0318 44.1871 14.4719 45.6255C15.9121 47.0675 17.9038 47.9584 20.1011 47.9584C22.3008 47.9584 24.2924 47.0675 25.7343 45.629C27.1726 44.1871 28.0633 42.1939 28.0633 39.9961C28.0633 37.7984 27.1726 35.805 25.7325 34.3667C24.3906 33.0234 22.5709 32.1581 20.5503 32.045V24.8204H32.0206C32.2633 24.8204 32.4624 24.6231 32.4676 24.3824C32.4716 25.1854 32.798 25.9117 33.324 26.4375C33.853 26.9667 34.5853 27.2954 35.392 27.2954C36.1988 27.2954 36.931 26.9667 37.46 26.4375C37.8891 26.0105 38.1848 25.4482 38.2816 24.8202H60.3003C60.5485 24.8202 60.7495 24.6194 60.7495 24.3712C60.7495 24.123 60.5486 23.922 60.3003 23.922H38.2819C38.185 23.2942 37.8893 22.732 37.4603 22.3047C36.9313 21.7755 36.199 21.4469 35.3923 21.4469C34.5855 21.4469 33.8533 21.7755 33.3243 22.3047C32.7983 22.8304 32.472 23.557 32.4679 24.3601C32.4626 24.1155 32.2635 23.9219 32.0209 23.9219H20.5505V18.0371C22.5711 17.9276 24.3908 17.0624 25.7345 15.7226C27.1729 14.2805 28.0635 12.2874 28.0635 10.0896C28.0635 7.89224 27.173 5.89887 25.7328 4.46062Z" fill="#FE5E3A"/>
</g>
<defs>
<clipPath id="clip0_135_1179">
<rect width="64" height="64" fill="white"/>
</clipPath>
</defs>
</svg>
