<svg width="48" height="48" viewBox="0 0 48 48" fill="none" xmlns="http://www.w3.org/2000/svg">
<g clip-path="url(#clip0_819_345)">
<path d="M5.2576 6.5884L5.8359 6.0145L6.41333 6.59104L7.61131 7.78725L8.19224 8.36555L7.61218 8.9465L3.79908 12.7605L5.66778 14.6292L7.37981 12.9172L7.95987 12.3371L8.53728 12.9172L9.73614 14.1116L10.3162 14.6908L9.73703 15.2709L8.02148 16.9846L9.89283 18.856L11.604 17.1413L12.1823 16.563L12.7623 17.1413L13.9603 18.3384L14.5412 18.9158L13.9603 19.4959L12.2483 21.2097L13.6874 22.648L22.6454 13.69L9.28636 0.330053C9.0723 0.11933 8.78397 0.0012207 8.4836 0.0012207C8.18323 0.0012207 7.8949 0.11933 7.68084 0.330053L0.329262 7.68163C0.118273 7.89573 0 8.18423 0 8.48482C0 8.78541 0.118273 9.07393 0.329262 9.28802L1.44362 10.4006L5.11148 6.73187L5.2576 6.5884ZM38.3626 18.4062L29.5947 9.63923L23.6145 15.6194L14.2657 24.9673L4.63441 34.5969L5.05867 34.8865L6.64306 35.9674L6.80855 36.0801L6.90361 36.2561L6.99163 36.4128L8.59363 39.3914L11.729 41.0788L11.905 41.1739L12.0177 41.3394L13.044 42.8472L13.3961 43.3674L23.0309 33.7334L33.7273 23.037L38.3626 18.4062ZM47.67 38.7146L34.3118 25.3546L25.3521 34.3152L26.7912 35.7535L28.5041 34.0406L29.0833 33.4588L29.6634 34.0415L30.8596 35.2403L31.4379 35.8187L30.8596 36.3978L29.1467 38.1099L31.0163 39.9794L32.7301 38.2657L33.3101 37.6873L33.8893 38.2657L35.0846 39.4627L35.6647 40.0419L35.0846 40.6211L33.3709 42.334L35.2404 44.2036L38.9083 40.534L39.0571 40.387L39.6362 39.8122L40.2137 40.3896L41.4099 41.5858L41.9882 42.1668L41.4099 42.746L37.5985 46.5573L38.712 47.6699C38.9261 47.8811 39.2148 47.9996 39.5156 47.9996C39.8164 47.9996 40.1052 47.8811 40.3193 47.6699L43.9951 43.995L47.67 40.3166C47.8804 40.1025 47.9984 39.8144 47.9984 39.5142C47.9984 39.2141 47.8804 38.9259 47.67 38.7119V38.7146ZM7.29706 41.0207L7.08053 40.9045L6.96435 40.6889L6.63866 40.0842L5.24439 37.4902L4.38443 36.9057L3.79291 36.5017L3.04561 41.1396L6.86399 44.9553L11.4939 44.2106L10.4931 42.7416L7.29706 41.0207ZM45.5645 11.2007C45.775 10.9867 45.8929 10.6986 45.8929 10.3984C45.8929 10.0983 45.775 9.81012 45.5645 9.59611L38.4013 2.43466C38.1873 2.2242 37.8991 2.10626 37.599 2.10626C37.2988 2.10626 37.0107 2.2242 36.7967 2.43466L32.7793 6.45284L41.5463 15.2207L45.5645 11.2007ZM40.0975 16.6686L31.3296 7.90169L31.0436 8.18775L39.8114 16.9547L40.0975 16.6686ZM2.49723 44.5434L2.31503 45.6877L4.36594 45.3593L2.64511 43.6367L2.49723 44.5434Z" fill="#111111" fill-opacity="0.8"/>
</g>
<defs>
<clipPath id="clip0_819_345">
<rect width="48" height="48" fill="white"/>
</clipPath>
</defs>
</svg>
