<svg width="48" height="49" viewBox="0 0 48 49" fill="none" xmlns="http://www.w3.org/2000/svg">
<g clip-path="url(#clip0_968_500)">
<path d="M5.2576 6.62395L5.8359 6.04694L6.41333 6.62661L7.61131 7.82932L8.19224 8.41077L7.61218 8.99487L3.79908 12.8296L5.66778 14.7084L7.37981 12.9871L7.95987 12.4039L8.53728 12.9871L9.73614 14.1881L10.3162 14.7704L9.73703 15.3536L8.02148 17.0767L9.89283 18.9582L11.604 17.2342L12.1823 16.6528L12.7623 17.2342L13.9603 18.4378L14.5412 19.0184L13.9603 19.6016L12.2483 21.3247L13.6874 22.7708L22.6454 13.7641L9.28636 0.331596C9.0723 0.119727 8.78397 0.000976562 8.4836 0.000976562C8.18323 0.000976562 7.8949 0.119727 7.68084 0.331596L0.329262 7.72313C0.118273 7.93839 0 8.22846 0 8.53068C0 8.8329 0.118273 9.12299 0.329262 9.33825L1.44362 10.4569L5.11148 6.7682L5.2576 6.62395ZM38.3626 18.506L29.5947 9.69137L23.6145 15.7041L14.2657 25.1028L4.63441 34.7847L5.05867 35.0758L6.64306 36.1626L6.80855 36.2759L6.90361 36.4529L6.99163 36.6104L8.59363 39.6053L11.729 41.3018L11.905 41.3974L12.0177 41.5638L13.044 43.0798L13.3961 43.6028L23.0309 33.9165L33.7273 23.162L38.3626 18.506ZM47.67 38.9247L34.3118 25.4922L25.3521 34.5015L26.7912 35.9476L28.5041 34.2254L29.0833 33.6404L29.6634 34.2262L30.8596 35.4316L31.4379 36.0131L30.8596 36.5954L29.1467 38.3167L31.0163 40.1965L32.7301 38.4734L33.3101 37.8919L33.8893 38.4734L35.0846 39.677L35.6647 40.2593L35.0846 40.8416L33.3709 42.5638L35.2404 44.4436L38.9083 40.754L39.0571 40.6062L39.6362 40.0283L40.2137 40.6089L41.4099 41.8116L41.9882 42.3957L41.4099 42.978L37.5985 46.8101L38.712 47.9287C38.9261 48.1411 39.2148 48.2602 39.5156 48.2602C39.8164 48.2602 40.1052 48.1411 40.3193 47.9287L43.9951 44.2338L47.67 40.5354C47.8804 40.3202 47.9984 40.0305 47.9984 39.7287C47.9984 39.4269 47.8804 39.1372 47.67 38.9221V38.9247ZM7.29706 41.2434L7.08053 41.1266L6.96435 40.9098L6.63866 40.3018L5.24439 37.6937L4.38443 37.106L3.79291 36.6998L3.04561 41.3629L6.86399 45.1994L11.4939 44.4507L10.4931 42.9736L7.29706 41.2434ZM45.5645 11.2613C45.775 11.0462 45.8929 10.7565 45.8929 10.4547C45.8929 10.1529 45.775 9.86319 45.5645 9.64801L38.4013 2.44764C38.1873 2.23604 37.8991 2.11745 37.599 2.11745C37.2988 2.11745 37.0107 2.23604 36.7967 2.44764L32.7793 6.48766L41.5463 15.3032L45.5645 11.2613ZM40.0975 16.759L31.3296 7.94438L31.0436 8.232L39.8114 17.0466L40.0975 16.759ZM2.49723 44.7852L2.31503 45.9357L4.36594 45.6056L2.64511 43.8736L2.49723 44.7852Z" fill="#111111" fill-opacity="0.8"/>
</g>
<defs>
<clipPath id="clip0_968_500">
<rect width="48" height="48.2609" fill="white"/>
</clipPath>
</defs>
</svg>
