<svg width="40" height="40" viewBox="0 0 40 40" fill="none" xmlns="http://www.w3.org/2000/svg">
<g clip-path="url(#clip0_1017_182)">
<path d="M4.38133 5.49029L4.86325 5.01204L5.34444 5.4925L6.34276 6.48934L6.82687 6.97125L6.34348 7.45538L3.1659 10.6337L4.72315 12.191L6.14984 10.7643L6.63323 10.2809L7.1144 10.7643L8.11345 11.7596L8.59684 12.2423L8.11419 12.7257L6.68457 14.1538L8.24402 15.7133L9.66997 14.2844L10.1519 13.8025L10.6353 14.2844L11.6336 15.282L12.1177 15.7632L11.6336 16.2465L10.2069 17.6747L11.4062 18.8733L18.8712 11.4083L7.73863 0.275004C7.56025 0.0994006 7.31998 0.000976562 7.06967 0.000976562C6.81936 0.000976562 6.57908 0.0994006 6.4007 0.275004L0.274385 6.40132C0.0985608 6.57973 0 6.82015 0 7.07064C0 7.32113 0.0985608 7.56157 0.274385 7.73998L1.20302 8.66714L4.25957 5.60985L4.38133 5.49029ZM31.9688 15.3385L24.6623 8.03265L19.6788 13.0162L11.8881 20.8061L3.86201 28.8307L4.21556 29.072L5.53589 29.9728L5.67379 30.0667L5.75301 30.2134L5.82635 30.344L7.16136 32.8262L9.77413 34.2323L9.92083 34.3115L10.0147 34.4494L10.87 35.7059L11.1634 36.1395L19.1925 28.1111L28.1061 19.1975L31.9688 15.3385ZM39.725 32.2621L28.5932 21.1288L21.1267 28.596L22.326 29.7946L23.7534 28.3671L24.2361 27.8823L24.7195 28.3679L25.7163 29.3669L26.1983 29.8488L25.7163 30.3315L24.2889 31.7582L25.8469 33.3162L27.275 31.888L27.7584 31.4061L28.2411 31.888L29.2372 32.8856L29.7206 33.3682L29.2372 33.8509L27.8091 35.2783L29.367 36.8363L32.4236 33.7783L32.5476 33.6558L33.0302 33.1768L33.5114 33.658L34.5082 34.6548L34.9902 35.139L34.5082 35.6216L31.3321 38.7977L32.26 39.7249C32.4385 39.9009 32.679 39.9996 32.9297 39.9996C33.1804 39.9996 33.421 39.9009 33.5994 39.7249L36.6626 36.6625L39.725 33.5971C39.9004 33.4187 39.9987 33.1786 39.9987 32.9285C39.9987 32.6784 39.9004 32.4382 39.725 32.2599V32.2621ZM6.08088 34.1839L5.90044 34.0871L5.80362 33.9074L5.53222 33.4034L4.37033 31.2418L3.65369 30.7547L3.16076 30.418L2.53801 34.2829L5.71999 37.4627L9.57829 36.8422L8.74427 35.6179L6.08088 34.1839ZM37.9704 9.3339C38.1458 9.15555 38.2441 8.91545 38.2441 8.66531C38.2441 8.41518 38.1458 8.17506 37.9704 7.99671L32.0011 2.02884C31.8227 1.85346 31.5826 1.75517 31.3325 1.75517C31.0824 1.75517 30.8422 1.85346 30.6639 2.02884L27.3161 5.37732L34.6219 12.6839L37.9704 9.3339ZM33.4146 13.8905L26.108 6.5847L25.8696 6.82309L33.1762 14.1289L33.4146 13.8905ZM2.08103 37.1194L1.92919 38.073L3.63828 37.7994L2.20426 36.3639L2.08103 37.1194Z" fill="#FE5E3A"/>
</g>
<defs>
<clipPath id="clip0_1017_182">
<rect width="40" height="40" fill="white"/>
</clipPath>
</defs>
</svg>
