<svg width="40" height="40" viewBox="0 0 40 40" fill="none" xmlns="http://www.w3.org/2000/svg">
<path d="M25.4173 3.3335C26.0501 3.3335 26.5731 3.80375 26.6559 4.41388L26.6673 4.5835L26.6682 8.4587C29.119 8.95656 31.0489 10.8885 31.5437 13.3404L35.4173 13.3417C36.1077 13.3417 36.6673 13.9014 36.6673 14.5917C36.6673 15.2245 36.1971 15.7475 35.5869 15.8303L35.4173 15.8417L31.6673 15.8402V18.7568L35.4173 18.7584C36.0501 18.7584 36.5731 19.2286 36.6559 19.8388L36.6673 20.0084C36.6673 20.6412 36.1971 21.1642 35.5869 21.247L35.4173 21.2584L31.6673 21.2568V24.1735L35.4173 24.175C36.0501 24.175 36.5731 24.6453 36.6559 25.2554L36.6673 25.425C36.6673 26.0579 36.1971 26.5809 35.5869 26.6636L35.4173 26.675L31.5407 26.6748C31.041 29.1196 29.114 31.0448 26.6682 31.5416L26.6673 35.4168C26.6673 36.1072 26.1077 36.6668 25.4173 36.6668C24.7845 36.6668 24.2615 36.1966 24.1787 35.5864L24.1673 35.4168V31.6652H21.249L21.2506 35.4168C21.2506 36.0497 20.7804 36.5726 20.1703 36.6554L20.0006 36.6668C19.3678 36.6668 18.8448 36.1966 18.7621 35.5864L18.7506 35.4168L18.749 31.6652H15.834V35.4168C15.834 36.0497 15.3637 36.5726 14.7536 36.6554L14.584 36.6668C13.9512 36.6668 13.4282 36.1966 13.3454 35.5864L13.334 35.4168L13.3348 31.542C10.8855 31.0451 8.95613 29.116 8.45899 26.6668L4.58398 26.6668C3.89363 26.6668 3.33398 26.1072 3.33398 25.4168C3.33398 24.784 3.80424 24.261 4.41437 24.1782L4.58398 24.1668L8.33398 24.1652V21.2485L4.58398 21.2502C3.95116 21.2502 3.42817 20.7799 3.3454 20.1698L3.33398 20.0002C3.33398 19.3673 3.80424 18.8443 4.41437 18.7616L4.58398 18.7502L8.33398 18.7485V15.8318L4.58398 15.8335C3.95116 15.8335 3.42817 15.3632 3.3454 14.7531L3.33398 14.5835C3.33398 13.9507 3.80424 13.4277 4.41437 13.3449L4.58398 13.3335L8.45933 13.3319C8.957 10.8835 10.886 8.95511 13.3348 8.45836L13.334 4.5835C13.334 3.89314 13.8936 3.3335 14.584 3.3335C15.2168 3.3335 15.7398 3.80375 15.8226 4.41388L15.834 4.5835V8.33183H18.749L18.7506 4.5835C18.7506 3.95067 19.2209 3.42768 19.831 3.34491L20.0006 3.3335C20.6335 3.3335 21.1565 3.80375 21.2392 4.41388L21.2506 4.5835L21.249 8.33183H24.1673V4.5835C24.1673 4.0082 24.556 3.52367 25.085 3.37815L25.2477 3.34491L25.4173 3.3335ZM20.0089 15.0084C17.2474 15.0084 15.0089 17.247 15.0089 20.0084C15.0089 22.7698 17.2474 25.0084 20.0089 25.0084C22.7703 25.0084 25.0089 22.7698 25.0089 20.0084C25.0089 17.247 22.7703 15.0084 20.0089 15.0084ZM20.0089 17.5084C21.3896 17.5084 22.5089 18.6277 22.5089 20.0084C22.5089 21.3891 21.3896 22.5084 20.0089 22.5084C18.6282 22.5084 17.5089 21.3891 17.5089 20.0084C17.5089 18.6277 18.6282 17.5084 20.0089 17.5084Z" fill="#FE5E3A"/>
</svg>
