<svg width="22" height="22" viewBox="0 0 22 22" fill="none" xmlns="http://www.w3.org/2000/svg">
<g clip-path="url(#clip0_389_4830)">
<path d="M22 10.0681V6.10352e-05H0V10.0681H6.90435V11.8255C6.90435 12.3438 6.4827 12.7654 5.96449 12.7654H4.62421C3.38529 12.7654 2.37737 13.7733 2.37737 15.0122V17.1238C2.37737 18.3627 3.38534 19.3706 4.62421 19.3706H7.55782V18.0637H4.62421C4.10596 18.0637 3.68436 17.642 3.68436 17.1238V15.0122C3.68436 14.494 4.10601 14.0724 4.62421 14.0724H5.96449C7.20341 14.0724 8.21133 13.0644 8.21133 11.8255V10.0681H13.7887V11.8255C13.7887 13.0645 14.7966 14.0724 16.0355 14.0724H17.3758C17.894 14.0724 18.3156 14.494 18.3156 15.0122V17.1238C18.3156 17.642 17.894 18.0637 17.3758 18.0637H14.4422V19.3706H17.3758C18.6147 19.3706 19.6226 18.3627 19.6226 17.1238V15.0122C19.6226 13.7733 18.6147 12.7654 17.3758 12.7654H16.0355C15.5173 12.7654 15.0957 12.3437 15.0957 11.8255V10.0681H22ZM18.1724 2.25631H19.7495V3.56329H18.1724V2.25631ZM18.1724 4.3806H19.7495V5.68758H18.1724V4.3806ZM18.1724 6.50484H19.7495V7.81182H18.1724V6.50484ZM15.5188 2.25631H17.0958V3.56329H15.5188V2.25631ZM15.5188 4.3806H17.0958V5.68758H15.5188V4.3806ZM15.5188 6.50484H17.0958V7.81182H15.5188V6.50484ZM4.9042 2.25631H6.48119V3.56329H4.9042V2.25631ZM3.82757 7.81182H2.25053V6.50484H3.82757V7.81182ZM3.82757 5.68758H2.25053V4.3806H3.82757V5.68758ZM3.82757 3.56333H2.25053V2.25631H3.82757V3.56333ZM4.9042 4.3806H6.48119V5.68758H4.9042V4.3806ZM6.48123 7.81182H4.90424V6.50484H6.48123V7.81182ZM10.2115 2.25631H11.7885V3.56329H10.2115V2.25631ZM10.2115 4.3806H11.7885V5.68758H10.2115V4.3806ZM7.55786 2.25631H9.13486V3.56329H7.55786V2.25631ZM7.55786 4.3806H9.1349V5.68758H7.55786V4.3806ZM14.4421 7.81182H7.55786V6.50484H14.4422V7.81182H14.4421ZM14.4421 5.68758H12.8651V4.3806H14.4421V5.68758ZM14.4421 3.56333H12.8651V2.25631H14.4421V3.56333Z" fill="#FE5E3A"/>
<path d="M11.5602 20.0411H10.4398H9.13281V20.1327C9.13281 21.1623 9.97045 21.9999 11 21.9999C12.0296 21.9999 12.8672 21.1623 12.8672 20.1327V20.0411H11.5602Z" fill="#FE5E3A"/>
<path d="M10.9998 12.7922C9.21195 12.7922 7.75732 14.2468 7.75732 16.0347C7.75732 16.8909 8.08797 17.6985 8.68829 18.3087L8.72833 18.3493C8.83756 18.4649 8.92801 18.5947 8.99921 18.7342H9.13258H10.3904H11.6091H12.867H13.0004C13.0714 18.595 13.1616 18.4655 13.2706 18.3501L13.3113 18.3087C13.9117 17.6984 14.2423 16.8909 14.2423 16.0347C14.2423 14.2469 12.7877 12.7922 10.9998 12.7922Z" fill="#FE5E3A"/>
</g>
<defs>
<clipPath id="clip0_389_4830">
<rect width="22" height="22" fill="white"/>
</clipPath>
</defs>
</svg>
