<svg width="100" height="80" viewBox="0 0 100 80" fill="none" xmlns="http://www.w3.org/2000/svg">
<g clip-path="url(#clip0_2023_2067)">
<path d="M91.2565 30.3131C78.4382 24.8018 69.0154 13.6117 66.3838 0C63.7522 13.6117 54.3296 24.8018 41.5111 30.3131C39.0494 31.3987 32.7676 33.0689 32.7676 33.0689C32.7676 33.0689 38.9645 34.7391 41.5111 35.8247C54.3296 41.3362 63.7522 52.6096 66.3838 66.1378C69.0154 52.526 78.4382 41.3362 91.2565 35.8247C93.7182 34.7391 100 33.0689 100 33.0689C100 33.0689 93.8031 31.3987 91.2565 30.3131Z" fill="#111111"/>
<path d="M38.2002 58.8729C30.5602 55.6161 25.0424 48.9356 23.4296 40.9189C21.9015 48.9356 16.2988 55.6161 8.65874 58.8729C7.2156 59.5409 3.48047 60.4596 3.48047 60.4596C3.48047 60.4596 7.13071 61.4616 8.65874 62.0463C16.2988 65.3029 21.8166 71.9836 23.4296 80.0003C25.0424 72.0672 30.5602 65.3865 38.2002 62.1296C39.6436 61.4616 43.3787 60.5432 43.3787 60.5432C43.3787 60.5432 39.6436 59.5409 38.2002 58.8729Z" fill="#111111"/>
<path d="M98.6408 60.5431C98.6408 62.4638 97.0279 63.9669 95.1604 63.9669C93.2079 63.9669 91.6797 62.3803 91.6797 60.5431C91.6797 58.6225 93.2928 57.1194 95.1604 57.1194C97.0279 57.0358 98.6408 58.6225 98.6408 60.5431Z" fill="#111111"/>
<path d="M34.0412 12.9433C34.0412 14.864 32.4283 16.3671 30.5605 16.3671C28.6081 16.3671 27.0801 14.7805 27.0801 12.9433C27.0801 11.0227 28.693 9.51953 30.5605 9.51953C32.5132 9.51953 34.0412 11.0227 34.0412 12.9433Z" fill="#111111"/>
<path d="M3.48047 36.4931C5.40269 36.4931 6.96096 34.9602 6.96096 33.0693C6.96096 31.1784 5.40269 29.6455 3.48047 29.6455C1.55826 29.6455 0 31.1784 0 33.0693C0 34.9602 1.55826 36.4931 3.48047 36.4931Z" fill="#111111"/>
</g>
<defs>
<clipPath id="clip0_2023_2067">
<rect width="100" height="80" fill="white"/>
</clipPath>
</defs>
</svg>
