<svg width="17" height="16" viewBox="0 0 17 16" fill="none" xmlns="http://www.w3.org/2000/svg">
<g clip-path="url(#clip0_437_66)">
<path d="M13.7935 2.12158H2.2262C0.998385 2.12158 0.00292969 3.11596 0.00292969 4.34244V11.6528C0.00292969 12.8793 0.998385 13.8737 2.2262 13.8737H13.7935C15.0213 13.8737 16.0168 12.8793 16.0168 11.6528V4.34244C16.0168 3.11596 15.0213 2.12158 13.7935 2.12158ZM5.57544 10.0509L2.46212 12.7041C2.24252 12.8913 1.91239 12.8653 1.72501 12.6457C1.5376 12.4264 1.56365 12.0966 1.7835 11.9094L4.89682 9.25624C5.11638 9.06903 5.44648 9.09506 5.63389 9.31467C5.82131 9.53399 5.79525 9.86376 5.57544 10.0509ZM8.00986 9.04229C7.59343 9.04126 7.18977 8.90304 6.87419 8.63041L6.87444 8.63066L6.87344 8.62991C6.87369 8.63016 6.87397 8.63016 6.87419 8.63041L2.0973 4.48885C1.87899 4.29957 1.85575 3.96983 2.04495 3.75204C2.23439 3.53396 2.56452 3.51075 2.78252 3.69974L7.56075 7.84233C7.66287 7.93312 7.83114 7.99867 8.00986 7.99764C8.18832 7.99817 8.35375 7.93441 8.4615 7.84055L8.46381 7.83852L13.2372 3.69977C13.4552 3.51078 13.7853 3.53399 13.9748 3.75207C14.1639 3.96983 14.1407 4.29961 13.9224 4.48888L9.14421 8.63169C8.82966 8.90148 8.42653 9.04176 8.00986 9.04229ZM14.2949 12.6457C14.1075 12.8653 13.7774 12.8913 13.5578 12.7041L10.4445 10.0509C10.2247 9.86373 10.1987 9.53399 10.3861 9.31467C10.5734 9.09506 10.9036 9.06906 11.1231 9.25624L14.2365 11.9094C14.4563 12.0966 14.4823 12.4264 14.2949 12.6457Z" fill="#EBEBEB"/>
</g>
<defs>
<clipPath id="clip0_437_66">
<rect width="16.0139" height="15.9965" fill="white" transform="translate(0.00292969 -0.000488281)"/>
</clipPath>
</defs>
</svg>
