<svg width="14" height="14" viewBox="0 0 14 14" fill="none" xmlns="http://www.w3.org/2000/svg">
<path d="M6.9974 1.18994C3.78906 1.18994 1.16406 3.80911 1.16406 7.03495C1.16406 9.95162 3.29906 12.3725 6.0874 12.81V8.72662H4.60573V7.03495H6.0874V5.74577C6.0874 4.28161 6.95656 3.47661 8.2924 3.47661C8.92823 3.47661 9.59323 3.58744 9.59323 3.58744V5.02827H8.85823C8.1349 5.02827 7.9074 5.47744 7.9074 5.93829V7.03495H9.52906L9.26656 8.72662H7.9074V12.81C9.28196 12.5928 10.5337 11.8915 11.4365 10.8325C12.3393 9.77347 12.8339 8.42655 12.8307 7.03495C12.8307 3.80911 10.2057 1.18994 6.9974 1.18994Z" fill="#666666"/>
</svg>
