<svg width="32" height="32" viewBox="0 0 32 32" fill="none" xmlns="http://www.w3.org/2000/svg">
<path d="M29.4766 7.3125H31.75V11.8594H19.625V7.3125H21.8985V8.07037H23.4141V7.3125H27.961V8.07037H29.4766V7.3125ZM31.75 3.5235V6.55475H19.625V3.5235H23.4141V1.25H27.961V3.5235H31.75ZM24.3614 3.5235H27.0138V2.19725H24.3614V3.5235ZM3.87525 19.1268C3.87525 18.8144 4.076 18.6025 4.3995 18.6025C4.723 18.6025 4.92375 18.8033 4.92375 19.1268V30.75H16.3574V19.1268C16.3574 18.8144 16.5581 18.6025 16.8816 18.6025C17.194 18.6025 17.4059 18.8033 17.4059 19.1268V30.75H21.0424V18.0781C21.0424 15.2114 18.6999 12.88 15.8442 12.88H14.7957L10.6462 20.292L6.67513 12.88H5.44812C2.58137 12.88 0.25 15.2225 0.25 18.0781V30.75H3.8865V19.1268H3.87525ZM10.8092 11.4613C7.30387 11.4613 4.42312 8.87562 3.93725 5.509C4.00662 5.66512 4.12813 5.76925 4.24963 5.89075C5.01313 6.65425 6.28 6.65425 7.0435 5.89075C7.165 5.76925 7.26912 5.6305 7.35588 5.509C8.05 4.29425 9.36887 3.46125 10.8266 3.46125C13.0131 3.46125 14.8352 5.23137 14.8352 7.46987C14.8352 9.70837 13.0479 11.4613 10.8092 11.4613ZM9.14625 14.38C9.14625 13.5516 9.81787 12.88 10.6462 12.88C11.4746 12.88 12.1462 13.5516 12.1462 14.38C12.1462 15.2084 11.4746 15.88 10.6462 15.88C9.81787 15.88 9.14625 15.2085 9.14625 14.38Z" fill="white"/>
</svg>
