<svg width="16" height="16" viewBox="0 0 16 16" fill="none" xmlns="http://www.w3.org/2000/svg">
<path d="M9.99414 7C9.99414 7.53043 9.78343 8.03914 9.40835 8.41421C9.03328 8.78929 8.52457 9 7.99414 9C7.46371 9 6.955 8.78929 6.57993 8.41421C6.20485 8.03914 5.99414 7.53043 5.99414 7C5.99414 6.46957 6.20485 5.96086 6.57993 5.58579C6.955 5.21071 7.46371 5 7.99414 5C8.52457 5 9.03328 5.21071 9.40835 5.58579C9.78343 5.96086 9.99414 6.46957 9.99414 7Z" stroke="white" stroke-opacity="0.8" stroke-width="1.5" stroke-linecap="round" stroke-linejoin="round"/>
<path d="M12.9941 7C12.9941 11.7613 7.99414 14.5 7.99414 14.5C7.99414 14.5 2.99414 11.7613 2.99414 7C2.99414 5.67392 3.52092 4.40215 4.45861 3.46447C5.39629 2.52678 6.66806 2 7.99414 2C9.32022 2 10.592 2.52678 11.5297 3.46447C12.4674 4.40215 12.9941 5.67392 12.9941 7Z" stroke="white" stroke-opacity="0.8" stroke-width="1.5" stroke-linecap="round" stroke-linejoin="round"/>
</svg>
