<svg width="28" height="28" viewBox="0 0 28 28" fill="none" xmlns="http://www.w3.org/2000/svg">
<g clip-path="url(#clip0_2023_1718)">
<path d="M13.9993 5.44428V22.5554M9.72157 18.5371L10.975 19.4768C12.6447 20.7302 15.3526 20.7302 17.0237 19.4768C18.6949 18.2234 18.6949 16.1929 17.0237 14.9395C16.1896 14.3121 15.0945 13.9998 13.9993 13.9998C12.9656 13.9998 11.9318 13.6861 11.1432 13.0602C9.56614 11.8068 9.56614 9.77624 11.1432 8.52286C12.7203 7.26947 15.2784 7.26947 16.8555 8.52286L17.4472 8.99341M26.8327 13.9998C26.8327 15.6851 26.5007 17.3539 25.8558 18.9109C25.2109 20.468 24.2656 21.8827 23.0739 23.0744C21.8822 24.2661 20.4675 25.2114 18.9105 25.8563C17.3534 26.5012 15.6846 26.8332 13.9993 26.8332C12.3141 26.8332 10.6453 26.5012 9.08824 25.8563C7.53123 25.2114 6.1165 24.2661 4.92481 23.0744C3.73313 21.8827 2.78783 20.468 2.14289 18.9109C1.49796 17.3539 1.16602 15.6851 1.16602 13.9998C1.16602 10.5962 2.51809 7.33202 4.92481 4.9253C7.33153 2.51858 10.5957 1.1665 13.9993 1.1665C17.403 1.1665 20.6672 2.51858 23.0739 4.9253C25.4806 7.33202 26.8327 10.5962 26.8327 13.9998Z" stroke="#111111" stroke-width="1.5" stroke-linecap="round" stroke-linejoin="round"/>
</g>
<defs>
<clipPath id="clip0_2023_1718">
<rect width="28" height="28" fill="white"/>
</clipPath>
</defs>
</svg>
