<svg width="15" height="16" viewBox="0 0 15 16" fill="none" xmlns="http://www.w3.org/2000/svg">
<path d="M1.83154 5.5992C1.83245 6.48029 2.03762 7.3487 2.43035 8.13363C2.82308 8.91856 3.39224 9.59781 4.09145 10.116L4.09223 10.1168C4.54234 10.4531 5.04027 10.7172 5.56875 10.9L5.60878 10.9152C5.90637 11.0142 6.21182 11.0867 6.52169 11.132C6.78756 11.1753 7.05626 11.1981 7.32549 11.2H7.32628C7.60102 11.2 7.8679 11.1728 8.13244 11.1328L8.2753 11.1104C8.53905 11.0632 8.79651 10.9992 9.04535 10.916L9.07832 10.9032C11.2511 10.1544 12.821 8.0624 12.821 5.5992C12.821 2.512 10.3562 0 7.32628 0C4.29632 0 1.83154 2.512 1.83154 5.5992ZM7.32628 1.6C9.48964 1.6 11.2511 3.3936 11.2511 5.5992H9.68117C9.68034 4.96301 9.43194 4.35314 8.99047 3.90336C8.549 3.45359 7.95051 3.20063 7.32628 3.2V1.6ZM3.81043 11.836V16L7.32628 14.8L10.8421 16L10.8429 11.836C9.77454 12.4672 8.56156 12.7996 7.32667 12.7996C6.09178 12.7996 4.8788 12.4672 3.81043 11.836Z" fill="#FE5E3A"/>
</svg>
