<svg width="16" height="16" viewBox="0 0 16 16" fill="none" xmlns="http://www.w3.org/2000/svg">
<g clip-path="url(#clip0_1049_29)">
<path d="M15.7333 14.7999V4.3999H12.5333V14.7999H11.7333V6.53324H8.53333V14.7999H7.73333V8.66657H4.53333V14.7999H3.73333V11.0666H0.533333V14.7999H0.266667C0.119467 14.7999 0 14.9191 0 15.0666C0 15.214 0.119467 15.3332 0.266667 15.3332H0.533333H3.73333H4.53333H7.73333H8.53333H11.7333H12.5333H15.7333C15.8805 15.3332 16 15.214 16 15.0666C16 14.9191 15.8805 14.7999 15.7333 14.7999Z" fill="#FE5E3A"/>
<path d="M2.14151 7.42121C2.18658 7.42121 2.23271 7.40975 2.27458 7.38548L11.9463 1.80148L11.341 3.13215C11.2799 3.26628 11.3391 3.42441 11.4732 3.48521C11.509 3.50175 11.5466 3.50921 11.5836 3.50921C11.685 3.50921 11.7818 3.45108 11.8266 3.35295L12.7764 1.26495C12.7794 1.25828 12.7788 1.25108 12.7812 1.24415C12.7863 1.23001 12.7903 1.21641 12.793 1.20148C12.7943 1.19401 12.7986 1.18788 12.7991 1.18015C12.7994 1.17695 12.798 1.17428 12.7983 1.17108C12.7988 1.16095 12.7978 1.15161 12.7972 1.14148C12.7964 1.12681 12.794 1.11295 12.7908 1.09828C12.7887 1.08815 12.7882 1.07775 12.7847 1.06788C12.7815 1.05828 12.7759 1.05028 12.7716 1.04095C12.7682 1.03481 12.7682 1.02761 12.7644 1.02121C12.7607 1.01481 12.7543 1.01108 12.75 1.00495C12.7444 0.996681 12.7402 0.987881 12.7335 0.980414C12.7266 0.972414 12.7178 0.966814 12.7098 0.959614C12.6988 0.949748 12.6879 0.940681 12.6756 0.932681C12.6674 0.927348 12.6599 0.921481 12.6508 0.916948C12.6479 0.915614 12.6463 0.912948 12.6434 0.911614C12.6367 0.908681 12.6295 0.909214 12.6228 0.906814C12.6082 0.901481 12.5938 0.897748 12.5786 0.895081C12.5716 0.893748 12.566 0.889748 12.5588 0.889214L10.2756 0.667881C10.1276 0.652948 9.99858 0.761214 9.98444 0.907348C9.97004 1.05401 10.0775 1.18441 10.2239 1.19855L11.6788 1.33961L2.00791 6.92361C1.88018 6.99721 1.83671 7.16041 1.91031 7.28788C1.95964 7.37348 2.04924 7.42121 2.14151 7.42121Z" fill="#FE5E3A"/>
</g>
<defs>
<clipPath id="clip0_1049_29">
<rect width="16" height="16" fill="white"/>
</clipPath>
</defs>
</svg>
