<svg width="171" height="171" viewBox="0 0 171 171" fill="none" xmlns="http://www.w3.org/2000/svg">
<path d="M42.1292 102.342L31.3584 105.234L30.5454 102.205C30.0698 100.433 30.181 98.9341 30.8792 97.7086C31.5642 96.4755 32.7773 95.6252 34.5183 95.1579C36.2285 94.6988 37.6719 94.8304 38.8487 95.5527C40.0125 96.2674 40.8363 97.5262 41.3203 99.3291L42.1292 102.342ZM40.2535 101.156L39.905 99.8581C39.67 98.9824 39.3459 98.2687 38.9327 97.7169C38.5195 97.1652 37.9816 96.8071 37.319 96.6426C36.6536 96.4678 35.8418 96.5089 34.8838 96.7661C33.936 97.0205 33.2165 97.3849 32.7253 97.8591C32.2238 98.3361 31.9245 98.9079 31.8273 99.5745C31.7199 100.244 31.7782 100.996 32.0022 101.83L32.3879 103.267L40.2535 101.156Z" fill="white"/>
<path d="M39.389 89.9426L28.237 89.9392L28.2393 82.5632L29.6953 82.5636L29.6935 88.3076L32.9575 88.3086L32.9592 83.0446L34.4152 83.0451L34.4135 88.3091L37.9335 88.3102L37.9353 82.5662L39.3913 82.5666L39.389 89.9426Z" fill="white"/>
<path d="M40.8705 75.4602C40.596 76.568 40.0804 77.4073 39.3236 77.978C38.5693 78.5384 37.6915 78.777 36.6901 78.6937L36.6984 77.0638C37.4306 77.1244 38.0344 76.9718 38.5097 76.606C38.9849 76.2403 39.3046 75.7261 39.4688 75.0634C39.5637 74.6803 39.5798 74.3272 39.517 74.0039C39.4465 73.6678 39.3036 73.3796 39.0884 73.1395C38.8628 72.8967 38.5843 72.7343 38.253 72.6523C37.901 72.565 37.5867 72.5916 37.3102 72.7318C37.0363 72.8618 36.7677 73.0809 36.5044 73.3893C36.2334 73.6848 35.9444 74.0528 35.6375 74.4932C35.2429 75.0658 34.8493 75.5452 34.4569 75.9315C34.0671 76.3075 33.6498 76.5722 33.2052 76.7258C32.7527 76.8664 32.2521 76.8688 31.7034 76.7328C31.1443 76.5943 30.6858 76.3378 30.328 75.9634C29.9625 75.5761 29.717 75.1032 29.5917 74.5447C29.4663 73.9861 29.4844 73.3807 29.6461 72.7285C29.8179 72.0348 30.1311 71.4585 30.5854 70.9996C31.032 70.5279 31.6108 70.2097 32.3219 70.0453L32.7868 71.4956C32.3162 71.6208 31.9311 71.8221 31.6316 72.0995C31.3347 72.3666 31.1349 72.7072 31.0323 73.1214C30.9527 73.4423 30.943 73.7476 31.0031 74.0373C31.0658 74.3165 31.1879 74.5556 31.3694 74.7544C31.5431 74.9403 31.7749 75.0692 32.0648 75.141C32.3651 75.2154 32.6444 75.1967 32.9029 75.0849C33.164 74.9628 33.4235 74.7579 33.6816 74.4702C33.9319 74.1695 34.2131 73.7887 34.5252 73.3275C34.9327 72.7472 35.3379 72.2651 35.7407 71.8814C36.1331 71.4951 36.5568 71.2265 37.0118 71.0755C37.4668 70.9245 37.9791 70.9195 38.5485 71.0606C39.1697 71.2145 39.6852 71.5071 40.0948 71.9383C40.4967 72.3565 40.7707 72.8695 40.9168 73.4771C41.063 74.0848 41.0475 74.7458 40.8705 75.4602Z" fill="white"/>
<path d="M43.0069 68.3899L32.8495 63.7862L33.5232 62.2998L43.6806 66.9034L43.0069 68.3899Z" fill="white"/>
<path d="M48.2501 59.5903C47.654 60.3965 46.9346 60.9657 46.092 61.2978C45.2495 61.6299 44.3465 61.7117 43.3832 61.5433C42.4199 61.3749 41.4752 60.9483 40.5489 60.2633C39.6226 59.5784 38.9422 58.8032 38.5075 57.9379C38.0642 57.0662 37.8811 56.1746 37.9581 55.2632C38.0415 54.3431 38.3908 53.4671 39.006 52.6352C39.6846 51.7175 40.4985 51.0922 41.4477 50.7594C42.4033 50.418 43.392 50.3996 44.4138 50.7041L43.9603 52.2592C43.2443 52.0614 42.567 52.0713 41.9285 52.289C41.2814 52.5003 40.7231 52.9233 40.2538 53.558C39.8226 54.1412 39.5867 54.7561 39.5463 55.4028C39.5037 56.0346 39.6466 56.6576 39.975 57.2719C40.3012 57.8713 40.8159 58.4311 41.5192 58.9511C42.2225 59.4712 42.9128 59.8025 43.59 59.9451C44.2736 60.0791 44.9155 60.0364 45.5156 59.8168C46.1135 59.5824 46.628 59.1736 47.0593 58.5904C47.2813 58.2902 47.4678 57.9572 47.6189 57.5913C47.7678 57.2106 47.8377 56.8112 47.8284 56.3931C47.8106 55.9687 47.6819 55.5418 47.4421 55.1125C47.2024 54.6832 46.7995 54.2592 46.2335 53.8406L45.6288 53.3935L46.7482 53.7635L44.8646 56.3108L43.6939 55.4451L46.2149 52.0359L50.9748 55.5557L50.1187 56.7136L48.3388 55.676L48.6677 55.581C48.931 56.0144 49.0823 56.4646 49.1217 56.9315C49.1526 57.3921 49.0917 57.8512 48.939 58.3088C48.7842 58.7515 48.5545 59.1786 48.2501 59.5903Z" fill="white"/>
<path d="M53.7805 52.7165L47.0685 43.8105L48.423 42.7898L58.2976 46.6676L57.991 46.8987L52.5501 39.6793L53.8407 38.7067L60.5526 47.6127L59.1726 48.6527L49.3267 44.7333L49.6333 44.5021L55.0838 51.7343L53.7805 52.7165Z" fill="white"/>
<path d="M68.58 37.1429L67.6986 36.823L68.5773 34.8548L66.4273 34.9831L66.436 34.0115L68.5801 34.2526L67.7838 32.2699L68.7031 31.9936L69.1471 34.0822L70.803 32.699L71.3306 33.5095L69.4814 34.5831L71.2995 35.7408L70.7405 36.4936L69.1184 35.0431L68.58 37.1429Z" fill="white"/>
<path d="M82.9564 40.6295L83.6467 29.4989L86.7767 29.693C88.6078 29.8066 89.9931 30.3894 90.9324 31.4416C91.8831 32.4837 92.3026 33.9044 92.191 35.7036C92.0814 37.4709 91.4969 38.7973 90.4374 39.6827C89.3892 40.5582 87.9335 40.9382 86.0705 40.8226L82.9564 40.6295ZM84.6784 39.2294L86.0198 39.3126C86.9248 39.3687 87.7045 39.2888 88.3591 39.0729C89.0138 38.857 89.5246 38.4612 89.8916 37.8855C90.2692 37.3104 90.4887 36.5279 90.5501 35.5378C90.6109 34.5583 90.4947 33.7603 90.2017 33.1436C89.9093 32.5163 89.4626 32.0504 88.8616 31.746C88.2613 31.4309 87.5299 31.2466 86.6676 31.1931L85.1825 31.101L84.6784 39.2294Z" fill="white"/>
<path d="M95.5831 41.9812L99.1386 31.4112L106.13 33.7628L105.665 35.1429L100.221 33.3115L99.1806 36.4052L104.17 38.0835L103.706 39.4635L98.7164 37.7852L97.5941 41.1215L103.038 42.9528L102.574 44.3329L95.5831 41.9812Z" fill="white"/>
<path d="M108.925 47.8129L111.352 36.0484L112.847 37.0367L110.74 46.6345L110.34 46.3698L118.305 40.6459L119.8 41.6343L109.953 48.4924L108.925 47.8129Z" fill="white"/>
<path d="M116.08 53.1976L124.413 45.7864L129.315 51.2981L128.227 52.2656L124.41 47.9735L121.971 50.1426L125.469 54.0761L124.381 55.0437L120.883 51.1102L118.252 53.4495L122.07 57.7416L120.982 58.7092L116.08 53.1976Z" fill="white"/>
<path d="M123.111 61.8363L132.921 56.5316L133.697 57.9671L125.168 62.5793L127.505 66.9L126.224 67.5926L123.111 61.8363Z" fill="white"/>
<path d="M128.518 75.2598C128.276 74.2538 128.296 73.311 128.578 72.4313C128.863 71.562 129.374 70.8137 130.112 70.1864C130.86 69.5567 131.794 69.1071 132.914 68.8377C134.045 68.5658 135.081 68.5415 136.023 68.7646C136.976 68.9853 137.777 69.418 138.425 70.0629C139.077 70.7181 139.523 71.5487 139.765 72.5546C140.012 73.5814 139.995 74.5346 139.713 75.4143C139.43 76.294 138.915 77.0487 138.167 77.6784C137.429 78.3057 136.495 78.7552 135.365 79.0271C134.245 79.2965 133.207 79.3157 132.252 79.0847C131.31 78.8615 130.513 78.4223 129.862 77.7671C129.21 77.1119 128.762 76.2761 128.518 75.2598ZM130.027 74.8969C130.202 75.6228 130.517 76.2052 130.974 76.6439C131.441 77.0801 132.015 77.3699 132.697 77.5131C133.389 77.6538 134.15 77.6244 134.979 77.4248C135.82 77.2228 136.511 76.903 137.053 76.4654C137.605 76.0254 137.985 75.5062 138.192 74.9078C138.409 74.3069 138.431 73.6435 138.256 72.9176C138.087 72.2124 137.772 71.6352 137.313 71.1861C136.857 70.7474 136.282 70.4576 135.59 70.3169C134.911 70.1841 134.146 70.2199 133.296 70.4245C132.456 70.6265 131.758 70.9424 131.203 71.372C130.661 71.8096 130.287 72.3276 130.08 72.9259C129.875 73.5347 129.857 74.1916 130.027 74.8969Z" fill="white"/>
<path d="M130.151 84.092L141.297 84.4513L141.187 87.8896C141.147 89.1156 140.851 90.0345 140.297 90.6463C139.744 91.2688 138.939 91.563 137.884 91.529C136.839 91.4953 136.05 91.1497 135.516 90.4922C134.982 89.8346 134.735 88.8982 134.774 87.6828L134.833 85.8597L130.099 85.7071L130.151 84.092ZM136.272 85.9062L136.218 87.5693C136.195 88.2836 136.316 88.8478 136.58 89.2618C136.855 89.6762 137.301 89.8934 137.92 89.9133C138.527 89.9329 138.976 89.75 139.266 89.3644C139.556 88.9896 139.712 88.429 139.737 87.6827L139.79 86.0196L136.272 85.9062Z" fill="white"/>
<path d="M131.437 104.753L132.227 104.249L133.253 106.145L134.461 104.362L135.226 104.961L133.729 106.514L135.786 107.091L135.445 107.988L133.518 107.068L133.606 109.223L132.642 109.148L132.917 107.027L130.891 107.764L130.635 106.862L132.774 106.459L131.437 104.753Z" fill="white"/>
<path d="M118.258 116.909L125.82 125.105L120.399 130.107L119.411 129.037L123.633 125.142L121.42 122.743L117.551 126.312L116.564 125.242L120.432 121.673L118.045 119.086L113.824 122.981L112.836 121.911L118.258 116.909Z" fill="white"/>
<path d="M109.827 124.191L115.002 134.069L113.5 134.856L104.387 129.426L104.727 129.248L108.923 137.255L107.491 138.005L102.315 128.127L103.846 127.325L112.924 132.792L112.584 132.97L108.381 124.949L109.827 124.191Z" fill="white"/>
<path d="M95.4333 130.006C96.4625 129.769 97.3762 129.888 98.1744 130.361C98.9622 130.837 99.5179 131.612 99.8414 132.687L98.3214 133.217C98.0927 132.459 97.761 131.944 97.3264 131.672C96.8917 131.4 96.3729 131.333 95.77 131.472C95.0734 131.632 94.627 131.975 94.4306 132.502C94.2261 133.041 94.2206 133.732 94.4141 134.574L95.6856 140.11L99.9116 139.139L100.238 140.558L94.421 141.894L92.802 134.846C92.611 134.014 92.5917 133.263 92.7443 132.593C92.8865 131.926 93.1857 131.37 93.6419 130.926C94.098 130.482 94.6952 130.175 95.4333 130.006Z" fill="white"/>
<path d="M83.1675 131.265C84.2013 131.309 85.1023 131.587 85.8705 132.1C86.6281 132.613 87.207 133.31 87.6072 134.192C88.007 135.084 88.1824 136.106 88.1335 137.257C88.0841 138.419 87.8226 139.422 87.349 140.266C86.8749 141.122 86.2387 141.773 85.4403 142.219C84.6313 142.665 83.71 142.866 82.6762 142.822C81.6212 142.777 80.7095 142.499 79.9413 141.985C79.1731 141.472 78.5891 140.77 78.1893 139.877C77.789 138.995 77.6136 137.974 77.663 136.812C77.7119 135.661 77.9787 134.658 78.4635 133.803C78.9371 132.959 79.5784 132.313 80.3875 131.867C81.1965 131.421 82.1232 131.22 83.1675 131.265ZM83.1016 132.815C82.3556 132.784 81.709 132.927 81.1616 133.245C80.6138 133.574 80.1774 134.047 79.8522 134.663C79.5266 135.29 79.3457 136.029 79.3095 136.882C79.2728 137.745 79.3903 138.498 79.6619 139.139C79.9332 139.791 80.3279 140.299 80.8463 140.663C81.3642 141.037 81.9961 141.24 82.7421 141.272C83.4668 141.303 84.1082 141.159 84.6662 140.841C85.2135 140.523 85.65 140.05 85.9756 139.423C86.29 138.807 86.4658 138.062 86.503 137.188C86.5397 136.325 86.4278 135.567 86.1672 134.915C85.8955 134.274 85.5005 133.771 84.9822 133.408C84.4532 133.044 83.8263 132.846 83.1016 132.815Z" fill="white"/>
<path d="M71.4898 129.539L70.122 133.637L71.6923 141.364L69.9318 140.776L68.8768 134.942L64.4682 138.952L62.7228 138.37L68.574 133.12L69.9418 129.022L71.4898 129.539Z" fill="white"/>
<path d="M51.6332 122.18L51.8797 123.085L49.7649 123.501L51.1088 125.184L50.3097 125.737L49.2711 123.846L48.1097 125.639L47.354 125.047L48.8051 123.481L46.7204 122.924L47.0786 122.026L49.0218 122.919L48.9201 120.766L49.8574 120.789L49.6069 122.95L51.6332 122.18Z" fill="white"/>
</svg>
