<svg width="15" height="14" viewBox="0 0 15 14" fill="none" xmlns="http://www.w3.org/2000/svg">
<path d="M0.467609 13.154H2.33963C2.5979 13.154 2.80724 12.9446 2.80724 12.6863V4.50374C2.80724 4.24545 2.5979 4.03613 2.33963 4.03613H0.467609C0.209317 4.03613 0 4.24545 0 4.50374V12.6863C0 12.9446 0.209317 13.154 0.467609 13.154Z" fill="#888888"/>
<path d="M0.467609 2.59759H2.33963C2.5979 2.59759 2.80724 2.38824 2.80724 2.12998V0.467609C2.80724 0.209343 2.5979 0 2.33963 0H0.467609C0.209317 0 0 0.209343 0 0.467609V2.12998C0 2.38824 0.209317 2.59759 0.467609 2.59759Z" fill="#888888"/>
<path d="M13.6948 4.98477C13.4318 4.63851 13.0439 4.35375 12.531 4.13054C12.0181 3.9075 11.452 3.7959 10.8326 3.7959C9.57516 3.7959 8.50968 4.27578 7.63618 5.23572C7.46237 5.42672 7.336 5.38496 7.336 5.12667V4.5033C7.336 4.24501 7.12663 4.03569 6.86837 4.03569H5.19612C4.93783 4.03569 4.72852 4.24501 4.72852 4.5033V12.6859C4.72852 12.9441 4.93786 13.1535 5.19612 13.1535H7.06815C7.32644 13.1535 7.53576 12.9441 7.53576 12.6859V9.84019C7.53576 8.65468 7.60734 7.84208 7.75052 7.40253C7.89364 6.96298 8.15847 6.61002 8.54475 6.3436C8.93108 6.07718 9.36727 5.9439 9.85353 5.9439C10.2331 5.9439 10.5579 6.03716 10.8276 6.22371C11.0974 6.41023 11.2922 6.67152 11.4121 7.00794C11.5321 7.34431 11.592 8.08524 11.592 9.23084V12.6859C11.592 12.9441 11.8013 13.1535 12.0596 13.1535H13.9316C14.1898 13.1535 14.3992 12.9441 14.3992 12.6859V8.05192C14.3992 7.23276 14.3475 6.60332 14.2444 6.16377C14.1413 5.72422 13.958 5.33122 13.6948 4.98477Z" fill="#888888"/>
</svg>
