<svg width="22" height="22" viewBox="0 0 22 22" fill="none" xmlns="http://www.w3.org/2000/svg">
<path fill-rule="evenodd" clip-rule="evenodd" d="M14.4593 2.32634H8.17427V0.872306C8.17427 0.485095 7.85989 0.170715 7.47268 0.170715C7.08545 0.170715 6.77109 0.485095 6.77109 0.872306V2.32641C5.60154 2.33292 4.48131 2.80032 3.65386 3.62779C2.90013 4.38151 2.44514 5.37813 2.36513 6.43357H0.898368C0.511157 6.43357 0.196777 6.74795 0.196777 7.13516C0.196777 7.52237 0.511157 7.83675 0.898368 7.83675H2.3524V14.1218H0.898368C0.511157 14.1218 0.196777 14.4362 0.196777 14.8234C0.196777 15.2106 0.511157 15.525 0.898368 15.525H2.36513C2.44514 16.5805 2.90013 17.5771 3.65386 18.3308C4.48131 19.1583 5.60154 19.6257 6.77109 19.6322V21.0863C6.77109 21.4735 7.08545 21.7878 7.47268 21.7878C7.85989 21.7878 8.17427 21.4735 8.17427 21.0863V19.6322H14.4593V21.0863C14.4593 21.4735 14.7737 21.7878 15.1609 21.7878C15.5481 21.7878 15.8625 21.4735 15.8625 21.0863V19.5848C16.8014 19.4465 17.6777 19.0099 18.3569 18.3308C19.1106 17.5771 19.5655 16.5805 19.6456 15.525H21.1123C21.4996 15.525 21.8139 15.2106 21.8139 14.8234C21.8139 14.4362 21.4996 14.1218 21.1123 14.1218H19.6583V7.83675H21.1123C21.4996 7.83675 21.8139 7.52237 21.8139 7.13516C21.8139 6.74795 21.4996 6.43357 21.1123 6.43357H19.6456C19.5655 5.37813 19.1106 4.38151 18.3569 3.62779C17.6777 2.94865 16.8014 2.51205 15.8625 2.37378V0.872306C15.8625 0.485095 15.5481 0.170715 15.1609 0.170715C14.7737 0.170715 14.4593 0.485095 14.4593 0.872306V2.32634ZM15.2149 18.2291H6.79581C5.98949 18.2291 5.21619 17.9087 4.64605 17.3386C4.07589 16.7684 3.75558 15.9951 3.75558 15.1888C3.75558 12.6505 3.75558 9.30805 3.75558 6.76975C3.75558 5.96343 4.07589 5.19013 4.64605 4.61999C5.21619 4.04983 5.98949 3.72952 6.79581 3.72952H15.2149C16.0212 3.72952 16.7945 4.04983 17.3647 4.61999C17.9348 5.19013 18.2551 5.96343 18.2551 6.76975V15.1888C18.2551 15.9951 17.9348 16.7684 17.3647 17.3386C16.7945 17.9087 16.0212 18.2291 15.2149 18.2291ZM7.02966 10.9793C7.02966 10.9793 7.02966 11.6489 7.02966 12.3825C7.02968 13.8032 8.18141 14.955 9.60217 14.955C10.482 14.955 11.5287 14.955 12.4085 14.955C13.8293 14.955 14.981 13.8032 14.981 12.3825C14.981 11.5026 14.981 10.456 14.981 9.57611C14.981 8.15535 13.8293 7.00362 12.4085 7.00362C11.675 7.00362 11.0054 7.00362 11.0054 7.00362C10.6181 7.00362 10.3038 7.31798 10.3038 7.70521C10.3038 8.09242 10.6181 8.4068 11.0054 8.4068H12.4085C13.0543 8.4068 13.5778 8.93031 13.5778 9.57607C13.5778 9.57613 13.5778 12.3825 13.5778 12.3825C13.5778 13.0283 13.0543 13.5518 12.4086 13.5518C12.4085 13.5518 9.60217 13.5518 9.60217 13.5518C8.95637 13.5518 8.43286 13.0283 8.43284 12.3825C8.43284 12.3824 8.43284 10.9793 8.43284 10.9793C8.43284 10.5921 8.11848 10.2777 7.73125 10.2777C7.34404 10.2777 7.02966 10.5921 7.02966 10.9793ZM15.6826 5.55949C16.0924 5.55949 16.4251 5.89221 16.4251 6.30203C16.4251 6.71183 16.0924 7.04455 15.6826 7.04455C15.2728 7.04455 14.9401 6.71183 14.9401 6.30203C14.9401 5.89221 15.2728 5.55949 15.6826 5.55949Z" fill="#FE5E3A"/>
<path fill-rule="evenodd" clip-rule="evenodd" d="M19.6584 6.76977C19.6584 5.5913 19.1903 4.4611 18.357 3.62781C17.5237 2.7945 16.3935 2.32635 15.215 2.32635C12.6767 2.32635 9.33425 2.32635 6.79595 2.32635C5.61748 2.32635 4.48728 2.7945 3.65399 3.62781C2.82069 4.4611 2.35254 5.5913 2.35254 6.76977C2.35254 9.30806 2.35254 12.6506 2.35254 15.1888C2.35254 16.3673 2.82069 17.4975 3.65399 18.3308C4.48728 19.1641 5.61748 19.6323 6.79595 19.6323C8.36875 19.6323 10.1114 19.6323 11.3265 19.6323C12.5049 19.6323 13.6351 19.1641 14.4685 18.3308C15.5693 17.2299 17.2561 15.5431 18.357 14.4423C19.1903 13.609 19.6584 12.4788 19.6584 11.3003V6.76977ZM18.2552 6.76977V11.3003C18.2552 12.1066 17.9349 12.8799 17.3648 13.4501C16.2639 14.5509 14.5771 16.2377 13.4763 17.3386C12.9061 17.9088 12.1328 18.2291 11.3265 18.2291C10.1114 18.2291 8.36875 18.2291 6.79595 18.2291C5.98963 18.2291 5.21633 17.9088 4.64619 17.3386C4.07603 16.7684 3.75572 15.9952 3.75572 15.1888C3.75572 12.6506 3.75572 9.30806 3.75572 6.76977C3.75572 5.96344 4.07603 5.19015 4.64619 4.62001C5.21633 4.04984 5.98963 3.72954 6.79595 3.72954H15.215C16.0213 3.72954 16.7946 4.04984 17.3648 4.62001C17.9349 5.19015 18.2552 5.96344 18.2552 6.76977ZM7.0298 12.3825C7.02982 13.8032 8.18155 14.955 9.60231 14.955C10.4822 14.955 11.5288 14.955 12.4087 14.955C13.8294 14.955 14.9812 13.8032 14.9812 12.3825C14.9812 11.5026 14.9812 10.456 14.9812 9.57613C14.9812 8.15537 13.8294 7.00364 12.4087 7.00364H9.60231C8.18155 7.00364 7.02982 8.15537 7.0298 9.57613V12.3825ZM8.43298 12.3825V9.57613C8.433 8.93033 8.95651 8.40682 9.60227 8.40682C9.60234 8.40682 12.4087 8.40682 12.4087 8.40682C13.0545 8.40682 13.578 8.93033 13.578 9.57608C13.578 9.57615 13.578 12.3825 13.578 12.3825C13.578 13.0283 13.0545 13.5518 12.4087 13.5518C12.4086 13.5518 9.60231 13.5518 9.60231 13.5518C8.95651 13.5518 8.433 13.0283 8.43298 12.3825Z" fill="#FE5E3A" fill-opacity="0.5"/>
</svg>
