<svg width="48" height="49" viewBox="0 0 48 49" fill="none" xmlns="http://www.w3.org/2000/svg">
<path d="M44.256 8.15788C44.465 8.20268 44.681 8.22818 44.9032 8.22818C46.6111 8.22818 48 6.84225 48 5.13803C48 3.43381 46.6111 2.04788 44.9032 2.04788C43.1954 2.04788 41.8064 3.43381 41.8064 5.13803C41.8064 6.06507 42.2261 6.8886 42.8764 7.45564L39.3252 14.5437C36.7479 6.41349 29.1182 0.502808 20.129 0.502808C9.02942 0.502808 0 9.51291 0 20.5888C0 30.2818 6.80206 38.4483 16.2581 40.2815V44.5374C16.2581 46.6673 17.9946 48.4001 20.129 48.4001C22.2635 48.4001 24 46.6673 24 44.5374V40.2815C33.456 38.4483 40.2581 30.2818 40.2581 20.5888C40.2581 19.3094 40.1326 18.0595 39.9019 16.8458L44.256 8.15788ZM44.9032 3.59296C45.7564 3.59296 46.4516 4.28669 46.4516 5.13803C46.4516 5.98937 45.7564 6.6831 44.9032 6.6831C44.0493 6.6831 43.3548 5.98937 43.3548 5.13803C43.3548 4.28669 44.0493 3.59296 44.9032 3.59296ZM38.2785 16.6303L37.8085 17.5689C37.5995 17.5241 37.3835 17.4986 37.1613 17.4986C36.569 17.4986 36.0209 17.674 35.5502 17.9621L30.8021 13.8159C30.9004 13.5146 30.9677 13.1979 30.9677 12.8634C30.9677 12.7668 30.9476 12.6764 30.9391 12.5822C33.2013 11.717 34.6769 10.7451 35.4658 10.1371C36.7935 12.0708 37.7613 14.2671 38.2785 16.6303ZM34.4764 19.0777C34.3455 19.3087 34.2426 19.5543 34.1744 19.8162H30.943C30.8973 18.3731 30.7285 16.9447 30.432 15.5464L34.4764 19.0777ZM34.5375 8.89874C33.8609 9.4202 32.5169 10.3187 30.4274 11.1236C29.9698 10.4562 29.2568 9.98106 28.4299 9.82887C26.6206 6.22422 24.247 3.69493 22.5739 2.21243C27.3817 2.84746 31.615 5.3188 34.5375 8.89874ZM29.4194 12.8634C29.4194 13.7147 28.7241 14.4085 27.871 14.4085C27.017 14.4085 26.3226 13.7155 26.3226 12.8634C26.3226 12.0113 27.017 11.3183 27.871 11.3183C28.7241 11.3183 29.4194 12.0121 29.4194 12.8634ZM20.9032 2.8266C22.3595 4.02789 24.8624 6.42817 26.7701 9.98493C26.184 10.2082 25.6823 10.5991 25.3293 11.1059C23.9628 10.3573 22.4578 9.91231 20.9032 9.80183V2.8266ZM20.129 17.4986C18.4212 17.4986 17.0323 18.8846 17.0323 20.5888C17.0323 22.293 18.4212 23.6789 20.129 23.6789C21.8369 23.6789 23.2258 22.293 23.2258 20.5888C23.2258 20.0171 23.0594 19.4887 22.7868 19.029L24.463 17.3565C25.1412 18.2596 25.5484 19.3759 25.5484 20.5888C25.5484 23.57 23.1166 25.9965 20.129 25.9965C17.1414 25.9965 14.7097 23.57 14.7097 20.5888C14.7097 17.6075 17.1414 15.181 20.129 15.181C21.3445 15.181 22.4632 15.5874 23.3683 16.2641L21.6921 17.9366C21.2315 17.6647 20.7019 17.4986 20.129 17.4986ZM21.6774 20.5888C21.6774 21.4409 20.9822 22.1338 20.129 22.1338C19.2751 22.1338 18.5806 21.4409 18.5806 20.5888C18.5806 19.7367 19.2751 19.0437 20.129 19.0437C20.9822 19.0437 21.6774 19.7367 21.6774 20.5888ZM19.3548 2.82969V9.81188C17.0903 9.97257 15.017 10.8231 13.3479 12.1643C13.0777 12.1055 12.8098 12.0461 12.5543 11.9819C14.5084 7.30577 17.6493 4.24189 19.3548 2.82969ZM17.6663 2.21552C15.7254 3.92746 12.8532 7.02379 11.0261 11.5431C8.24361 10.6462 6.51484 9.51291 5.71974 8.89951C8.63923 5.32267 12.8663 2.85286 17.6663 2.21552ZM12.0186 13.4382C12.0093 13.4482 12 13.4583 11.9915 13.4683C11.9954 13.4575 11.9985 13.4451 12.0023 13.4343C12.0077 13.4358 12.0132 13.4374 12.0186 13.4382ZM4.79071 10.1387C5.70658 10.8471 7.55458 12.0461 10.4903 12.9955C9.82452 15.0165 9.38477 17.2908 9.3089 19.8162H1.56774C1.71561 16.2371 2.8831 12.9175 4.79071 10.1387ZM1.58323 21.3613H9.31277C9.38942 23.879 9.82839 26.1495 10.5012 28.1782C7.53987 29.1346 5.68258 30.3451 4.77213 31.0528C2.86994 28.2655 1.72877 24.9389 1.58323 21.3613ZM16.2581 38.7048C11.9737 37.804 8.30323 35.4933 5.69961 32.2935C6.48619 31.6832 8.22271 30.5367 11.0346 29.6313C12.4188 33.0374 14.417 35.678 16.2581 37.5861V38.7048ZM11.9714 27.6876C11.9868 27.7054 12.0031 27.7216 12.0178 27.7394C12.0085 27.7417 12 27.7448 11.9907 27.7471C11.9845 27.727 11.9783 27.7069 11.9714 27.6876ZM16.2581 35.2793C14.9001 33.6701 13.5468 31.65 12.5303 29.2018C12.7935 29.1353 13.0692 29.0735 13.3479 29.0125C14.2181 29.7109 15.199 30.2725 16.2581 30.6789V35.2793ZM22.4516 44.5374C22.4516 45.8152 21.4095 46.855 20.129 46.855C18.8485 46.855 17.8065 45.8152 17.8065 44.5374V31.1478C18.5559 31.3116 19.3308 31.4043 20.129 31.4043C20.9265 31.4043 21.7022 31.3116 22.4516 31.1478V44.5374ZM20.129 29.8592C15.0062 29.8592 10.8387 25.7006 10.8387 20.5888C10.8387 15.4769 15.0062 11.3183 20.129 11.3183C21.7796 11.3183 23.3837 11.7579 24.8021 12.5853C24.7935 12.678 24.7742 12.7684 24.7742 12.8634C24.7742 13.4351 24.9406 13.9635 25.2132 14.4232L24.473 15.1617C23.2808 14.2092 21.7719 13.6359 20.129 13.6359C16.2867 13.6359 13.1613 16.7547 13.1613 20.5888C13.1613 24.4229 16.2867 27.5416 20.129 27.5416C23.9714 27.5416 27.0968 24.4229 27.0968 20.5888C27.0968 18.9494 26.5223 17.4438 25.5677 16.2541L26.3079 15.5155C26.7685 15.7875 27.2981 15.9535 27.871 15.9535C27.9662 15.9535 28.056 15.9342 28.1497 15.9257C28.9788 17.341 29.4194 18.9417 29.4194 20.5888C29.4194 25.7006 25.2519 29.8592 20.129 29.8592ZM28.2867 27.6876C28.2805 27.7069 28.2735 27.727 28.2674 27.7463C28.2573 27.744 28.2488 27.7417 28.2395 27.7394C28.255 27.7224 28.2712 27.7054 28.2867 27.6876ZM27.727 29.201C26.7112 31.6492 25.3579 33.6694 24 35.2786V30.6781C25.0591 30.2725 26.0408 29.7117 26.9102 29.0125C27.1889 29.0735 27.4637 29.1353 27.727 29.201ZM24 38.7048V37.5861C25.8403 35.6787 27.8392 33.0374 29.2235 29.6313C32.0346 30.536 33.7719 31.6832 34.5585 32.2935C31.9548 35.4933 28.2844 37.804 24 38.7048ZM35.4852 31.0528C34.5747 30.3451 32.7166 29.1346 29.7561 28.1782C30.4289 26.1495 30.8686 23.879 30.9445 21.3613H34.1744C34.5205 22.6908 35.7221 23.6789 37.1613 23.6789C37.6374 23.6789 38.0841 23.5623 38.4875 23.3699C38.0679 26.1835 37.0266 28.7954 35.4852 31.0528ZM37.1613 22.1338C36.3074 22.1338 35.6129 21.4409 35.6129 20.5888C35.6129 19.7367 36.3074 19.0437 37.1613 19.0437C38.0145 19.0437 38.7097 19.7367 38.7097 20.5888C38.7097 21.4409 38.0145 22.1338 37.1613 22.1338Z" fill="#FE5E3A"/>
<path d="M47.9976 14.4086H46.4492V15.9536H47.9976V14.4086Z" fill="#FE5E3A"/>
<path d="M46.4507 12.8634H44.9023V14.4085H46.4507V12.8634Z" fill="#FE5E3A"/>
<path d="M44.9019 14.4084H43.3535V15.9535H44.9019V14.4084Z" fill="#FE5E3A"/>
<path d="M46.4507 15.9536H44.9023V17.4987H46.4507V15.9536Z" fill="#FE5E3A"/>
<path d="M39.4859 2.04797H37.9375V3.59305H39.4859V2.04797Z" fill="#FE5E3A"/>
<path d="M37.9351 0.502808H36.3867V2.04788H37.9351V0.502808Z" fill="#FE5E3A"/>
<path d="M36.3882 2.04797H34.8398V3.59305H36.3882V2.04797Z" fill="#FE5E3A"/>
<path d="M37.9351 3.5929H36.3867V5.13797H37.9351V3.5929Z" fill="#FE5E3A"/>
</svg>
