<svg width="48" height="49" viewBox="0 0 48 49" fill="none" xmlns="http://www.w3.org/2000/svg">
<path d="M34.6112 17.141C36.9793 17.141 38.9059 15.2186 38.9059 12.8554C38.9059 10.4923 36.9793 8.56982 34.6112 8.56982C32.2431 8.56982 30.3164 10.4923 30.3164 12.8554C30.3164 15.2186 32.243 17.141 34.6112 17.141ZM34.6112 10.0824C36.1434 10.0824 37.3901 11.3264 37.3901 12.8554C37.3901 14.3844 36.1434 15.6284 34.6112 15.6284C33.0789 15.6284 31.8322 14.3844 31.8322 12.8554C31.8322 11.3264 33.0789 10.0824 34.6112 10.0824Z" fill="#FE5E3A"/>
<path d="M43.2 28.2329H41.4316V25.3023C41.4316 21.5491 38.3717 18.4958 34.6105 18.4958C33.9285 18.4958 33.2575 18.5958 32.6117 18.7934C30.9848 16.0403 27.9824 14.1888 24.5542 14.1888H23.4458C19.9532 14.1888 16.9022 16.1107 15.2978 18.95C15.2543 18.9238 15.2078 18.9016 15.1581 18.884C14.4286 18.6264 13.6636 18.4957 12.8842 18.4957C9.123 18.4957 6.06309 21.549 6.06309 25.3022V28.2329H4.8C2.15334 28.2329 0 30.3816 0 33.0226C0 35.6636 2.15334 37.8124 4.8 37.8124H13.6961C15.4076 41.464 19.0121 44.0617 23.242 44.3409V47.6439C23.242 48.0616 23.5813 48.4001 23.9999 48.4001C24.4186 48.4001 24.7578 48.0616 24.7578 47.6439V44.3409C28.9878 44.0617 32.5921 41.464 34.3037 37.8124H43.2C45.8467 37.8124 48 35.6636 48 33.0226C48 30.3816 45.8467 28.2329 43.2 28.2329ZM15.6144 23.5163C15.6143 19.2072 19.1274 15.7015 23.4458 15.7015H24.5542C28.8726 15.7015 32.3857 19.2073 32.3857 23.5164V25.3714C30.4655 23.2775 27.7702 21.9033 24.758 21.7044V18.4013C24.758 17.9835 24.4187 17.645 24.0001 17.645C23.5814 17.645 23.2422 17.9835 23.2422 18.4013V21.7043C20.2299 21.9032 17.5346 23.2775 15.6144 25.3713V23.5163ZM33.8237 32.2663H31.7943C31.4359 28.5598 28.4723 25.6027 24.7579 25.245V23.2198C29.5877 23.5881 33.4547 27.4468 33.8237 32.2663ZM23.2421 23.2199V25.2451C19.5278 25.6027 16.5642 28.5599 16.2057 32.2665H14.1763V32.2664C14.5454 27.4469 18.4123 23.5881 23.2421 23.2199ZM4.8 36.2998C2.98903 36.2998 1.51575 34.8297 1.51575 33.0226C1.51575 31.2155 2.98903 29.7454 4.8 29.7454H6.06319V32.2663H5.05266C4.63397 32.2663 4.29478 32.6047 4.29478 33.0225C4.29478 33.4403 4.63397 33.7788 5.05266 33.7788H12.6575C12.7151 34.6493 12.8716 35.4933 13.1159 36.2997H4.8V36.2998ZM14.0985 27.4544C13.2825 28.8934 12.7728 30.527 12.6574 32.2665H7.57894V25.3023C7.57894 22.3833 9.95897 20.0085 12.8842 20.0085C13.4908 20.0085 14.0857 20.11 14.6524 20.3101C14.6569 20.3117 14.6615 20.3126 14.6661 20.3141C14.2989 21.3132 14.0984 22.3918 14.0984 23.5164V27.4544H14.0985ZM23.2422 42.8255C18.4123 42.4571 14.5454 38.5985 14.1763 33.779H16.2058C16.5642 37.4854 19.5278 40.4426 23.2422 40.8003V42.8255ZM24 37.8124C23.5813 37.8124 23.2421 38.1508 23.2421 38.5686V39.2779C20.3646 38.9327 18.0772 36.6503 17.7313 33.7789H18.1895C18.6082 33.7789 18.9473 33.4404 18.9473 33.0226C18.9473 32.6048 18.6081 32.2664 18.1895 32.2664H17.7313C18.0772 29.395 20.3646 27.1125 23.2421 26.7673V27.4766C23.2421 27.8944 23.5814 28.2329 24 28.2329C24.4187 28.2329 24.7579 27.8943 24.7579 27.4766V26.7673C27.6354 27.1125 29.9228 29.395 30.2687 32.2664H29.8105C29.3918 32.2664 29.0527 32.6048 29.0527 33.0226C29.0527 33.4404 29.3919 33.7789 29.8105 33.7789H30.2687C29.9228 36.6503 27.6354 38.9327 24.7579 39.2779V38.5686C24.7579 38.1509 24.4187 37.8124 24 37.8124ZM24.7579 42.8253V40.8001C28.4723 40.4425 31.4358 37.4853 31.7943 33.7788H33.8238C33.4547 38.5984 29.5877 42.4571 24.7579 42.8253ZM33.9014 27.4543V23.5163C33.9014 22.3398 33.6814 21.2139 33.2813 20.1763C33.7133 20.065 34.1587 20.0085 34.6105 20.0085C37.5358 20.0085 39.9157 22.3834 39.9157 25.3023V32.2664H35.3425C35.2272 30.5268 34.7174 28.8933 33.9014 27.4543ZM43.2 36.2998H34.8841C35.1284 35.4935 35.2849 34.6494 35.3425 33.779H42.9473C43.366 33.779 43.7052 33.4405 43.7052 33.0227C43.7052 32.6049 43.366 32.2665 42.9473 32.2665H41.4316V29.7456H43.2C45.011 29.7456 46.4842 31.2157 46.4842 33.0228C46.4842 34.8297 45.011 36.2998 43.2 36.2998Z" fill="#FE5E3A"/>
<path d="M23.9999 12.66C27.3588 12.66 30.0916 9.93307 30.0916 6.58138C30.0916 3.22968 27.3588 0.502808 23.9999 0.502808C20.641 0.502808 17.9082 3.22978 17.9082 6.58147C17.9082 9.93317 20.641 12.66 23.9999 12.66ZM23.9999 2.01532C26.5231 2.01532 28.5757 4.06358 28.5757 6.58138C28.5757 9.09917 26.5231 11.1475 23.9999 11.1475C21.4767 11.1475 19.424 9.09926 19.424 6.58147C19.424 4.06368 21.4767 2.01532 23.9999 2.01532Z" fill="#FE5E3A"/>
<path d="M26.7786 33.0226C26.7786 31.4937 25.5319 30.2496 23.9996 30.2496C22.4674 30.2496 21.2207 31.4937 21.2207 33.0226C21.2207 34.5516 22.4674 35.7956 23.9996 35.7956C25.5319 35.7956 26.7786 34.5516 26.7786 33.0226ZM23.9996 34.2831C23.3031 34.2831 22.7365 33.7177 22.7365 33.0226C22.7365 32.3276 23.3031 31.7621 23.9996 31.7621C24.6962 31.7621 25.2628 32.3276 25.2628 33.0226C25.2628 33.7177 24.6962 34.2831 23.9996 34.2831Z" fill="#FE5E3A"/>
<path d="M12.8845 17.141C15.2527 17.141 17.1793 15.2186 17.1793 12.8554C17.1793 10.4923 15.2528 8.56982 12.8845 8.56982C10.5164 8.56982 8.58984 10.4923 8.58984 12.8554C8.58984 15.2186 10.5163 17.141 12.8845 17.141ZM12.8845 10.0824C14.4168 10.0824 15.6635 11.3264 15.6635 12.8554C15.6635 14.3844 14.4168 15.6284 12.8845 15.6284C11.3523 15.6284 10.1056 14.3844 10.1056 12.8554C10.1056 11.3264 11.3522 10.0824 12.8845 10.0824Z" fill="#FE5E3A"/>
</svg>
