<svg width="10" height="16" viewBox="0 0 10 16" fill="none" xmlns="http://www.w3.org/2000/svg">
<path d="M0.554577 7.37568L7.67478 0.255608C7.83946 0.090796 8.0593 0 8.2937 0C8.52811 0 8.74794 0.090796 8.91262 0.255608L9.43698 0.779831C9.77818 1.12142 9.77818 1.6766 9.43698 2.01767L3.45797 7.99668L9.44361 13.9823C9.60829 14.1471 9.69922 14.3668 9.69922 14.6011C9.69922 14.8357 9.60829 15.0554 9.44361 15.2203L8.91926 15.7444C8.75445 15.9092 8.53474 16 8.30034 16C8.06593 16 7.8461 15.9092 7.68141 15.7444L0.554577 8.61782C0.389504 8.45248 0.298839 8.23174 0.299359 7.99707C0.298839 7.7615 0.389504 7.54088 0.554577 7.37568Z" fill="#111111" fill-opacity="0.25"/>
</svg>
