<svg width="15" height="10" viewBox="0 0 15 10" fill="none" xmlns="http://www.w3.org/2000/svg">
<path d="M10.6679 0.65097L14.5353 4.30854L14.5676 4.33716C14.697 4.45955 14.7723 4.62096 14.7835 4.81168L14.7829 4.87579C14.7735 5.02686 14.7129 5.17118 14.5937 5.30051L14.5485 5.34494L10.6679 9.01573C10.3809 9.28718 9.91688 9.28718 9.62989 9.01573C9.34118 8.74267 9.34118 8.29871 9.62987 8.02566L12.3094 5.49086L1.54022 5.49112C1.13468 5.49112 0.804688 5.17899 0.804688 4.79249C0.804688 4.40598 1.13469 4.09385 1.54021 4.09385L12.2229 4.0936L9.62989 1.64107C9.34118 1.368 9.34118 0.924037 9.62989 0.65097C9.91688 0.379527 10.3809 0.379527 10.6679 0.65097Z" fill="#FE5E3A"/>
</svg>
