<svg width="15" height="15" viewBox="0 0 15 15" fill="none" xmlns="http://www.w3.org/2000/svg">
<path fill-rule="evenodd" clip-rule="evenodd" d="M14.9998 0.000488281C14.6736 4.44362 13.5157 7.65992 11.5262 9.64939C11.1734 10.0022 10.7871 10.3248 10.3673 10.617L10.3672 12.3475L8.0515 14.6633L6.63838 12.1903L2.81296 8.36453L0.333496 6.9477L2.64923 4.63196L4.38892 4.63198C4.67854 4.21177 4.99921 3.82581 5.35093 3.47409C7.3404 1.48462 10.5567 0.326755 14.9998 0.000488281ZM5.26638 11.9304L6.35803 13.0221L4.72055 14.6596L3.6289 13.5679L5.26638 11.9304ZM3.6289 10.293L4.72055 11.3846L1.99143 14.1137L0.899779 13.0221L3.6289 10.293ZM1.99143 8.65549L3.08308 9.74714L1.4456 11.3846L0.353955 10.293L1.99143 8.65549ZM9.21049 4.63196C8.57102 4.63196 8.05262 5.15036 8.05262 5.78983C8.05262 6.42931 8.57102 6.9477 9.21049 6.9477C9.84996 6.9477 10.3684 6.42931 10.3684 5.78983C10.3684 5.15036 9.84996 4.63196 9.21049 4.63196Z" fill="#FE5E3A"/>
</svg>
