<svg width="16" height="16" viewBox="0 0 16 16" fill="none" xmlns="http://www.w3.org/2000/svg">
<g clip-path="url(#clip0_718_658)">
<path fill-rule="evenodd" clip-rule="evenodd" d="M8 12C10.2091 12 12 10.2091 12 8C12 5.79086 10.2091 4 8 4C5.79086 4 4 5.79086 4 8C4 10.2091 5.79086 12 8 12ZM8 10.6667C9.47273 10.6667 10.6667 9.47273 10.6667 8C10.6667 6.52724 9.47273 5.33333 8 5.33333C6.52724 5.33333 5.33333 6.52724 5.33333 8C5.33333 9.47273 6.52724 10.6667 8 10.6667Z" fill="#555555"/>
<path d="M11.9987 3.33325C11.6305 3.33325 11.332 3.63173 11.332 3.99992C11.332 4.36811 11.6305 4.66659 11.9987 4.66659C12.3669 4.66659 12.6654 4.36811 12.6654 3.99992C12.6654 3.63173 12.3669 3.33325 11.9987 3.33325Z" fill="#555555"/>
<path fill-rule="evenodd" clip-rule="evenodd" d="M1.10394 2.85079C0.667969 3.70643 0.667969 4.82654 0.667969 7.06675V8.93341C0.667969 11.1736 0.667969 12.2937 1.10394 13.1493C1.48744 13.902 2.09936 14.5139 2.85201 14.8974C3.70766 15.3334 4.82776 15.3334 7.06797 15.3334H8.93463C11.1748 15.3334 12.295 15.3334 13.1506 14.8974C13.9032 14.5139 14.5152 13.902 14.8986 13.1493C15.3346 12.2937 15.3346 11.1736 15.3346 8.93341V7.06675C15.3346 4.82654 15.3346 3.70643 14.8986 2.85079C14.5152 2.09813 13.9032 1.48621 13.1506 1.10272C12.295 0.666748 11.1748 0.666748 8.93463 0.666748H7.06797C4.82776 0.666748 3.70766 0.666748 2.85201 1.10272C2.09936 1.48621 1.48744 2.09813 1.10394 2.85079ZM8.93463 2.00008H7.06797C5.92586 2.00008 5.14947 2.00112 4.54936 2.05015C3.9648 2.09791 3.66586 2.18447 3.45733 2.29073C2.95556 2.54639 2.54762 2.95434 2.29195 3.45611C2.1857 3.66464 2.09913 3.96357 2.05137 4.54813C2.00234 5.14825 2.0013 5.92464 2.0013 7.06675V8.93341C2.0013 10.0755 2.00234 10.8519 2.05137 11.452C2.09913 12.0366 2.1857 12.3355 2.29195 12.5441C2.54762 13.0458 2.95556 13.4537 3.45733 13.7094C3.66586 13.8157 3.9648 13.9023 4.54936 13.95C5.14947 13.999 5.92586 14.0001 7.06797 14.0001H8.93463C10.0768 14.0001 10.8531 13.999 11.4532 13.95C12.0378 13.9023 12.3368 13.8157 12.5453 13.7094C13.047 13.4537 13.455 13.0458 13.7106 12.5441C13.8169 12.3355 13.9035 12.0366 13.9512 11.452C14.0002 10.8519 14.0013 10.0755 14.0013 8.93341V7.06675C14.0013 5.92464 14.0002 5.14825 13.9512 4.54813C13.9035 3.96357 13.8169 3.66464 13.7106 3.45611C13.455 2.95434 13.047 2.54639 12.5453 2.29073C12.3368 2.18447 12.0378 2.09791 11.4532 2.05015C10.8531 2.00112 10.0768 2.00008 8.93463 2.00008Z" fill="#555555"/>
</g>
<defs>
<clipPath id="clip0_718_658">
<rect width="16" height="16" fill="white"/>
</clipPath>
</defs>
</svg>
