<svg width="14" height="14" viewBox="0 0 14 14" fill="none" xmlns="http://www.w3.org/2000/svg">
<g clip-path="url(#clip0_706_500)">
<path fill-rule="evenodd" clip-rule="evenodd" d="M7 10.5C8.93299 10.5 10.5 8.93299 10.5 7C10.5 5.067 8.93299 3.5 7 3.5C5.067 3.5 3.5 5.067 3.5 7C3.5 8.93299 5.067 10.5 7 10.5ZM7 9.33333C8.28864 9.33333 9.33333 8.28864 9.33333 7C9.33333 5.71133 8.28864 4.66667 7 4.66667C5.71133 4.66667 4.66667 5.71133 4.66667 7C4.66667 8.28864 5.71133 9.33333 7 9.33333Z" fill="#666666"/>
<path d="M10.4974 2.9165C10.1752 2.9165 9.91406 3.17767 9.91406 3.49984C9.91406 3.822 10.1752 4.08317 10.4974 4.08317C10.8196 4.08317 11.0807 3.822 11.0807 3.49984C11.0807 3.17767 10.8196 2.9165 10.4974 2.9165Z" fill="#666666"/>
<path fill-rule="evenodd" clip-rule="evenodd" d="M0.967414 2.49453C0.585938 3.24322 0.585938 4.22332 0.585938 6.1835V7.81683C0.585938 9.777 0.585938 10.7571 0.967414 11.5058C1.30297 12.1644 1.8384 12.6998 2.49697 13.0353C3.24566 13.4168 4.22576 13.4168 6.18594 13.4168H7.81927C9.77945 13.4168 10.7596 13.4168 11.5082 13.0353C12.1668 12.6998 12.7022 12.1644 13.0378 11.5058C13.4193 10.7571 13.4193 9.777 13.4193 7.81683V6.1835C13.4193 4.22332 13.4193 3.24322 13.0378 2.49453C12.7022 1.83596 12.1668 1.30053 11.5082 0.964973C10.7596 0.583496 9.77945 0.583496 7.81927 0.583496H6.18594C4.22576 0.583496 3.24566 0.583496 2.49697 0.964973C1.8384 1.30053 1.30297 1.83596 0.967414 2.49453ZM7.81927 1.75016H6.18594C5.18659 1.75016 4.50725 1.75107 3.98215 1.79397C3.47066 1.83576 3.20909 1.91151 3.02663 2.00448C2.58758 2.22819 2.23063 2.58514 2.00692 3.02419C1.91395 3.20665 1.8382 3.46822 1.79641 3.97971C1.75351 4.50481 1.7526 5.18415 1.7526 6.1835V7.81683C1.7526 8.8162 1.75351 9.49549 1.79641 10.0206C1.8382 10.5321 1.91395 10.7937 2.00692 10.9762C2.23063 11.4152 2.58758 11.7721 3.02663 11.9958C3.20909 12.0888 3.47066 12.1646 3.98215 12.2064C4.50725 12.2492 5.18659 12.2502 6.18594 12.2502H7.81927C8.81864 12.2502 9.49793 12.2492 10.023 12.2064C10.5346 12.1646 10.7961 12.0888 10.9786 11.9958C11.4176 11.7721 11.7746 11.4152 11.9983 10.9762C12.0913 10.7937 12.167 10.5321 12.2088 10.0206C12.2517 9.49549 12.2526 8.8162 12.2526 7.81683V6.1835C12.2526 5.18415 12.2517 4.50481 12.2088 3.97971C12.167 3.46822 12.0913 3.20665 11.9983 3.02419C11.7746 2.58514 11.4176 2.22819 10.9786 2.00448C10.7961 1.91151 10.5346 1.83576 10.023 1.79397C9.49793 1.75107 8.81864 1.75016 7.81927 1.75016Z" fill="#666666"/>
</g>
<defs>
<clipPath id="clip0_706_500">
<rect width="14" height="14" fill="white"/>
</clipPath>
</defs>
</svg>
