<svg width="15" height="15" viewBox="0 0 15 15" fill="none" xmlns="http://www.w3.org/2000/svg">
<path d="M9.375 7.5C9.375 7.87084 9.26503 8.23335 9.05901 8.54169C8.85298 8.85004 8.56014 9.09036 8.21753 9.23227C7.87492 9.37419 7.49792 9.41132 7.13421 9.33897C6.77049 9.26663 6.4364 9.08805 6.17417 8.82582C5.91195 8.5636 5.73337 8.22951 5.66103 7.86579C5.58868 7.50208 5.62581 7.12508 5.76773 6.78247C5.90964 6.43986 6.14996 6.14702 6.45831 5.94099C6.76665 5.73497 7.12916 5.625 7.5 5.625C7.99711 5.62557 8.47369 5.8233 8.8252 6.1748C9.1767 6.52631 9.37443 7.00289 9.375 7.5ZM13.3594 4.92188V10.0781C13.3584 10.9481 13.0124 11.7821 12.3972 12.3972C11.7821 13.0124 10.9481 13.3584 10.0781 13.3594H4.92188C4.05194 13.3584 3.21791 13.0124 2.60277 12.3972C1.98763 11.7821 1.64161 10.9481 1.64062 10.0781V4.92188C1.64161 4.05194 1.98763 3.21791 2.60277 2.60277C3.21791 1.98763 4.05194 1.64161 4.92188 1.64062H10.0781C10.9481 1.64161 11.7821 1.98763 12.3972 2.60277C13.0124 3.21791 13.3584 4.05194 13.3594 4.92188ZM10.3125 7.5C10.3125 6.94374 10.1475 6.39997 9.83851 5.93746C9.52947 5.47495 9.09021 5.11446 8.5763 4.90159C8.06238 4.68872 7.49688 4.63302 6.95131 4.74154C6.40574 4.85006 5.9046 5.11793 5.51126 5.51126C5.11793 5.9046 4.85006 6.40574 4.74154 6.95131C4.63302 7.49688 4.68872 8.06238 4.90159 8.5763C5.11446 9.09021 5.47495 9.52947 5.93746 9.83851C6.39997 10.1475 6.94374 10.3125 7.5 10.3125C8.24566 10.3117 8.96054 10.0151 9.48781 9.48781C10.0151 8.96054 10.3117 8.24566 10.3125 7.5ZM11.25 4.45312C11.25 4.31406 11.2088 4.17812 11.1315 4.06249C11.0542 3.94686 10.9444 3.85674 10.8159 3.80352C10.6875 3.7503 10.5461 3.73638 10.4097 3.76351C10.2733 3.79064 10.148 3.85761 10.0497 3.95594C9.95136 4.05427 9.88439 4.17956 9.85726 4.31595C9.83013 4.45234 9.84406 4.59372 9.89727 4.7222C9.95049 4.85068 10.0406 4.96049 10.1562 5.03775C10.2719 5.11501 10.4078 5.15625 10.5469 5.15625C10.7334 5.15625 10.9122 5.08217 11.0441 4.95031C11.1759 4.81845 11.25 4.63961 11.25 4.45312Z" fill="#666666"/>
</svg>
