<svg width="48" height="49" viewBox="0 0 48 49" fill="none" xmlns="http://www.w3.org/2000/svg">
<path d="M16 10.4857H7V12.4814H16V10.4857Z" fill="#FE5E3A"/>
<path d="M23 10.4857H18V12.4814H23V10.4857Z" fill="#FE5E3A"/>
<path d="M16 25.4536H7V27.4493H16V25.4536Z" fill="#FE5E3A"/>
<path d="M23 25.4536H18V27.4493H23V25.4536Z" fill="#FE5E3A"/>
<path d="M13 20.4642H7V22.46H13V20.4642Z" fill="#FE5E3A"/>
<path d="M32 20.4642H29V22.46H32V20.4642Z" fill="#FE5E3A"/>
<path d="M27 20.4642H15V22.46H27V20.4642Z" fill="#FE5E3A"/>
<path d="M24 15.475H20V17.4707H24V15.475Z" fill="#FE5E3A"/>
<path d="M18 15.475H7V17.4707H18V15.475Z" fill="#FE5E3A"/>
<path d="M41 15.475H26V17.4707H41V15.475Z" fill="#FE5E3A"/>
<path d="M22 30.4429H7V32.4386H22V30.4429Z" fill="#FE5E3A"/>
<path d="M38.207 24.2491L36.793 25.6602L39.5859 28.4472L36.793 31.2342L38.207 32.6452L42.4141 28.4472L38.207 24.2491Z" fill="#FE5E3A"/>
<path d="M30.207 25.6602L28.793 24.2491L24.5859 28.4472L28.793 32.6452L30.207 31.2342L27.4141 28.4472L30.207 25.6602Z" fill="#FE5E3A"/>
<path d="M34.567 23.0967L30.5703 33.0763L32.4275 33.8169L36.4242 23.8374L34.567 23.0967Z" fill="#FE5E3A"/>
<path d="M46 35.4321V5.49634H2V35.4321H0V39.7257L2.46484 43.415H45.5352L48 39.7257V35.4321H46ZM4 7.49206H44V35.4321H4V7.49206ZM46 39.1215L44.4648 41.4193H3.53516L2 39.1215V37.4279H46V39.1215Z" fill="#FE5E3A"/>
<path d="M29 38.4258H27V40.4215H29V38.4258Z" fill="#FE5E3A"/>
<path d="M25 38.4258H23V40.4215H25V38.4258Z" fill="#FE5E3A"/>
<path d="M21 38.4258H19V40.4215H21V38.4258Z" fill="#FE5E3A"/>
</svg>
