<svg width="32" height="32" viewBox="0 0 32 32" fill="none" xmlns="http://www.w3.org/2000/svg">
<path d="M24.2344 0.00443179C23.5903 0.0262669 22.9468 0.128478 22.3204 0.302933C19.8146 1.00081 17.4412 2.66145 15.185 4.64028C10.6724 8.59803 6.56463 14.0086 4.39851 16.1676C4.27435 16.2911 4.17585 16.4377 4.10864 16.5992C4.04143 16.7606 4.00684 16.9337 4.00684 17.1085C4.00684 17.2833 4.04143 17.4564 4.10864 17.6179C4.17585 17.7793 4.27435 17.926 4.39851 18.0494L13.9949 27.6144C14.2447 27.862 14.5827 28.001 14.935 28.001C15.2873 28.001 15.6252 27.862 15.8751 27.6144C18.0542 25.4423 23.4414 21.2955 27.362 16.7464C29.3224 14.4719 30.9553 12.0776 31.6329 9.56424C32.3104 7.05088 31.8415 4.30855 29.7136 2.18738C28.1175 0.596537 26.167 -0.0610788 24.2344 0.00443179ZM22.56 5.4657C23.5993 5.46742 24.6392 5.86135 25.4245 6.64413C26.9952 8.20967 26.9952 10.7813 25.4245 12.3468C23.8539 13.9124 21.2661 13.9175 19.6954 12.352C18.1247 10.7864 18.1247 8.20189 19.6954 6.63632C20.4807 5.85357 21.5207 5.46396 22.56 5.4657ZM10.7423 13.071L18.9584 21.2603C18.2653 21.8721 17.5929 22.473 16.961 23.0279L8.98184 15.0852C9.53659 14.4491 10.1324 13.7699 10.7423 13.071Z" fill="white"/>
<path d="M7.83371 5.57218C7.49387 5.57959 7.16971 5.71608 6.92745 5.95375L0.482148 12.3884C0.300862 12.5677 0.175041 12.7951 0.119643 13.0436C0.0642448 13.292 0.0815993 13.5512 0.169643 13.7901C0.257688 14.029 0.412718 14.2377 0.616304 14.3914C0.81989 14.5451 1.06347 14.6373 1.31808 14.657L3.99256 14.8672C6.01521 12.5983 8.76148 9.28852 11.9144 6.10429L8.04985 5.57997C7.97814 5.57153 7.90585 5.56896 7.83371 5.57218ZM9.75037 12.9439C9.08359 13.7081 8.43596 14.4458 7.82589 15.145C8.1702 15.1085 8.48679 14.9401 8.70871 14.6752L9.97694 13.1697L9.75037 12.9439ZM25.9483 20.0144C22.7705 23.213 19.4512 26 17.1723 28.0402L17.3806 30.667C17.4008 30.9203 17.4934 31.1624 17.6474 31.3648C17.8014 31.5673 18.0104 31.7214 18.2497 31.8091C18.4889 31.8968 18.7483 31.9143 18.9972 31.8595C19.2461 31.8048 19.474 31.6801 19.654 31.5002L26.1123 25.0734C26.2562 24.9283 26.3646 24.7521 26.4292 24.5586C26.4937 24.365 26.5128 24.1593 26.4847 23.9572L25.9483 20.0144ZM18.8702 22.0338L17.3623 23.2979C17.2272 23.4111 17.1159 23.55 17.035 23.7064C16.9541 23.8628 16.9051 24.0336 16.891 24.209C17.5911 23.5936 18.3318 22.9349 19.0967 22.2597L18.8702 22.0338Z" fill="white"/>
<path d="M6.63275 23.9164C6.29302 23.9243 5.96914 24.0612 5.72728 24.2991L0.392601 29.6163C0.268168 29.7398 0.16943 29.8865 0.102056 30.0482C0.0346824 30.2098 0 30.3831 0 30.5581C0 30.7331 0.0346824 30.9064 0.102056 31.068C0.16943 31.2296 0.268168 31.3764 0.392601 31.4999C0.516488 31.6239 0.663734 31.7223 0.825883 31.7895C0.988033 31.8566 1.16189 31.8912 1.33748 31.8912C1.51307 31.8912 1.68693 31.8566 1.84908 31.7895C2.01123 31.7223 2.15848 31.6239 2.28236 31.4999L7.61704 26.1827C7.74148 26.0592 7.84021 25.9124 7.90759 25.7508C7.97496 25.5892 8.00964 25.4159 8.00964 25.2409C8.00964 25.0659 7.97496 24.8926 7.90759 24.731C7.84021 24.5694 7.74148 24.4226 7.61704 24.2991C7.48779 24.1718 7.33382 24.0722 7.16455 24.0064C6.99529 23.9406 6.81432 23.9099 6.63275 23.9164Z" fill="white"/>
<path d="M3.96546 19.9239C3.62438 19.9343 3.3003 20.0747 3.05994 20.3162L0.392601 22.9747C0.268168 23.0982 0.16943 23.245 0.102056 23.4066C0.0346824 23.5682 0 23.7415 0 23.9165C0 24.0915 0.0346824 24.2648 0.102056 24.4265C0.16943 24.5881 0.268168 24.7348 0.392601 24.8583C0.516488 24.9824 0.663734 25.0808 0.825883 25.1479C0.988033 25.2151 1.16189 25.2496 1.33748 25.2496C1.51307 25.2496 1.68693 25.2151 1.84908 25.1479C2.01123 25.0808 2.15848 24.9824 2.28236 24.8583L4.9497 22.1998C5.07414 22.0763 5.17287 21.9295 5.24025 21.7679C5.30762 21.6063 5.3423 21.433 5.3423 21.258C5.3423 21.0829 5.30762 20.9097 5.24025 20.748C5.17287 20.5864 5.07414 20.4396 4.9497 20.3162C4.82127 20.1872 4.66767 20.0858 4.49838 20.0183C4.32909 19.9509 4.14771 19.9187 3.96546 19.9239Z" fill="white"/>
<path d="M10.6289 26.5755C10.2926 26.5859 9.97268 26.7226 9.73328 26.9583L7.06594 29.6169C6.94151 29.7404 6.84277 29.8872 6.7754 30.0488C6.70802 30.2104 6.67334 30.3837 6.67334 30.5587C6.67334 30.7337 6.70802 30.907 6.7754 31.0686C6.84277 31.2303 6.94151 31.377 7.06594 31.5005C7.31576 31.748 7.65368 31.8869 8.00591 31.8869C8.35814 31.8869 8.69606 31.748 8.94588 31.5005L11.6132 28.8419C11.7376 28.7184 11.8363 28.5716 11.9037 28.41C11.9711 28.2484 12.0058 28.0751 12.0058 27.9001C12.0058 27.7251 11.9711 27.5518 11.9037 27.3902C11.8363 27.2285 11.7376 27.0818 11.6132 26.9583C11.4839 26.831 11.33 26.7314 11.1607 26.6656C10.9915 26.5998 10.8105 26.5691 10.6289 26.5755Z" fill="white"/>
</svg>
