<svg width="75" height="6" viewBox="0 0 75 6" fill="none" xmlns="http://www.w3.org/2000/svg">
<path d="M0.333333 3C0.333333 4.47276 1.52724 5.66667 3 5.66667C4.47276 5.66667 5.66667 4.47276 5.66667 3C5.66667 1.52724 4.47276 0.333333 3 0.333333C1.52724 0.333333 0.333333 1.52724 0.333333 3ZM69.3333 2.99999C69.3333 4.47275 70.5272 5.66666 72 5.66666C73.4728 5.66666 74.6667 4.47275 74.6667 2.99999C74.6667 1.52723 73.4728 0.333327 72 0.333327C70.5272 0.333327 69.3333 1.52723 69.3333 2.99999ZM3 3.5L72 3.49999L72 2.49999L3 2.5L3 3.5Z" fill="url(#paint0_linear_244_16)"/>
<defs>
<linearGradient id="paint0_linear_244_16" x1="3" y1="3.5" x2="72" y2="3.49999" gradientUnits="userSpaceOnUse">
<stop stop-opacity="0"/>
<stop offset="1" stop-color="#333333"/>
</linearGradient>
</defs>
</svg>
