<svg width="18" height="18" viewBox="0 0 18 18" fill="none" xmlns="http://www.w3.org/2000/svg">
<g clip-path="url(#clip0_482_14)">
<path d="M0.584511 17.2212H2.92454C3.24737 17.2212 3.50905 16.9595 3.50905 16.6367V6.40845C3.50905 6.08559 3.24737 5.82394 2.92454 5.82394H0.584511C0.261646 5.82394 0 6.08559 0 6.40845V16.6367C0 16.9595 0.261646 17.2212 0.584511 17.2212Z" fill="#333333"/>
<path d="M0.584511 4.02577H2.92454C3.24737 4.02577 3.50905 3.76409 3.50905 3.44126V1.3633C3.50905 1.04046 3.24737 0.778786 2.92454 0.778786H0.584511C0.261646 0.778786 0 1.04046 0 1.3633V3.44126C0 3.76409 0.261646 4.02577 0.584511 4.02577Z" fill="#333333"/>
<path d="M17.118 7.01028C16.7892 6.57745 16.3044 6.2215 15.6632 5.9425C15.0221 5.66369 14.3145 5.52419 13.5402 5.52419C11.9685 5.52419 10.6366 6.12404 9.54474 7.32396C9.32748 7.56272 9.16951 7.51052 9.16951 7.18766V6.40845C9.16951 6.08558 8.9078 5.82394 8.58497 5.82394H6.49467C6.1718 5.82394 5.91016 6.08558 5.91016 6.40845V16.6367C5.91016 16.9595 6.17183 17.2212 6.49467 17.2212H8.8347C9.15756 17.2212 9.41921 16.9595 9.41921 16.6367V13.0796C9.41921 11.5977 9.50869 10.5819 9.68766 10.0325C9.86656 9.48304 10.1976 9.04184 10.6804 8.70882C11.1634 8.37579 11.7086 8.2092 12.3164 8.2092C12.7909 8.2092 13.1968 8.32577 13.5341 8.55896C13.8713 8.79211 14.1148 9.11872 14.2647 9.53925C14.4146 9.9597 14.4895 10.8859 14.4895 12.3179V16.6366C14.4895 16.9595 14.7511 17.2212 15.0739 17.2212H17.414C17.7368 17.2212 17.9985 16.9595 17.9985 16.6366V10.8442C17.9985 9.82027 17.9339 9.03347 17.805 8.48403C17.6761 7.93459 17.4471 7.44334 17.118 7.01028Z" fill="#333333"/>
</g>
<defs>
<clipPath id="clip0_482_14">
<rect width="18" height="18" fill="white"/>
</clipPath>
</defs>
</svg>
