<svg width="16" height="15" viewBox="0 0 16 15" fill="none" xmlns="http://www.w3.org/2000/svg">
<g opacity="0.5" clip-path="url(#clip0_1681_2484)">
<path d="M1.26741 14.2057H3.13944C3.3977 14.2057 3.60705 13.9963 3.60705 13.7381V5.5555C3.60705 5.29721 3.3977 5.08789 3.13944 5.08789H1.26741C1.00912 5.08789 0.799805 5.29721 0.799805 5.5555V13.7381C0.799805 13.9963 1.00912 14.2057 1.26741 14.2057Z" fill="#111111"/>
<path d="M1.26741 3.64934H3.13944C3.3977 3.64934 3.60705 3.44 3.60705 3.18173V1.51937C3.60705 1.2611 3.3977 1.05176 3.13944 1.05176H1.26741C1.00912 1.05176 0.799805 1.2611 0.799805 1.51937V3.18173C0.799805 3.44 1.00912 3.64934 1.26741 3.64934Z" fill="#111111"/>
<path d="M14.4946 6.03653C14.2316 5.69026 13.8437 5.4055 13.3308 5.1823C12.8179 4.95926 12.2518 4.84766 11.6324 4.84766C10.375 4.84766 9.30949 5.32753 8.43599 6.28747C8.26218 6.47848 8.1358 6.43672 8.1358 6.17843V5.55506C8.1358 5.29677 7.92644 5.08745 7.66817 5.08745H5.99593C5.73764 5.08745 5.52832 5.29677 5.52832 5.55506V13.7376C5.52832 13.9959 5.73766 14.2053 5.99593 14.2053H7.86795C8.12624 14.2053 8.33556 13.9959 8.33556 13.7376V10.8919C8.33556 9.70644 8.40715 8.89384 8.55032 8.45429C8.69344 8.01473 8.95827 7.66177 9.34455 7.39535C9.73088 7.12893 10.1671 6.99566 10.6533 6.99566C11.0329 6.99566 11.3577 7.08892 11.6274 7.27547C11.8972 7.46199 12.092 7.72328 12.2119 8.0597C12.3319 8.39606 12.3918 9.13699 12.3918 10.2826V13.7376C12.3918 13.9959 12.6011 14.2052 12.8594 14.2052H14.7314C14.9896 14.2052 15.199 13.9959 15.199 13.7376V9.10368C15.199 8.28451 15.1473 7.65508 15.0442 7.21553C14.9411 6.77598 14.7578 6.38298 14.4946 6.03653Z" fill="#111111"/>
</g>
<defs>
<clipPath id="clip0_1681_2484">
<rect width="14.4" height="14.4" fill="white" transform="translate(0.799805 0.428711)"/>
</clipPath>
</defs>
</svg>
