<svg width="16" height="16" viewBox="0 0 16 16" fill="none" xmlns="http://www.w3.org/2000/svg">
<g clip-path="url(#clip0_718_656)">
<path d="M11.5 0H4.5C2 0 0 2 0 4.5V11.5C0 14 2 16 4.5 16H11.5C14 16 16 14 16 11.5V4.5C16 2 14 0 11.5 0ZM6 12.5C6 12.8 5.8 13 5.5 13H3.5C3.2 13 3 12.8 3 12.5V6.5C3 6.2 3.2 6 3.5 6H5.5C5.8 6 6 6.2 6 6.5V12.5ZM4.5 5.5C3.65 5.5 3 4.85 3 4C3 3.15 3.65 2.5 4.5 2.5C5.35 2.5 6 3.15 6 4C6 4.85 5.35 5.5 4.5 5.5ZM13 12.5C13 12.8 12.8 13 12.5 13H11C10.7 13 10.5 12.8 10.5 12.5V10.75V10.25V9.25C10.5 8.85 10.15 8.5 9.75 8.5C9.35 8.5 9 8.85 9 9.25V10.25V10.75V12.5C9 12.8 8.8 13 8.5 13H7C6.7 13 6.5 12.8 6.5 12.5V6.5C6.5 6.2 6.7 6 7 6H9C9.15 6 9.25 6.05 9.35 6.15C9.65 6.05 9.95 6 10.25 6C11.75 6 13 7.25 13 8.75V12.5Z" fill="#555555"/>
</g>
<defs>
<clipPath id="clip0_718_656">
<rect width="16" height="16" fill="white"/>
</clipPath>
</defs>
</svg>
