<svg width="13" height="12" viewBox="0 0 13 12" fill="none" xmlns="http://www.w3.org/2000/svg">
<g clip-path="url(#clip0_401_5386)">
<path d="M1.28128 11.4805H2.84129C3.05652 11.4805 3.23097 11.306 3.23097 11.0908V4.272C3.23097 4.05675 3.05652 3.88232 2.84129 3.88232H1.28128C1.06603 3.88232 0.891602 4.05675 0.891602 4.272V11.0908C0.891602 11.306 1.06603 11.4805 1.28128 11.4805Z" fill="#666666"/>
<path d="M1.28128 2.6837H2.84129C3.05652 2.6837 3.23097 2.50925 3.23097 2.29402V0.908717C3.23097 0.693495 3.05652 0.519043 2.84129 0.519043H1.28128C1.06603 0.519043 0.891602 0.693495 0.891602 0.908717V2.29402C0.891602 2.50925 1.06603 2.6837 1.28128 2.6837Z" fill="#666666"/>
<path d="M12.3044 4.67334C12.0852 4.38479 11.762 4.14749 11.3346 3.96149C10.9072 3.77562 10.4354 3.68262 9.91923 3.68262C8.87139 3.68262 7.98349 4.08252 7.25557 4.88247C7.11073 5.04163 7.00542 5.00684 7.00542 4.79159V4.27212C7.00542 4.05688 6.83095 3.88245 6.61573 3.88245H5.22219C5.00695 3.88245 4.83252 4.05688 4.83252 4.27212V11.0909C4.83252 11.3062 5.00697 11.4806 5.22219 11.4806H6.78221C6.99746 11.4806 7.17189 11.3062 7.17189 11.0909V8.71953C7.17189 7.7316 7.23154 7.05444 7.35085 6.68814C7.47012 6.32185 7.69081 6.02772 8.01271 5.8057C8.33466 5.58368 8.69815 5.47262 9.10337 5.47262C9.41971 5.47262 9.69031 5.55034 9.91513 5.7058C10.1399 5.86123 10.3023 6.07897 10.4022 6.35932C10.5021 6.63962 10.5521 7.25707 10.5521 8.21173V11.0909C10.5521 11.3061 10.7265 11.4806 10.9417 11.4806H12.5017C12.717 11.4806 12.8914 11.3061 12.8914 11.0909V7.2293C12.8914 6.54667 12.8484 6.02214 12.7624 5.65584C12.6765 5.28955 12.5238 4.96205 12.3044 4.67334Z" fill="#666666"/>
</g>
<defs>
<clipPath id="clip0_401_5386">
<rect width="12" height="12" fill="white" transform="translate(0.891602)"/>
</clipPath>
</defs>
</svg>
