<svg width="30" height="30" viewBox="0 0 30 30" fill="none" xmlns="http://www.w3.org/2000/svg">
<path d="M26.5014 25.6327H3.49863C1.56609 25.6327 0 24.0666 0 22.1346V7.86542C0 5.93335 1.56609 4.36726 3.49863 4.36726H26.5014C28.4334 4.36726 30 5.93335 30 7.86542V22.1346C30 24.0666 28.4334 25.6327 26.5014 25.6327ZM28.3295 6.92288L27.6635 6.13421L18.3373 13.7457L16.893 12.3714C15.8226 11.3884 14.1775 11.3884 13.107 12.3714L11.6627 13.7457L2.33648 6.13421L1.67051 6.92288L10.4268 14.9219L1.61314 23.205L2.13422 23.8954L15 14.1469L27.8657 23.8954L28.3864 23.205L19.5733 14.9219L28.3295 6.92288Z" fill="#333333"/>
</svg>
