<svg width="48" height="48" viewBox="0 0 48 48" fill="none" xmlns="http://www.w3.org/2000/svg">
<g clip-path="url(#clip0_814_340)">
<path d="M48 24C48 26.1322 46.2733 27.8589 44.1411 27.8589C42.0101 27.8589 40.2846 26.1322 40.2846 24C40.2846 21.8691 42.0101 20.1423 44.1411 20.1423C46.2733 20.1423 48 21.8691 48 24ZM7.7141 24C7.7141 21.8691 5.98737 20.1423 3.85768 20.1423C1.72674 20.1423 0 21.8691 0 24C0 26.1322 1.72674 27.8589 3.85768 27.8589C5.98737 27.8589 7.7141 26.1322 7.7141 24ZM24 40.2859C21.8703 40.2859 20.1423 42.0126 20.1423 44.1423C20.1423 46.2733 21.8703 48 24 48C26.1322 48 27.8589 46.2733 27.8589 44.1411C27.8589 42.0126 26.1322 40.2859 24 40.2859ZM24 7.7141C26.1322 7.7141 27.8589 5.98737 27.8589 3.85768C27.8589 1.72674 26.1322 0 24 0C21.8703 0 20.1423 1.72674 20.1423 3.85768C20.1423 5.98737 21.8703 7.7141 24 7.7141ZM35.5162 35.5162C34.0105 37.0206 34.0105 39.4648 35.5162 40.9705C37.0206 42.4737 39.4648 42.4737 40.9705 40.9705C42.4737 39.4648 42.4737 37.0206 40.9705 35.5162C39.4648 34.0105 37.0219 34.0093 35.5162 35.5162ZM12.4838 12.4838C13.9895 10.9781 13.9895 8.53516 12.4838 7.02947C10.9781 5.52379 8.53516 5.52379 7.02947 7.02947C5.52379 8.53516 5.52379 10.9781 7.02947 12.4838C8.53516 13.9895 10.9781 13.9907 12.4838 12.4838ZM7.02947 35.5162C5.52379 37.0206 5.52379 39.4648 7.02947 40.9705C8.53516 42.4737 10.9781 42.4737 12.4838 40.9705C13.9895 39.4648 13.9895 37.0206 12.4838 35.5162C10.9781 34.0105 8.53516 34.0093 7.02947 35.5162ZM40.9718 12.4838C42.4762 10.9781 42.4762 8.53516 40.9718 7.02947C39.4674 5.52379 37.0219 5.52379 35.5187 7.02947C34.0131 8.53516 34.0131 10.9781 35.5187 12.4838C37.0219 13.9895 39.4648 13.9907 40.9718 12.4838ZM34.272 31.8543L30.8842 28.4665C31.6131 27.3474 32.0716 26.04 32.1777 24.6316H37.2632C37.9604 24.6316 38.5263 24.0657 38.5263 23.3684C38.5263 22.6712 37.9604 22.1053 37.2632 22.1053H31.9806C31.6901 20.8737 31.1293 19.7482 30.3524 18.8008L34.2707 14.8825C34.7646 14.3886 34.7646 13.5903 34.2707 13.0964C33.7768 12.6025 32.9785 12.6025 32.4846 13.0964L28.4653 17.1158C27.5154 16.4981 26.4291 16.0775 25.2619 15.8968V10.1053C25.2619 9.408 24.696 8.8421 23.9987 8.8421C23.3015 8.8421 22.7356 9.408 22.7356 10.1053V15.8968C21.5684 16.0775 20.4821 16.4981 19.5322 17.1158L15.5128 13.0964C15.0189 12.6025 14.2206 12.6025 13.7267 13.0964C13.2328 13.5903 13.2328 14.3886 13.7267 14.8825L17.6451 18.8008C16.8695 19.7482 16.3074 20.8737 16.0156 22.1053H10.7368C10.0396 22.1053 9.47368 22.6712 9.47368 23.3684C9.47368 24.0657 10.0396 24.6316 10.7368 24.6316H15.8211C15.9284 26.0387 16.3869 27.3448 17.1158 28.4665L13.728 31.8543C13.2341 32.3495 13.2341 33.1465 13.728 33.6404C13.9743 33.8867 14.2977 34.0105 14.6211 34.0105C14.9444 34.0105 15.2678 33.8867 15.5141 33.6404L18.8008 30.3524C19.9074 31.2606 21.2577 31.8745 22.7368 32.1032V36.6316C22.7368 37.3288 23.3027 37.8947 24 37.8947C24.6973 37.8947 25.2632 37.3288 25.2632 36.6316V32.1032C26.7411 31.8745 28.0901 31.2606 29.1992 30.3537L32.4859 33.6404C32.7322 33.8867 33.0556 34.0105 33.3789 34.0105C33.7036 34.0105 34.0269 33.8867 34.272 33.6404C34.7634 33.1465 34.7634 32.3457 34.272 31.8543Z" fill="#111111" fill-opacity="0.8"/>
</g>
<defs>
<clipPath id="clip0_814_340">
<rect width="48" height="48" fill="white"/>
</clipPath>
</defs>
</svg>
