<svg width="40" height="40" viewBox="0 0 40 40" fill="none" xmlns="http://www.w3.org/2000/svg">
<g clip-path="url(#clip0_1017_178)">
<path d="M40 20C40 21.7768 38.5611 23.2158 36.7842 23.2158C35.0084 23.2158 33.5705 21.7768 33.5705 20C33.5705 18.2242 35.0084 16.7853 36.7842 16.7853C38.5611 16.7853 40 18.2242 40 20ZM6.42842 20C6.42842 18.2242 4.98947 16.7853 3.21474 16.7853C1.43895 16.7853 0 18.2242 0 20C0 21.7768 1.43895 23.2158 3.21474 23.2158C4.98947 23.2158 6.42842 21.7768 6.42842 20ZM20 33.5716C18.2253 33.5716 16.7853 35.0105 16.7853 36.7853C16.7853 38.5611 18.2253 40 20 40C21.7768 40 23.2158 38.5611 23.2158 36.7842C23.2158 35.0105 21.7768 33.5716 20 33.5716ZM20 6.42842C21.7768 6.42842 23.2158 4.98947 23.2158 3.21474C23.2158 1.43895 21.7768 0 20 0C18.2253 0 16.7853 1.43895 16.7853 3.21474C16.7853 4.98947 18.2253 6.42842 20 6.42842ZM29.5968 29.5968C28.3421 30.8505 28.3421 32.8874 29.5968 34.1421C30.8505 35.3947 32.8874 35.3947 34.1421 34.1421C35.3947 32.8874 35.3947 30.8505 34.1421 29.5968C32.8874 28.3421 30.8516 28.3411 29.5968 29.5968ZM10.4032 10.4032C11.6579 9.14842 11.6579 7.11263 10.4032 5.85789C9.14842 4.60316 7.11263 4.60316 5.85789 5.85789C4.60316 7.11263 4.60316 9.14842 5.85789 10.4032C7.11263 11.6579 9.14842 11.6589 10.4032 10.4032ZM5.85789 29.5968C4.60316 30.8505 4.60316 32.8874 5.85789 34.1421C7.11263 35.3947 9.14842 35.3947 10.4032 34.1421C11.6579 32.8874 11.6579 30.8505 10.4032 29.5968C9.14842 28.3421 7.11263 28.3411 5.85789 29.5968ZM34.1432 10.4032C35.3968 9.14842 35.3968 7.11263 34.1432 5.85789C32.8895 4.60316 30.8516 4.60316 29.5989 5.85789C28.3442 7.11263 28.3442 9.14842 29.5989 10.4032C30.8516 11.6579 32.8874 11.6589 34.1432 10.4032ZM28.56 26.5453L25.7368 23.7221C26.3442 22.7895 26.7263 21.7 26.8147 20.5263H31.0526C31.6337 20.5263 32.1053 20.0547 32.1053 19.4737C32.1053 18.8926 31.6337 18.4211 31.0526 18.4211H26.6505C26.4084 17.3947 25.9411 16.4568 25.2937 15.6674L28.5589 12.4021C28.9705 11.9905 28.9705 11.3253 28.5589 10.9137C28.1474 10.5021 27.4821 10.5021 27.0705 10.9137L23.7211 14.2632C22.9295 13.7484 22.0242 13.3979 21.0516 13.2474V8.42105C21.0516 7.84 20.58 7.36842 19.9989 7.36842C19.4179 7.36842 18.9463 7.84 18.9463 8.42105V13.2474C17.9737 13.3979 17.0684 13.7484 16.2768 14.2632L12.9274 10.9137C12.5158 10.5021 11.8505 10.5021 11.4389 10.9137C11.0274 11.3253 11.0274 11.9905 11.4389 12.4021L14.7042 15.6674C14.0579 16.4568 13.5895 17.3947 13.3463 18.4211H8.94737C8.36632 18.4211 7.89474 18.8926 7.89474 19.4737C7.89474 20.0547 8.36632 20.5263 8.94737 20.5263H13.1842C13.2737 21.6989 13.6558 22.7874 14.2632 23.7221L11.44 26.5453C11.0284 26.9579 11.0284 27.6221 11.44 28.0337C11.6453 28.2389 11.9147 28.3421 12.1842 28.3421C12.4537 28.3421 12.7232 28.2389 12.9284 28.0337L15.6674 25.2937C16.5895 26.0505 17.7147 26.5621 18.9474 26.7526V30.5263C18.9474 31.1074 19.4189 31.5789 20 31.5789C20.5811 31.5789 21.0526 31.1074 21.0526 30.5263V26.7526C22.2842 26.5621 23.4084 26.0505 24.3326 25.2947L27.0716 28.0337C27.2768 28.2389 27.5463 28.3421 27.8158 28.3421C28.0863 28.3421 28.3558 28.2389 28.56 28.0337C28.9695 27.6221 28.9695 26.9547 28.56 26.5453Z" fill="#FE5E3A"/>
</g>
<defs>
<clipPath id="clip0_1017_178">
<rect width="40" height="40" fill="white"/>
</clipPath>
</defs>
</svg>
