<svg width="28" height="28" viewBox="0 0 28 28" fill="none" xmlns="http://www.w3.org/2000/svg">
<g clip-path="url(#clip0_340_291)">
<path d="M5.83721 24.2667C5.83721 22.6785 4.50472 21.3467 2.91865 21.3467C1.33258 21.3467 0 22.6785 0 24.2667C0 25.8548 1.33258 27.1866 2.91865 27.1866C4.50472 27.1866 5.83721 25.8548 5.83721 24.2667Z" fill="#282828"/>
<path d="M5.83721 14.0001C5.83721 12.4119 4.50472 11.0801 2.91865 11.0801C1.33258 11.0801 0 12.4119 0 14.0001C1.15477e-06 15.5882 1.33258 16.9199 2.91865 16.9199C4.50472 16.9199 5.83721 15.5882 5.83721 14.0001Z" fill="#282828"/>
<path d="M5.83721 3.7333C5.83721 2.14515 4.50472 0.813477 2.91865 0.813477C1.33258 0.813477 0 2.14515 0 3.7333C0 5.32145 1.33258 6.65322 2.91865 6.65322C4.50472 6.65322 5.83721 5.32145 5.83721 3.7333Z" fill="#282828"/>
<path d="M10.0465 1.52344C9.76901 1.52344 9.49425 1.5806 9.2379 1.69167C8.98154 1.80273 8.74862 1.96551 8.55242 2.17072C8.35621 2.37594 8.20058 2.61956 8.0944 2.88768C7.98823 3.1558 7.93358 3.44317 7.93359 3.73338C7.9336 4.31946 8.15621 4.88154 8.55245 5.29596C8.94869 5.71038 9.48612 5.94321 10.0465 5.94321H25.8873C26.1647 5.94322 26.4395 5.88607 26.6959 5.77502C26.9522 5.66397 27.1852 5.5012 27.3814 5.296C27.5776 5.09079 27.7332 4.84718 27.8394 4.57906C27.9456 4.31095 28.0003 4.02358 28.0003 3.73338C28.0003 3.44316 27.9456 3.15578 27.8394 2.88766C27.7333 2.61953 27.5776 2.3759 27.3814 2.17069C27.1852 1.96547 26.9523 1.80269 26.6959 1.69164C26.4395 1.58058 26.1648 1.52343 25.8873 1.52344H10.0465Z" fill="#282828"/>
<path d="M10.0465 11.7902C9.48612 11.7902 8.94869 12.023 8.55245 12.4374C8.15621 12.8518 7.9336 13.4139 7.93359 14C7.9336 14.5861 8.15621 15.1482 8.55245 15.5626C8.94869 15.977 9.48612 16.2098 10.0465 16.2098H25.8873C26.1647 16.2098 26.4395 16.1527 26.6959 16.0416C26.9522 15.9306 27.1852 15.7678 27.3814 15.5626C27.5776 15.3574 27.7332 15.1138 27.8394 14.8457C27.9456 14.5776 28.0003 14.2902 28.0003 14C28.0003 13.7098 27.9456 13.4224 27.8394 13.1543C27.7332 12.8862 27.5776 12.6426 27.3814 12.4374C27.1852 12.2322 26.9522 12.0694 26.6959 11.9583C26.4395 11.8473 26.1647 11.7901 25.8873 11.7902H10.0465Z" fill="#282828"/>
<path d="M10.0465 22.0568C9.48612 22.0568 8.94869 22.2896 8.55245 22.7041C8.15621 23.1185 7.9336 23.6806 7.93359 24.2667C7.9336 24.8527 8.15621 25.4148 8.55245 25.8292C8.94869 26.2437 9.48612 26.4765 10.0465 26.4765H25.8873C26.1647 26.4765 26.4395 26.4194 26.6959 26.3083C26.9522 26.1973 27.1852 26.0345 27.3814 25.8293C27.5776 25.6241 27.7332 25.3805 27.8394 25.1123C27.9456 24.8442 28.0003 24.5569 28.0003 24.2667C28.0003 23.9765 27.9456 23.6891 27.8394 23.421C27.7332 23.1529 27.5776 22.9092 27.3814 22.704C27.1852 22.4988 26.9522 22.3361 26.6959 22.225C26.4395 22.114 26.1647 22.0568 25.8873 22.0568H10.0465Z" fill="#282828"/>
</g>
<defs>
<clipPath id="clip0_340_291">
<rect width="28" height="28" fill="white"/>
</clipPath>
</defs>
</svg>
