<svg width="18" height="18" viewBox="0 0 18 18" fill="none" xmlns="http://www.w3.org/2000/svg">
<g clip-path="url(#clip0_2023_2081)">
<path d="M17.236 15.1562C17.6229 15.3858 17.8635 15.7037 17.9829 16.1373C18.0292 16.6495 17.9991 17.0941 17.6699 17.5131C17.4076 17.7927 17.0809 17.9644 16.6971 17.9987C16.1996 18.0099 15.7896 17.9521 15.4112 17.6003C15.0684 17.2208 14.9887 16.8187 15.0012 16.3213C15.0232 15.9343 15.1907 15.611 15.4793 15.3527C15.9772 14.98 16.6647 14.8833 17.236 15.1562Z" fill="#111111"/>
<path d="M9.73602 15.1562C10.1229 15.3858 10.3635 15.7037 10.4829 16.1373C10.5292 16.6495 10.4991 17.0941 10.1699 17.5131C9.90764 17.7927 9.58095 17.9644 9.19706 17.9987C8.69962 18.0099 8.28961 17.9521 7.91124 17.6003C7.56845 17.2208 7.48873 16.8187 7.50122 16.3213C7.52321 15.9343 7.69071 15.611 7.97933 15.3527C8.4772 14.98 9.16465 14.8833 9.73602 15.1562Z" fill="#111111"/>
<path d="M2.23602 15.1562C2.6229 15.3858 2.86348 15.7037 2.98289 16.1373C3.02918 16.6495 2.99909 17.0941 2.66994 17.5131C2.40764 17.7927 2.08095 17.9644 1.69706 17.9987C1.19962 18.0099 0.789613 17.9521 0.411236 17.6003C0.0684494 17.2208 -0.0112698 16.8187 0.00122022 16.3213C0.023211 15.9343 0.190711 15.611 0.47933 15.3527C0.977198 14.98 1.66465 14.8833 2.23602 15.1562Z" fill="#111111"/>
<path d="M17.236 7.65621C17.6229 7.88584 17.8635 8.2037 17.9829 8.63725C18.0292 9.1495 17.9991 9.59415 17.6699 10.0131C17.4076 10.2927 17.0809 10.4644 16.6971 10.4987C16.1996 10.5099 15.7896 10.4521 15.4112 10.1003C15.0684 9.72083 14.9887 9.31868 15.0012 8.82131C15.0232 8.43431 15.1907 8.11101 15.4793 7.8527C15.9772 7.48002 16.6647 7.38328 17.236 7.65621Z" fill="#111111"/>
<path d="M9.73602 7.65621C10.1229 7.88584 10.3635 8.2037 10.4829 8.63725C10.5292 9.1495 10.4991 9.59415 10.1699 10.0131C9.90764 10.2927 9.58095 10.4644 9.19706 10.4987C8.69962 10.5099 8.28961 10.4521 7.91124 10.1003C7.56845 9.72083 7.48873 9.31868 7.50122 8.82131C7.52321 8.43431 7.69071 8.11101 7.97933 7.8527C8.4772 7.48002 9.16465 7.38328 9.73602 7.65621Z" fill="#111111"/>
<path d="M2.23602 7.65621C2.6229 7.88584 2.86348 8.2037 2.98289 8.63725C3.02918 9.1495 2.99909 9.59415 2.66994 10.0131C2.40764 10.2927 2.08095 10.4644 1.69706 10.4987C1.19962 10.5099 0.789613 10.4521 0.411236 10.1003C0.0684494 9.72083 -0.0112698 9.31868 0.00122022 8.82131C0.023211 8.43431 0.190711 8.11101 0.47933 7.8527C0.977198 7.48002 1.66465 7.38328 2.23602 7.65621Z" fill="#111111"/>
<path d="M17.236 0.156206C17.6229 0.385843 17.8635 0.703703 17.9829 1.13725C18.0292 1.6495 17.9991 2.09415 17.6699 2.51309C17.4076 2.79266 17.0809 2.96437 16.6971 2.99875C16.1996 3.00989 15.7896 2.95212 15.4112 2.60035C15.0684 2.22083 14.9887 1.81868 15.0012 1.32131C15.0232 0.934311 15.1907 0.611007 15.4793 0.352704C15.9772 -0.0199786 16.6647 -0.116718 17.236 0.156206Z" fill="#111111"/>
<path d="M9.73602 0.156206C10.1229 0.385843 10.3635 0.703703 10.4829 1.13725C10.5292 1.6495 10.4991 2.09415 10.1699 2.51309C9.90764 2.79266 9.58095 2.96437 9.19706 2.99875C8.69962 3.00989 8.28961 2.95212 7.91124 2.60035C7.56845 2.22083 7.48873 1.81868 7.50122 1.32131C7.52321 0.934311 7.69071 0.611007 7.97933 0.352704C8.4772 -0.0199786 9.16465 -0.116718 9.73602 0.156206Z" fill="#111111"/>
<path d="M2.23602 0.156206C2.6229 0.385843 2.86348 0.703703 2.98289 1.13725C3.02918 1.6495 2.99909 2.09415 2.66994 2.51309C2.40764 2.79266 2.08095 2.96437 1.69706 2.99875C1.19962 3.00989 0.789613 2.95212 0.411236 2.60035C0.0684494 2.22083 -0.0112698 1.81868 0.00122022 1.32131C0.023211 0.934311 0.190711 0.611007 0.47933 0.352704C0.977198 -0.0199786 1.66465 -0.116718 2.23602 0.156206Z" fill="#111111"/>
</g>
<defs>
<clipPath id="clip0_2023_2081">
<rect width="18" height="18" fill="white"/>
</clipPath>
</defs>
</svg>
