<svg width="24" height="22" viewBox="0 0 24 22" fill="none" xmlns="http://www.w3.org/2000/svg">
<g clip-path="url(#clip0_2159_4124)">
<path d="M1.55334 3.47368H12.6284C13.4867 3.47368 14.1818 2.69647 14.1818 1.73684C14.1818 0.777215 13.4867 0 12.6284 0H1.55334C0.695099 0 0 0.777215 0 1.73684C0 2.69647 0.695099 3.47368 1.55334 3.47368Z" fill="white"/>
<path d="M1.47602 12.7364H22.524C23.3395 12.7364 24 11.9592 24 10.9995C24 10.0399 23.3395 9.2627 22.524 9.2627H1.47602C0.660505 9.2627 0 10.0399 0 10.9995C0 11.9592 0.660505 12.7364 1.47602 12.7364Z" fill="white"/>
<path d="M22.5653 18.5264H12.342C11.5498 18.5264 10.9082 19.3036 10.9082 20.2631C10.9082 21.2228 11.5498 22 12.342 22H22.5653C23.3574 22 23.9991 21.2228 23.9991 20.2631C23.9991 19.3036 23.3574 18.5264 22.5653 18.5264Z" fill="white"/>
</g>
<defs>
<clipPath id="clip0_2159_4124">
<rect width="24" height="22" fill="white"/>
</clipPath>
</defs>
</svg>
