<svg width="24" height="22" viewBox="0 0 24 22" fill="none" xmlns="http://www.w3.org/2000/svg">
<g clip-path="url(#clip0_494_128)">
<path d="M1.55334 3.47368H12.6284C13.4867 3.47368 14.1818 2.69647 14.1818 1.73684C14.1818 0.777215 13.4867 0 12.6284 0H1.55334C0.695099 0 0 0.777215 0 1.73684C0 2.69647 0.695099 3.47368 1.55334 3.47368Z" fill="white"/>
<path d="M1.47602 12.7368H22.524C23.3395 12.7368 24 11.9595 24 10.9999C24 10.0403 23.3395 9.26306 22.524 9.26306H1.47602C0.660505 9.26306 0 10.0403 0 10.9999C0 11.9595 0.660505 12.7368 1.47602 12.7368Z" fill="white"/>
<path d="M22.5663 18.5263H12.343C11.5508 18.5263 10.9092 19.3035 10.9092 20.2631C10.9092 21.2228 11.5508 22 12.343 22H22.5663C23.3584 22 24.0001 21.2228 24.0001 20.2631C24.0001 19.3035 23.3584 18.5263 22.5663 18.5263Z" fill="white"/>
</g>
<defs>
<clipPath id="clip0_494_128">
<rect width="24" height="22" fill="white"/>
</clipPath>
</defs>
</svg>
