<svg width="66" height="68" viewBox="0 0 66 68" fill="none" xmlns="http://www.w3.org/2000/svg">
<g clip-path="url(#clip0_135_1214)">
<path d="M24.2543 53.3042L28.9859 58.296C29.0542 58.3692 29.1296 58.4348 29.2114 58.4917C30.8257 59.6189 32.9199 59.4971 34.3905 58.3398C34.7488 58.0577 35.0676 57.7159 35.3363 57.3151C36.7063 55.2672 36.1911 52.4606 34.1853 51.0601L30.9328 48.7885L31.2365 48.5495L43.7902 46.0462C44.0182 45.9994 44.2264 45.9018 44.4044 45.7617C44.6173 45.5941 44.7842 45.368 44.8816 45.1039C45.0629 44.6166 44.9836 44.0691 44.6726 43.6567L40.9595 38.7345C42.561 36.6274 42.6569 33.6107 40.9913 31.4027C39.3257 29.1947 36.4455 28.5203 34.0425 29.565L30.3294 24.6427C30.0183 24.2304 29.5211 24.0137 29.0138 24.0663C28.5066 24.119 28.0641 24.4369 27.8424 24.905L22.2731 36.6649L17.8939 40.1114C14.6863 42.6359 14.0874 47.3553 16.559 50.6316C18.4155 53.0927 21.4829 54.0497 24.2543 53.3042ZM32.5274 53.5373C33.196 54.0034 33.3686 54.9376 32.9111 55.6216C32.4767 56.2722 31.6307 56.4608 30.9751 56.0809L26.9969 51.8862L28.4849 50.7151L32.5274 53.5373ZM38.6644 33.2341C39.3251 34.1099 39.4258 35.2389 39.0446 36.1961L35.9582 32.1045C36.9606 31.9709 38.0037 32.3582 38.6644 33.2341ZM40.8952 43.5653L31.2252 45.4941L25.1616 37.4559L29.4529 28.3968L40.8952 43.5653ZM19.6868 42.4882L23.1772 39.7412L28.5559 46.8714L25.0655 49.6184C23.1412 51.1329 20.3686 50.7659 18.8858 48.8003C17.4031 46.8347 17.7625 44.0027 19.6868 42.4882Z" fill="white"/>
<path d="M46.5413 28.9285L48.8682 27.0971C49.5116 26.5908 49.63 25.6491 49.1352 24.9931C48.6403 24.3371 47.7187 24.214 47.0753 24.7204L44.7484 26.5517C44.105 27.0581 43.9866 27.9998 44.4814 28.6558C44.9763 29.3117 45.8979 29.4348 46.5413 28.9285Z" fill="white"/>
<path d="M41.7967 22.6384C42.0945 22.404 42.3045 22.0531 42.3566 21.6428L42.7341 18.6677C42.8385 17.8451 42.272 17.094 41.4666 16.9874C40.6611 16.8807 39.9258 17.4594 39.8214 18.2821L39.4439 21.2572C39.3395 22.0799 39.9061 22.831 40.7115 22.9376C41.1141 22.992 41.4989 22.8728 41.7967 22.6384Z" fill="white"/>
<path d="M53.1134 35.9033C53.5151 35.9565 53.9008 35.8386 54.1987 35.6042C54.4965 35.3698 54.7065 35.0189 54.7585 34.6086C54.8629 33.7859 54.2964 33.0349 53.491 32.9282L50.5783 32.5426C49.7729 32.436 49.0376 33.0147 48.9332 33.8374C48.8288 34.66 49.3953 35.4111 50.2007 35.5177L53.1134 35.9033Z" fill="white"/>
</g>
<defs>
<clipPath id="clip0_135_1214">
<rect width="47.3777" height="47.6344" fill="white" transform="matrix(0.785818 -0.618458 0.60222 0.79833 0 29.8154)"/>
</clipPath>
</defs>
</svg>
