<svg width="14" height="14" viewBox="0 0 14 14" fill="none" xmlns="http://www.w3.org/2000/svg">
<path fill-rule="evenodd" clip-rule="evenodd" d="M10.0625 5.6875H3.9375C3.696 5.6875 3.5 5.49194 3.5 5.25C3.5 5.0085 3.696 4.8125 3.9375 4.8125H10.0625C10.304 4.8125 10.5 5.0085 10.5 5.25C10.5 5.49194 10.304 5.6875 10.0625 5.6875ZM9.1875 8.3125H4.8125C4.571 8.3125 4.375 8.11694 4.375 7.875C4.375 7.63306 4.571 7.4375 4.8125 7.4375H9.1875C9.429 7.4375 9.625 7.63306 9.625 7.875C9.625 8.11694 9.429 8.3125 9.1875 8.3125ZM7 0C3.13425 0 0 2.74269 0 6.125C0 8.05831 1.02594 9.77988 2.625 10.9021V14L5.69144 12.1393C6.11581 12.2093 6.55244 12.25 7 12.25C10.8658 12.25 14 9.50775 14 6.125C14 2.74269 10.8658 0 7 0Z" fill="#FE5E3A"/>
</svg>
