<svg width="14" height="13" viewBox="0 0 14 13" fill="none" xmlns="http://www.w3.org/2000/svg">
<path fill-rule="evenodd" clip-rule="evenodd" d="M6.24125 2.50514V-0.444875C6.25825 -0.594875 6.21775 -0.744854 6.10375 -0.859854C5.90575 -1.05485 5.58475 -1.05485 5.38675 -0.859854L0.392252 4.62013C0.286752 4.72513 0.241751 4.86013 0.248751 5.00013C0.241751 5.13513 0.286752 5.27514 0.392252 5.38014L5.35925 10.8251C5.54475 10.9851 5.88525 11.0751 6.10375 10.8551C6.21725 10.7451 6.26725 10.6451 6.24975 10.5001V7.50013C9.54975 7.50013 12.5342 9.87514 13.1267 13.0051C13.5257 12.0851 13.7497 11.0751 13.7497 10.0101C13.7497 5.86514 10.3878 2.50514 6.24125 2.50514Z" fill="#333333"/>
</svg>
