<svg width="15" height="12" viewBox="0 0 15 12" fill="none" xmlns="http://www.w3.org/2000/svg">
<path fill-rule="evenodd" clip-rule="evenodd" d="M4.5288 11.9603C9.96264 11.9603 12.9348 7.52765 12.9348 3.68415C12.9348 3.55797 12.9348 3.43274 12.9262 3.30798C13.5043 2.89683 14.0033 2.38634 14.4 1.80224C13.8614 2.03758 13.289 2.19192 12.7037 2.25997C13.32 1.89632 13.7815 1.325 14.0026 0.650868C13.4222 0.989707 12.7879 1.22885 12.1262 1.35716C11.0074 0.186099 9.13608 0.12936 7.94592 1.23095C7.17912 1.94123 6.85296 3.00026 7.09128 4.0104C4.716 3.89273 2.50272 2.78833 1.00224 0.971493C0.21816 2.30062 0.6192 4.00032 1.91736 4.8538C1.4472 4.84033 0.98712 4.7157 0.576 4.49028V4.5272C0.57672 5.91163 1.56816 7.10369 2.94624 7.37802C2.51136 7.49498 2.05488 7.51194 1.6128 7.42759C1.99944 8.61282 3.10896 9.42462 4.37256 9.44802C3.3264 10.2575 2.034 10.6971 0.70344 10.6957C0.46872 10.695 0.234 10.6815 0 10.6539C1.35144 11.5074 2.9232 11.9603 4.5288 11.9582" fill="#888888"/>
</svg>
