<svg width="16" height="16" viewBox="0 0 16 16" fill="none" xmlns="http://www.w3.org/2000/svg">
<path d="M10.3708 10.8652L10.0671 11.1848C10.0671 11.1848 9.3454 11.9447 7.3754 9.87062C5.40541 7.79658 6.12713 7.03673 6.12713 7.03673L6.31835 6.83543C6.7894 6.33951 6.8338 5.54333 6.42283 4.96209L5.58217 3.77309C5.07352 3.05369 4.09064 2.95865 3.50763 3.57245L2.46123 4.67411C2.17215 4.97846 1.97843 5.37299 2.00193 5.81065C2.06203 6.93033 2.54047 9.33935 5.21024 12.1502C8.0414 15.1308 10.6979 15.2493 11.7842 15.1421C12.1278 15.1082 12.4266 14.9229 12.6674 14.6694L13.6145 13.6723C14.2537 12.9993 14.0735 11.8455 13.2555 11.3747L11.9819 10.6416C11.4448 10.3324 10.7905 10.4232 10.3708 10.8652Z" fill="white"/>
<path d="M8.83982 2.41989C8.88395 2.1473 9.14162 1.96238 9.41422 2.00651C9.43109 2.00974 9.48542 2.01989 9.51382 2.02622C9.57075 2.0389 9.65009 2.0584 9.74902 2.08722C9.94689 2.14484 10.2233 2.23978 10.555 2.39187C11.2192 2.69638 12.1031 3.22904 13.0203 4.14624C13.9375 5.06344 14.4702 5.94731 14.7746 6.6115C14.9268 6.94325 15.0217 7.21965 15.0793 7.4175C15.1081 7.51644 15.1276 7.59579 15.1403 7.65267C15.1466 7.68112 15.1513 7.70396 15.1545 7.72084L15.1584 7.74163C15.2024 8.0142 15.0192 8.2826 14.7466 8.32674C14.4748 8.37073 14.2188 8.18667 14.1736 7.9154C14.1722 7.90807 14.1683 7.88854 14.1642 7.87007C14.156 7.83314 14.1418 7.77459 14.1192 7.69715C14.0741 7.54226 13.9958 7.31204 13.8656 7.02825C13.6058 6.46138 13.1384 5.67859 12.3132 4.85335C11.488 4.02811 10.7052 3.56078 10.1383 3.30089C9.85449 3.17079 9.62429 3.09244 9.46935 3.04732C9.39195 3.02476 9.29462 3.00242 9.25769 2.9942C8.98635 2.94898 8.79582 2.6917 8.83982 2.41989Z" fill="white"/>
<path fill-rule="evenodd" clip-rule="evenodd" d="M8.99055 4.71958C9.06642 4.45406 9.34315 4.30032 9.60868 4.37618L9.47135 4.85694C9.60868 4.37618 9.60868 4.37618 9.60868 4.37618L9.60968 4.37646L9.61068 4.37675L9.61288 4.3774L9.61808 4.37894L9.63128 4.38305C9.64128 4.38626 9.65388 4.39045 9.66882 4.39576C9.69875 4.40639 9.73835 4.4215 9.78688 4.4423C9.88402 4.48392 10.0167 4.5482 10.1797 4.64468C10.506 4.8378 10.9515 5.15858 11.4748 5.6819C11.9981 6.20522 12.3189 6.65067 12.512 6.97698C12.6085 7.13999 12.6727 7.2727 12.7144 7.36982C12.7352 7.41836 12.7503 7.45793 12.7609 7.48787C12.7663 7.50284 12.7704 7.51539 12.7737 7.52544L12.7777 7.53864L12.7793 7.5438L12.7799 7.54602L12.7802 7.54705C12.7802 7.54705 12.7805 7.54801 12.2997 7.68537L12.7805 7.54801C12.8564 7.81352 12.7026 8.09025 12.4371 8.16612C12.1739 8.24132 11.8995 8.09085 11.8209 7.82947L11.8185 7.82228C11.8149 7.81226 11.8076 7.79254 11.7953 7.76374C11.7706 7.70618 11.7259 7.61203 11.6515 7.4863C11.5028 7.23514 11.2343 6.85564 10.7677 6.389C10.3011 5.92237 9.92155 5.6539 9.67042 5.50526C9.54468 5.43084 9.45055 5.38611 9.39295 5.36144C9.36415 5.3491 9.34442 5.34174 9.33442 5.33819L9.32722 5.33573C9.06588 5.25714 8.91535 4.98284 8.99055 4.71958Z" fill="white"/>
</svg>
