<svg width="16" height="16" viewBox="0 0 16 16" fill="none" xmlns="http://www.w3.org/2000/svg">
<g clip-path="url(#clip0_1362_4267)">
<path d="M3.99717 1.21875C4.27768 1.45749 4.53688 1.72168 4.79758 1.98157C4.82665 2.01051 4.82665 2.01051 4.85631 2.04003C4.95856 2.14182 5.06073 2.2437 5.16282 2.34565C5.26739 2.45005 5.37225 2.55415 5.47717 2.65818C5.55875 2.73918 5.64012 2.82039 5.72144 2.90166C5.75999 2.94012 5.79862 2.9785 5.83733 3.0168C6.27212 3.44726 6.59529 3.86304 6.62217 4.5C6.5863 5.23538 6.02508 5.72808 5.53623 6.21485C5.49315 6.25811 5.49315 6.25811 5.44919 6.30225C5.42136 6.33004 5.39352 6.35784 5.36484 6.38648C5.33996 6.41133 5.31507 6.43618 5.28943 6.46178C5.21592 6.53125 5.13952 6.59423 5.05967 6.65625C5.07792 6.81338 5.14944 6.93477 5.22568 7.07031C5.23943 7.09489 5.25319 7.11946 5.26735 7.14478C5.48519 7.52608 5.74607 7.88278 6.02842 8.21875C6.04794 8.24219 6.04794 8.24219 6.06786 8.2661C6.44759 8.72099 6.84795 9.17578 7.29856 9.56189C7.35425 9.60964 7.40942 9.65801 7.46433 9.70667C7.88135 10.074 8.32672 10.4114 8.80967 10.6875C8.82765 10.698 8.84563 10.7086 8.86416 10.7194C8.9193 10.7516 8.97475 10.7831 9.03037 10.8145C9.06296 10.8329 9.09555 10.8513 9.12913 10.8702C9.22566 10.9103 9.2464 10.9107 9.34092 10.875C9.39752 10.8313 9.39752 10.8313 9.45055 10.7745C9.47143 10.7533 9.49231 10.7321 9.51382 10.7103C9.54727 10.6757 9.54727 10.6757 9.5814 10.6404C9.60476 10.6167 9.62811 10.593 9.65218 10.5685C9.75203 10.4671 9.85133 10.3652 9.95066 10.2633C10.0233 10.189 10.0963 10.1149 10.1693 10.0408C10.2022 10.0067 10.2022 10.0067 10.2357 9.97199C10.4416 9.76316 10.6692 9.58065 10.9444 9.47266C10.9746 9.46049 11.0048 9.44833 11.0359 9.43579C11.4324 9.30007 11.8525 9.36333 12.2237 9.54102C12.3625 9.62337 12.4797 9.7194 12.5964 9.82996C12.616 9.84843 12.6357 9.8669 12.6559 9.88593C12.9768 10.1904 13.2887 10.5044 13.6014 10.8172C13.6956 10.9114 13.7899 11.0053 13.8843 11.0992C13.9581 11.1726 14.0317 11.2461 14.1053 11.3197C14.14 11.3544 14.1748 11.389 14.2096 11.4236C14.6426 11.8539 15.0222 12.2803 15.0382 12.916C15.0268 13.5906 14.6204 14.0417 14.1656 14.4994C14.1379 14.5274 14.1101 14.5555 14.0815 14.5844C14.0231 14.6432 13.9647 14.7019 13.9063 14.7605C13.847 14.8198 13.7881 14.8794 13.7294 14.9393C13.1006 15.5792 13.1006 15.5792 12.7472 15.75C12.7149 15.7656 12.6827 15.7812 12.6495 15.7973C11.7213 16.2261 10.5856 15.9922 9.65342 15.6875C9.6263 15.6787 9.59919 15.6698 9.57125 15.6607C7.72152 15.0451 5.98291 13.9149 4.55967 12.5938C4.52488 12.5618 4.49009 12.5299 4.4553 12.498C3.65913 11.7649 3.65913 11.7649 3.34385 11.3623C3.27001 11.2708 3.19082 11.1853 3.11045 11.0996C2.92402 10.8991 2.75675 10.6864 2.59092 10.4688C2.57319 10.4457 2.55546 10.4227 2.53719 10.3989C1.81586 9.46034 1.1985 8.45705 0.715918 7.375C0.701094 7.34257 0.686269 7.31015 0.670996 7.27674C0.147324 6.0999 -0.286938 4.68166 0.16123 3.41406C0.354197 2.94486 0.694042 2.61293 1.04813 2.26212C1.14396 2.16692 1.23817 2.07212 1.32529 1.96875C2.02104 1.15107 2.9704 0.501721 3.99717 1.21875ZM2.49717 2.15625C2.31343 2.33053 2.1342 2.50947 1.95455 2.68793C1.89708 2.74488 1.83944 2.80167 1.78164 2.85828C1.69741 2.94078 1.61372 3.0238 1.53013 3.10694C1.50454 3.13182 1.47895 3.1567 1.45258 3.18234C1.0692 3.56713 0.926145 4.02545 0.926962 4.56009C0.934745 5.06736 1.06179 5.5509 1.21592 6.03125C1.22516 6.06047 1.23441 6.08968 1.24393 6.11978C1.58145 7.16807 2.1205 8.1604 2.74717 9.0625C2.76045 9.08169 2.77372 9.10087 2.78741 9.12064C3.08775 9.55276 3.40854 9.97223 3.74717 10.375C3.76761 10.3994 3.76761 10.3994 3.78846 10.4243C4.2186 10.9371 4.67371 11.4512 5.1854 11.8845C5.26306 11.9511 5.33793 12.0205 5.41318 12.0898C5.58221 12.2435 5.75532 12.3899 5.93467 12.5313C5.95648 12.5486 5.97828 12.5659 6.00075 12.5837C7.56285 13.8181 9.75518 15.2362 11.8409 15.0625C12.2596 15.0016 12.632 14.7471 12.8989 14.4265C13.0057 14.3032 13.1196 14.1886 13.2357 14.0742C13.2545 14.0556 13.2734 14.037 13.2928 14.0178C13.3717 13.9401 13.4506 13.8625 13.5298 13.7852C13.5882 13.7281 13.6464 13.6707 13.7044 13.6133C13.7221 13.5962 13.7397 13.5792 13.7579 13.5616C13.9327 13.3879 14.0794 13.199 14.1007 12.9473C14.0891 12.4917 13.5261 12.0855 13.2236 11.7804C13.2054 11.762 13.1871 11.7436 13.1683 11.7246C13.072 11.6274 12.9756 11.5304 12.8791 11.4335C12.8 11.3539 12.7211 11.2742 12.6424 11.1943C12.5463 11.0966 12.4499 10.9994 12.3531 10.9024C12.3167 10.8658 12.2804 10.829 12.2443 10.7921C11.9308 10.4567 11.9308 10.4567 11.5128 10.3076C11.2036 10.321 11.0092 10.5387 10.8071 10.7478C10.7523 10.8035 10.6974 10.8592 10.6426 10.9149C10.5572 11.0023 10.4718 11.0898 10.3865 11.1774C10.3037 11.2623 10.2205 11.3469 10.1372 11.4314C10.0996 11.4704 10.0996 11.4704 10.0613 11.5101C9.87906 11.6947 9.68291 11.8647 9.42771 11.9334C9.10707 11.9342 8.86559 11.8067 8.59092 11.6563C8.55499 11.6369 8.55499 11.6369 8.51833 11.6172C7.85555 11.2583 7.25107 10.7977 6.69736 10.2874C6.63413 10.2297 6.56993 10.1737 6.5051 10.1178C6.36584 9.99623 6.23491 9.86736 6.10459 9.73633C6.08221 9.71407 6.05983 9.69182 6.03678 9.66889C5.89211 9.52396 5.75556 9.37406 5.62217 9.21875C5.59324 9.186 5.56427 9.15328 5.53525 9.12061C4.05439 7.43553 4.05439 7.43553 4.04307 6.52503C4.08641 6.29651 4.21503 6.13868 4.37998 5.98242C4.40506 5.9578 4.40506 5.9578 4.43064 5.93268C4.52127 5.84452 4.61454 5.76028 4.7103 5.67774C4.86043 5.54735 5.00108 5.40808 5.1417 5.26758C5.16732 5.24234 5.19294 5.21711 5.21934 5.1911C5.55487 4.86836 5.55487 4.86836 5.68467 4.4375C5.64009 4.02914 5.15412 3.68268 4.87864 3.40637C4.85844 3.38609 4.83825 3.36581 4.81744 3.34491C4.71093 3.23794 4.60434 3.13105 4.49766 3.02424C4.38786 2.91426 4.27835 2.804 4.1689 2.69367C4.08421 2.60839 3.99931 2.52333 3.91435 2.43832C3.87387 2.39774 3.83346 2.35709 3.79314 2.31636C3.73685 2.25953 3.68027 2.20301 3.62361 2.14656C3.60719 2.12985 3.59078 2.11315 3.57386 2.09594C3.19598 1.72226 2.84387 1.83327 2.49717 2.15625Z" fill="white" fill-opacity="0.8"/>
<path d="M9.43641 0.0820311C9.47043 0.0905812 9.50444 0.0991313 9.53949 0.10794C10.8572 0.444888 12.0593 1.04519 13.0907 1.9375C13.1171 1.9599 13.1436 1.9823 13.1708 2.00537C13.5592 2.34394 13.9343 2.71489 14.247 3.125C14.2714 3.15549 14.2958 3.18599 14.3209 3.21741C14.8158 3.83863 15.2017 4.53405 15.4982 5.26944C15.5248 5.33538 15.5521 5.40097 15.5796 5.46655C15.7841 5.97694 16.0825 6.72399 15.997 7.28125C15.9231 7.43178 15.835 7.5199 15.6845 7.59375C15.508 7.62194 15.3659 7.60131 15.2157 7.5C15.1139 7.38966 15.0707 7.30279 15.0394 7.15662C15.0313 7.12009 15.0231 7.08356 15.0147 7.04592C15.0063 7.00692 14.9978 6.96792 14.9891 6.92774C14.7422 5.84322 14.3176 4.81493 13.6338 3.93079C13.59 3.87409 13.5468 3.81696 13.5037 3.75977C13.3286 3.53005 13.1437 3.32458 12.9345 3.125C12.861 3.05218 12.788 2.9791 12.7168 2.90405C11.7763 1.92443 10.3813 1.26618 9.06214 0.99939C9.03685 0.994201 9.01156 0.989012 8.9855 0.983665C8.93746 0.974045 8.88931 0.964936 8.84106 0.956459C8.67565 0.923763 8.58594 0.86915 8.46571 0.75C8.38266 0.608021 8.35655 0.500582 8.38526 0.341308C8.42422 0.210916 8.49019 0.121036 8.59987 0.0423124C8.85131 -0.0834648 9.17822 0.0152718 9.43641 0.0820311Z" fill="white" fill-opacity="0.8"/>
<path d="M11.1314 3.89526C11.3395 4.06119 11.5277 4.24955 11.7156 4.4375C11.7347 4.45514 11.7538 4.47279 11.7735 4.49097C12.4691 5.14363 13.0688 6.30349 13.1043 7.26367C13.0998 7.4178 13.0748 7.50993 12.9656 7.625C12.8472 7.71787 12.7402 7.74213 12.5906 7.75C12.4392 7.7191 12.3125 7.65331 12.2156 7.53125C12.1707 7.43038 12.1471 7.32604 12.1219 7.21875C11.905 6.35978 11.5472 5.66837 10.9344 5.03125C10.9151 5.00958 10.8957 4.9879 10.8758 4.96558C10.3323 4.37593 9.52073 4.02497 8.75124 3.85788C8.55639 3.81545 8.42144 3.78375 8.30463 3.61511C8.24196 3.49063 8.23757 3.38758 8.24689 3.25C8.30604 3.08571 8.38834 3.00411 8.52814 2.90625C9.3218 2.67949 10.531 3.43645 11.1314 3.89526Z" fill="white" fill-opacity="0.8"/>
</g>
<defs>
<clipPath id="clip0_1362_4267">
<rect width="16" height="16" fill="white" transform="translate(-0.00292969)"/>
</clipPath>
</defs>
</svg>
