<svg width="24" height="24" viewBox="0 0 24 24" fill="none" xmlns="http://www.w3.org/2000/svg">
<g clip-path="url(#clip0_2105_292)">
<path d="M11.4948 -0.0112643C11.5311 -0.0117213 11.5674 -0.0121782 11.6048 -0.012649C12.3948 -0.0205484 13.1524 -0.0144537 13.9218 0.187405C13.9572 0.196182 13.9925 0.204959 14.029 0.214001C15.9903 0.707005 17.7741 2.01513 18.8175 3.74899C18.9254 3.934 19.0268 4.12209 19.1249 4.31241C19.1474 4.35589 19.1474 4.35589 19.1703 4.40025C19.6568 5.35683 19.9717 6.44257 19.9782 7.51986C19.9786 7.55647 19.9789 7.59308 19.9792 7.63079C19.9898 9.15014 19.9898 9.15014 19.8281 9.79678C19.819 9.83476 19.8099 9.87275 19.8006 9.91188C19.2971 11.9769 18.0164 13.7239 16.7145 15.3628C16.5945 15.514 16.4767 15.6669 16.3593 15.8202C16.0887 16.1732 15.8134 16.5225 15.5379 16.8717C15.49 16.9324 15.4421 16.9931 15.3943 17.0538C15.3492 17.1109 15.3042 17.168 15.2591 17.2251C15.1681 17.3405 15.0815 17.4557 14.9999 17.578C15.1976 17.6387 15.3949 17.6872 15.5974 17.7293C16.6027 17.9381 17.5678 18.201 18.4687 18.703C18.5127 18.7265 18.5567 18.75 18.602 18.7743C19.1707 19.0929 19.7394 19.6052 19.9491 20.2386C20.0429 20.7419 19.9921 21.2233 19.721 21.6593C19.6521 21.7572 19.5784 21.847 19.4999 21.9374C19.4593 21.9863 19.4593 21.9863 19.4177 22.0363C18.0315 23.5663 15.2915 23.881 13.3593 23.9999C13.1572 24.0067 12.9551 24.0086 12.7529 24.0094C12.697 24.0098 12.6412 24.0101 12.5837 24.0104C12.4047 24.0112 12.2258 24.0115 12.0468 24.0116C11.9552 24.0117 11.9552 24.0117 11.8617 24.0117C10.992 24.011 10.1414 23.9969 9.2812 23.8593C9.22762 23.8512 9.17404 23.8432 9.11883 23.8349C7.43151 23.5782 5.46495 23.1435 4.33589 21.747C4.03357 21.3024 3.97884 20.8694 4.0312 20.3437C4.10845 20.0138 4.28015 19.7531 4.49995 19.4999C4.54065 19.451 4.54065 19.451 4.58216 19.401C5.63809 18.2356 7.48512 17.8917 8.95307 17.6249C8.95307 17.431 8.87445 17.3775 8.748 17.2323C8.70432 17.1814 8.66074 17.1304 8.61726 17.0793C8.59495 17.0531 8.57263 17.0269 8.54965 16.9999C8.42985 16.8567 8.31745 16.7078 8.20424 16.5594C8.18452 16.5335 8.1648 16.5077 8.14448 16.481C8.12394 16.4541 8.10339 16.4272 8.08222 16.3994C7.95546 16.2339 7.82723 16.0696 7.69917 15.9052C7.67142 15.8695 7.64368 15.8338 7.61509 15.797C7.47478 15.6166 7.33414 15.4365 7.19288 15.2568C5.66982 13.3162 4.0463 11.0781 4.02003 8.50589C4.01957 8.46862 4.01911 8.43135 4.01864 8.39296C4.01081 7.59311 4.01354 6.82536 4.2187 6.04678C4.22775 6.00918 4.2368 5.97158 4.24612 5.93284C4.53609 4.73724 5.14833 3.64222 5.95307 2.71866C6.01144 2.65086 6.01144 2.65086 6.07099 2.58169C7.39703 1.0704 9.46617 0.00991786 11.4948 -0.0112643ZM6.93745 3.09366C5.55063 4.50403 4.98667 6.3691 4.99821 8.30614C5.01336 9.5183 5.3834 10.6132 5.95307 11.6718C5.96938 11.7025 5.98569 11.7332 6.00249 11.7649C6.70689 13.0863 7.68373 14.2643 8.60888 15.4358C8.71603 15.5715 8.82281 15.7076 8.92964 15.8437C9.05899 16.0084 9.18839 16.173 9.318 16.3375C9.58135 16.6718 9.84292 17.0074 10.1015 17.3455C10.1526 17.4122 10.2037 17.4789 10.2548 17.5456C10.8318 18.2986 11.397 19.0596 11.9531 19.828C12.1336 19.7678 12.1881 19.6627 12.29 19.5116C12.4989 19.2105 12.7175 18.9178 12.9404 18.6269C13.0057 18.5415 13.0711 18.4561 13.1365 18.3707C13.1671 18.3307 13.1977 18.2907 13.2293 18.2495C13.3303 18.1172 13.4299 17.984 13.5292 17.8505C13.7826 17.5116 14.0438 17.1787 14.3041 16.8451C14.4177 16.6995 14.531 16.5536 14.6443 16.4077C14.8637 16.1254 15.0835 15.8434 15.3046 15.5624C15.3678 15.482 15.431 15.4016 15.4942 15.3211C15.5421 15.2602 15.5899 15.1993 15.6378 15.1384C16.9551 13.4617 18.3112 11.7107 18.8437 9.60928C18.8521 9.577 18.8605 9.54472 18.8692 9.51146C19.2881 7.82144 18.9347 5.87435 18.0511 4.39457C17.8036 3.99674 17.5244 3.63142 17.2034 3.28976C17.1093 3.18741 17.1093 3.18741 17.0136 3.06656C16.0895 1.92305 14.3736 1.17559 12.9497 0.998745C12.8993 0.993972 12.8488 0.989198 12.7968 0.98428C12.7671 0.981206 12.7374 0.978132 12.7069 0.974965C10.5424 0.761138 8.47248 1.5794 6.93745 3.09366ZM5.39057 20.0155C5.12565 20.291 4.99682 20.4467 5.00294 20.8347C5.02197 21.0129 5.08602 21.0997 5.20307 21.2343C5.22604 21.2625 5.249 21.2907 5.27265 21.3198C6.4588 22.6555 9.03236 22.8941 10.6874 23.0155C13.0861 23.149 16.6151 23.1868 18.5478 21.4833C18.781 21.263 18.9879 21.0668 19.0048 20.7362C19.0012 20.4531 18.896 20.3076 18.7031 20.1093C18.6639 20.0682 18.6639 20.0682 18.624 20.0263C17.6353 19.0824 16.0325 18.7834 14.7344 18.5801C14.6624 18.5685 14.5907 18.5551 14.5193 18.5398C14.4093 18.5163 14.4093 18.5163 14.2499 18.5155C14.1334 18.5944 14.1334 18.5944 14.0507 18.7235C13.9978 18.7951 13.9978 18.7951 13.9438 18.8682C13.9252 18.8945 13.9066 18.9209 13.8874 18.948C13.8258 19.0343 13.7621 19.1187 13.6977 19.2029C13.4143 19.5741 13.1411 19.9525 12.8685 20.3317C12.2958 21.1268 12.2958 21.1268 12.1342 21.1629C11.9622 21.1729 11.8235 21.1809 11.6782 21.0797C11.5889 20.9799 11.5135 20.8759 11.4374 20.7655C11.404 20.7194 11.3706 20.6733 11.3362 20.6258C11.2577 20.5173 11.1802 20.4082 11.1031 20.2986C10.9257 20.0474 10.7425 19.8006 10.5595 19.5534C10.4249 19.3716 10.291 19.1894 10.1592 19.0055C10.1355 18.9727 10.1119 18.9398 10.0875 18.906C10.0431 18.8443 9.99893 18.7824 9.95504 18.7203C9.90457 18.6503 9.85099 18.5826 9.79682 18.5155C8.41431 18.5155 6.42023 19.0585 5.39057 20.0155Z" fill="#111111"/>
<path d="M13.9589 5.26484C14.1302 5.40537 14.2847 5.55939 14.4384 5.71876C14.4695 5.74843 14.5006 5.7781 14.5327 5.80866C15.1422 6.42915 15.3055 7.28556 15.2984 8.11945C15.2765 9.04414 14.9095 9.7711 14.2509 10.4063C14.2212 10.4374 14.1916 10.4685 14.161 10.5006C13.5405 11.1101 12.6841 11.2734 11.8502 11.2663C10.9255 11.2444 10.1985 10.8773 9.56339 10.2188C9.53227 10.1891 9.50115 10.1594 9.46909 10.1289C8.85956 9.50837 8.69625 8.65196 8.70334 7.81806C8.72528 6.89337 9.09232 6.16642 9.75089 5.53126C9.78056 5.50014 9.81023 5.46902 9.8408 5.43696C10.8924 4.40396 12.8112 4.41129 13.9589 5.26484ZM11.0165 5.85938C10.9763 5.87981 10.9362 5.90023 10.8948 5.92127C10.4354 6.17485 10.128 6.51902 9.89152 6.98438C9.87206 7.02118 9.8526 7.05798 9.83256 7.09589C9.61966 7.57156 9.61324 8.23219 9.78019 8.72462C9.8148 8.80196 9.85191 8.87823 9.89152 8.95313C9.92215 9.01341 9.92215 9.01341 9.95341 9.0749C10.2778 9.6625 10.7744 10.0194 11.4052 10.2303C12.0163 10.4005 12.6084 10.2856 13.1603 9.98676C13.7312 9.62827 14.0927 9.13666 14.2759 8.48994C14.3835 8.00194 14.3403 7.42595 14.1103 6.98438C14.0898 6.94414 14.0694 6.9039 14.0484 6.86243C13.7945 6.40325 13.4507 6.09594 12.9853 5.85938C12.9485 5.83993 12.9117 5.82047 12.8738 5.80042C12.3197 5.55245 11.5508 5.57687 11.0165 5.85938Z" fill="#111111"/>
<path d="M14.1092 2.20318C15.5979 2.71492 16.8336 3.86702 17.5277 5.26929C17.8972 6.06017 18.0994 6.89558 18.117 7.76666C18.1184 7.81098 18.1199 7.8553 18.1214 7.90096C18.1214 8.11401 18.1162 8.21837 17.9895 8.39563C17.8141 8.51515 17.7084 8.51809 17.5019 8.50732C17.3277 8.47156 17.2551 8.39384 17.156 8.25006C17.1045 8.06388 17.0961 7.87266 17.0813 7.68081C16.9745 6.34152 16.4727 5.20645 15.5154 4.26568C15.4798 4.23009 15.4441 4.1945 15.4074 4.15784C14.9494 3.72583 14.3752 3.44366 13.8081 3.18207C13.481 3.02804 13.481 3.02804 13.406 2.85943C13.3811 2.63501 13.3721 2.53768 13.4939 2.34674C13.6786 2.16751 13.8628 2.16421 14.1092 2.20318Z" fill="#111111"/>
<path d="M12.2813 1.87502C12.4277 1.96291 12.4277 1.96291 12.5156 2.10939C12.562 2.345 12.552 2.51745 12.4277 2.72463C12.2214 2.84843 12.0473 2.86032 11.8125 2.81252C11.6525 2.70147 11.5948 2.62619 11.5312 2.44338C11.5312 2.25456 11.5828 2.13411 11.6719 1.96877C11.8715 1.83566 12.0471 1.84034 12.2813 1.87502Z" fill="#111111"/>
</g>
<defs>
<clipPath id="clip0_2105_292">
<rect width="24" height="24" fill="white"/>
</clipPath>
</defs>
</svg>
