<svg width="28" height="28" viewBox="0 0 28 28" fill="none" xmlns="http://www.w3.org/2000/svg">
<g clip-path="url(#clip0_2023_1722)">
<path d="M12.6061 -0.0289311C12.7182 -0.0290789 12.8303 -0.0292916 12.9424 -0.0295653C13.1761 -0.0298857 13.4097 -0.0294258 13.6434 -0.028397C13.9407 -0.0271509 14.238 -0.0278696 14.5353 -0.0291785C14.7664 -0.0299746 14.9975 -0.0297149 15.2287 -0.0291506C15.3382 -0.0290062 15.4477 -0.0291782 15.5572 -0.029693C16.3667 -0.0326638 17.1064 0.0345081 17.839 0.413696C17.875 0.432064 17.911 0.450433 17.9481 0.469358C18.3294 0.674374 18.6237 0.948444 18.9225 1.25793C18.9628 1.29657 19.0031 1.3352 19.0447 1.375C19.2799 1.61383 19.4404 1.87456 19.5924 2.17053C19.6184 2.22062 19.6184 2.22062 19.645 2.27172C19.9985 2.99925 20.047 3.67856 20.0376 4.4704C20.0372 4.5723 20.0369 4.67419 20.0366 4.77609C20.0358 5.04168 20.0337 5.30723 20.0312 5.57281C20.029 5.84485 20.028 6.1169 20.0269 6.38895C20.0246 6.92081 20.0209 7.45265 20.0162 7.9845C20.0713 7.98401 20.1263 7.98352 20.183 7.98302C20.7051 7.97856 21.2271 7.9753 21.7492 7.97316C22.0175 7.97203 22.2858 7.97049 22.5541 7.96799C22.8137 7.96559 23.0732 7.9643 23.3328 7.96374C23.4312 7.96334 23.5296 7.96256 23.6279 7.96137C24.4068 7.95231 25.1191 8.03355 25.8234 8.39807C25.8594 8.41644 25.8954 8.43481 25.9325 8.45373C26.3138 8.65875 26.6081 8.93282 26.9069 9.24231C26.9472 9.28094 26.9875 9.31957 27.029 9.35937C27.2642 9.5982 27.4247 9.85893 27.5768 10.1549C27.6028 10.205 27.6028 10.205 27.6294 10.2561C27.998 11.0148 28.0335 11.7313 28.0297 12.5575C28.0298 12.6709 28.03 12.7844 28.0303 12.8978C28.0306 13.1344 28.0301 13.3709 28.0291 13.6075C28.0279 13.9085 28.0286 14.2095 28.0299 14.5106C28.0307 14.7445 28.0304 14.9784 28.0299 15.2123C28.0297 15.3232 28.0299 15.4341 28.0304 15.545C28.0334 16.3588 27.9683 17.1018 27.587 17.8385C27.5687 17.8745 27.5503 17.9105 27.5314 17.9477C27.3263 18.329 27.0523 18.6232 26.7428 18.922C26.7042 18.9623 26.6655 19.0026 26.6257 19.0442C26.388 19.2783 26.1279 19.4397 25.8336 19.5919C25.7842 19.618 25.7842 19.618 25.7338 19.6445C25.0006 20.0026 24.2813 20.0468 23.4823 20.0371C23.3817 20.0367 23.2811 20.0364 23.1805 20.0362C22.9186 20.0353 22.6567 20.0332 22.3948 20.0308C22.1264 20.0285 21.8581 20.0275 21.5897 20.0264C21.0652 20.0241 20.5407 20.0204 20.0162 20.0157C20.0167 20.0708 20.0172 20.1258 20.0177 20.1825C20.0222 20.7046 20.0254 21.2266 20.0276 21.7487C20.0287 22.017 20.0302 22.2853 20.0327 22.5536C20.0351 22.8132 20.0364 23.0727 20.037 23.3323C20.0374 23.4307 20.0382 23.5291 20.0394 23.6275C20.0484 24.4063 19.9672 25.1186 19.6027 25.8229C19.5843 25.8589 19.5659 25.8949 19.547 25.932C19.342 26.3133 19.0679 26.6076 18.7584 26.9064C18.7198 26.9467 18.6811 26.987 18.6413 27.0286C18.4036 27.2627 18.1435 27.4241 17.8492 27.5763C17.7998 27.6023 17.7998 27.6023 17.7494 27.6289C16.985 28.0022 16.2282 28.0331 15.3951 28.0292C15.283 28.0293 15.1709 28.0295 15.0588 28.0298C14.8251 28.0301 14.5914 28.0297 14.3578 28.0286C14.0605 28.0274 13.7632 28.0281 13.4659 28.0294C13.2348 28.0302 13.0037 28.03 12.7725 28.0294C12.663 28.0293 12.5535 28.0294 12.444 28.0299C11.6345 28.0329 10.8948 27.9657 10.1622 27.5865C10.1262 27.5682 10.0902 27.5498 10.0531 27.5309C9.67175 27.3259 9.37748 27.0518 9.07872 26.7423C9.0384 26.7037 8.99808 26.665 8.95653 26.6252C8.72135 26.3864 8.56085 26.1257 8.4088 25.8297C8.39144 25.7963 8.37408 25.7629 8.3562 25.7285C8.0027 25.001 7.95416 24.3217 7.96361 23.5298C7.96402 23.4279 7.96433 23.326 7.96455 23.2241C7.96538 22.9586 7.96752 22.693 7.96995 22.4274C7.97221 22.1554 7.97319 21.8833 7.97429 21.6113C7.97662 21.0794 7.98035 20.5476 7.98497 20.0157C7.92993 20.0162 7.87489 20.0167 7.81817 20.0172C7.29612 20.0217 6.77408 20.0249 6.25202 20.0271C5.9837 20.0282 5.7154 20.0298 5.44709 20.0322C5.18753 20.0346 4.92798 20.0359 4.66841 20.0365C4.57002 20.0369 4.47164 20.0377 4.37326 20.0389C3.59442 20.0479 2.88209 19.9667 2.17784 19.6022C2.14182 19.5838 2.1058 19.5654 2.06868 19.5465C1.68738 19.3415 1.3931 19.0674 1.09435 18.7579C1.05402 18.7193 1.0137 18.6807 0.972156 18.6409C0.736973 18.402 0.57647 18.1413 0.424426 17.8453C0.407067 17.8119 0.389707 17.7786 0.371822 17.7441C0.000992538 16.9809 -0.0322584 16.2599 -0.0284546 15.4288C-0.0286023 15.3141 -0.0288149 15.1993 -0.0290888 15.0845C-0.0294094 14.8451 -0.0289484 14.6058 -0.0279205 14.3664C-0.0266743 14.0615 -0.0273925 13.7567 -0.0287016 13.4519C-0.0294969 13.2152 -0.0292386 12.9786 -0.028674 12.7419C-0.0285295 12.6296 -0.0287024 12.5173 -0.0292164 12.4049C-0.0320982 11.5986 0.0410671 10.8962 0.414172 10.1652C0.432541 10.1289 0.450909 10.0926 0.469835 10.0553C0.674439 9.67213 0.947931 9.37796 1.25841 9.07825C1.29704 9.03792 1.33567 8.9976 1.37548 8.95605C1.61324 8.72192 1.87328 8.56053 2.16759 8.40832C2.20053 8.39096 2.23346 8.37361 2.26739 8.35572C3.00062 7.99763 3.71989 7.95345 4.51894 7.96313C4.61953 7.96354 4.72013 7.96385 4.82072 7.96407C5.08262 7.9649 5.34449 7.96704 5.60637 7.96948C5.87476 7.97173 6.14314 7.97272 6.41153 7.97381C6.93603 7.97615 7.4605 7.97987 7.98497 7.9845C7.98449 7.92865 7.984 7.87279 7.9835 7.81525C7.97904 7.28594 7.97578 6.75664 7.97364 6.22731C7.9725 5.95526 7.97097 5.68321 7.96847 5.41117C7.96607 5.14806 7.96478 4.88497 7.96422 4.62185C7.96382 4.52204 7.96304 4.42224 7.96185 4.32244C7.95302 3.55154 8.04213 2.87915 8.39855 2.18079C8.4261 2.12638 8.4261 2.12638 8.45421 2.07088C8.65881 1.68776 8.93231 1.39358 9.24279 1.09387C9.28142 1.05355 9.32005 1.01322 9.35985 0.971679C9.59761 0.737546 9.85766 0.576156 10.152 0.42395C10.1849 0.40659 10.2178 0.389231 10.2518 0.371345C11.0162 -0.00196826 11.773 -0.0328466 12.6061 -0.0289311ZM10.2923 2.43799C9.61975 3.18128 9.61694 4.0495 9.62026 4.99911C9.62036 5.08546 9.62044 5.17181 9.62049 5.25816C9.6207 5.48391 9.62124 5.70966 9.62184 5.9354C9.62241 6.16637 9.62265 6.39734 9.62293 6.62831C9.62351 7.08037 9.62444 7.53243 9.6256 7.9845C9.68391 7.98482 9.74223 7.98514 9.80231 7.98547C10.3519 7.9886 10.9015 7.99258 11.4511 7.99739C11.7336 7.99983 12.0162 8.00198 12.2987 8.00344C12.5714 8.00486 12.8441 8.00707 13.1167 8.00983C13.2208 8.01074 13.3248 8.01137 13.4288 8.01171C13.5745 8.01224 13.7202 8.01377 13.8659 8.01554C13.9089 8.01546 13.9519 8.01538 13.9962 8.0153C14.2441 8.01956 14.4049 8.05006 14.6022 8.20325C14.7572 8.40363 14.7887 8.55383 14.7867 8.80481C14.7872 8.86008 14.7876 8.91535 14.788 8.97229C14.7626 9.15944 14.7175 9.25727 14.6022 9.40637C14.3783 9.57619 14.1845 9.5939 13.9124 9.5915C13.8501 9.59193 13.8501 9.59193 13.7867 9.59237C13.6478 9.59313 13.509 9.59274 13.3702 9.59234C13.2706 9.59266 13.1709 9.59305 13.0713 9.5935C12.8567 9.59433 12.6422 9.59464 12.4276 9.59456C12.0879 9.59445 11.7481 9.59552 11.4084 9.59676C10.7478 9.599 10.0873 9.60002 9.42676 9.60093C8.58758 9.60215 7.74839 9.60399 6.90921 9.60679C6.57203 9.60787 6.23484 9.6084 5.89766 9.60848C5.687 9.60863 5.47635 9.60923 5.26569 9.60993C5.16863 9.61016 5.07157 9.61022 4.97451 9.61006C3.95031 9.60861 3.0855 9.6785 2.30794 10.4224C1.6455 11.1545 1.63251 12.01 1.63204 12.9465C1.63186 13.03 1.63168 13.1134 1.63149 13.1968C1.63116 13.3711 1.63106 13.5454 1.63109 13.7197C1.6311 13.9411 1.63035 14.1625 1.62941 14.3839C1.62879 14.5561 1.62869 14.7283 1.62872 14.9005C1.62865 14.982 1.62842 15.0636 1.62799 15.1451C1.62324 16.1439 1.72285 16.9604 2.43846 17.7084C3.18176 18.381 4.04997 18.3838 4.99959 18.3805C5.08594 18.3804 5.17229 18.3803 5.25864 18.3802C5.48439 18.38 5.71013 18.3795 5.93588 18.3789C6.16685 18.3783 6.39782 18.3781 6.62879 18.3778C7.08085 18.3772 7.53291 18.3763 7.98497 18.3751C7.98545 18.2877 7.98545 18.2877 7.98595 18.1984C7.98907 17.6488 7.99305 17.0992 7.99786 16.5497C8.00031 16.2671 8.00246 15.9846 8.00392 15.702C8.00534 15.4293 8.00755 15.1567 8.0103 14.884C8.01122 14.78 8.01185 14.6759 8.01219 14.5719C8.01271 14.4262 8.01425 14.2805 8.01602 14.1348C8.0159 14.0703 8.0159 14.0703 8.01578 14.0045C8.02003 13.7567 8.04408 13.5916 8.20372 13.3986C8.42619 13.2315 8.61593 13.2108 8.88583 13.2127C8.92648 13.2123 8.96714 13.212 9.00902 13.2116C9.14497 13.2106 9.2809 13.2107 9.41685 13.2109C9.51441 13.2104 9.61197 13.2098 9.70953 13.2092C9.97424 13.2077 10.239 13.2071 10.5037 13.2068C10.7804 13.2063 11.0571 13.2049 11.3338 13.2035C11.8576 13.2011 12.3815 13.1996 12.9054 13.1983C13.5019 13.1968 14.0984 13.1944 14.6948 13.192C15.9218 13.1869 17.1487 13.183 18.3756 13.1798C18.3782 12.0084 18.3801 10.8371 18.3813 9.66572C18.3818 9.12178 18.3826 8.57785 18.3839 8.03391C18.3849 7.55957 18.3856 7.08523 18.3859 6.61089C18.386 6.35995 18.3864 6.10902 18.3872 5.85808C18.3879 5.6214 18.3881 5.38471 18.388 5.14802C18.388 5.06163 18.3882 4.97524 18.3886 4.88886C18.3933 3.8897 18.2978 3.05948 17.5784 2.30746C16.8462 1.64502 15.9908 1.63203 15.0542 1.63156C14.9708 1.63138 14.8873 1.6312 14.8039 1.63101C14.6296 1.63068 14.4553 1.63058 14.281 1.63061C14.0596 1.63062 13.8382 1.62987 13.6168 1.62893C13.4446 1.62832 13.2724 1.62821 13.1002 1.62824C13.0187 1.62818 12.9371 1.62794 12.8556 1.62751C11.8568 1.62276 11.0403 1.72238 10.2923 2.43799ZM20.0162 9.62512C20.0159 9.68344 20.0156 9.74175 20.0153 9.80183C20.0121 10.3514 20.0081 10.901 20.0033 11.4506C20.0009 11.7331 19.9987 12.0157 19.9973 12.2982C19.9959 12.5709 19.9936 12.8436 19.9909 13.1163C19.99 13.2203 19.9894 13.3243 19.989 13.4283C19.9885 13.5741 19.987 13.7198 19.9852 13.8655C19.9853 13.9085 19.9853 13.9515 19.9854 13.9958C19.9812 14.2435 19.9571 14.4087 19.7975 14.6017C19.575 14.7687 19.3853 14.7895 19.1154 14.7876C19.0747 14.7879 19.0341 14.7883 18.9922 14.7887C18.8562 14.7897 18.7203 14.7895 18.5844 14.7894C18.4868 14.7899 18.3892 14.7905 18.2917 14.7911C18.027 14.7926 17.7622 14.7931 17.4975 14.7934C17.2208 14.7939 16.9441 14.7954 16.6674 14.7967C16.1435 14.7991 15.6197 14.8007 15.0958 14.8019C14.4993 14.8034 13.9028 14.8058 13.3064 14.8083C12.0794 14.8134 10.8525 14.8173 9.6256 14.8204C9.62304 15.9918 9.62111 17.1632 9.61993 18.3345C9.61937 18.8785 9.6186 19.4224 9.61735 19.9663C9.61625 20.4407 9.61555 20.915 9.61531 21.3894C9.61517 21.6403 9.61483 21.8912 9.61403 22.1422C9.61329 22.3788 9.61306 22.6155 9.61323 22.8522C9.6132 22.9386 9.61298 23.025 9.61256 23.1114C9.60791 24.1105 9.70341 24.9408 10.4228 25.6928C11.155 26.3552 12.0104 26.3682 12.947 26.3687C13.0304 26.3689 13.1139 26.369 13.1973 26.3692C13.3716 26.3696 13.5459 26.3697 13.7202 26.3696C13.9416 26.3696 14.163 26.3704 14.3844 26.3713C14.5566 26.3719 14.7288 26.372 14.901 26.372C14.9825 26.3721 15.0641 26.3723 15.1456 26.3727C16.1444 26.3775 16.9609 26.2779 17.7089 25.5623C18.3814 24.819 18.3843 23.9507 18.3809 23.0011C18.3808 22.9148 18.3808 22.8284 18.3807 22.7421C18.3805 22.5163 18.38 22.2906 18.3794 22.0648C18.3788 21.8339 18.3785 21.6029 18.3783 21.3719C18.3777 20.9199 18.3768 20.4678 18.3756 20.0157C18.3173 20.0154 18.259 20.0151 18.1989 20.0148C17.6493 20.0116 17.0997 20.0077 16.5501 20.0029C16.2676 20.0004 15.985 19.9983 15.7025 19.9968C15.4298 19.9954 15.1571 19.9932 14.8845 19.9904C14.7804 19.9895 14.6764 19.9889 14.5724 19.9885C14.4267 19.988 14.281 19.9865 14.1352 19.9847C14.0923 19.9848 14.0493 19.9849 14.005 19.9849C13.7571 19.9807 13.5963 19.9502 13.399 19.797C13.244 19.5966 13.2125 19.4464 13.2145 19.1954C13.2138 19.1125 13.2138 19.1125 13.2132 19.028C13.2386 18.8408 13.2837 18.743 13.399 18.5939C13.6229 18.424 13.8167 18.4063 14.0888 18.4087C14.1511 18.4083 14.1511 18.4083 14.2145 18.4079C14.3534 18.4071 14.4922 18.4075 14.631 18.4079C14.7306 18.4076 14.8303 18.4072 14.9299 18.4067C15.1445 18.4059 15.359 18.4056 15.5736 18.4057C15.9133 18.4058 16.2531 18.4047 16.5928 18.4035C17.2534 18.4012 17.9139 18.4002 18.5744 18.3993C19.4136 18.3981 20.2528 18.3962 21.092 18.3935C21.4292 18.3924 21.7664 18.3918 22.1035 18.3918C22.3142 18.3916 22.5249 18.391 22.7355 18.3903C22.8326 18.3901 22.9296 18.39 23.0267 18.3902C24.0509 18.3916 24.9157 18.3217 25.6933 17.5779C26.3557 16.8458 26.3687 15.9903 26.3692 15.0537C26.3693 14.9703 26.3695 14.8869 26.3697 14.8034C26.37 14.6292 26.3701 14.4549 26.3701 14.2806C26.3701 14.0591 26.3708 13.8377 26.3718 13.6163C26.3724 13.4441 26.3725 13.2719 26.3725 13.0997C26.3725 13.0182 26.3728 12.9367 26.3732 12.8551C26.378 11.8563 26.2783 11.0399 25.5627 10.2918C24.8194 9.61928 23.9512 9.61646 23.0016 9.61978C22.9153 9.61988 22.8289 9.61996 22.7426 9.62002C22.5168 9.62022 22.2911 9.62076 22.0653 9.62137C21.8343 9.62193 21.6034 9.62218 21.3724 9.62245C20.9203 9.62304 20.4683 9.62397 20.0162 9.62512Z" fill="#111111"/>
<path d="M16.2427 22.258C16.4952 22.3775 16.6107 22.5038 16.7349 22.7501C16.7802 23.0535 16.7745 23.3228 16.6426 23.6012C16.473 23.78 16.3311 23.8854 16.084 23.9223C15.7478 23.9227 15.5147 23.923 15.2584 23.6798C15.0456 23.3822 15.0511 23.1046 15.0943 22.7501C15.3328 22.2467 15.7315 22.1956 16.2427 22.258Z" fill="#111111"/>
<path d="M12.4146 4.1017C12.667 4.22127 12.7826 4.34758 12.9068 4.59389C12.9521 4.8973 12.9464 5.16654 12.8145 5.44496C12.6449 5.62376 12.503 5.72912 12.2559 5.76604C11.9196 5.76647 11.6865 5.76674 11.4302 5.52358C11.2175 5.226 11.2229 4.94834 11.2662 4.59389C11.5046 4.09044 11.9033 4.03935 12.4146 4.1017Z" fill="#111111"/>
</g>
<defs>
<clipPath id="clip0_2023_1722">
<rect width="28" height="28" fill="white"/>
</clipPath>
</defs>
</svg>
