<svg width="33" height="33" viewBox="0 0 33 33" fill="none" xmlns="http://www.w3.org/2000/svg">
<path d="M9.5758 4.10059H4.65107C2.08248 4.10059 0 6.18307 0 8.75165V13.6764C0 16.245 2.08248 18.3274 4.65107 18.3274H5.13827C5.54677 18.3274 5.92943 18.529 6.16114 18.8663C6.39182 19.2037 6.44248 19.6332 6.29481 20.0143L3.51708 27.2128C3.36942 27.5943 3.42008 28.0238 3.65075 28.3607C3.88246 28.698 4.26512 28.8996 4.67362 28.8996H7.94385C8.40514 28.8996 8.82879 28.643 9.04219 28.2346L12.9904 20.6917C13.8031 19.139 14.2278 17.4122 14.2278 15.6597V8.75159C14.2279 6.18307 12.1444 4.10059 9.5758 4.10059Z" fill="black" fill-opacity="0.5"/>
<path d="M28.3492 4.10059H23.4244C20.8558 4.10059 18.7734 6.18307 18.7734 8.75165V13.6764C18.7734 16.245 20.8559 18.3274 23.4244 18.3274H23.9105C24.319 18.3274 24.7027 18.529 24.9334 18.8663C25.1652 19.2037 25.2148 19.6332 25.0682 20.0143L22.2894 27.2128C22.1418 27.5944 22.1924 28.0239 22.4241 28.3607C22.6548 28.6981 23.0375 28.8997 23.4471 28.8997H26.7163C27.1775 28.8997 27.6012 28.6431 27.8157 28.2347L31.7628 20.6917C32.5755 19.139 33.0002 17.4123 33.0002 15.6597V8.75159C33.0002 6.18307 30.9178 4.10059 28.3492 4.10059Z" fill="black" fill-opacity="0.5"/>
</svg>
