<svg width="34" height="34" viewBox="0 0 34 34" fill="none" xmlns="http://www.w3.org/2000/svg">
<g clip-path="url(#clip0_389_5060)">
<path d="M23.4686 28.9956H28.4026C30.9761 28.9956 33.0625 26.9062 33.0625 24.3291V19.388C33.0625 16.8109 30.9761 14.7215 28.4026 14.7215H27.9145C27.5052 14.7215 27.1218 14.5193 26.8897 14.1808C26.6586 13.8423 26.6078 13.4114 26.7558 13.029L29.5388 5.80664C29.6867 5.42381 29.6359 4.99286 29.4048 4.65491C29.1727 4.31645 28.7893 4.11417 28.38 4.11417H25.1036C24.6414 4.11417 24.217 4.37161 24.0032 4.7814L20.0475 12.3494C19.2333 13.9072 18.8078 15.6397 18.8078 17.3981V24.3292C18.8077 26.9062 20.8951 28.9956 23.4686 28.9956Z" fill="#111111" fill-opacity="0.25"/>
<path d="M4.65997 28.9956H9.59416C12.1676 28.9956 14.2539 26.9062 14.2539 24.3291V19.388C14.2539 16.8109 12.1675 14.7215 9.59416 14.7215H9.10707C8.69779 14.7215 8.31338 14.5193 8.08226 14.1808C7.85005 13.8423 7.80039 13.4114 7.94723 13.029L10.7313 5.80657C10.8792 5.42374 10.8284 4.9928 10.5963 4.65485C10.3652 4.31638 9.9818 4.1141 9.57143 4.1141H6.29605C5.83388 4.1141 5.40943 4.37154 5.19452 4.78134L1.23994 12.3493C0.425709 13.9072 0.000222206 15.6397 0.000222206 17.3981V24.3292C0.000222206 26.9062 2.08658 28.9956 4.65997 28.9956Z" fill="#111111" fill-opacity="0.25"/>
</g>
<defs>
<clipPath id="clip0_389_5060">
<rect width="33.0625" height="33.1096" fill="white" transform="matrix(-1 0 0 -1 33.0625 33.1099)"/>
</clipPath>
</defs>
</svg>
