<svg width="34" height="34" viewBox="0 0 34 34" fill="none" xmlns="http://www.w3.org/2000/svg">
<g clip-path="url(#clip0_389_5064)">
<path d="M10.5217 4.87842H5.58761C3.01416 4.87842 0.927734 6.96782 0.927734 9.54494V14.486C0.927734 17.0632 3.01416 19.1525 5.58761 19.1525H6.07573C6.48501 19.1525 6.86839 19.3548 7.10054 19.6932C7.33166 20.0317 7.38241 20.4626 7.23447 20.845L4.45147 28.0674C4.30353 28.4502 4.35429 28.8812 4.5854 29.2191C4.81755 29.5576 5.20093 29.7599 5.61021 29.7599H8.88663C9.34879 29.7599 9.77324 29.5024 9.98705 29.0926L13.9427 21.5246C14.757 19.9668 15.1824 18.2343 15.1824 16.4759V9.54487C15.1826 6.96782 13.0951 4.87842 10.5217 4.87842Z" fill="#111111" fill-opacity="0.25"/>
<path d="M29.3303 4.87842H24.3961C21.8226 4.87842 19.7363 6.96782 19.7363 9.54494V14.486C19.7363 17.0632 21.8227 19.1525 24.3961 19.1525H24.8832C25.2924 19.1525 25.6769 19.3548 25.908 19.6932C26.1402 20.0317 26.1898 20.4626 26.043 20.845L23.259 28.0675C23.111 28.4503 23.1618 28.8812 23.3939 29.2192C23.625 29.5576 24.0084 29.7599 24.4188 29.7599H27.6942C28.1564 29.7599 28.5808 29.5025 28.7957 29.0927L32.7503 21.5247C33.5645 19.9668 33.99 18.2343 33.99 16.4759V9.54487C33.99 6.96782 31.9037 4.87842 29.3303 4.87842Z" fill="#111111" fill-opacity="0.25"/>
</g>
<defs>
<clipPath id="clip0_389_5064">
<rect width="33.0625" height="33.1096" fill="white" transform="translate(0.927734 0.76416)"/>
</clipPath>
</defs>
</svg>
