<svg width="33" height="33" viewBox="0 0 33 33" fill="none" xmlns="http://www.w3.org/2000/svg">
<path d="M23.4242 28.8994H28.3489C30.9175 28.8994 33 26.8169 33 24.2483V19.3236C33 16.755 30.9175 14.6726 28.3489 14.6726H27.8617C27.4532 14.6726 27.0706 14.471 26.8389 14.1337C26.6082 13.7963 26.5575 13.3668 26.7052 12.9857L29.4829 5.78723C29.6306 5.40567 29.5799 4.97615 29.3492 4.63932C29.1175 4.30197 28.7349 4.10036 28.3264 4.10036H25.0562C24.5949 4.10036 24.1712 4.35695 23.9578 4.76539L20.0096 12.3083C19.1969 13.861 18.7722 15.5878 18.7722 17.3403V24.2484C18.7721 26.8169 20.8556 28.8994 23.4242 28.8994Z" fill="black" fill-opacity="0.5"/>
<path d="M4.65076 28.8994H9.57562C12.1442 28.8994 14.2266 26.8169 14.2266 24.2483V19.3236C14.2266 16.755 12.1441 14.6726 9.57562 14.6726H9.08945C8.68095 14.6726 8.29726 14.471 8.06658 14.1337C7.83481 13.7963 7.78525 13.3668 7.93181 12.9857L10.7106 5.78717C10.8582 5.4056 10.8076 4.97609 10.5759 4.63926C10.3452 4.30191 9.96254 4.1003 9.55294 4.1003H6.28375C5.82245 4.1003 5.3988 4.35689 5.1843 4.76533L1.23719 12.3083C0.424505 13.861 -0.00017643 15.5877 -0.00017643 17.3403V24.2484C-0.00017643 26.8169 2.08224 28.8994 4.65076 28.8994Z" fill="black" fill-opacity="0.5"/>
</svg>
