<svg width="16" height="16" viewBox="0 0 16 16" fill="none" xmlns="http://www.w3.org/2000/svg">
<path d="M3.55458 7.37568L10.6748 0.255608C10.8395 0.090796 11.0593 0 11.2937 0C11.5281 0 11.7479 0.090796 11.9126 0.255608L12.437 0.779831C12.7782 1.12142 12.7782 1.6766 12.437 2.01767L6.45797 7.99668L12.4436 13.9823C12.6083 14.1471 12.6992 14.3668 12.6992 14.6011C12.6992 14.8357 12.6083 15.0554 12.4436 15.2203L11.9193 15.7444C11.7544 15.9092 11.5347 16 11.3003 16C11.0659 16 10.8461 15.9092 10.6814 15.7444L3.55458 8.61782C3.3895 8.45248 3.29884 8.23174 3.29936 7.99707C3.29884 7.7615 3.3895 7.54088 3.55458 7.37568Z" fill="#333333"/>
</svg>
