<svg width="20" height="13" viewBox="0 0 20 13" fill="none" xmlns="http://www.w3.org/2000/svg">
<path d="M13.5483 0.832159L19.0144 6.25141L19.0451 6.27952C19.1385 6.37215 19.1888 6.49134 19.196 6.61257V6.67664C19.1888 6.79787 19.1385 6.91706 19.0451 7.00968L19.0182 7.03244L13.5483 12.457C13.3459 12.6577 13.0177 12.6577 12.8154 12.457C12.613 12.2564 12.613 11.931 12.8154 11.7303L17.4862 7.09771L1.04754 7.09811C0.76132 7.09811 0.529297 6.86803 0.529297 6.58421C0.529297 6.30039 0.76132 6.07031 1.04754 6.07031L17.3644 6.0699L12.8154 1.55893C12.613 1.35824 12.613 1.03285 12.8154 0.832159C13.0177 0.631468 13.3459 0.631468 13.5483 0.832159ZM18.7373 6.58378L13.1818 12.0937L18.6786 6.64471L18.6786 6.64272L18.648 6.61483L18.6166 6.58378H18.7373Z" fill="#F5F0EA"/>
</svg>
