<svg width="20" height="19" viewBox="0 0 20 19" fill="none" xmlns="http://www.w3.org/2000/svg">
<g clip-path="url(#clip0_536_755)">
<path d="M6.17829 3.83216L0.712177 9.25141L0.681486 9.27952C0.588077 9.37215 0.537782 9.49134 0.530597 9.61257L0.530597 9.67663C0.537782 9.79787 0.588077 9.91705 0.681486 10.0097L0.708394 10.0324L6.17829 15.457C6.38068 15.6577 6.70881 15.6577 6.9112 15.457C7.11359 15.2564 7.11359 14.931 6.9112 14.7303L2.24033 10.0977L18.679 10.0981C18.9652 10.0981 19.1973 9.86803 19.1973 9.58421C19.1973 9.30039 18.9652 9.07031 18.679 9.07031L2.36211 9.0699L6.9112 4.55893C7.11359 4.35823 7.11359 4.03285 6.9112 3.83216C6.70881 3.63147 6.38068 3.63147 6.17829 3.83216ZM0.989301 9.58378L6.54475 15.0937L1.048 9.64471L1.04794 9.64272L1.0786 9.61483L1.10992 9.58378L0.989301 9.58378Z" fill="#FE5E3A"/>
</g>
<defs>
<clipPath id="clip0_536_755">
<rect width="18.6667" height="18.6667" fill="white" transform="matrix(-1 -8.74228e-08 -8.74228e-08 1 19.1973 0.310791)"/>
</clipPath>
</defs>
</svg>
