<svg width="49" height="49" viewBox="0 0 49 49" fill="none" xmlns="http://www.w3.org/2000/svg">
<g clip-path="url(#clip0_1940_256)">
<path d="M43.7066 -0.0301049C43.9572 -0.0298026 44.2078 -0.0320578 44.4585 -0.0344742C45.2928 -0.0377469 46.1092 -0.000139374 46.9354 0.121604C47.0468 0.137122 47.0468 0.137122 47.1604 0.152953C47.7517 0.250901 48.1589 0.461212 48.5477 0.933212C48.7375 1.28881 48.8243 1.6154 48.8812 2.00987C48.8927 2.08941 48.9043 2.16894 48.9162 2.25088C49.1865 4.44818 49.1352 6.82536 48.7137 8.9962C48.6875 9.13559 48.6875 9.13559 48.6607 9.27779C47.6003 14.7434 44.9645 19.7899 41.5623 24.1539C41.4241 24.3318 41.2886 24.5115 41.1532 24.6915C41.089 24.7724 41.0249 24.8534 40.9588 24.9368C40.8355 25.1785 40.8355 25.1785 40.9502 25.4736C41.0033 25.5866 41.0565 25.6996 41.1113 25.816C42.2397 28.3618 42.1592 31.2882 41.2403 33.8869C40.7476 35.1261 40.1327 36.2343 39.2391 37.2286C39.1797 37.2956 39.1203 37.3626 39.0591 37.4317C38.5412 38.0127 38.0064 38.5727 37.4575 39.1243C37.37 39.2127 37.2824 39.3011 37.1922 39.3921C36.9057 39.681 36.6188 39.9695 36.3317 40.2579C36.2322 40.3579 36.1326 40.458 36.0331 40.5581C35.6191 40.9741 35.2049 41.3901 34.7904 41.8056C34.1995 42.3981 33.6094 42.9914 33.0204 43.5859C32.6041 44.0059 32.1869 44.425 31.769 44.8434C31.5202 45.0925 31.2718 45.342 31.0244 45.5926C30.7488 45.8715 30.4714 46.1486 30.1938 46.4254C30.1129 46.5079 30.032 46.5904 29.9486 46.6754C29.468 47.151 29.0342 47.543 28.3242 47.5728C27.8535 47.5391 27.5379 47.3852 27.1805 47.086C26.8269 46.6403 26.8104 46.1545 26.754 45.6075C26.7425 45.5042 26.7309 45.4008 26.7191 45.2944C26.6798 44.9347 26.6427 44.5749 26.6063 44.215C26.5995 44.1479 26.5927 44.081 26.5857 44.0119C26.4782 42.9531 26.3764 41.8938 26.276 40.8344C26.2454 40.5125 26.2145 40.1907 26.1835 39.8688C26.1536 39.5571 26.1238 39.2453 26.0941 38.9336C26.08 38.7857 26.0659 38.6377 26.0517 38.4898C26.032 38.285 26.0126 38.0802 25.9933 37.8754C25.9823 37.7594 25.9712 37.6433 25.9599 37.5238C25.9364 37.2286 25.9364 37.2286 25.9364 36.8458C25.838 36.8919 25.7397 36.9381 25.6384 36.9856C24.1123 37.6879 22.8071 37.905 21.1617 37.3744C20.3695 36.9863 19.7219 36.4162 19.1047 35.795C19.0308 35.7218 18.9569 35.6485 18.8808 35.5731C18.6395 35.3335 18.3992 35.0929 18.159 34.8521C17.9901 34.6837 17.8212 34.5153 17.6523 34.3469C17.2995 33.995 16.9472 33.6425 16.5953 33.2896C16.1457 32.839 15.6947 32.3898 15.2432 31.9411C14.8944 31.5941 14.5465 31.2461 14.1988 30.8979C14.0329 30.732 13.8667 30.5664 13.7002 30.4011C13.4671 30.1694 13.2352 29.9365 13.0036 29.7033C12.9356 29.6362 12.8676 29.5691 12.7975 29.5C11.8348 28.5231 11.3149 27.3911 11.2699 26.0194C11.2824 24.9918 11.6486 24.0881 12.0594 23.1603C11.0853 23.0081 10.1117 22.9041 9.13024 22.8156C8.87179 22.7922 8.61339 22.7683 8.35501 22.7442C7.62146 22.6758 6.88788 22.6079 6.15414 22.5415C5.70263 22.5006 5.25122 22.4587 4.79986 22.4161C4.62904 22.4002 4.45818 22.3846 4.28729 22.3695C4.04844 22.3484 3.80975 22.3259 3.57105 22.3031C3.50163 22.2972 3.43221 22.2914 3.36069 22.2854C2.78489 22.2281 2.22497 22.1079 1.7833 21.7128C1.51223 21.2332 1.3875 20.8021 1.5054 20.2574C1.63714 19.8795 1.76961 19.6989 2.04491 19.4123C2.11283 19.3409 2.11283 19.3409 2.18212 19.2681C2.34673 19.0965 2.51343 18.9271 2.68051 18.7579C2.74706 18.6902 2.81361 18.6224 2.88218 18.5526C3.41252 18.0133 3.9468 17.478 4.48199 16.9436C4.71564 16.7102 4.94905 16.4765 5.18251 16.2429C5.57382 15.8514 5.96534 15.4602 6.35698 15.069C6.80789 14.6186 7.25845 14.1679 7.70884 13.7169C8.09817 13.3272 8.48769 12.9376 8.87736 12.5482C9.10897 12.3167 9.34052 12.0852 9.5719 11.8535C9.8297 11.5954 10.0878 11.3377 10.346 11.0801C10.4212 11.0046 10.4965 10.9292 10.574 10.8515C12.7487 8.685 15.3447 7.233 18.4715 7.08214C18.5539 7.07708 18.6363 7.07202 18.7213 7.06681C20.2241 7.01799 21.9943 7.26183 23.3511 7.94325C23.5477 8.03641 23.7111 8.10386 23.9266 8.13487C24.1967 7.98695 24.3552 7.86907 24.5726 7.66234C24.6977 7.55325 24.8234 7.44474 24.9494 7.33672C25.0159 7.27913 25.0824 7.22153 25.1509 7.16219C30.1511 3.00168 37.1584 -0.0465316 43.7066 -0.0301049ZM37.8036 3.82823C38.1995 4.29994 38.6106 4.74522 39.0461 5.18039C39.1103 5.24489 39.1745 5.3094 39.2406 5.37586C39.4507 5.58686 39.6612 5.7975 39.8716 6.00809C40.0184 6.15518 40.1652 6.30228 40.312 6.44938C40.6184 6.75643 40.9251 7.06328 41.2319 7.37002C41.6259 7.76399 42.0192 8.15861 42.4123 8.5534C42.7146 8.85675 43.0174 9.15967 43.3202 9.46247C43.4655 9.60789 43.6107 9.75347 43.7557 9.8992C43.9575 10.102 44.1599 10.3041 44.3625 10.5061C44.4227 10.5668 44.4828 10.6275 44.5448 10.69C44.8093 10.9966 44.8093 10.9966 45.1727 11.1017C45.7121 8.99875 46.0582 7.03949 46.0639 4.869C46.0643 4.79117 46.0647 4.71333 46.065 4.63314C46.0656 4.41042 46.0645 4.18777 46.0628 3.96506C46.0629 3.86381 46.0629 3.86381 46.063 3.76051C46.058 3.41132 46.0418 3.26573 45.8426 2.9669C45.5582 2.91023 45.5582 2.91023 45.2265 2.90111C45.1161 2.89482 45.0057 2.88852 44.8919 2.88204C42.4901 2.8004 40.1104 3.16639 37.8036 3.82823ZM33.479 5.515C33.3332 5.58503 33.3332 5.58503 33.1844 5.65647C31.5589 6.45139 30.0033 7.38603 28.5204 8.42198C28.4388 8.47807 28.4388 8.47807 28.3556 8.5353C27.4748 9.14159 26.6444 9.80108 25.8207 10.4824C25.6736 10.6032 25.5248 10.7218 25.3756 10.84C23.8657 12.0388 22.3844 13.4346 21.1389 14.91C20.9929 15.0822 20.8445 15.251 20.694 15.4192C19.3677 16.9098 18.2163 18.521 17.1317 20.1935C17.2811 20.5515 17.5017 20.7785 17.7748 21.051C17.8211 21.0975 17.8674 21.1439 17.9151 21.1918C18.0701 21.3471 18.2258 21.5017 18.3815 21.6564C18.4928 21.7677 18.6041 21.879 18.7153 21.9903C19.0174 22.2925 19.3201 22.594 19.6229 22.8955C19.9392 23.2106 20.255 23.5263 20.5709 23.8419C21.1691 24.4395 21.7677 25.0366 22.3666 25.6335C23.0483 26.3131 23.7295 26.9933 24.4107 27.6735C25.8119 29.0727 27.2137 30.4712 28.6161 31.8692C28.9121 31.7536 29.1743 31.6402 29.4359 31.4591C29.5284 31.3955 29.5284 31.3955 29.6227 31.3305C29.6873 31.2852 29.7518 31.24 29.8183 31.1933C29.8859 31.1464 29.9535 31.0994 30.0231 31.051C30.9902 30.3748 31.9225 29.6605 32.827 28.9024C32.877 28.8607 32.9271 28.8189 32.9786 28.7759C34.375 27.6071 35.7644 26.3791 36.952 24.9954C37.1592 24.7579 37.3737 24.5278 37.5882 24.2967C38.0951 23.7407 38.5578 23.1557 39.0161 22.5593C39.1345 22.4062 39.2549 22.2547 39.3756 22.1034C40.1238 21.1568 40.7861 20.1539 41.4403 19.1407C41.4806 19.0784 41.5209 19.016 41.5625 18.9518C42.0937 18.1212 42.5502 17.25 43.0074 16.3773C43.0947 16.2117 43.0947 16.2117 43.1837 16.0427C43.2388 15.9362 43.2938 15.8298 43.3506 15.7201C43.3997 15.6255 43.4489 15.5309 43.4995 15.4334C43.6151 15.1792 43.7072 14.9355 43.7939 14.671C43.8192 14.5939 43.8446 14.5168 43.8707 14.4373C43.8898 14.3788 43.9089 14.3202 43.9286 14.2599C42.7365 13.0611 41.5436 11.8631 40.3497 10.6662C39.7954 10.1104 39.2414 9.55436 38.688 8.99769C38.2058 8.51263 37.7231 8.02807 37.2398 7.54411C36.9838 7.28773 36.7281 7.0311 36.4729 6.77386C36.2329 6.53193 35.9923 6.29068 35.7511 6.04993C35.6202 5.91891 35.49 5.78718 35.3598 5.65542C35.2821 5.57812 35.2044 5.50081 35.1244 5.42116C35.0569 5.35341 34.9894 5.28566 34.9199 5.21586C34.4804 4.86318 33.9129 5.30638 33.479 5.515ZM15.0023 11.1136C14.9448 11.144 14.8873 11.1743 14.8281 11.2056C13.5672 11.9305 12.5327 13.1981 11.5136 14.2188C11.3629 14.3694 11.2122 14.52 11.0615 14.6706C10.7483 14.9836 10.4353 15.2968 10.1224 15.6102C9.72046 16.0127 9.31808 16.4147 8.91557 16.8167C8.60556 17.1263 8.29578 17.4362 7.98607 17.7462C7.83762 17.8947 7.68911 18.0431 7.54052 18.1915C7.33437 18.3974 7.12852 18.6036 6.92276 18.8099C6.86103 18.8715 6.79929 18.933 6.73569 18.9964C6.452 19.2242 6.452 19.2242 6.31723 19.5235C7.77966 19.6931 9.24337 19.8487 10.7084 19.9939C10.8823 20.0112 11.0563 20.0286 11.2302 20.0462C11.4779 20.0712 11.7256 20.0956 11.9734 20.1198C12.0466 20.1273 12.1198 20.1347 12.1952 20.1424C12.4051 20.1626 12.6147 20.1791 12.825 20.1935C12.9405 20.2023 12.9405 20.2023 13.0584 20.2114C13.5047 20.2424 13.5047 20.2424 13.8801 20.0348C13.9204 19.961 13.9607 19.8871 14.0023 19.811C14.0497 19.7287 14.0972 19.6463 14.1461 19.5615C14.1938 19.472 14.2414 19.3825 14.2905 19.2903C14.3969 19.1048 14.5037 18.9197 14.6109 18.7347C14.6905 18.5953 14.6905 18.5953 14.7717 18.453C15.0039 18.0593 15.2619 17.6872 15.5287 17.3164C15.5764 17.2497 15.6242 17.1831 15.6735 17.1144C15.8079 16.928 15.9432 16.7422 16.0789 16.5567C16.1514 16.4571 16.2238 16.3574 16.2984 16.2547C17.1128 15.151 17.9756 14.0797 18.9104 13.0755C19.0957 12.8741 19.2751 12.6698 19.4536 12.4624C19.8238 12.0378 20.2183 11.641 20.6189 11.2452C20.7239 11.1409 20.7239 11.1409 20.831 11.0344C21.0013 10.8652 21.1719 10.6962 21.3426 10.5274C21.311 10.4643 21.2795 10.4011 21.2469 10.336C19.1818 9.70913 16.8731 10.0993 15.0023 11.1136ZM15.5047 22.9689C15.3131 23.3486 15.1246 23.7298 14.9365 24.1113C14.8825 24.2182 14.8285 24.3251 14.7729 24.4352C14.4236 25.1486 14.132 25.7645 14.3563 26.5637C14.7539 27.2471 15.3445 27.7995 15.901 28.3556C15.9657 28.4206 16.0304 28.4856 16.097 28.5526C16.3083 28.7648 16.52 28.9766 16.7317 29.1884C16.8798 29.3368 17.0279 29.4853 17.176 29.6337C17.4852 29.9435 17.7946 30.253 18.1041 30.5625C18.5005 30.9589 18.8963 31.356 19.2918 31.7532C19.5969 32.0594 19.9025 32.3651 20.2081 32.6707C20.3542 32.8169 20.5002 32.9633 20.6461 33.1099C20.8496 33.3144 21.0538 33.5183 21.2582 33.7221C21.348 33.8127 21.348 33.8127 21.4396 33.9052C21.8869 34.3492 22.2874 34.6965 22.9445 34.7512C23.9934 34.6987 25.1014 33.9478 26.0321 33.4962C25.5494 32.9132 25.0247 32.3796 24.4893 31.8453C24.3922 31.7481 24.2952 31.6509 24.1982 31.5537C23.9364 31.2915 23.6744 31.0297 23.4123 30.7679C23.1377 30.4935 22.8634 30.2189 22.589 29.9444C22.1289 29.4842 21.6686 29.0241 21.2083 28.5642C20.6754 28.0319 20.1429 27.4992 19.6106 26.9664C19.1533 26.5086 18.6957 26.051 18.2381 25.5936C17.9648 25.3205 17.6916 25.0473 17.4186 24.7739C17.1625 24.5176 16.9061 24.2614 16.6496 24.0054C16.5553 23.9112 16.461 23.8169 16.3668 23.7226C16.2389 23.5943 16.1106 23.4664 15.9823 23.3386C15.9104 23.2668 15.8386 23.1949 15.7646 23.1209C15.626 22.958 15.626 22.958 15.5047 22.9689ZM38.4735 27.6583C38.4195 27.7128 38.3655 27.7673 38.3099 27.8234C38.0616 28.0737 37.813 28.3236 37.5643 28.5735C37.437 28.702 37.437 28.702 37.3071 28.8331C36.8184 29.3236 36.321 29.7936 35.7938 30.2423C35.6901 30.3331 35.5866 30.4241 35.4831 30.5152C34.6271 31.2619 33.7373 31.9559 32.827 32.6349C32.7594 32.6858 32.6918 32.7368 32.6222 32.7893C31.4906 33.6407 30.3076 34.3846 29.0888 35.1047C28.9096 35.205 28.9096 35.205 28.8075 35.3146C28.81 35.552 28.8196 35.7854 28.8344 36.0222C28.8389 36.0979 28.8433 36.1735 28.848 36.2515C28.9117 37.2552 29.0113 38.2558 29.1096 39.2566C29.1427 39.5944 29.1753 39.9322 29.2078 40.27C29.2289 40.4868 29.2499 40.7035 29.271 40.9203C29.2807 41.0203 29.2904 41.1203 29.3003 41.2233C29.3485 41.7122 29.4028 42.1981 29.4774 42.6837C29.9606 42.2784 30.4161 41.8558 30.8628 41.4109C30.9309 41.3434 30.999 41.276 31.0692 41.2064C31.2925 40.985 31.5155 40.7631 31.7384 40.5412C31.8151 40.4649 31.8917 40.3886 31.9707 40.31C32.3764 39.9064 32.7817 39.5024 33.1868 39.0982C33.6034 38.6827 34.021 38.2684 34.4389 37.8543C34.7619 37.5338 35.084 37.2125 35.4059 36.8909C35.5594 36.7379 35.7133 36.5852 35.8674 36.4328C37.0144 35.3071 37.0144 35.307 37.8993 33.9747C37.9579 33.8665 38.0165 33.7583 38.0768 33.6469C38.5142 32.699 38.9062 31.6792 38.952 30.6251C38.9594 30.4815 38.9594 30.4815 38.9669 30.335C38.9844 29.6884 38.9365 29.0764 38.8204 28.4419C38.8023 28.3414 38.8023 28.3414 38.7839 28.2389C38.7513 28.0757 38.7089 27.9145 38.6649 27.754C38.5701 27.7066 38.5701 27.7066 38.4735 27.6583Z" fill="white"/>
<path d="M34.4262 13.4289C35.3704 14.1265 36.0587 15.1127 36.3245 16.2656C36.5511 17.8392 36.209 19.1787 35.3017 20.4862C34.448 21.4407 33.2789 21.9831 32.0179 22.1072C30.6881 22.1538 29.5137 21.8045 28.5008 20.9408C27.5187 20.0066 26.9913 18.9354 26.8724 17.5789C26.8438 16.2114 27.298 14.9598 28.2346 13.9575C28.886 13.3475 29.5809 12.9814 30.4328 12.7283C30.4904 12.7099 30.548 12.6915 30.6074 12.6726C31.9374 12.4171 33.2963 12.694 34.4262 13.4289ZM30.3132 16.2095C29.9729 16.6392 29.8375 16.9411 29.8586 17.4955C29.9291 18.0333 30.1284 18.3927 30.5285 18.7576C31.0169 19.0903 31.4702 19.2051 32.0534 19.1027C32.6234 18.9356 32.9624 18.5463 33.3039 18.0877C33.4817 17.5542 33.4768 17.0404 33.2381 16.5265C32.9833 16.0737 32.6299 15.8021 32.1555 15.5994C31.3905 15.5022 30.8399 15.6283 30.3132 16.2095Z" fill="white"/>
<path d="M13.4939 34.5489C13.9067 34.714 14.2559 35.0051 14.4509 35.4102C14.5343 35.8529 14.5968 36.3137 14.357 36.7163C13.8873 37.35 13.331 37.8969 12.7736 38.4521C12.6621 38.5639 12.5506 38.6757 12.4391 38.7876C12.138 39.0896 11.8363 39.3909 11.5345 39.6921C11.2181 40.0081 10.9021 40.3245 10.5861 40.6409C10.0557 41.1716 9.52489 41.7019 8.99389 42.232C8.38031 42.8445 7.76742 43.4578 7.15489 44.0714C6.62815 44.599 6.10104 45.1262 5.57361 45.6531C5.25894 45.9675 4.9444 46.282 4.63019 46.5968C4.33503 46.8926 4.0394 47.1878 3.7434 47.4827C3.63495 47.5909 3.52665 47.6993 3.41853 47.8078C3.27081 47.956 3.12251 48.1037 2.97405 48.2512C2.89125 48.3339 2.80846 48.4166 2.72315 48.5019C2.21136 48.9612 1.82871 49.0677 1.15041 49.0535C0.679184 48.9664 0.385709 48.7015 0.0954361 48.3301C0.00552997 48.0604 -0.0218793 47.8696 -0.0301743 47.5884C-0.0337519 47.5099 -0.0373296 47.4315 -0.0410156 47.3506C0.0505309 46.756 0.447665 46.315 0.860064 45.9021C0.906815 45.8549 0.953566 45.8077 1.00173 45.759C1.15702 45.6026 1.3133 45.4472 1.4696 45.2918C1.58178 45.1793 1.69389 45.0667 1.80595 44.954C2.10941 44.6492 2.41376 44.3454 2.71833 44.0417C3.03751 43.7232 3.35599 43.4041 3.67458 43.0851C4.20963 42.5495 4.74528 42.0145 5.28128 41.4799C5.90025 40.8625 6.51818 40.244 7.13558 39.6251C7.66645 39.0929 8.19788 38.5613 8.72978 38.0301C9.04713 37.7132 9.36428 37.3961 9.68093 37.0785C9.97871 36.7799 10.2772 36.482 10.5762 36.1847C10.6856 36.0757 10.7947 35.9664 10.9036 35.8569C11.0527 35.707 11.2027 35.558 11.3529 35.4092C11.4365 35.3257 11.5201 35.2423 11.6062 35.1563C12.1979 34.6466 12.7126 34.4411 13.4939 34.5489Z" fill="white"/>
<path d="M8.90045 29.9549C9.25964 30.1078 9.50524 30.3317 9.76178 30.6249C9.8547 30.9036 9.88577 31.1165 9.89935 31.4084C9.90515 31.4947 9.91095 31.5809 9.91692 31.6697C9.7598 32.4494 8.97241 33.0706 8.43091 33.6115C8.35024 33.6926 8.26957 33.7736 8.18645 33.8572C8.01682 34.0273 7.84694 34.1973 7.67683 34.367C7.417 34.6265 7.15849 34.8873 6.90003 35.1481C6.7345 35.3139 6.56889 35.4796 6.4032 35.6452C6.32632 35.7229 6.24944 35.8007 6.17024 35.8808C5.67467 36.3723 5.23327 36.7906 4.49811 36.7917C4.04536 36.7761 3.78814 36.6772 3.44537 36.367C3.07177 35.9541 3.01868 35.6255 3.01172 35.0904C3.16778 34.3089 3.78122 33.7895 4.32427 33.2522C4.40969 33.1667 4.49511 33.0813 4.58311 32.9932C4.76321 32.8134 4.94356 32.6338 5.12441 32.4547C5.35541 32.2258 5.58533 31.996 5.81492 31.7657C6.03531 31.5449 6.25647 31.3249 6.47759 31.1049C6.60083 30.9815 6.60083 30.9815 6.72656 30.8556C6.80384 30.7793 6.88113 30.7029 6.96076 30.6242C7.02825 30.5572 7.09574 30.4901 7.16527 30.421C7.72285 29.9317 8.17877 29.8744 8.90045 29.9549Z" fill="white"/>
<path d="M18.2885 39.2116C18.6614 39.4076 18.8827 39.6174 19.0444 40.0038C19.1997 40.5804 19.1178 41.0118 18.853 41.535C18.5691 41.8968 18.2465 42.2131 17.9173 42.5335C17.8241 42.6262 17.731 42.7189 17.638 42.8117C17.444 43.0049 17.249 43.1971 17.0533 43.3886C16.8028 43.6337 16.554 43.8804 16.3058 44.1277C16.0679 44.3646 15.8292 44.6005 15.5905 44.8364C15.4567 44.969 15.4567 44.969 15.3201 45.1043C15.2368 45.1858 15.1534 45.2674 15.0675 45.3513C14.9944 45.4231 14.9214 45.4949 14.846 45.5689C14.4033 45.9533 14.0366 45.9795 13.4641 45.9673C12.9694 45.9098 12.7271 45.6593 12.405 45.3033C12.1993 44.8762 12.1529 44.4893 12.2495 44.0233C12.5843 43.4284 13.076 42.9779 13.5564 42.4995C13.6473 42.4086 13.7381 42.3176 13.8288 42.2266C14.0184 42.0367 14.2083 41.8473 14.3984 41.6581C14.6417 41.4159 14.8841 41.1728 15.1263 40.9295C15.3133 40.7418 15.5007 40.5545 15.6883 40.3674C15.8213 40.2346 15.954 40.1014 16.0866 39.9682C16.2083 39.8474 16.2083 39.8474 16.3324 39.7242C16.4035 39.6533 16.4746 39.5823 16.5479 39.5092C17.0459 39.0718 17.661 38.9958 18.2885 39.2116Z" fill="white"/>
</g>
<defs>
<clipPath id="clip0_1940_256">
<rect width="49" height="49" fill="white"/>
</clipPath>
</defs>
</svg>
