<svg width="52" height="52" viewBox="0 0 52 52" fill="none" xmlns="http://www.w3.org/2000/svg">
<g clip-path="url(#clip0_1349_242)">
<path d="M46.3814 -0.0320228C46.6474 -0.031702 46.9133 -0.0340953 47.1794 -0.0366596C48.0648 -0.0401326 48.9311 -0.000222646 49.8079 0.128975C49.9261 0.145442 49.9261 0.145442 50.0467 0.162242C50.6742 0.266187 51.1063 0.489375 51.519 0.990272C51.7204 1.36764 51.8125 1.71423 51.8729 2.13285C51.8851 2.21725 51.8974 2.30166 51.91 2.38862C52.1969 4.72045 52.1424 7.24317 51.6951 9.54691C51.6673 9.69484 51.6673 9.69484 51.6389 9.84575C50.5136 15.646 47.7163 21.0015 44.1059 25.6326C43.9592 25.8214 43.8154 26.0121 43.6717 26.2032C43.6036 26.289 43.5355 26.3749 43.4654 26.4634C43.3346 26.72 43.3346 26.72 43.4563 27.0331C43.5127 27.153 43.5691 27.273 43.6273 27.3965C44.8248 30.0981 44.7393 33.2037 43.7641 35.9615C43.2412 37.2766 42.5888 38.4527 41.6404 39.5079C41.5774 39.579 41.5143 39.6501 41.4494 39.7233C40.8998 40.3399 40.3323 40.9342 39.7498 41.5196C39.6569 41.6134 39.5639 41.7072 39.4682 41.8038C39.1642 42.1104 38.8597 42.4165 38.5551 42.7225C38.4494 42.8287 38.3438 42.9349 38.2381 43.0411C37.7988 43.4827 37.3593 43.9241 36.9194 44.3651C36.2923 44.9939 35.666 45.6235 35.041 46.2543C34.5992 46.7 34.1564 47.1448 33.713 47.5888C33.4489 47.8532 33.1853 48.118 32.9228 48.3839C32.6304 48.6799 32.336 48.9739 32.0414 49.2677C31.9555 49.3553 31.8696 49.4428 31.7812 49.533C31.2711 50.0378 30.8107 50.4537 30.0573 50.4853C29.5577 50.4496 29.2228 50.2863 28.8436 49.9688C28.4683 49.4958 28.4508 48.9803 28.3909 48.3997C28.3787 48.2901 28.3665 48.1804 28.3539 48.0674C28.3122 47.6858 28.2728 47.3039 28.2342 46.9219C28.227 46.8508 28.2197 46.7797 28.2123 46.7065C28.0982 45.5829 27.9902 44.4587 27.8837 43.3344C27.8512 42.9928 27.8184 42.6512 27.7855 42.3097C27.7538 41.9789 27.7222 41.6481 27.6907 41.3172C27.6757 41.1602 27.6607 41.0032 27.6456 40.8462C27.6248 40.6289 27.6042 40.4116 27.5837 40.1943C27.572 40.0711 27.5603 39.948 27.5482 39.8211C27.5232 39.5079 27.5232 39.5079 27.5232 39.1016C27.4189 39.1506 27.3146 39.1995 27.2071 39.25C25.5875 39.9952 24.2024 40.2257 22.4562 39.6626C21.6155 39.2507 20.9283 38.6456 20.2733 37.9865C20.1949 37.9087 20.1165 37.831 20.0357 37.751C19.7796 37.4967 19.5246 37.2413 19.2697 36.9858C19.0905 36.8071 18.9112 36.6284 18.7319 36.4497C18.3575 36.0762 17.9837 35.7021 17.6103 35.3277C17.1332 34.8494 16.6545 34.3728 16.1753 33.8966C15.8052 33.5283 15.436 33.1591 15.0671 32.7896C14.891 32.6135 14.7146 32.4377 14.5379 32.2623C14.2905 32.0164 14.0445 31.7693 13.7987 31.5218C13.7265 31.4506 13.6543 31.3794 13.58 31.306C12.5584 30.2693 12.0066 29.0681 11.9588 27.6123C11.9721 26.5218 12.3607 25.5628 12.7967 24.5782C11.763 24.4166 10.7298 24.3064 9.68816 24.2124C9.41389 24.1876 9.13968 24.1622 8.86547 24.1366C8.08702 24.064 7.30852 23.9919 6.52986 23.9215C6.0507 23.8781 5.57165 23.8336 5.09266 23.7884C4.91138 23.7715 4.73007 23.7551 4.54871 23.739C4.29524 23.7166 4.04193 23.6927 3.78862 23.6685C3.71495 23.6623 3.64128 23.6561 3.56538 23.6498C2.95433 23.589 2.36013 23.4614 1.89141 23.042C1.60375 22.5331 1.47138 22.0756 1.5965 21.4976C1.73631 21.0965 1.87688 20.9049 2.16905 20.6007C2.24112 20.5249 2.24112 20.5249 2.31466 20.4477C2.48934 20.2656 2.66625 20.0858 2.84356 19.9063C2.91418 19.8344 2.98481 19.7625 3.05757 19.6884C3.62038 19.1161 4.18738 18.548 4.75533 17.9809C5.00328 17.7332 5.25099 17.4852 5.49874 17.2373C5.91401 16.8219 6.3295 16.4066 6.74511 15.9915C7.22363 15.5135 7.70178 15.0352 8.17974 14.5567C8.59291 14.143 9.00628 13.7296 9.41981 13.3164C9.6656 13.0707 9.91132 12.825 10.1569 12.5791C10.4304 12.3053 10.7044 12.0318 10.9784 11.7584C11.0582 11.6783 11.138 11.5982 11.2203 11.5158C13.5282 9.21665 16.2831 7.67576 19.6014 7.51566C19.6888 7.51029 19.7763 7.50493 19.8664 7.4994C21.4613 7.44759 23.3398 7.70636 24.7797 8.4295C24.9883 8.52836 25.1617 8.59994 25.3904 8.63285C25.6771 8.47587 25.8453 8.35077 26.076 8.13138C26.2088 8.01562 26.3421 7.90046 26.4759 7.78583C26.5464 7.72471 26.617 7.66359 26.6897 7.60061C31.996 3.18538 39.4323 -0.0494552 46.3814 -0.0320228ZM40.117 4.06254C40.5371 4.56313 40.9735 5.03567 41.4356 5.49748C41.5037 5.56594 41.5718 5.63439 41.642 5.70492C41.865 5.92883 42.0883 6.15237 42.3117 6.37586C42.4675 6.53196 42.6232 6.68806 42.779 6.84416C43.1042 7.17001 43.4297 7.49565 43.7552 7.82117C44.1733 8.23926 44.5907 8.65804 45.008 9.07701C45.3288 9.39893 45.65 9.72039 45.9714 10.0417C46.1256 10.1961 46.2796 10.3505 46.4335 10.5052C46.6477 10.7204 46.8625 10.9349 47.0775 11.1493C47.1413 11.2137 47.2052 11.2781 47.271 11.3445C47.5517 11.6698 47.5517 11.6698 47.9373 11.7813C48.5097 9.54962 48.8771 7.4704 48.8831 5.16703C48.8835 5.08443 48.8839 5.00183 48.8843 4.91673C48.8848 4.68037 48.8837 4.44409 48.8819 4.20774C48.882 4.10029 48.882 4.10029 48.8822 3.99067C48.8768 3.6201 48.8597 3.46559 48.6482 3.14848C48.3465 3.08833 48.3465 3.08833 47.9944 3.07865C47.8773 3.07197 47.7601 3.0653 47.6394 3.05842C45.0905 2.97178 42.5651 3.36018 40.117 4.06254ZM35.5276 5.85258C35.3729 5.92689 35.3729 5.92689 35.215 6.00271C33.49 6.84629 31.8392 7.83817 30.2654 8.93754C30.1789 8.99707 30.1789 8.99707 30.0906 9.0578C29.1559 9.7012 28.2746 10.4011 27.4005 11.1241C27.2444 11.2523 27.0864 11.3782 26.9282 11.5036C25.3258 12.7758 23.7539 14.257 22.432 15.8228C22.2771 16.0055 22.1197 16.1846 21.9599 16.3631C20.5525 17.945 19.3306 19.6549 18.1795 21.4297C18.338 21.8097 18.5722 22.0506 18.862 22.3398C18.9111 22.3891 18.9602 22.4384 19.0108 22.4892C19.1754 22.654 19.3406 22.8181 19.5058 22.9822C19.624 23.1003 19.7421 23.2184 19.8601 23.3366C20.1807 23.6573 20.5019 23.9773 20.8232 24.2972C21.1589 24.6316 21.4941 24.9666 21.8292 25.3016C22.4641 25.9357 23.0994 26.5694 23.7349 27.2029C24.4584 27.9241 25.1813 28.6459 25.9041 29.3677C27.3911 30.8526 28.8788 32.3367 30.367 33.8204C30.6812 33.6976 30.9594 33.5773 31.237 33.3851C31.3352 33.3176 31.3352 33.3176 31.4353 33.2486C31.5038 33.2006 31.5723 33.1525 31.6429 33.1031C31.7146 33.0532 31.7863 33.0033 31.8602 32.952C32.8865 32.2345 33.8758 31.4764 34.8357 30.6719C34.8889 30.6276 34.942 30.5832 34.9967 30.5376C36.4785 29.2972 37.953 27.9941 39.2132 26.5257C39.4332 26.2736 39.6609 26.0294 39.8885 25.7842C40.4264 25.1941 40.9174 24.5733 41.4037 23.9404C41.5294 23.7779 41.6572 23.6172 41.7852 23.4566C42.5793 22.4521 43.2821 21.3877 43.9764 20.3125C44.0192 20.2464 44.062 20.1802 44.1061 20.112C44.6698 19.2306 45.1543 18.306 45.6395 17.3799C45.7321 17.2041 45.7321 17.2041 45.8265 17.0248C45.885 16.9118 45.9434 16.7989 46.0037 16.6825C46.0558 16.5821 46.108 16.4817 46.1617 16.3782C46.2843 16.1085 46.3821 15.8499 46.4741 15.5692C46.501 15.4873 46.5279 15.4055 46.5556 15.3212C46.5759 15.259 46.5961 15.1969 46.617 15.1329C45.3519 13.8607 44.086 12.5894 42.8191 11.3191C42.2308 10.7293 41.6429 10.1392 41.0556 9.5485C40.5439 9.03374 40.0316 8.51951 39.5187 8.00592C39.2471 7.73384 38.9756 7.4615 38.7049 7.18851C38.4502 6.93177 38.1948 6.67575 37.9389 6.42026C37.8 6.28122 37.6618 6.14142 37.5237 6.0016C37.4412 5.91956 37.3587 5.83752 37.2738 5.753C37.2022 5.6811 37.1305 5.6092 37.0568 5.53512C36.5903 5.16085 35.9881 5.63118 35.5276 5.85258ZM15.9197 11.794C15.8587 11.8262 15.7977 11.8584 15.7349 11.8916C14.3968 12.6609 13.2989 14.0061 12.2175 15.0892C12.0575 15.2491 11.8976 15.4089 11.7377 15.5687C11.4053 15.9009 11.0731 16.2333 10.7411 16.5658C10.3145 16.993 9.88751 17.4197 9.46036 17.8462C9.13137 18.1748 8.80262 18.5037 8.47395 18.8326C8.31641 18.9902 8.1588 19.1477 8.00112 19.3052C7.78235 19.5237 7.5639 19.7426 7.34554 19.9615C7.28002 20.0268 7.21451 20.0921 7.14701 20.1594C6.84595 20.4011 6.84595 20.4011 6.70293 20.7188C8.2549 20.8987 9.80823 21.0639 11.363 21.218C11.5475 21.2363 11.7321 21.2548 11.9167 21.2735C12.1795 21.2999 12.4425 21.3258 12.7054 21.3516C12.7831 21.3595 12.8608 21.3674 12.9408 21.3756C13.1635 21.397 13.386 21.4145 13.6092 21.4297C13.7317 21.4392 13.7317 21.4392 13.8568 21.4488C14.3304 21.4816 14.3304 21.4816 14.7289 21.2613C14.7716 21.183 14.8144 21.1046 14.8585 21.0239C14.9089 20.9365 14.9592 20.8491 15.0111 20.759C15.0617 20.6641 15.1123 20.5691 15.1644 20.4712C15.2772 20.2744 15.3906 20.0779 15.5044 19.8817C15.5888 19.7337 15.5888 19.7337 15.675 19.5827C15.9214 19.1649 16.1953 18.7701 16.4783 18.3765C16.529 18.3058 16.5798 18.235 16.632 18.1621C16.7747 17.9643 16.9183 17.7672 17.0623 17.5704C17.1392 17.4646 17.216 17.3588 17.2952 17.2498C18.1595 16.0785 19.0751 14.9416 20.0671 13.876C20.2638 13.6622 20.4541 13.4454 20.6436 13.2254C21.0364 12.7748 21.4551 12.3536 21.8802 11.9336C21.9916 11.8229 21.9916 11.8229 22.1053 11.7099C22.2861 11.5303 22.467 11.351 22.6482 11.1719C22.6147 11.1049 22.5812 11.0379 22.5467 10.9688C20.3551 10.3035 17.905 10.7175 15.9197 11.794ZM16.4529 24.375C16.2496 24.7781 16.0495 25.1826 15.8499 25.5874C15.7926 25.7009 15.7354 25.8143 15.6763 25.9312C15.3056 26.6882 14.9961 27.3419 15.2342 28.19C15.6561 28.9152 16.2829 29.5015 16.8735 30.0916C16.9421 30.1606 17.0108 30.2296 17.0815 30.3006C17.3057 30.5258 17.5303 30.7506 17.755 30.9754C17.9122 31.1329 18.0693 31.2904 18.2265 31.4479C18.5546 31.7767 18.883 32.1052 19.2114 32.4336C19.6321 32.8543 20.0521 33.2757 20.4719 33.6972C20.7957 34.0221 21.1199 34.3465 21.4443 34.6708C21.5994 34.8261 21.7543 34.9814 21.909 35.137C22.1251 35.354 22.3418 35.5704 22.5586 35.7867C22.6539 35.8828 22.6539 35.8828 22.7512 35.9809C23.2258 36.4522 23.6508 36.8207 24.3482 36.8787C25.4613 36.823 26.6372 36.0261 27.6248 35.5469C27.1126 34.9283 26.5558 34.3619 25.9876 33.795C25.8846 33.6918 25.7816 33.5887 25.6786 33.4855C25.4009 33.2073 25.1228 32.9294 24.8446 32.6515C24.5532 32.3604 24.2621 32.069 23.9709 31.7777C23.4827 31.2892 22.9942 30.801 22.5056 30.3129C21.9402 29.748 21.3751 29.1828 20.8102 28.6173C20.3248 28.1315 19.8393 27.6459 19.3536 27.1605C19.0636 26.8706 18.7737 26.5807 18.4839 26.2906C18.2122 26.0186 17.9401 25.7467 17.6679 25.4751C17.5678 25.3751 17.4678 25.275 17.3678 25.1749C17.232 25.0388 17.0959 24.9031 16.9597 24.7674C16.8835 24.6912 16.8072 24.615 16.7287 24.5364C16.5817 24.3635 16.5817 24.3635 16.4529 24.375ZM40.8279 29.3516C40.7707 29.4094 40.7134 29.4672 40.6544 29.5268C40.3909 29.7924 40.127 30.0576 39.8631 30.3228C39.728 30.4592 39.728 30.4592 39.5901 30.5983C39.0715 31.1189 38.5437 31.6177 37.9842 32.0938C37.8742 32.1902 37.7643 32.2867 37.6545 32.3834C36.7461 33.1758 35.8018 33.9123 34.8357 34.6329C34.764 34.6869 34.6923 34.741 34.6184 34.7967C33.4176 35.7002 32.1621 36.4897 30.8686 37.2539C30.6785 37.3603 30.6785 37.3603 30.5701 37.4766C30.5728 37.7286 30.583 37.9763 30.5987 38.2276C30.6034 38.3079 30.6082 38.3882 30.6131 38.4709C30.6807 39.536 30.7864 40.598 30.8907 41.66C30.9259 42.0184 30.9605 42.3769 30.995 42.7354C31.0173 42.9655 31.0397 43.1955 31.0621 43.4255C31.0723 43.5317 31.0826 43.6378 31.0932 43.7471C31.1443 44.266 31.2019 44.7816 31.2811 45.2969C31.7938 44.8668 32.2772 44.4183 32.7513 43.9462C32.8236 43.8746 32.8959 43.803 32.9703 43.7292C33.2073 43.4942 33.4439 43.2588 33.6805 43.0233C33.7619 42.9423 33.8432 42.8613 33.9271 42.7779C34.3575 42.3496 34.7877 41.9209 35.2176 41.4919C35.6596 41.051 36.1028 40.6113 36.5463 40.1718C36.8891 39.8317 37.2309 39.4907 37.5725 39.1495C37.7355 38.9871 37.8987 38.825 38.0623 38.6633C39.2795 37.4686 39.2795 37.4686 40.2186 36.0547C40.2807 35.9399 40.3429 35.8251 40.407 35.7068C40.8711 34.7009 41.2871 33.6187 41.3357 32.5C41.3436 32.3476 41.3436 32.3476 41.3516 32.1922C41.3702 31.506 41.3193 30.8565 41.1961 30.1831C41.1769 30.0765 41.1769 30.0765 41.1573 29.9677C41.1227 29.7945 41.0778 29.6235 41.0311 29.4532C40.9305 29.4029 40.9305 29.4029 40.8279 29.3516Z" fill="#111111"/>
<path d="M36.5347 14.2514C37.5368 14.9917 38.2672 16.0383 38.5493 17.2618C38.7897 18.9318 38.4267 20.3532 37.4639 21.7408C36.5578 22.7538 35.3172 23.3293 33.979 23.461C32.5678 23.5105 31.3215 23.1398 30.2466 22.2233C29.2044 21.2318 28.6447 20.095 28.5184 18.6555C28.4881 17.2042 28.9701 15.8761 29.9641 14.8124C30.6553 14.165 31.3928 13.7766 32.2969 13.5079C32.358 13.4884 32.4192 13.4689 32.4821 13.4488C33.8935 13.1777 35.3357 13.4715 36.5347 14.2514ZM32.1699 17.2023C31.8088 17.6582 31.6651 17.9786 31.6875 18.567C31.7623 19.1377 31.9738 19.5191 32.3984 19.9064C32.9168 20.2594 33.3977 20.3813 34.0167 20.2725C34.6216 20.0953 34.9813 19.6821 35.3437 19.1954C35.5325 18.6293 35.5272 18.0841 35.2739 17.5387C35.0036 17.0581 34.6284 16.7699 34.125 16.5548C33.3132 16.4517 32.7289 16.5855 32.1699 17.2023Z" fill="#111111"/>
<path d="M14.3201 36.6641C14.7582 36.8393 15.1288 37.1483 15.3357 37.5782C15.4243 38.048 15.4906 38.537 15.236 38.9643C14.7376 39.6367 14.1473 40.2171 13.5558 40.8063C13.4374 40.9249 13.3191 41.0436 13.2008 41.1624C12.8812 41.4828 12.5611 41.8026 12.2408 42.1223C11.905 42.4576 11.5696 42.7934 11.2342 43.1291C10.6714 43.6923 10.1081 44.2551 9.5446 44.8176C8.89346 45.4677 8.24305 46.1184 7.59302 46.7696C7.03403 47.3295 6.47464 47.889 5.91492 48.4482C5.58099 48.7818 5.24719 49.1156 4.91374 49.4497C4.60051 49.7635 4.28678 50.0768 3.97266 50.3898C3.85756 50.5046 3.74264 50.6196 3.6279 50.7348C3.47113 50.8921 3.31375 51.0488 3.15621 51.2053C3.06834 51.2931 2.98047 51.3809 2.88995 51.4714C2.34682 51.9589 1.94074 52.0719 1.22092 52.0568C0.720837 51.9644 0.409393 51.6832 0.101349 51.2891C0.0059383 51.0029 -0.0231491 50.8004 -0.0319519 50.502C-0.0357486 50.4187 -0.0395453 50.3355 -0.043457 50.2497C0.0536944 49.6186 0.475143 49.1506 0.91279 48.7124C0.962404 48.6623 1.01202 48.6122 1.06314 48.5606C1.22793 48.3946 1.39377 48.2297 1.55965 48.0648C1.67869 47.9453 1.79767 47.8258 1.91658 47.7063C2.23862 47.3828 2.56161 47.0604 2.88483 46.7381C3.22355 46.4002 3.56152 46.0615 3.89962 45.7229C4.46743 45.1545 5.03588 44.5868 5.60469 44.0195C6.26156 43.3643 6.91732 42.708 7.57253 42.0511C8.1359 41.4863 8.69986 40.9222 9.26433 40.3585C9.60111 40.0222 9.93768 39.6857 10.2737 39.3486C10.5897 39.0318 10.9065 38.7156 11.2238 38.4001C11.3399 38.2844 11.4557 38.1684 11.5712 38.0522C11.7295 37.8931 11.8887 37.735 12.0481 37.5771C12.1368 37.4885 12.2255 37.3999 12.3169 37.3087C12.9448 36.7678 13.491 36.5497 14.3201 36.6641Z" fill="#111111"/>
<path d="M9.44556 31.7891C9.82674 31.9513 10.0874 32.1889 10.3596 32.5C10.4582 32.7958 10.4912 33.0218 10.5056 33.3315C10.5118 33.4231 10.5179 33.5146 10.5243 33.6089C10.3575 34.4363 9.52192 35.0955 8.94727 35.6695C8.86166 35.7555 8.77605 35.8416 8.68784 35.9302C8.50782 36.1108 8.32754 36.2911 8.14701 36.4712C7.87129 36.7466 7.59694 37.0234 7.32266 37.3002C7.14699 37.4761 6.97125 37.6519 6.79541 37.8277C6.71383 37.9102 6.63224 37.9927 6.54819 38.0777C6.02227 38.5993 5.55385 39.0432 4.77368 39.0444C4.29322 39.0278 4.02025 38.9229 3.65649 38.5937C3.26001 38.1555 3.20368 37.8068 3.19629 37.2389C3.3619 36.4096 4.0129 35.8583 4.5892 35.2882C4.67985 35.1975 4.7705 35.1068 4.86389 35.0134C5.05501 34.8225 5.2464 34.6319 5.43833 34.4418C5.68347 34.199 5.92747 33.9551 6.17112 33.7107C6.405 33.4764 6.6397 33.2429 6.87436 33.0094C7.00514 32.8785 7.00514 32.8785 7.13857 32.7449C7.22058 32.6639 7.3026 32.5828 7.38711 32.4993C7.45873 32.4282 7.53035 32.357 7.60414 32.2837C8.19586 31.7644 8.67969 31.7036 9.44556 31.7891Z" fill="#111111"/>
<path d="M19.4088 41.6125C19.8045 41.8205 20.0393 42.0432 20.211 42.4532C20.3757 43.0651 20.2888 43.523 20.0078 44.0782C19.7066 44.4621 19.3642 44.7977 19.0148 45.1379C18.9159 45.2361 18.8171 45.3345 18.7185 45.433C18.5125 45.6381 18.3056 45.842 18.0979 46.0452C17.8321 46.3053 17.568 46.5671 17.3046 46.8297C17.0522 47.081 16.7989 47.3314 16.5456 47.5817C16.4035 47.7224 16.4035 47.7224 16.2586 47.866C16.1702 47.9525 16.0817 48.039 15.9906 48.1282C15.913 48.2043 15.8355 48.2805 15.7555 48.359C15.2857 48.767 14.8965 48.7947 14.289 48.7818C13.7639 48.7208 13.5068 48.455 13.1651 48.0772C12.9468 47.6239 12.8975 47.2134 13 46.7188C13.3553 46.0875 13.8771 45.6094 14.387 45.1017C14.4834 45.0052 14.5797 44.9087 14.6761 44.8121C14.8772 44.6106 15.0787 44.4096 15.2805 44.2088C15.5387 43.9517 15.7959 43.6938 16.0529 43.4356C16.2514 43.2364 16.4503 43.0377 16.6494 42.8391C16.7905 42.6982 16.9313 42.5568 17.072 42.4155C17.2011 42.2873 17.2011 42.2873 17.3329 42.1565C17.4083 42.0812 17.4838 42.0059 17.5615 41.9284C18.0901 41.4641 18.7429 41.3835 19.4088 41.6125Z" fill="#111111"/>
</g>
<defs>
<clipPath id="clip0_1349_242">
<rect width="52" height="52" fill="white"/>
</clipPath>
</defs>
</svg>
