<svg width="28" height="28" viewBox="0 0 28 28" fill="none" xmlns="http://www.w3.org/2000/svg">
<g clip-path="url(#clip0_2023_1728)">
<path d="M24.9743 -0.0174121C25.1176 -0.0172393 25.2608 -0.018528 25.404 -0.0199088C25.8808 -0.0217789 26.3473 -0.000288906 26.8194 0.0692788C26.883 0.078146 26.883 0.078146 26.948 0.0871923C27.2858 0.143163 27.5185 0.26334 27.7407 0.533054C27.8492 0.736252 27.8988 0.922876 27.9313 1.14829C27.9379 1.19374 27.9445 1.23918 27.9513 1.28601C28.1058 2.54161 28.0764 3.9 27.8356 5.14048C27.8206 5.22013 27.8206 5.22013 27.8053 5.30139C27.1994 8.42458 25.6931 11.3083 23.7491 13.802C23.6701 13.9037 23.5926 14.0063 23.5153 14.1092C23.4786 14.1555 23.4419 14.2017 23.4042 14.2494C23.3337 14.3875 23.3337 14.3875 23.3993 14.5561C23.4296 14.6207 23.46 14.6853 23.4913 14.7518C24.1362 16.2065 24.0901 17.8788 23.565 19.3637C23.2835 20.0718 22.9322 20.7051 22.4215 21.2733C22.3876 21.3116 22.3536 21.3499 22.3186 21.3893C22.0227 21.7213 21.7171 22.0413 21.4035 22.3566C21.3534 22.407 21.3034 22.4575 21.2518 22.5096C21.0881 22.6747 20.9242 22.8395 20.7602 23.0043C20.7033 23.0615 20.6464 23.1186 20.5895 23.1758C20.3529 23.4136 20.1163 23.6513 19.8794 23.8887C19.5417 24.2273 19.2045 24.5663 18.868 24.906C18.6301 25.146 18.3917 25.3855 18.1529 25.6246C18.0107 25.7669 17.8688 25.9095 17.7274 26.0527C17.5699 26.2121 17.4114 26.3704 17.2528 26.5286C17.2065 26.5757 17.1603 26.6229 17.1127 26.6714C16.838 26.9432 16.5901 27.1672 16.1844 27.1842C15.9154 27.165 15.7351 27.0771 15.5309 26.9061C15.3288 26.6514 15.3194 26.3738 15.2871 26.0612C15.2806 26.0022 15.274 25.9431 15.2672 25.8823C15.2448 25.6768 15.2236 25.4712 15.2028 25.2655C15.1989 25.2272 15.195 25.1889 15.191 25.1495C15.1296 24.5444 15.0714 23.9391 15.014 23.3337C14.9966 23.1498 14.9789 22.9659 14.9612 22.782C14.9441 22.6038 14.9271 22.4257 14.9101 22.2476C14.902 22.163 14.8939 22.0785 14.8858 21.994C14.8746 21.877 14.8635 21.7599 14.8525 21.6429C14.8462 21.5766 14.8399 21.5103 14.8334 21.442C14.8199 21.2733 14.8199 21.2733 14.8199 21.0545C14.7638 21.0809 14.7076 21.1073 14.6497 21.1344C13.7776 21.5357 13.0318 21.6598 12.0916 21.3566C11.6389 21.1348 11.2688 20.809 10.9161 20.4541C10.8739 20.4122 10.8317 20.3704 10.7882 20.3273C10.6503 20.1904 10.513 20.0529 10.3757 19.9153C10.2792 19.819 10.1827 19.7228 10.0862 19.6266C9.88457 19.4255 9.68328 19.2241 9.4822 19.0224C9.2253 18.7649 8.96755 18.5083 8.70954 18.2518C8.51022 18.0535 8.31142 17.8547 8.11277 17.6558C8.01796 17.5609 7.92299 17.4663 7.82784 17.3718C7.69464 17.2394 7.56215 17.1064 7.42982 16.9731C7.39095 16.9348 7.35208 16.8964 7.31203 16.8569C6.76193 16.2987 6.46484 15.6519 6.43909 14.868C6.44624 14.2808 6.65551 13.7644 6.89026 13.2342C6.33364 13.1473 5.7773 13.0879 5.21644 13.0373C5.06876 13.0239 4.9211 13.0102 4.77345 12.9965C4.35428 12.9574 3.93509 12.9186 3.51582 12.8806C3.25781 12.8573 2.99986 12.8333 2.74194 12.809C2.64433 12.7999 2.5467 12.791 2.44904 12.7824C2.31256 12.7703 2.17616 12.7574 2.03976 12.7444C2.00009 12.7411 1.96043 12.7377 1.91956 12.7343C1.59053 12.7016 1.27058 12.6329 1.01819 12.4071C0.863292 12.133 0.79202 11.8867 0.859389 11.5754C0.934673 11.3595 1.01037 11.2563 1.16769 11.0925C1.2065 11.0517 1.2065 11.0517 1.24609 11.0101C1.34015 10.9121 1.43541 10.8153 1.53088 10.7186C1.56891 10.6799 1.60694 10.6412 1.64612 10.6013C1.94917 10.2931 2.25448 9.98724 2.5603 9.68184C2.69381 9.54847 2.82719 9.41496 2.96059 9.28147C3.18421 9.05776 3.40793 8.83417 3.63172 8.61064C3.88938 8.35327 4.14685 8.09571 4.40421 7.83804C4.62669 7.61532 4.84927 7.3927 5.07194 7.17018C5.20429 7.03791 5.3366 6.90561 5.46882 6.77321C5.61613 6.62576 5.76362 6.47848 5.91116 6.33125C5.95415 6.28815 5.99715 6.24504 6.04144 6.20063C7.28414 4.96265 8.76754 4.13293 10.5543 4.04673C10.6014 4.04384 10.6485 4.04095 10.697 4.03797C11.5558 4.01007 12.5673 4.14941 13.3427 4.53879C13.455 4.59203 13.5483 4.63057 13.6715 4.64829C13.8258 4.56376 13.9164 4.4964 14.0407 4.37827C14.1122 4.31593 14.1839 4.25393 14.256 4.1922C14.294 4.15929 14.332 4.12638 14.3711 4.09247C17.2283 1.71504 21.2325 -0.0267988 24.9743 -0.0174121ZM21.6012 2.18735C21.8274 2.4569 22.0624 2.71135 22.3112 2.96001C22.3479 2.99687 22.3846 3.03373 22.4224 3.07171C22.5424 3.19228 22.6627 3.31265 22.783 3.43299C22.8668 3.51704 22.9507 3.60109 23.0346 3.68515C23.2097 3.86061 23.3849 4.03595 23.5603 4.21123C23.7854 4.43635 24.0101 4.66185 24.2348 4.88745C24.4075 5.06079 24.5805 5.23389 24.7536 5.40691C24.8366 5.49001 24.9195 5.5732 25.0024 5.65648C25.1177 5.77234 25.2334 5.88786 25.3492 6.00329C25.3835 6.03797 25.4179 6.07265 25.4533 6.10839C25.6045 6.28357 25.6045 6.28357 25.8121 6.3436C26.1204 5.14193 26.3181 4.02235 26.3214 2.78208C26.3216 2.7376 26.3218 2.69312 26.322 2.6473C26.3223 2.52003 26.3217 2.3928 26.3208 2.26554C26.3208 2.20768 26.3208 2.20768 26.3209 2.14865C26.318 1.94912 26.3088 1.86592 26.1949 1.69516C26.0324 1.66278 26.0324 1.66278 25.8429 1.65757C25.7798 1.65397 25.7167 1.65038 25.6517 1.64667C24.2792 1.60002 22.9194 1.80916 21.6012 2.18735ZM19.13 3.15122C19.0467 3.19124 19.0467 3.19124 18.9617 3.23206C18.0328 3.6863 17.1439 4.22038 16.2965 4.81235C16.2499 4.8444 16.2499 4.8444 16.2024 4.87711C15.6991 5.22355 15.2245 5.60041 14.7538 5.98973C14.6698 6.05875 14.5847 6.12653 14.4995 6.19407C13.6367 6.8791 12.7903 7.67668 12.0785 8.51978C11.9951 8.61817 11.9103 8.71463 11.8243 8.81073C11.0664 9.66251 10.4085 10.5832 9.7887 11.5389C9.87405 11.7435 10.0001 11.8732 10.1562 12.029C10.1827 12.0555 10.2091 12.082 10.2363 12.1094C10.3249 12.1981 10.4139 12.2865 10.5029 12.3749C10.5665 12.4385 10.6301 12.5021 10.6936 12.5657C10.8663 12.7384 11.0392 12.9107 11.2122 13.0829C11.393 13.263 11.5735 13.4434 11.7539 13.6238C12.0958 13.9652 12.4379 14.3064 12.7801 14.6475C13.1696 15.0359 13.5589 15.4245 13.9481 15.8132C14.7488 16.6128 15.5499 17.4119 16.3512 18.2108C16.5204 18.1447 16.6702 18.0799 16.8197 17.9764C16.8725 17.9401 16.8725 17.9401 16.9264 17.9029C16.9633 17.8771 17.0002 17.8512 17.0382 17.8246C17.0768 17.7977 17.1154 17.7709 17.1552 17.7432C17.7078 17.3568 18.2406 16.9487 18.7574 16.5155C18.786 16.4916 18.8146 16.4677 18.8441 16.4431C19.642 15.7752 20.436 15.0736 21.1146 14.2829C21.233 14.1472 21.3556 14.0157 21.4781 13.8836C21.7678 13.5659 22.0322 13.2316 22.2941 12.8908C22.3617 12.8033 22.4306 12.7168 22.4995 12.6303C22.927 12.0894 23.3055 11.5163 23.6793 10.9374C23.7024 10.9017 23.7254 10.8661 23.7491 10.8294C24.0527 10.3548 24.3136 9.85692 24.5748 9.35825C24.6247 9.2636 24.6247 9.2636 24.6756 9.16703C24.707 9.1062 24.7385 9.04537 24.7709 8.9827C24.799 8.92864 24.8271 8.87458 24.856 8.81888C24.9221 8.67363 24.9747 8.53437 25.0242 8.38323C25.0387 8.33916 25.0532 8.29509 25.0682 8.24968C25.0791 8.21622 25.09 8.18276 25.1012 8.14829C24.42 7.46328 23.7384 6.77873 23.0562 6.09474C22.7394 5.77716 22.4228 5.45943 22.1066 5.14133C21.8311 4.86415 21.5552 4.58726 21.2791 4.31071C21.1328 4.16421 20.9866 4.01756 20.8408 3.87057C20.7037 3.73232 20.5662 3.59446 20.4284 3.4569C20.3536 3.38203 20.2792 3.30675 20.2048 3.23146C20.1604 3.18729 20.116 3.14311 20.0702 3.0976C20.0317 3.05888 19.9931 3.02017 19.9534 2.98028C19.7022 2.77875 19.3779 3.03201 19.13 3.15122ZM8.5719 6.35044C8.53905 6.36778 8.50621 6.38513 8.47237 6.403C7.75185 6.81723 7.16071 7.54157 6.57837 8.12479C6.49226 8.21086 6.40615 8.29692 6.32002 8.38298C6.14106 8.56186 5.96219 8.74084 5.7834 8.9199C5.55371 9.14989 5.32378 9.37964 5.09377 9.60932C4.91663 9.78627 4.73961 9.96335 4.56263 10.1405C4.47781 10.2253 4.39294 10.3102 4.30803 10.3949C4.19023 10.5126 4.0726 10.6304 3.95503 10.7483C3.91975 10.7835 3.88447 10.8187 3.84813 10.8549C3.68602 10.985 3.68602 10.985 3.60901 11.1561C4.44468 11.253 5.28109 11.3419 6.11825 11.4249C6.21765 11.4348 6.31703 11.4447 6.4164 11.4548C6.55795 11.469 6.69953 11.483 6.84113 11.4968C6.88295 11.5011 6.92478 11.5054 6.96787 11.5098C7.08778 11.5213 7.20758 11.5307 7.32776 11.5389C7.39375 11.544 7.39375 11.544 7.46108 11.5492C7.71611 11.5669 7.71611 11.5669 7.93067 11.4482C7.9537 11.406 7.97673 11.3639 8.00046 11.3204C8.02758 11.2733 8.0547 11.2263 8.08265 11.1778C8.10988 11.1266 8.13711 11.0755 8.16516 11.0228C8.22594 10.9168 8.28696 10.811 8.34824 10.7054C8.39372 10.6257 8.39372 10.6257 8.44012 10.5443C8.57282 10.3194 8.72026 10.1068 8.87268 9.89487C8.89999 9.85678 8.9273 9.81868 8.95543 9.77943C9.03226 9.67291 9.10959 9.56679 9.18713 9.46079C9.22852 9.40383 9.2699 9.34687 9.31253 9.28818C9.77791 8.6575 10.271 8.04533 10.8051 7.47153C10.911 7.35639 11.0135 7.23969 11.1155 7.12119C11.327 6.87855 11.5525 6.65179 11.7814 6.42563C11.8414 6.36599 11.8414 6.36599 11.9026 6.30515C11.9999 6.20846 12.0974 6.11191 12.1949 6.01548C12.1769 5.97938 12.1589 5.94329 12.1403 5.9061C10.9602 5.54786 9.64091 5.7708 8.5719 6.35044ZM8.85901 13.1249C8.74953 13.3419 8.64178 13.5597 8.5343 13.7777C8.50346 13.8388 8.47262 13.8999 8.44084 13.9628C8.24122 14.3704 8.07457 14.7224 8.20276 15.1791C8.42995 15.5695 8.76747 15.8852 9.08548 16.203C9.12243 16.2402 9.15939 16.2773 9.19746 16.3156C9.3182 16.4368 9.43915 16.5579 9.56012 16.6789C9.64475 16.7637 9.72937 16.8485 9.814 16.9333C9.99069 17.1103 10.1675 17.2872 10.3444 17.4641C10.5709 17.6906 10.797 17.9175 11.0231 18.1445C11.1974 18.3194 11.372 18.4941 11.5467 18.6687C11.6302 18.7523 11.7136 18.836 11.7969 18.9197C11.9132 19.0366 12.0299 19.1531 12.1467 19.2696C12.198 19.3213 12.198 19.3213 12.2504 19.3742C12.5059 19.6279 12.7348 19.8264 13.1103 19.8576C13.7097 19.8276 14.3428 19.3985 14.8746 19.1405C14.5988 18.8074 14.299 18.5024 13.9931 18.1971C13.9376 18.1416 13.8821 18.086 13.8267 18.0305C13.6771 17.8807 13.5274 17.731 13.3776 17.5814C13.2207 17.4247 13.0639 17.2678 12.9071 17.1109C12.6442 16.8479 12.3812 16.585 12.1182 16.3222C11.8137 16.018 11.5094 15.7136 11.2052 15.4091C10.9439 15.1476 10.6824 14.8861 10.4209 14.6247C10.2648 14.4686 10.1086 14.3125 9.95262 14.1563C9.80628 14.0098 9.6598 13.8635 9.51322 13.7172C9.45931 13.6634 9.40545 13.6095 9.35164 13.5555C9.27852 13.4823 9.20522 13.4092 9.13191 13.3361C9.09085 13.2951 9.04979 13.254 9.00748 13.2118C8.92832 13.1187 8.92832 13.1187 8.85901 13.1249ZM21.984 15.8045C21.9532 15.8357 21.9223 15.8668 21.8905 15.8989C21.7487 16.0419 21.6066 16.1847 21.4645 16.3275C21.3917 16.4009 21.3917 16.4009 21.3175 16.4758C21.0382 16.7561 20.754 17.0247 20.4528 17.2811C20.3935 17.333 20.3343 17.385 20.2752 17.437C19.7861 17.8637 19.2776 18.2603 18.7574 18.6483C18.7188 18.6774 18.6802 18.7065 18.6404 18.7365C17.9938 19.223 17.3178 19.6481 16.6213 20.0596C16.519 20.1169 16.519 20.1169 16.4606 20.1795C16.462 20.3152 16.4675 20.4486 16.476 20.5839C16.4785 20.6272 16.4811 20.6704 16.4837 20.7149C16.5201 21.2885 16.577 21.8603 16.6332 22.4321C16.6522 22.6251 16.6708 22.8182 16.6894 23.0112C16.7014 23.1351 16.7134 23.259 16.7255 23.3828C16.731 23.44 16.7365 23.4971 16.7422 23.556C16.7697 23.8354 16.8008 24.113 16.8434 24.3905C17.1195 24.1589 17.3798 23.9174 17.6351 23.6632C17.674 23.6246 17.7129 23.5861 17.753 23.5463C17.8806 23.4198 18.008 23.293 18.1354 23.1662C18.1792 23.1226 18.223 23.079 18.2682 23.0341C18.5 22.8034 18.7316 22.5726 18.9631 22.3416C19.2011 22.1042 19.4397 21.8675 19.6785 21.6308C19.8631 21.4477 20.0472 21.2641 20.2311 21.0803C20.3188 20.9929 20.4067 20.9056 20.4948 20.8185C21.1502 20.1752 21.1502 20.1752 21.6559 19.4139C21.6894 19.3521 21.7229 19.2903 21.7574 19.2266C22.0073 18.685 22.2313 18.1022 22.2574 17.4999C22.2617 17.4178 22.2617 17.4178 22.266 17.3341C22.276 16.9646 22.2486 16.6149 22.1823 16.2523C22.1719 16.1949 22.1719 16.1949 22.1614 16.1363C22.1427 16.043 22.1185 15.9509 22.0934 15.8592C22.0392 15.8322 22.0392 15.8322 21.984 15.8045Z" fill="#111111"/>
<path d="M19.6727 7.67379C20.2122 8.07243 20.6056 8.63596 20.7574 9.29476C20.8869 10.194 20.6914 10.9594 20.173 11.7066C19.6851 12.252 19.017 12.5619 18.2965 12.6328C17.5366 12.6595 16.8655 12.4598 16.2867 11.9663C15.7256 11.4325 15.4242 10.8204 15.3562 10.0452C15.3399 9.26377 15.5994 8.54862 16.1346 7.97585C16.5068 7.6273 16.9039 7.41811 17.3907 7.27346C17.4237 7.26296 17.4566 7.25245 17.4905 7.24163C18.2505 7.09564 19.027 7.25383 19.6727 7.67379ZM17.3224 9.26272C17.1279 9.50823 17.0505 9.68076 17.0626 9.99758C17.1029 10.3049 17.2168 10.5103 17.4454 10.7188C17.7245 10.9089 17.9835 10.9745 18.3168 10.9159C18.6425 10.8205 18.8362 10.598 19.0314 10.336C19.133 10.0311 19.1301 9.73753 18.9938 9.44387C18.8482 9.18511 18.6462 9.02991 18.3751 8.91409C17.938 8.85854 17.6234 8.93061 17.3224 9.26272Z" fill="#111111"/>
<path d="M7.71078 19.742C7.94667 19.8364 8.14623 20.0027 8.25766 20.2342C8.30534 20.4872 8.34103 20.7505 8.20397 20.9805C7.9356 21.3426 7.61771 21.6552 7.29923 21.9724C7.23548 22.0363 7.17176 22.1002 7.10807 22.1641C6.93602 22.3367 6.76362 22.5089 6.59115 22.681C6.41033 22.8616 6.22977 23.0424 6.04917 23.2231C5.7461 23.5264 5.4428 23.8295 5.13936 24.1324C4.78875 24.4824 4.43853 24.8328 4.08851 25.1834C3.78751 25.4849 3.48631 25.7862 3.18492 26.0873C3.00511 26.2669 2.82537 26.4466 2.64582 26.6266C2.47716 26.7955 2.30823 26.9642 2.13909 27.1328C2.07711 27.1946 2.01523 27.2565 1.95345 27.3185C1.86903 27.4032 1.78429 27.4876 1.69946 27.5719C1.65215 27.6192 1.60483 27.6664 1.55609 27.7151C1.26364 27.9776 1.04498 28.0385 0.657379 28.0304C0.388105 27.9806 0.220405 27.8292 0.0545349 27.617C0.00315998 27.4629 -0.0125025 27.3538 -0.0172424 27.1932C-0.0192868 27.1483 -0.0213312 27.1035 -0.0234375 27.0573C0.0288748 26.7175 0.255809 26.4655 0.491465 26.2295C0.51818 26.2026 0.544895 26.1756 0.57242 26.1478C0.661153 26.0584 0.750456 25.9696 0.839773 25.8808C0.903873 25.8165 0.967937 25.7522 1.03197 25.6878C1.20537 25.5136 1.37929 25.34 1.55333 25.1665C1.73572 24.9845 1.91771 24.8021 2.09976 24.6198C2.4055 24.3138 2.71159 24.0081 3.01787 23.7026C3.37157 23.3498 3.72468 22.9964 4.07748 22.6427C4.38083 22.3386 4.6845 22.0348 4.98845 21.7313C5.16979 21.5502 5.35102 21.369 5.53196 21.1875C5.70212 21.0169 5.87267 20.8467 6.04354 20.6767C6.10605 20.6145 6.16841 20.552 6.23063 20.4894C6.31584 20.4038 6.40155 20.3186 6.4874 20.2336C6.53515 20.1859 6.58291 20.1382 6.63211 20.0891C6.97022 19.7978 7.26437 19.6804 7.71078 19.742Z" fill="#111111"/>
<path d="M5.08569 17.1173C5.29095 17.2047 5.43129 17.3326 5.57788 17.5001C5.63098 17.6594 5.64873 17.7811 5.65649 17.9479C5.65981 17.9972 5.66312 18.0464 5.66653 18.0972C5.57675 18.5427 5.12681 18.8977 4.81738 19.2068C4.77129 19.2531 4.72519 19.2994 4.67769 19.3472C4.58076 19.4444 4.48369 19.5415 4.38648 19.6385C4.23801 19.7868 4.09029 19.9358 3.9426 20.0849C3.84801 20.1796 3.75337 20.2742 3.65869 20.3689C3.61476 20.4133 3.57083 20.4577 3.52557 20.5035C3.24239 20.7844 2.99016 21.0234 2.57007 21.0241C2.31136 21.0151 2.16437 20.9586 1.96851 20.7814C1.75502 20.5454 1.72468 20.3577 1.7207 20.0519C1.80988 19.6053 2.16042 19.3085 2.47073 19.0015C2.51954 18.9526 2.56835 18.9038 2.61864 18.8535C2.72155 18.7507 2.82461 18.6481 2.92795 18.5457C3.05995 18.415 3.19134 18.2836 3.32253 18.1521C3.44847 18.0259 3.57485 17.9002 3.7012 17.7744C3.77162 17.7039 3.77162 17.7039 3.84347 17.632C3.88763 17.5884 3.93179 17.5447 3.9773 17.4998C4.01586 17.4614 4.05443 17.4231 4.09416 17.3837C4.41278 17.104 4.6733 17.0713 5.08569 17.1173Z" fill="#111111"/>
<path d="M10.4511 22.4068C10.6642 22.5188 10.7907 22.6387 10.8831 22.8595C10.9718 23.189 10.925 23.4355 10.7737 23.7345C10.6115 23.9412 10.4271 24.122 10.239 24.3051C10.1858 24.358 10.1326 24.411 10.0794 24.464C9.96855 24.5744 9.85714 24.6843 9.74529 24.7937C9.60214 24.9337 9.45998 25.0747 9.31813 25.2161C9.18224 25.3514 9.04584 25.4862 8.90942 25.621C8.83294 25.6968 8.83294 25.6968 8.75491 25.7741C8.70728 25.8207 8.65965 25.8673 8.61058 25.9153C8.56881 25.9563 8.52705 25.9973 8.48401 26.0396C8.23101 26.2592 8.02145 26.2742 7.69433 26.2672C7.41162 26.2344 7.27318 26.0912 7.08914 25.8878C6.97161 25.6437 6.94506 25.4227 7.00027 25.1564C7.1916 24.8165 7.47253 24.559 7.7471 24.2857C7.799 24.2337 7.85089 24.1817 7.90276 24.1297C8.01106 24.0212 8.11956 23.9129 8.22821 23.8048C8.36723 23.6664 8.50575 23.5275 8.64414 23.3885C8.751 23.2812 8.85812 23.1742 8.96533 23.0673C9.04133 22.9914 9.11711 22.9153 9.19288 22.8392C9.26242 22.7702 9.26242 22.7702 9.33336 22.6998C9.37399 22.6592 9.41462 22.6187 9.45648 22.5769C9.74109 22.3269 10.0926 22.2835 10.4511 22.4068Z" fill="#111111"/>
</g>
<defs>
<clipPath id="clip0_2023_1728">
<rect width="28" height="28" fill="white"/>
</clipPath>
</defs>
</svg>
