<svg width="14" height="14" viewBox="0 0 14 14" fill="none" xmlns="http://www.w3.org/2000/svg">
<g clip-path="url(#clip0_706_496)">
<path d="M10.0625 0H3.9375C1.75 0 0 1.75 0 3.9375V10.0625C0 12.25 1.75 14 3.9375 14H10.0625C12.25 14 14 12.25 14 10.0625V3.9375C14 1.75 12.25 0 10.0625 0ZM5.25 10.9375C5.25 11.2 5.075 11.375 4.8125 11.375H3.0625C2.8 11.375 2.625 11.2 2.625 10.9375V5.6875C2.625 5.425 2.8 5.25 3.0625 5.25H4.8125C5.075 5.25 5.25 5.425 5.25 5.6875V10.9375ZM3.9375 4.8125C3.19375 4.8125 2.625 4.24375 2.625 3.5C2.625 2.75625 3.19375 2.1875 3.9375 2.1875C4.68125 2.1875 5.25 2.75625 5.25 3.5C5.25 4.24375 4.68125 4.8125 3.9375 4.8125ZM11.375 10.9375C11.375 11.2 11.2 11.375 10.9375 11.375H9.625C9.3625 11.375 9.1875 11.2 9.1875 10.9375V9.40625V8.96875V8.09375C9.1875 7.74375 8.88125 7.4375 8.53125 7.4375C8.18125 7.4375 7.875 7.74375 7.875 8.09375V8.96875V9.40625V10.9375C7.875 11.2 7.7 11.375 7.4375 11.375H6.125C5.8625 11.375 5.6875 11.2 5.6875 10.9375V5.6875C5.6875 5.425 5.8625 5.25 6.125 5.25H7.875C8.00625 5.25 8.09375 5.29375 8.18125 5.38125C8.44375 5.29375 8.70625 5.25 8.96875 5.25C10.2812 5.25 11.375 6.34375 11.375 7.65625V10.9375Z" fill="#666666"/>
</g>
<defs>
<clipPath id="clip0_706_496">
<rect width="14" height="14" fill="white"/>
</clipPath>
</defs>
</svg>
