<svg width="16" height="16" viewBox="0 0 16 16" fill="none" xmlns="http://www.w3.org/2000/svg">
<g clip-path="url(#clip0_1049_11)">
<path d="M13.6236 8.98503C14.6396 8.98503 15.4633 8.16181 15.4633 7.14587C15.4633 6.12993 14.6396 5.30615 13.6236 5.30615C12.608 5.30615 11.7842 6.12993 11.7842 7.14587C11.7842 8.16181 12.608 8.98503 13.6236 8.98503Z" fill="#FE5E3A"/>
<path d="M15.979 10.7581C15.897 10.2656 15.4899 9.57619 15.1817 9.26822C15.1411 9.22741 14.9597 9.21797 14.9107 9.24835C14.536 9.47879 14.0959 9.61441 13.6235 9.61441C13.1516 9.61441 12.7115 9.47879 12.3368 9.24835C12.2875 9.21797 12.1064 9.22741 12.0658 9.26822C11.9796 9.35438 11.8856 9.46907 11.7939 9.60207C12.0419 10.0689 12.2386 10.5649 12.3095 10.9919C12.3805 11.4201 12.3574 11.8254 12.2427 12.1949C12.6502 12.3423 13.1388 12.407 13.6234 12.407C14.8877 12.407 16.1814 11.9686 15.979 10.7581Z" fill="#FE5E3A"/>
<path d="M7.95273 8.2092C9.5992 8.2092 10.9341 6.87432 10.9341 5.22788C10.9341 3.58195 9.5992 2.24707 7.95273 2.24707C6.30654 2.24707 4.97217 3.58195 4.97217 5.22788C4.97217 6.87432 6.30651 8.2092 7.95273 8.2092Z" fill="#FE5E3A"/>
<path d="M10.4771 8.66576C10.4124 8.60136 10.1186 8.58489 10.0387 8.63432C9.43098 9.00826 8.71776 9.22717 7.95263 9.22717C7.18807 9.22717 6.47451 9.00826 5.86707 8.63432C5.78723 8.58486 5.49345 8.60136 5.42876 8.66576C4.9281 9.16589 4.26826 10.2839 4.13551 11.081C3.8082 13.0443 5.90532 13.7531 7.95263 13.7531C10.0005 13.7531 12.0976 13.0443 11.7703 11.081C11.6375 10.2839 10.9777 9.16589 10.4771 8.66576Z" fill="#FE5E3A"/>
<path d="M2.37634 8.98503C3.39203 8.98503 4.21578 8.16181 4.21578 7.14587C4.21578 6.12993 3.39203 5.30615 2.37634 5.30615C1.36037 5.30615 0.536621 6.12993 0.536621 7.14587C0.536621 8.16181 1.36037 8.98503 2.37634 8.98503Z" fill="#FE5E3A"/>
<path d="M3.5967 10.9919C3.67214 10.5434 3.88498 10.0153 4.15183 9.52694C4.07745 9.42535 4.00311 9.33685 3.93448 9.26822C3.89389 9.22741 3.7127 9.21797 3.66348 9.24835C3.28876 9.47879 2.84861 9.61441 2.37655 9.61441C1.90442 9.61441 1.46398 9.47879 1.08958 9.24835C1.04058 9.21797 0.85889 9.22741 0.818296 9.26822C0.509327 9.57616 0.103234 10.2656 0.0209836 10.7581C-0.181141 11.9686 1.11236 12.4069 2.37655 12.4069C2.8277 12.4069 3.2833 12.3514 3.67214 12.2244C3.54961 11.8474 3.52367 11.4326 3.5967 10.9919Z" fill="#FE5E3A"/>
</g>
<defs>
<clipPath id="clip0_1049_11">
<rect width="16" height="16" fill="white"/>
</clipPath>
</defs>
</svg>
