<svg width="28" height="28" viewBox="0 0 28 28" fill="none" xmlns="http://www.w3.org/2000/svg">
<path d="M13.9832 3.92059C14.0242 3.92069 14.0652 3.92079 14.1074 3.92089C14.7236 3.92341 15.3146 3.95165 15.9144 4.10174C15.9519 4.11083 15.9895 4.11993 16.0282 4.1293C17.247 4.43058 18.4212 5.01569 19.3597 5.85174C19.4042 5.88974 19.4488 5.92773 19.4947 5.96688C21.2212 7.46666 22.2548 9.55183 22.5316 11.8127C22.5377 11.9649 22.5417 12.1159 22.5427 12.2681C22.543 12.3109 22.5434 12.3537 22.5438 12.3978C22.5564 14.1942 22.5564 14.1942 22.3675 14.9299C22.356 14.9766 22.3445 15.0233 22.3327 15.0714C21.9342 16.6468 21.1602 18.003 20.0706 19.1955C20.0297 19.2403 19.9888 19.2852 19.9467 19.3314C19.6801 19.6098 19.3873 19.846 19.0792 20.0764C18.8533 20.2475 18.6406 20.4115 18.5541 20.6926C18.536 20.8685 18.5259 21.042 18.5223 21.2189C18.5202 21.2843 18.5182 21.3498 18.5161 21.4172C18.5435 21.6347 18.6107 21.7173 18.7581 21.8752C18.8822 22.1234 18.8279 22.464 18.8299 22.7365C18.8315 22.8063 18.8331 22.8761 18.8347 22.948C18.839 23.5879 18.839 23.5879 18.5941 23.8439C18.363 24.0348 18.2323 24.0733 17.9378 24.0627C17.9403 24.1168 17.9429 24.171 17.9455 24.2267C17.9718 25.0123 17.9718 25.0123 17.7191 25.3205C17.5233 25.5255 17.3495 25.7074 17.0628 25.758C17.0676 25.8255 17.0676 25.8255 17.0724 25.8943C17.0926 26.3949 17.0267 26.7481 16.6892 27.1288C16.203 27.5881 15.6862 27.588 15.0515 27.5864C14.9675 27.5866 14.8835 27.5869 14.7995 27.5873C14.6239 27.5877 14.4484 27.5876 14.2728 27.5871C14.049 27.5864 13.8252 27.5875 13.6014 27.5891C13.428 27.5902 13.2547 27.5901 13.0813 27.5898C12.9988 27.5898 12.9163 27.5901 12.8339 27.5908C12.236 27.5951 11.7492 27.5371 11.2973 27.1147C10.9703 26.739 10.9084 26.3833 10.9282 25.8943C10.9314 25.8493 10.9345 25.8043 10.9378 25.758C10.8973 25.7435 10.8569 25.7291 10.8152 25.7142C10.518 25.585 10.296 25.3695 10.1175 25.1017C10.002 24.7832 10.0512 24.3973 10.0628 24.0627C10.0122 24.0645 9.96157 24.0663 9.90942 24.0682C9.62743 24.0593 9.4774 23.9189 9.28906 23.7196C9.10699 23.4361 9.15648 23.0736 9.16046 22.7502C9.15919 22.647 9.15919 22.647 9.15789 22.5417C9.15961 22.1374 9.17013 21.8928 9.46124 21.6017C9.46822 21.47 9.47137 21.3405 9.47149 21.2087C9.47227 21.1368 9.47304 21.065 9.47384 20.991C9.4583 20.7326 9.42853 20.5404 9.25466 20.3429C9.21568 20.3105 9.1767 20.2781 9.13653 20.2448C9.09247 20.2076 9.04841 20.1704 9.00302 20.132C8.90711 20.0543 8.81098 19.9768 8.71463 19.8996C6.95861 18.4887 5.7754 16.4078 5.4855 14.1647C5.23199 11.6295 5.80259 9.14939 7.40171 7.13337C8.56677 5.7207 10.0356 4.70609 11.7957 4.19402C11.8411 4.18076 11.8865 4.16749 11.9333 4.15382C12.6123 3.96588 13.2824 3.91704 13.9832 3.92059ZM8.64776 7.13689C7.07847 8.76257 6.32261 10.9409 6.34405 13.1799C6.41579 15.1659 7.20847 17.0529 8.58624 18.4846C8.61061 18.5103 8.63499 18.5361 8.6601 18.5627C8.96073 18.8798 9.26531 19.1665 9.61846 19.4245C9.9576 19.6729 10.2019 19.9408 10.3362 20.3439C10.3633 20.8853 10.3633 20.8853 10.3909 21.4377C12.7731 21.4377 15.1553 21.4377 17.6097 21.4377C17.6277 21.0767 17.6458 20.7158 17.6644 20.3439C17.8372 19.8569 18.0941 19.6279 18.4962 19.3224C20.1658 18.03 21.2909 16.1376 21.5814 14.0384C21.6214 13.6434 21.6281 13.2485 21.6292 12.8517C21.6295 12.8122 21.6297 12.7728 21.63 12.7321C21.6319 11.9497 21.5214 11.1904 21.2874 10.4421C21.2733 10.3965 21.2592 10.351 21.2447 10.304C20.9953 9.51982 20.6442 8.82737 20.18 8.14861C20.1592 8.11812 20.1385 8.08764 20.1171 8.05622C18.9793 6.41629 17.255 5.30995 15.2991 4.92889C12.7799 4.52085 10.4607 5.38524 8.64776 7.13689ZM10.0628 22.3127C10.0628 22.6014 10.0628 22.8902 10.0628 23.1877C12.6616 23.1877 15.2603 23.1877 17.9378 23.1877C17.9378 22.8989 17.9378 22.6102 17.9378 22.3127C15.3391 22.3127 12.7403 22.3127 10.0628 22.3127ZM10.9378 24.0627C10.924 24.4896 10.924 24.4896 11.1019 24.8283C11.3511 24.9689 11.6051 24.9535 11.8831 24.9527C11.9591 24.9531 11.9591 24.9531 12.0368 24.9535C12.2041 24.9543 12.3715 24.9543 12.5389 24.9541C12.6554 24.9543 12.772 24.9546 12.8885 24.9548C13.1326 24.9552 13.3768 24.9552 13.6209 24.9549C13.9336 24.9546 14.2463 24.9555 14.559 24.9568C14.7996 24.9576 15.0402 24.9577 15.2809 24.9575C15.3961 24.9575 15.5114 24.9578 15.6267 24.9584C15.788 24.959 15.9492 24.9587 16.1105 24.958C16.1579 24.9585 16.2054 24.9589 16.2543 24.9593C16.5275 24.9569 16.7171 24.9263 16.9534 24.7736C17.1055 24.5317 17.0628 24.371 17.0628 24.0627C15.0416 24.0627 13.0203 24.0627 10.9378 24.0627ZM11.8128 25.8127C11.8661 26.3293 11.8661 26.3293 12.0794 26.527C12.3173 26.6745 12.4916 26.6945 12.7689 26.6965C12.859 26.6973 12.859 26.6973 12.9509 26.6981C13.0156 26.6983 13.0803 26.6985 13.1469 26.6988C13.247 26.6993 13.247 26.6993 13.3492 26.6997C13.4904 26.7002 13.6317 26.7006 13.773 26.7008C13.9886 26.7013 14.2043 26.703 14.42 26.7048C14.5573 26.7051 14.6946 26.7054 14.8319 26.7056C14.8963 26.7063 14.9606 26.707 15.0269 26.7077C15.4326 26.7066 15.7344 26.6894 16.0442 26.404C16.1662 26.2159 16.1662 26.2159 16.1878 25.8127C14.7441 25.8127 13.3003 25.8127 11.8128 25.8127Z" fill="#111111"/>
<path d="M15.0055 6.97106C15.0619 6.97062 15.1183 6.97018 15.1764 6.96973C15.2358 6.97073 15.2953 6.97174 15.3565 6.97277C15.4174 6.97335 15.4782 6.97393 15.5409 6.97453C16.7023 7.00108 16.7023 7.00108 17.0559 7.30859C17.1584 7.52581 17.1406 7.75736 17.1408 7.99303C17.1457 8.17605 17.1534 8.28877 17.2657 8.43673C17.3273 8.48357 17.3273 8.48357 17.3902 8.53136C17.4331 8.56654 17.4759 8.60172 17.5201 8.63796C17.6797 8.74368 17.8047 8.81515 17.9918 8.85949C18.1852 8.78788 18.3285 8.69493 18.4936 8.57195C18.6748 8.46017 18.7669 8.44691 18.9761 8.47668C19.7244 8.87471 20.2044 10.0372 20.48 10.7975C20.5602 11.062 20.6255 11.3194 20.5621 11.5939C20.3729 11.8623 20.0822 11.9925 19.7965 12.1407C19.6966 12.7588 19.6966 12.7588 19.8653 13.3275C20.0569 13.4878 20.2784 13.5753 20.5074 13.672C20.6483 13.9538 20.569 14.2906 20.48 14.5778C20.1845 15.391 19.7224 16.4106 18.9761 16.8986C18.6889 16.9364 18.5639 16.8557 18.337 16.6866C18.1708 16.5754 18.1708 16.5754 17.9918 16.5157C17.7518 16.5726 17.5794 16.6886 17.3902 16.8439C17.349 16.8752 17.3077 16.9065 17.2652 16.9387C17.1123 17.1408 17.1453 17.3702 17.1496 17.6132C17.1462 17.8232 17.1254 17.9261 16.9978 18.0957C16.5468 18.4325 15.9028 18.3923 15.3633 18.399C15.3035 18.4003 15.2436 18.4015 15.1819 18.4027C15.125 18.4026 15.068 18.4024 15.0094 18.4022C14.9584 18.4023 14.9074 18.4024 14.8549 18.4026C14.6603 18.3656 14.5762 18.2968 14.4371 18.1564C14.4031 17.9858 14.4031 17.9858 14.4034 17.7827C14.4031 17.7456 14.4028 17.7085 14.4025 17.6703C14.4019 17.5479 14.4032 17.4257 14.4046 17.3034C14.4047 17.2182 14.4047 17.1331 14.4046 17.048C14.4047 16.8698 14.4057 16.6916 14.4074 16.5133C14.4096 16.2848 14.4098 16.0563 14.4094 15.8278C14.4093 15.6521 14.4099 15.4764 14.4109 15.3007C14.4112 15.2164 14.4114 15.1321 14.4114 15.0479C14.4115 14.9301 14.4126 14.8125 14.4141 14.6948C14.4146 14.6278 14.415 14.5608 14.4155 14.4918C14.4371 14.3282 14.4371 14.3282 14.5105 14.2256C14.7416 14.0689 15.0427 14.111 15.3087 14.1197C15.7022 14.1227 15.9313 14.0139 16.2281 13.7643C16.5934 13.3279 16.6742 12.9203 16.6246 12.3595C16.4979 11.8605 16.241 11.5863 15.8043 11.3204C15.5699 11.2423 15.3365 11.2673 15.0923 11.2775C14.8423 11.2826 14.6919 11.2531 14.4918 11.1017C14.3898 10.9997 14.428 10.829 14.4265 10.6928C14.4259 10.6374 14.4259 10.6374 14.4252 10.5807C14.4238 10.4578 14.4229 10.3349 14.4221 10.2119C14.4218 10.17 14.4215 10.1281 14.4212 10.0849C14.4198 9.86307 14.4187 9.6412 14.4179 9.41933C14.417 9.18999 14.4146 8.9607 14.4118 8.73137C14.4099 8.55521 14.4093 8.37905 14.409 8.20287C14.4086 8.11834 14.4078 8.0338 14.4065 7.94927C14.4048 7.83089 14.4048 7.71263 14.4052 7.59424C14.4047 7.52688 14.4043 7.45953 14.4038 7.39013C14.4371 7.21886 14.4371 7.21886 14.5669 7.0878C14.7286 6.9891 14.8176 6.97198 15.0055 6.97106ZM15.3121 7.87511C15.3121 8.66918 15.3121 9.46324 15.3121 10.2814C15.5286 10.3175 15.7452 10.3536 15.9683 10.3907C16.5771 10.615 17.0602 10.9805 17.3513 11.5734C17.6301 12.2473 17.6505 12.9847 17.4081 13.6735C17.1386 14.2769 16.7386 14.6477 16.1505 14.9255C15.8793 15.0133 15.5933 15.047 15.3121 15.0939C15.3121 15.8879 15.3121 16.682 15.3121 17.5001C15.6008 17.464 15.8896 17.4279 16.1871 17.3907C16.1995 17.2825 16.2119 17.1742 16.2247 17.0626C16.286 16.6899 16.3402 16.4114 16.6558 16.179C17.1195 15.8662 17.6282 15.5242 18.2045 15.6117C18.3648 15.6521 18.5022 15.7284 18.648 15.8048C18.9865 15.692 19.1794 15.1783 19.3369 14.8659C19.4357 14.6526 19.5272 14.4491 19.5777 14.2189C19.5085 14.1743 19.5085 14.1743 19.438 14.1289C19.3781 14.0898 19.3181 14.0507 19.2564 14.0104C19.1968 13.9717 19.1371 13.933 19.0757 13.8931C18.9215 13.7814 18.9215 13.7814 18.8121 13.6173C18.7994 13.4776 18.7928 13.344 18.7918 13.2042C18.791 13.1436 18.791 13.1436 18.7903 13.0818C18.7895 12.9964 18.789 12.9109 18.7888 12.8255C18.7882 12.6953 18.7855 12.5651 18.7827 12.4349C18.7822 12.3518 18.7818 12.2687 18.7815 12.1856C18.7805 12.1469 18.7794 12.1081 18.7783 12.0682C18.7802 11.8549 18.8046 11.767 18.9423 11.6006C19.0744 11.4935 19.2057 11.3951 19.3487 11.3033C19.4135 11.2614 19.4135 11.2614 19.4796 11.2185C19.5282 11.1878 19.5282 11.1878 19.5777 11.1564C19.4009 10.5865 19.1281 10.0405 18.7574 9.57043C18.7202 9.58622 18.6829 9.60201 18.6446 9.61828C18.24 9.77322 17.8998 9.85966 17.4893 9.68301C17.3616 9.61388 17.2396 9.53855 17.1168 9.46105C17.0649 9.43144 17.0131 9.40184 16.9598 9.37133C16.3972 9.03961 16.3972 9.03961 16.2965 8.69543C16.2491 8.45942 16.2144 8.22359 16.1871 7.98449C15.9082 7.89154 15.6051 7.89766 15.3121 7.87511Z" fill="#111111"/>
<path d="M11.3678 6.97631C11.4206 6.97676 11.4733 6.97722 11.5277 6.97768C12.1812 6.99315 12.7213 7.18811 13.234 7.6018C13.2617 7.62263 13.2894 7.64347 13.318 7.66494C13.5526 7.88012 13.5878 8.07173 13.6038 8.38517C13.6069 8.55199 13.6059 8.71862 13.6046 8.88546C13.605 8.97756 13.6056 9.06967 13.6063 9.16178C13.6078 9.41127 13.6072 9.66072 13.6062 9.91021C13.6053 10.1716 13.6061 10.433 13.6066 10.6944C13.6072 11.1334 13.6064 11.5723 13.6049 12.0112C13.6031 12.5183 13.6037 13.0254 13.6055 13.5324C13.607 13.9682 13.6072 14.404 13.6063 14.8398C13.6058 15.0999 13.6057 15.36 13.6068 15.6201C13.6078 15.8647 13.6071 16.1092 13.6052 16.3537C13.6048 16.4433 13.6049 16.533 13.6056 16.6226C13.6112 17.3836 13.6112 17.3836 13.4042 17.6315C13.318 17.7105 13.318 17.7105 13.234 17.7737C13.1876 17.8111 13.1412 17.8485 13.0934 17.8871C12.3024 18.3866 11.4914 18.5034 10.5707 18.3391C9.90207 18.1372 9.30551 17.7043 8.94784 17.0997C8.8495 16.8925 8.79964 16.7083 8.77011 16.4817C8.73797 16.3146 8.70991 16.2556 8.5802 16.1418C8.4844 16.0781 8.38773 16.0157 8.29031 15.9545C7.87523 15.6777 7.61767 15.2433 7.45825 14.7772C7.33566 14.0776 7.44756 13.4535 7.81991 12.8518C7.80144 12.8247 7.78297 12.7975 7.76394 12.7696C7.73955 12.7324 7.71516 12.6952 7.69003 12.657C7.65386 12.6027 7.65386 12.6027 7.61697 12.5474C7.36192 12.0659 7.36681 11.4503 7.47277 10.9249C7.64193 10.4109 7.98655 9.99605 8.42147 9.67992C8.49401 9.64492 8.49401 9.64492 8.56802 9.60921C8.71018 9.52668 8.71018 9.52668 8.72396 9.36739C8.7234 9.30923 8.72284 9.25107 8.72225 9.19115C8.75059 8.56847 8.98446 8.12745 9.41632 7.68276C9.98335 7.18197 10.6204 6.96798 11.3678 6.97631ZM10.1168 8.31273C9.873 8.56678 9.66855 8.86434 9.63827 9.22191C9.64499 9.48747 9.73467 9.62537 9.90829 9.82348C10.1424 10.0384 10.2986 10.0969 10.6158 10.0969C10.7218 10.0856 10.8279 10.0744 10.9371 10.0627C10.9371 10.3695 10.9371 10.6763 10.9371 10.9924C9.84007 10.9997 9.84007 10.9997 9.56649 10.7532C9.47912 10.6528 9.47912 10.6528 9.40585 10.5549C9.3261 10.4609 9.3261 10.4609 9.24179 10.3909C9.0004 10.3972 8.86423 10.4992 8.69491 10.6643C8.41021 11.061 8.3256 11.3781 8.36679 11.8674C8.44871 12.0771 8.44871 12.0771 8.58554 12.2502C8.69489 12.255 8.80442 12.2561 8.91387 12.2556C8.98032 12.2554 9.04676 12.2552 9.11521 12.255C9.18518 12.2546 9.25515 12.2541 9.32724 12.2537C9.4325 12.2533 9.4325 12.2533 9.5399 12.2529C9.71397 12.2523 9.88803 12.2513 10.0621 12.2502C10.0621 12.557 10.0621 12.8638 10.0621 13.1799C9.97842 13.1767 9.89474 13.1736 9.80853 13.1703C9.69823 13.1677 9.58793 13.1653 9.47763 13.1628C9.42253 13.1605 9.36744 13.1582 9.31068 13.1559C8.97726 13.1476 8.97726 13.1476 8.69149 13.3053C8.65653 13.3542 8.62156 13.403 8.58554 13.4534C8.56093 13.4868 8.53633 13.5202 8.51098 13.5546C8.32985 13.893 8.29335 14.2439 8.40289 14.6146C8.52624 14.8902 8.72259 15.1365 8.96835 15.3127C9.09717 15.3698 9.09717 15.3698 9.24179 15.3674C9.40102 15.2932 9.40102 15.2932 9.55282 15.1829C9.60492 15.1475 9.65701 15.1121 9.71069 15.0756C9.77636 15.0306 9.77636 15.0306 9.84335 14.9846C9.96566 14.9235 10.0429 14.9193 10.1787 14.9126C10.2448 14.9092 10.2448 14.9092 10.3123 14.9057C10.3583 14.9035 10.4043 14.9014 10.4517 14.8992C10.4982 14.8968 10.5447 14.8944 10.5925 14.892C10.7074 14.8862 10.8222 14.8807 10.9371 14.8752C10.9371 15.182 10.9371 15.4888 10.9371 15.8049C10.7781 15.7948 10.7781 15.7948 10.6158 15.7844C10.2242 15.7818 9.98656 15.9 9.67929 16.133C9.70031 16.5431 9.95461 16.8698 10.2501 17.1379C10.6501 17.4525 11.086 17.5262 11.5844 17.4885C11.9848 17.4296 12.4289 17.285 12.6871 16.9534C12.7124 16.7952 12.7124 16.7952 12.709 16.6116C12.7097 16.54 12.7104 16.4684 12.7112 16.3946C12.7111 16.315 12.711 16.2355 12.7109 16.1559C12.7114 16.0723 12.712 15.9887 12.7126 15.905C12.7141 15.6777 12.7144 15.4504 12.7145 15.223C12.7147 15.0333 12.7153 14.8436 12.7159 14.6539C12.7172 14.2063 12.7176 13.7587 12.7175 13.3111C12.7174 12.8492 12.7191 12.3874 12.7217 11.9256C12.7239 11.5292 12.7247 11.1328 12.7246 10.7364C12.7246 10.4995 12.7251 10.2628 12.7268 10.026C12.7284 9.80321 12.7284 9.58052 12.7272 9.35777C12.727 9.27605 12.7274 9.19432 12.7284 9.1126C12.7501 8.69507 12.7501 8.69507 12.6162 8.31409C12.5216 8.22727 12.5216 8.22727 12.359 8.14867C12.314 8.1247 12.269 8.10073 12.2227 8.07604C11.4814 7.78923 10.7746 7.82817 10.1168 8.31273Z" fill="#111111"/>
<path d="M21.9844 3.55469C22.1831 3.64743 22.3095 3.75911 22.4629 3.91699C22.5066 3.96169 22.5503 4.00638 22.5953 4.05243C22.6283 4.08669 22.6613 4.12095 22.6953 4.15625C22.6057 4.38573 22.4365 4.53834 22.2642 4.7074C22.2328 4.73865 22.2014 4.7699 22.1691 4.8021C22.069 4.90153 21.9686 5.00057 21.8682 5.09961C21.8001 5.16709 21.7321 5.23459 21.6642 5.30212C21.4977 5.46733 21.331 5.63219 21.1641 5.79688C20.9654 5.70413 20.8389 5.59245 20.6855 5.43457C20.6418 5.38988 20.5981 5.34518 20.5531 5.29913C20.5201 5.26487 20.4871 5.23061 20.4531 5.19531C20.5427 4.96583 20.712 4.81322 20.8842 4.64417C20.9156 4.61291 20.947 4.58166 20.9794 4.54947C21.0794 4.45004 21.1798 4.35099 21.2803 4.25195C21.3483 4.18447 21.4163 4.11697 21.4843 4.04944C21.6507 3.88423 21.8174 3.71937 21.9844 3.55469Z" fill="#111111"/>
<path d="M5.90625 3.55469C6.13573 3.64425 6.28834 3.81354 6.4574 3.98578C6.48865 4.01718 6.5199 4.04859 6.5521 4.08095C6.65153 4.18099 6.75057 4.2814 6.84961 4.38184C6.91709 4.44986 6.98459 4.51787 7.05212 4.58585C7.21733 4.75226 7.38219 4.91901 7.54688 5.08594C7.45413 5.28462 7.34245 5.41108 7.18457 5.56445C7.13988 5.60816 7.09518 5.65187 7.04913 5.6969C7.01487 5.72989 6.98061 5.76288 6.94531 5.79688C6.71583 5.70731 6.56322 5.53803 6.39417 5.36578C6.36291 5.33438 6.33166 5.30297 6.29947 5.27062C6.20004 5.17057 6.10099 5.07016 6.00195 4.96973C5.93447 4.9017 5.86697 4.83369 5.79944 4.76572C5.63423 4.5993 5.46937 4.43256 5.30469 4.26562C5.39743 4.06694 5.50911 3.94048 5.66699 3.78711C5.71169 3.7434 5.75638 3.69969 5.80243 3.65466C5.85382 3.60518 5.85382 3.60518 5.90625 3.55469Z" fill="#111111"/>
<path d="M23.625 11.8125C24.3469 11.8125 25.0688 11.8125 25.8125 11.8125C25.8125 12.1013 25.8125 12.39 25.8125 12.6875C25.0906 12.6875 24.3688 12.6875 23.625 12.6875C23.625 12.3988 23.625 12.11 23.625 11.8125Z" fill="#111111"/>
<path d="M2.1875 11.8125C2.90938 11.8125 3.63125 11.8125 4.375 11.8125C4.375 12.1013 4.375 12.39 4.375 12.6875C3.65313 12.6875 2.93125 12.6875 2.1875 12.6875C2.1875 12.3988 2.1875 12.11 2.1875 11.8125Z" fill="#111111"/>
<path d="M13.5625 0.4375C13.8513 0.4375 14.14 0.4375 14.4375 0.4375C14.4375 1.15938 14.4375 1.88125 14.4375 2.625C14.1488 2.625 13.86 2.625 13.5625 2.625C13.5625 1.90313 13.5625 1.18125 13.5625 0.4375Z" fill="#111111"/>
<path d="M11.375 14.875C11.6638 14.875 11.9525 14.875 12.25 14.875C12.25 15.1818 12.25 15.4886 12.25 15.8047C11.9613 15.8047 11.6725 15.8047 11.375 15.8047C11.375 15.4979 11.375 15.1911 11.375 14.875Z" fill="#111111"/>
<path d="M10.5 12.25C10.7888 12.25 11.0775 12.25 11.375 12.25C11.375 12.5568 11.375 12.8636 11.375 13.1797C11.0863 13.1797 10.7975 13.1797 10.5 13.1797C10.5 12.8729 10.5 12.5661 10.5 12.25Z" fill="#111111"/>
<path d="M11.375 10.0625C11.6638 10.0625 11.9525 10.0625 12.25 10.0625C12.25 10.3693 12.25 10.6761 12.25 10.9922C11.9613 10.9922 11.6725 10.9922 11.375 10.9922C11.375 10.6854 11.375 10.3786 11.375 10.0625Z" fill="#111111"/>
</svg>
