<svg width="52" height="52" viewBox="0 0 52 52" fill="none" xmlns="http://www.w3.org/2000/svg">
<path d="M25.9683 7.28085C26.0444 7.28103 26.1205 7.28122 26.1989 7.28141C27.3433 7.28609 28.4409 7.33854 29.5548 7.61727C29.6245 7.63416 29.6943 7.65105 29.7662 7.66845C32.0297 8.22798 34.2103 9.31461 35.9532 10.8673C36.0359 10.9378 36.1187 11.0084 36.2039 11.0811C39.4103 13.8664 41.3298 17.7389 41.8438 21.9376C41.8553 22.2204 41.8628 22.5006 41.8645 22.7834C41.8652 22.8629 41.8659 22.9423 41.8666 23.0242C41.8901 26.3603 41.8901 26.3603 41.5391 27.7266C41.5178 27.8134 41.4965 27.9001 41.4746 27.9894C40.7345 30.9152 39.2971 33.4339 37.2735 35.6485C37.1976 35.7318 37.1216 35.8151 37.0434 35.9008C36.5483 36.4179 36.0045 36.8566 35.4323 37.2845C35.0128 37.6022 34.6177 37.9068 34.4571 38.4288C34.4236 38.7556 34.4047 39.0778 34.398 39.4063C34.3942 39.5278 34.3904 39.6493 34.3865 39.7745C34.4375 40.1786 34.5622 40.3319 34.836 40.6251C35.0665 41.0861 34.9655 41.7186 34.9693 42.2247C34.9723 42.3543 34.9752 42.4839 34.9782 42.6175C34.9863 43.8058 34.9863 43.8058 34.5313 44.2813C34.1022 44.6358 33.8595 44.7074 33.3126 44.6876C33.3173 44.7881 33.322 44.8887 33.3269 44.9923C33.3756 46.4512 33.3756 46.4512 32.9063 47.0235C32.5428 47.4042 32.22 47.7421 31.6876 47.836C31.6964 47.9613 31.6964 47.9613 31.7054 48.0891C31.743 49.0188 31.6206 49.6747 30.9937 50.3818C30.0908 51.2348 29.131 51.2347 27.9524 51.2316C27.7963 51.2321 27.6403 51.2326 27.4842 51.2332C27.1582 51.2341 26.8322 51.2339 26.5062 51.2329C26.0905 51.2317 25.6749 51.2338 25.2592 51.2367C24.9372 51.2386 24.6153 51.2386 24.2933 51.238C24.1402 51.238 23.987 51.2386 23.8338 51.2399C22.7236 51.2477 21.8194 51.14 20.9803 50.3556C20.3729 49.6578 20.258 48.9973 20.2947 48.0891C20.3006 48.0056 20.3065 47.9221 20.3126 47.836C20.2374 47.8092 20.1623 47.7823 20.0848 47.7547C19.533 47.5147 19.1206 47.1145 18.7891 46.6173C18.5747 46.0258 18.666 45.309 18.6876 44.6876C18.5936 44.691 18.4996 44.6944 18.4027 44.6979C17.879 44.6813 17.6004 44.4206 17.2506 44.0504C16.9125 43.5239 17.0044 42.8507 17.0118 42.2501C17.0094 42.0584 17.0094 42.0584 17.007 41.8629C17.0102 41.112 17.0298 40.6579 17.5704 40.1173C17.5834 39.8726 17.5892 39.6321 17.5894 39.3873C17.5909 39.2539 17.5923 39.1205 17.5938 38.983C17.5649 38.5032 17.5096 38.1462 17.1867 37.7794C17.1143 37.7193 17.0419 37.6592 16.9674 37.5973C16.8855 37.5281 16.8037 37.459 16.7194 37.3878C16.5413 37.2434 16.3628 37.0995 16.1838 36.9561C12.9226 34.336 10.7253 30.4713 10.1869 26.3056C9.71606 21.5975 10.7757 16.9915 13.7455 13.2474C15.9092 10.6239 18.6371 8.73964 21.9058 7.78866C21.9902 7.76402 22.0745 7.73938 22.1614 7.714C23.4224 7.36497 24.6669 7.27427 25.9683 7.28085ZM16.0596 13.254C13.1452 16.2731 11.7415 20.3186 11.7813 24.4766C11.9145 28.1651 13.3867 31.6695 15.9454 34.3282C15.9906 34.3761 16.0359 34.424 16.0826 34.4733C16.6409 35.0623 17.2065 35.5946 17.8624 36.0738C18.4922 36.5352 18.9458 37.0326 19.1954 37.7813C19.2457 38.7868 19.2457 38.7868 19.2969 39.8126C23.721 39.8126 28.1451 39.8126 32.7032 39.8126C32.7367 39.1423 32.7702 38.472 32.8048 37.7813C33.1257 36.8768 33.6028 36.4515 34.3496 35.8842C37.4503 33.484 39.5397 29.9696 40.0792 26.071C40.1536 25.3374 40.166 24.6042 40.168 23.8673C40.1685 23.7939 40.169 23.7206 40.1695 23.645C40.1731 22.192 39.9679 20.782 39.5333 19.3922C39.5071 19.3076 39.481 19.223 39.454 19.1358C38.9908 17.6794 38.3387 16.3934 37.4766 15.1329C37.4381 15.0763 37.3995 15.0196 37.3598 14.9613C35.2468 11.9157 32.0444 9.8611 28.4122 9.1534C23.7337 8.39562 19.4265 10.0009 16.0596 13.254ZM18.6876 41.4376C18.6876 41.9738 18.6876 42.5101 18.6876 43.0626C23.5138 43.0626 28.3401 43.0626 33.3126 43.0626C33.3126 42.5263 33.3126 41.9901 33.3126 41.4376C28.4863 41.4376 23.6601 41.4376 18.6876 41.4376ZM20.3126 44.6876C20.2869 45.4805 20.2869 45.4805 20.6173 46.1095C21.0802 46.3706 21.5518 46.3419 22.0681 46.3405C22.2094 46.3413 22.2094 46.3413 22.3535 46.3421C22.6644 46.3435 22.9752 46.3434 23.2861 46.3431C23.5025 46.3435 23.7189 46.344 23.9353 46.3445C24.3887 46.3452 24.8421 46.3452 25.2956 46.3446C25.8763 46.3441 26.4569 46.3458 27.0376 46.3481C27.4845 46.3496 27.9314 46.3497 28.3783 46.3494C28.5923 46.3495 28.8064 46.35 29.0205 46.351C29.32 46.3523 29.6194 46.3516 29.9189 46.3504C30.0071 46.3512 30.0953 46.352 30.1861 46.3528C30.6935 46.3483 31.0456 46.2914 31.4844 46.0079C31.7669 45.5586 31.6876 45.2603 31.6876 44.6876C27.9338 44.6876 24.1801 44.6876 20.3126 44.6876ZM21.9376 47.9376C22.0365 48.8971 22.0365 48.8971 22.4327 49.2642C22.8744 49.5381 23.1983 49.5753 23.7133 49.5789C23.8806 49.5804 23.8806 49.5804 24.0513 49.5819C24.1713 49.5823 24.2914 49.5828 24.4151 49.5832C24.6011 49.5841 24.6011 49.5841 24.7908 49.585C25.0532 49.5859 25.3155 49.5866 25.5779 49.587C25.9784 49.588 26.3789 49.5911 26.7794 49.5943C27.0345 49.595 27.2895 49.5955 27.5445 49.5959C27.664 49.5972 27.7835 49.5984 27.9065 49.5997C28.6601 49.5977 29.2205 49.5658 29.796 49.0357C30.0225 48.6865 30.0225 48.6865 30.0626 47.9376C27.3813 47.9376 24.7001 47.9376 21.9376 47.9376Z" fill="#111111"/>
<path d="M27.8682 12.9461C27.973 12.9453 28.0777 12.9444 28.1856 12.9436C28.296 12.9455 28.4063 12.9473 28.5201 12.9493C28.6331 12.9503 28.7461 12.9514 28.8625 12.9525C31.0193 13.0018 31.0193 13.0018 31.676 13.5729C31.8664 13.9763 31.8333 14.4063 31.8337 14.844C31.8429 15.1839 31.8571 15.3933 32.0656 15.668C32.1801 15.755 32.1801 15.755 32.2969 15.8438C32.3765 15.9091 32.4561 15.9744 32.5381 16.0418C32.8346 16.2381 33.0667 16.3708 33.4141 16.4532C33.7733 16.3202 34.0394 16.1476 34.346 15.9192C34.6826 15.7116 34.8537 15.6869 35.2422 15.7422C36.6319 16.4814 37.5232 18.6403 38.0352 20.0523C38.184 20.5435 38.3053 21.0216 38.1876 21.5313C37.8363 22.0298 37.2963 22.2716 36.7657 22.5469C36.5803 23.6947 36.5803 23.6947 36.8936 24.7508C37.2494 25.0487 37.6606 25.211 38.086 25.3907C38.3477 25.914 38.2003 26.5396 38.0352 27.0728C37.4864 28.583 36.6282 30.4766 35.2422 31.3828C34.7087 31.4531 34.4767 31.3033 34.0552 30.9893C33.7466 30.7828 33.7466 30.7828 33.4141 30.6719C32.9685 30.7775 32.6482 30.993 32.2969 31.2813C32.2203 31.3394 32.1437 31.3975 32.0648 31.4574C31.7807 31.8328 31.8422 32.2588 31.85 32.7101C31.8438 33.1001 31.8052 33.2912 31.5681 33.6061C30.7307 34.2316 29.5346 34.157 28.5328 34.1695C28.4216 34.1717 28.3104 34.174 28.1958 34.1763C28.0901 34.176 27.9843 34.1757 27.8754 34.1754C27.7807 34.1756 27.6861 34.1758 27.5885 34.176C27.2271 34.1073 27.0709 33.9796 26.8126 33.7188C26.7494 33.4021 26.7494 33.4021 26.7501 33.0249C26.7495 32.956 26.7489 32.8871 26.7484 32.8161C26.7472 32.5888 26.7496 32.3618 26.7522 32.1346C26.7524 31.9766 26.7524 31.8185 26.7522 31.6604C26.7524 31.3294 26.7543 30.9984 26.7575 30.6674C26.7615 30.243 26.762 29.8187 26.7612 29.3942C26.7609 29.0679 26.7621 28.7417 26.7639 28.4154C26.7646 28.2589 26.7649 28.1023 26.7648 27.9458C26.765 27.7272 26.7672 27.5088 26.7699 27.2902C26.7708 27.1658 26.7716 27.0414 26.7725 26.9132C26.8126 26.6094 26.8126 26.6094 26.9489 26.4189C27.378 26.1278 27.9373 26.206 28.4312 26.2222C29.1621 26.2277 29.5875 26.0256 30.1387 25.562C30.8172 24.7516 30.9673 23.9947 30.8751 22.9532C30.6399 22.0265 30.1628 21.5172 29.3516 21.0235C28.9163 20.8784 28.4829 20.9247 28.0293 20.9437C27.5651 20.9532 27.2859 20.8985 26.9141 20.6172C26.7248 20.4279 26.7956 20.1109 26.793 19.858C26.7917 19.7549 26.7917 19.7549 26.7904 19.6498C26.7879 19.4215 26.7862 19.1932 26.7848 18.9649C26.7842 18.887 26.7837 18.8092 26.7831 18.729C26.7804 18.3169 26.7785 17.9049 26.777 17.4929C26.7753 17.067 26.7708 16.6411 26.7656 16.2152C26.7622 15.8881 26.761 15.5609 26.7604 15.2337C26.7597 15.0767 26.7582 14.9197 26.7558 14.7628C26.7525 14.5429 26.7525 14.3233 26.7533 14.1034C26.7525 13.9783 26.7516 13.8532 26.7508 13.7244C26.8126 13.4063 26.8126 13.4063 27.0536 13.1629C27.3539 12.9796 27.5193 12.9478 27.8682 12.9461ZM28.4376 14.625C28.4376 16.0997 28.4376 17.5744 28.4376 19.0938C28.8397 19.1608 29.2419 19.2279 29.6563 19.2969C30.7869 19.7135 31.684 20.3921 32.2247 21.4932C32.7425 22.7448 32.7804 24.1143 32.3303 25.3934C31.8296 26.514 31.0869 27.2027 29.9947 27.7187C29.491 27.8816 28.9598 27.9443 28.4376 28.0313C28.4376 29.506 28.4376 30.9807 28.4376 32.5C28.9738 32.433 29.5101 32.366 30.0626 32.2969C30.0856 32.0958 30.1086 31.8947 30.1324 31.6875C30.2462 30.9954 30.3469 30.4781 30.9331 30.0466C31.7942 29.4656 32.739 28.8306 33.8093 28.993C34.1069 29.0679 34.362 29.2097 34.6329 29.3516C35.2614 29.1421 35.6197 28.1881 35.9123 27.608C36.0957 27.2118 36.2656 26.8339 36.3594 26.4063C36.231 26.3236 36.231 26.3236 36.1 26.2393C35.9887 26.1666 35.8774 26.0939 35.7627 26.0191C35.652 25.9472 35.5412 25.8753 35.4271 25.8013C35.1407 25.5938 35.1407 25.5938 34.9376 25.2891C34.914 25.0297 34.9018 24.7815 34.8999 24.5218C34.8985 24.4093 34.8985 24.4093 34.8971 24.2945C34.8956 24.1359 34.8947 23.9773 34.8943 23.8187C34.8931 23.5767 34.8881 23.3351 34.883 23.0932C34.882 22.9389 34.8813 22.7846 34.8808 22.6302C34.8788 22.5583 34.8769 22.4863 34.8748 22.4122C34.8784 22.0161 34.9236 21.8529 35.1794 21.5439C35.4246 21.345 35.6685 21.1622 35.9341 20.9917C36.0545 20.9138 36.0545 20.9138 36.1773 20.8342C36.2675 20.7771 36.2675 20.7771 36.3594 20.7188C36.0311 19.6605 35.5244 18.6464 34.836 17.7735C34.7669 17.8028 34.6977 17.8321 34.6265 17.8623C33.8752 18.1501 33.2433 18.3106 32.481 17.9826C32.2438 17.8542 32.0172 17.7143 31.7891 17.5704C31.6929 17.5154 31.5967 17.4604 31.4975 17.4037C30.4527 16.7877 30.4527 16.7877 30.2657 16.1485C30.1778 15.7102 30.1133 15.2722 30.0626 14.8282C29.5447 14.6555 28.9818 14.6669 28.4376 14.625Z" fill="#111111"/>
<path d="M21.1122 12.9555C21.2102 12.9564 21.3083 12.9572 21.4093 12.9581C22.6229 12.9868 23.626 13.3489 24.578 14.1171C24.6295 14.1558 24.681 14.1945 24.734 14.2344C25.1697 14.634 25.2352 14.9899 25.2648 15.572C25.2706 15.8818 25.2687 16.1912 25.2662 16.5011C25.2671 16.6721 25.2681 16.8432 25.2695 17.0142C25.2722 17.4776 25.2712 17.9408 25.2692 18.4042C25.2677 18.8897 25.2691 19.3751 25.2701 19.8606C25.2712 20.6758 25.2697 21.4909 25.2668 22.3061C25.2635 23.2478 25.2646 24.1895 25.2679 25.1312C25.2707 25.9405 25.2711 26.7498 25.2695 27.5592C25.2686 28.0422 25.2684 28.5252 25.2704 29.0082C25.2722 29.4624 25.271 29.9165 25.2675 30.3707C25.2667 30.5371 25.2669 30.7036 25.2682 30.87C25.2786 32.2833 25.2786 32.2833 24.8941 32.7437C24.734 32.8905 24.734 32.8905 24.578 33.0078C24.4919 33.0773 24.4057 33.1468 24.317 33.2184C22.848 34.1461 21.3418 34.363 19.632 34.0579C18.3902 33.6829 17.2823 32.8789 16.618 31.7561C16.4354 31.3713 16.3428 31.0293 16.288 30.6083C16.2283 30.2981 16.1762 30.1884 15.9353 29.9771C15.7574 29.8588 15.5778 29.7429 15.3969 29.6292C14.6261 29.1153 14.1477 28.3084 13.8517 27.4428C13.624 26.1436 13.8318 24.9846 14.5233 23.8671C14.489 23.8167 14.4547 23.7663 14.4194 23.7144C14.3741 23.6454 14.3288 23.5764 14.2821 23.5053C14.2149 23.4046 14.2149 23.4046 14.1464 23.3018C13.6728 22.4076 13.6818 21.2644 13.8786 20.2886C14.1928 19.3341 14.8328 18.5636 15.6405 17.9765C15.7752 17.9115 15.7752 17.9115 15.9127 17.8452C16.1767 17.6919 16.1767 17.6919 16.2023 17.3961C16.2012 17.2881 16.2002 17.1801 16.1991 17.0688C16.2517 15.9124 16.6861 15.0933 17.4881 14.2675C18.5411 13.3375 19.7243 12.94 21.1122 12.9555ZM18.7889 15.4374C18.3362 15.9092 17.9565 16.4619 17.9003 17.1259C17.9127 17.6191 18.0793 17.8752 18.4017 18.2431C18.8365 18.6423 19.1266 18.7509 19.7157 18.7509C19.9126 18.73 20.1095 18.709 20.3124 18.6874C20.3124 19.2572 20.3124 19.827 20.3124 20.414C18.275 20.4276 18.275 20.4276 17.767 19.9697C17.6047 19.7832 17.6047 19.7832 17.4686 19.6015C17.3205 19.4269 17.3205 19.4269 17.1639 19.2968C16.7156 19.3086 16.4628 19.4981 16.1483 19.8046C15.6196 20.5413 15.4625 21.1302 15.5389 22.039C15.6911 22.4284 15.6911 22.4284 15.9452 22.7499C16.1483 22.7588 16.3517 22.7608 16.555 22.7599C16.6784 22.7595 16.8018 22.7592 16.9289 22.7589C17.0588 22.758 17.1888 22.7572 17.3226 22.7563C17.5181 22.7556 17.5181 22.7556 17.7176 22.7549C18.0408 22.7537 18.3641 22.7519 18.6874 22.7499C18.6874 23.3197 18.6874 23.8895 18.6874 24.4765C18.532 24.4706 18.3766 24.4647 18.2165 24.4587C18.0116 24.4539 17.8068 24.4493 17.6019 24.4448C17.4996 24.4405 17.3973 24.4363 17.2919 24.4319C16.6727 24.4165 16.6727 24.4165 16.142 24.7094C16.077 24.8001 16.0121 24.8908 15.9452 24.9843C15.8995 25.0464 15.8538 25.1084 15.8067 25.1724C15.4704 25.8008 15.4026 26.4524 15.606 27.1409C15.8351 27.6527 16.1997 28.1101 16.6561 28.4374C16.8954 28.5434 16.8954 28.5434 17.1639 28.539C17.4597 28.4012 17.4597 28.4012 17.7416 28.1962C17.8383 28.1305 17.9351 28.0648 18.0348 27.9971C18.1567 27.9134 18.1567 27.9134 18.2811 27.8281C18.5083 27.7145 18.6517 27.7068 18.904 27.6944C19.0267 27.688 19.0267 27.688 19.152 27.6815C19.2374 27.6775 19.3229 27.6735 19.411 27.6694C19.4973 27.665 19.5836 27.6606 19.6725 27.6561C19.8857 27.6453 20.0991 27.6351 20.3124 27.6249C20.3124 28.1947 20.3124 28.7645 20.3124 29.3515C20.017 29.3327 20.017 29.3327 19.7157 29.3134C18.9885 29.3086 18.5471 29.5281 17.9764 29.9609C18.0155 30.7223 18.4878 31.3291 19.0365 31.8271C19.7793 32.4113 20.589 32.5482 21.5145 32.4781C22.2581 32.3688 23.0828 32.1003 23.5624 31.4843C23.6094 31.1905 23.6094 31.1905 23.6031 30.8496C23.6044 30.7166 23.6057 30.5836 23.6071 30.4466C23.607 30.2989 23.6068 30.1511 23.6066 30.0034C23.6076 29.8481 23.6086 29.6928 23.6097 29.5374C23.6124 29.1152 23.6132 28.693 23.6133 28.2708C23.6136 27.9185 23.6148 27.5662 23.6158 27.2138C23.6183 26.3826 23.6191 25.5513 23.6188 24.72C23.6187 23.8623 23.6219 23.0047 23.6267 22.147C23.6307 21.4108 23.6323 20.6746 23.6321 19.9384C23.632 19.4987 23.6329 19.0589 23.6361 18.6191C23.6391 18.2055 23.6391 17.7919 23.6369 17.3782C23.6366 17.2265 23.6373 17.0747 23.6391 16.9229C23.6793 16.1475 23.6793 16.1475 23.4307 15.44C23.255 15.2787 23.255 15.2787 22.953 15.1328C22.8695 15.0882 22.786 15.0437 22.6999 14.9979C21.3231 14.4652 20.0105 14.5375 18.7889 15.4374Z" fill="#111111"/>
<path d="M40.8281 6.60156C41.1971 6.7738 41.432 6.9812 41.7168 7.27441C41.798 7.35742 41.8791 7.44042 41.9628 7.52594C42.024 7.58957 42.0853 7.65319 42.1484 7.71875C41.9821 8.14493 41.6677 8.42834 41.3478 8.74231C41.2895 8.80035 41.2312 8.85838 41.1711 8.91818C40.9853 9.10284 40.7988 9.28677 40.6123 9.4707C40.486 9.59602 40.3597 9.72139 40.2334 9.8468C39.9244 10.1536 39.6147 10.4598 39.3047 10.7656C38.9357 10.5934 38.7008 10.386 38.416 10.0928C38.3348 10.0098 38.2537 9.92677 38.17 9.84125C38.1088 9.77762 38.0475 9.71399 37.9844 9.64844C38.1507 9.22225 38.4651 8.93884 38.785 8.62488C38.8433 8.56684 38.9016 8.5088 38.9617 8.44901C39.1475 8.26435 39.334 8.08041 39.5205 7.89648C39.6468 7.77117 39.7731 7.6458 39.8994 7.52039C40.2084 7.21357 40.5181 6.9074 40.8281 6.60156Z" fill="#111111"/>
<path d="M10.9688 6.60156C11.3949 6.7679 11.6783 7.08228 11.9923 7.40216C12.0503 7.46048 12.1084 7.51881 12.1682 7.5789C12.3528 7.76469 12.5368 7.95118 12.7207 8.1377C12.846 8.26403 12.9714 8.39033 13.0968 8.51657C13.4036 8.82562 13.7098 9.1353 14.0156 9.44531C13.8434 9.81429 13.636 10.0492 13.3428 10.334C13.2598 10.4152 13.1768 10.4963 13.0912 10.58C13.0276 10.6412 12.964 10.7025 12.8984 10.7656C12.4723 10.5993 12.1888 10.2849 11.8749 9.96503C11.8168 9.9067 11.7588 9.84838 11.699 9.78829C11.5144 9.60249 11.3304 9.41601 11.1465 9.22949C11.0212 9.10315 10.8958 8.97686 10.7704 8.85062C10.4636 8.54157 10.1574 8.23189 9.85156 7.92188C10.0238 7.5529 10.2312 7.31804 10.5244 7.0332C10.6074 6.95203 10.6904 6.87086 10.7759 6.78723C10.8714 6.69533 10.8714 6.69533 10.9688 6.60156Z" fill="#111111"/>
<path d="M43.875 21.9375C45.2156 21.9375 46.5562 21.9375 47.9375 21.9375C47.9375 22.4738 47.9375 23.01 47.9375 23.5625C46.5969 23.5625 45.2563 23.5625 43.875 23.5625C43.875 23.0262 43.875 22.49 43.875 21.9375Z" fill="#111111"/>
<path d="M4.0625 21.9375C5.40312 21.9375 6.74375 21.9375 8.125 21.9375C8.125 22.4738 8.125 23.01 8.125 23.5625C6.78438 23.5625 5.44375 23.5625 4.0625 23.5625C4.0625 23.0262 4.0625 22.49 4.0625 21.9375Z" fill="#111111"/>
<path d="M25.1875 0.8125C25.7238 0.8125 26.26 0.8125 26.8125 0.8125C26.8125 2.15312 26.8125 3.49375 26.8125 4.875C26.2762 4.875 25.74 4.875 25.1875 4.875C25.1875 3.53438 25.1875 2.19375 25.1875 0.8125Z" fill="#111111"/>
<path d="M21.125 27.625C21.6613 27.625 22.1975 27.625 22.75 27.625C22.75 28.1948 22.75 28.7645 22.75 29.3516C22.2137 29.3516 21.6775 29.3516 21.125 29.3516C21.125 28.7818 21.125 28.212 21.125 27.625Z" fill="#111111"/>
<path d="M19.5 22.75C20.0363 22.75 20.5725 22.75 21.125 22.75C21.125 23.3198 21.125 23.8895 21.125 24.4766C20.5887 24.4766 20.0525 24.4766 19.5 24.4766C19.5 23.9068 19.5 23.337 19.5 22.75Z" fill="#111111"/>
<path d="M21.125 18.6875C21.6613 18.6875 22.1975 18.6875 22.75 18.6875C22.75 19.2573 22.75 19.827 22.75 20.4141C22.2137 20.4141 21.6775 20.4141 21.125 20.4141C21.125 19.8443 21.125 19.2745 21.125 18.6875Z" fill="#111111"/>
</svg>
