<svg width="16" height="15" viewBox="0 0 16 15" fill="none" xmlns="http://www.w3.org/2000/svg">
<g opacity="0.5" clip-path="url(#clip0_1681_2472)">
<path fill-rule="evenodd" clip-rule="evenodd" d="M5.3286 12.9603C10.7624 12.9603 13.7346 8.52765 13.7346 4.68415C13.7346 4.55797 13.7346 4.43274 13.726 4.30798C14.3041 3.89683 14.8031 3.38634 15.1998 2.80224C14.6612 3.03758 14.0888 3.19192 13.5035 3.25997C14.1198 2.89632 14.5813 2.325 14.8024 1.65087C14.222 1.98971 13.5877 2.22885 12.926 2.35716C11.8072 1.1861 9.93588 1.12936 8.74572 2.23095C7.97892 2.94123 7.65276 4.00026 7.89108 5.0104C5.5158 4.89273 3.30252 3.78833 1.80204 1.97149C1.01796 3.30062 1.419 5.00032 2.71716 5.8538C2.247 5.84033 1.78692 5.7157 1.3758 5.49028V5.5272C1.37652 6.91163 2.36796 8.10369 3.74604 8.37802C3.31116 8.49498 2.85468 8.51194 2.4126 8.42759C2.79924 9.61282 3.90876 10.4246 5.17236 10.448C4.1262 11.2575 2.8338 11.6971 1.50324 11.6957C1.26852 11.695 1.0338 11.6815 0.799805 11.6539C2.15124 12.5074 3.723 12.9603 5.3286 12.9582" fill="#111111"/>
</g>
<defs>
<clipPath id="clip0_1681_2472">
<rect width="14.4" height="14.4" fill="white" transform="translate(0.799805)"/>
</clipPath>
</defs>
</svg>
