<svg width="18" height="18" viewBox="0 0 18 18" fill="none" xmlns="http://www.w3.org/2000/svg">
<path fill-rule="evenodd" clip-rule="evenodd" d="M5.661 16.1998C12.4533 16.1998 16.1685 10.659 16.1685 5.85464C16.1685 5.69691 16.1685 5.54037 16.1577 5.38442C16.8804 4.87049 17.5041 4.23238 18 3.50224C17.3268 3.79643 16.6113 3.98935 15.8796 4.07441C16.65 3.61985 17.2269 2.90571 17.5032 2.06304C16.7778 2.48658 15.9849 2.78551 15.1578 2.9459C13.7592 1.48207 11.4201 1.41115 9.9324 2.78813C8.9739 3.67599 8.5662 4.99978 8.8641 6.26245C5.895 6.11536 3.1284 4.73486 1.2528 2.46382C0.2727 4.12523 0.774 6.24985 2.3967 7.3167C1.809 7.29986 1.2339 7.14408 0.72 6.8623V6.90845C0.7209 8.63898 1.9602 10.1291 3.6828 10.472C3.1392 10.6182 2.5686 10.6394 2.016 10.5339C2.4993 12.0155 3.8862 13.0302 5.4657 13.0595C4.158 14.0714 2.5425 14.6209 0.8793 14.6191C0.5859 14.6182 0.2925 14.6013 0 14.5668C1.6893 15.6336 3.654 16.1998 5.661 16.1972" fill="#333333"/>
</svg>
