<svg width="13" height="12" viewBox="0 0 13 12" fill="none" xmlns="http://www.w3.org/2000/svg">
<g clip-path="url(#clip0_401_5362)">
<path fill-rule="evenodd" clip-rule="evenodd" d="M4.41755 10.8001C8.94576 10.8001 11.4226 7.10621 11.4226 3.9033C11.4226 3.79815 11.4226 3.69379 11.4154 3.58982C11.8972 3.24719 12.313 2.82179 12.6436 2.33503C12.1948 2.53116 11.7178 2.65977 11.23 2.71648C11.7436 2.41344 12.1282 1.93734 12.3124 1.37556C11.8288 1.65793 11.3002 1.85721 10.7488 1.96413C9.81635 0.988253 8.25696 0.940971 7.26516 1.85896C6.62615 2.45087 6.35435 3.33339 6.55295 4.17517C4.57355 4.07711 2.72916 3.15678 1.47875 1.64275C0.825355 2.75035 1.15955 4.16677 2.24135 4.878C1.84955 4.86678 1.46615 4.76292 1.12355 4.57507V4.60583C1.12415 5.75953 1.95035 6.75291 3.09875 6.98152C2.73635 7.07899 2.35595 7.09312 1.98755 7.02283C2.30975 8.01052 3.23435 8.68702 4.28735 8.70652C3.41555 9.38113 2.33855 9.74744 1.22975 9.74626C1.03415 9.74567 0.838555 9.73444 0.643555 9.7114C1.76975 10.4226 3.07955 10.8001 4.41755 10.7983" fill="#666666"/>
</g>
<defs>
<clipPath id="clip0_401_5362">
<rect width="12" height="12" fill="white" transform="translate(0.643555)"/>
</clipPath>
</defs>
</svg>
