<svg width="15" height="12" viewBox="0 0 15 12" fill="none" xmlns="http://www.w3.org/2000/svg">
<path fill-rule="evenodd" clip-rule="evenodd" d="M4.5288 11.5199C9.96264 11.5199 12.9348 7.08722 12.9348 3.24372C12.9348 3.11754 12.9348 2.99231 12.9262 2.86755C13.5043 2.4564 14.0033 1.94591 14.4 1.36181C13.8614 1.59715 13.289 1.75149 12.7037 1.81954C13.32 1.45589 13.7815 0.884574 14.0026 0.210438C13.4222 0.549277 12.7879 0.788416 12.1262 0.916727C11.0074 -0.254331 9.13608 -0.311069 7.94592 0.790516C7.17912 1.5008 6.85296 2.55983 7.09128 3.56997C4.716 3.4523 2.50272 2.3479 1.00224 0.531063C0.21816 1.86019 0.6192 3.55989 1.91736 4.41337C1.4472 4.3999 0.98712 4.27527 0.576 4.04985V4.08677C0.57672 5.4712 1.56816 6.66326 2.94624 6.93759C2.51136 7.05455 2.05488 7.07151 1.6128 6.98716C1.99944 8.17239 3.10896 8.98419 4.37256 9.00759C3.3264 9.81712 2.034 10.2567 0.70344 10.2553C0.46872 10.2546 0.234 10.2411 0 10.2134C1.35144 11.0669 2.9232 11.5199 4.5288 11.5177" fill="#888888"/>
</svg>
