<svg width="10" height="10" viewBox="0 0 10 10" fill="none" xmlns="http://www.w3.org/2000/svg">
<g clip-path="url(#clip0_2023_2095)">
<path d="M3.08122 -0.0022116C3.11645 -0.0023422 3.11645 -0.0023422 3.1524 -0.00247544C3.17861 -0.00247369 3.20481 -0.00246998 3.23101 -0.00246453C3.25875 -0.00252895 3.28648 -0.00260172 3.31421 -0.00268213C3.39061 -0.00287798 3.467 -0.00295045 3.54339 -0.00300224C3.62571 -0.00307842 3.70804 -0.0032655 3.79036 -0.00343608C3.98925 -0.00382222 4.18815 -0.00401872 4.38705 -0.00419248C4.48068 -0.00427807 4.57432 -0.00438289 4.66796 -0.00448523C4.97918 -0.00481752 5.29039 -0.00510061 5.60161 -0.00524205C5.68239 -0.00527935 5.76317 -0.00531686 5.84395 -0.00535505C5.87407 -0.00536922 5.87407 -0.00536922 5.90479 -0.00538368C6.23009 -0.00554583 6.55539 -0.00604073 6.88069 -0.00667499C7.21458 -0.00732068 7.54846 -0.00767267 7.88235 -0.0077351C8.06985 -0.0077774 8.25735 -0.00794857 8.44486 -0.00844723C8.60453 -0.0088709 8.7642 -0.00902857 8.92388 -0.0088385C9.00535 -0.00874965 9.08681 -0.00878727 9.16827 -0.00916588C9.24289 -0.00950965 9.3175 -0.00949125 9.39211 -0.00918741C9.43182 -0.00911893 9.47153 -0.00943493 9.51123 -0.00976562C9.6685 -0.0086557 9.78724 0.00290652 9.90395 0.118284C9.91283 0.131351 9.92172 0.144418 9.93088 0.157881C9.94012 0.170998 9.94936 0.184115 9.95888 0.19763C10.0005 0.267812 10.0029 0.325622 10.0031 0.405441C10.0032 0.428945 10.0033 0.45245 10.0033 0.476666C10.0033 0.502883 10.0033 0.529099 10.0033 0.555316C10.0034 0.583063 10.0035 0.61081 10.0035 0.638558C10.0037 0.714988 10.0038 0.791419 10.0039 0.86785C10.0039 0.950211 10.0041 1.03257 10.0043 1.11493C10.0047 1.31392 10.0049 1.5129 10.0051 1.71188C10.0051 1.80555 10.0052 1.89922 10.0054 1.99289C10.0057 2.30419 10.006 2.61549 10.0061 2.9268C10.0061 3.00759 10.0062 3.08839 10.0062 3.16919C10.0062 3.18928 10.0062 3.20936 10.0063 3.23005C10.0064 3.55549 10.0069 3.88093 10.0075 4.20637C10.0082 4.54037 10.0085 4.87436 10.0086 5.20836C10.0086 5.39594 10.0088 5.58352 10.0093 5.77109C10.0097 5.93082 10.0099 6.09054 10.0097 6.25027C10.0096 6.33177 10.0097 6.41327 10.01 6.49477C10.0104 6.5694 10.0104 6.64402 10.0101 6.71865C10.01 6.75841 10.0103 6.79817 10.0106 6.83792C10.0095 6.99503 9.99568 7.08749 9.88823 7.20599C9.87733 7.21493 9.86643 7.22387 9.85519 7.23308C9.84434 7.24227 9.83349 7.25146 9.82231 7.26092C9.70691 7.33842 9.58825 7.33846 9.45358 7.32463C9.33415 7.29144 9.2451 7.21446 9.18015 7.10979C9.13109 6.99811 9.13543 6.88982 9.13564 6.77015C9.13553 6.74764 9.13542 6.72513 9.1353 6.70193C9.13503 6.63962 9.13493 6.57731 9.1349 6.515C9.13483 6.44774 9.13453 6.38048 9.13426 6.31322C9.13383 6.19675 9.13353 6.08027 9.13334 5.9638C9.13305 5.7954 9.13255 5.627 9.132 5.4586C9.13111 5.18537 9.1304 4.91214 9.12979 4.63891C9.1292 4.37351 9.12853 4.10812 9.12775 3.84273C9.12768 3.81818 9.12768 3.81818 9.12761 3.79314C9.12736 3.71105 9.12712 3.62897 9.12687 3.54688C9.12485 2.86602 9.12311 2.18517 9.12155 1.50432C9.09484 1.53106 9.09484 1.53106 9.06758 1.55835C8.28291 2.344 7.4982 3.12962 6.7133 3.91505C6.70142 3.92694 6.68954 3.93882 6.6773 3.95107C6.41917 4.20938 6.16102 4.46769 5.90287 4.72599C5.77628 4.85265 5.64969 4.97932 5.5231 5.10599C5.5105 5.11859 5.4979 5.1312 5.48493 5.14418C5.07643 5.55293 4.66803 5.96177 4.25968 6.37066C3.84013 6.79076 3.42049 7.21076 3.00072 7.63065C2.94147 7.68992 2.88221 7.7492 2.82296 7.80847C2.80546 7.82597 2.80546 7.82597 2.78761 7.84382C2.5997 8.03181 2.41189 8.21989 2.22412 8.40801C2.03545 8.59702 1.84668 8.78593 1.65779 8.97472C1.54551 9.08697 1.4333 9.19929 1.32122 9.31173C1.23761 9.39558 1.15386 9.47927 1.07004 9.56291C1.03608 9.59685 1.00216 9.63084 0.968305 9.66488C0.922418 9.711 0.876355 9.75694 0.830243 9.80284C0.817014 9.81622 0.803785 9.8296 0.790155 9.84339C0.680838 9.95154 0.590904 10.0088 0.432587 10.009C0.317783 10.0059 0.22696 9.99749 0.137177 9.92229C0.0366434 9.81247 -0.00264846 9.72689 -0.00686646 9.57683C-0.00782318 9.55379 -0.00877991 9.53075 -0.00976562 9.50702C0.0125594 9.34758 0.130806 9.23657 0.241292 9.12737C0.26273 9.10583 0.26273 9.10583 0.284602 9.08385C0.332495 9.0358 0.380594 8.98797 0.428695 8.94013C0.463433 8.90536 0.498159 8.87059 0.532873 8.8358C0.608358 8.76021 0.683932 8.68471 0.759588 8.6093C0.872084 8.49715 0.98441 8.38484 1.0967 8.2725C1.28562 8.08351 1.47467 7.89465 1.6638 7.70588C1.85104 7.51898 2.03822 7.33203 2.22531 7.14499C2.23695 7.13336 2.24859 7.12173 2.26058 7.10974C2.31967 7.05067 2.37877 6.99159 2.43786 6.93251C2.85635 6.51415 3.27498 6.09592 3.69368 5.67777C4.10043 5.27156 4.50711 4.86529 4.91372 4.45893C4.93252 4.44014 4.93252 4.44014 4.9517 4.42097C5.07758 4.29517 5.20346 4.16936 5.32934 4.04356C5.58577 3.78728 5.8422 3.53101 6.09864 3.27474C6.11043 3.26296 6.12222 3.25118 6.13437 3.23904C6.92163 2.45232 7.70907 1.66581 8.49655 0.879316C8.48499 0.879297 8.47343 0.879278 8.46152 0.879258C7.77635 0.87812 7.09118 0.876679 6.40601 0.874844C6.32374 0.874624 6.24148 0.874406 6.15921 0.87419C6.14284 0.874147 6.12646 0.874104 6.10959 0.87406C5.84439 0.873369 5.57919 0.872883 5.31399 0.872473C5.04188 0.872048 4.76977 0.871403 4.49766 0.870552C4.32975 0.870035 4.16184 0.869689 3.99393 0.869563C3.87879 0.869461 3.76366 0.869144 3.64852 0.868659C3.58209 0.868385 3.51566 0.868206 3.44923 0.868281C3.37717 0.868313 3.30512 0.867988 3.23307 0.867572C3.21211 0.867667 3.19115 0.867762 3.16956 0.867859C3.00344 0.866277 2.88844 0.830522 2.76436 0.7162C2.67063 0.613991 2.66544 0.503524 2.6696 0.37013C2.6868 0.221888 2.76221 0.14 2.87346 0.0462626C2.9415 -0.0019414 3.00039 -0.00207294 3.08122 -0.0022116Z" fill="white"/>
</g>
<defs>
<clipPath id="clip0_2023_2095">
<rect width="10" height="10" fill="white"/>
</clipPath>
</defs>
</svg>
