<svg width="16" height="16" viewBox="0 0 16 16" fill="none" xmlns="http://www.w3.org/2000/svg">
<g clip-path="url(#clip0_1349_249)">
<path d="M7.6011 -0.00633439C7.63063 -0.006555 7.66016 -0.00677562 7.69058 -0.00700292C8.91097 -0.0140542 8.91096 -0.0140542 9.43765 0.0937633C9.46879 0.0998057 9.49994 0.105848 9.53203 0.112074C10.7389 0.350533 11.8678 0.841825 12.8439 1.59376C12.8693 1.61314 12.8947 1.63252 12.9208 1.65248C13.4541 2.06885 13.9654 2.55686 14.3666 3.10257C14.4071 3.15721 14.4487 3.2109 14.4905 3.26454C14.7363 3.58375 14.9358 3.92618 15.1251 4.28126C15.1459 4.32003 15.1459 4.32003 15.167 4.35959C15.5269 5.04406 15.7667 5.80316 15.9064 6.56251C15.9114 6.58753 15.9165 6.61256 15.9216 6.63833C16.0933 7.51577 16.0856 8.56219 15.9064 9.43751C15.9004 9.46866 15.8943 9.4998 15.8881 9.53189C15.6344 10.8159 15.0916 11.9751 14.2814 13C14.256 13.0324 14.2306 13.0649 14.2045 13.0983C13.8086 13.5847 13.3537 14.0399 12.8439 14.4063C12.8073 14.4333 12.7708 14.4603 12.7343 14.4873C12.0897 14.9605 11.3832 15.3381 10.6251 15.5938C10.5869 15.6067 10.5869 15.6067 10.548 15.6198C10.2426 15.721 9.93383 15.8002 9.61929 15.8672C9.59039 15.8734 9.5615 15.8796 9.53173 15.886C9.02527 15.9889 8.52733 16.0117 8.01187 16.0098C7.96414 16.0097 7.96414 16.0097 7.91544 16.0096C7.45851 16.008 7.01167 15.9985 6.56265 15.9063C6.53101 15.9001 6.49937 15.8938 6.46676 15.8874C5.18262 15.6307 4.02839 15.0856 3.00015 14.2813C2.9833 14.2682 2.96645 14.2551 2.94909 14.2416C2.45989 13.8571 1.99649 13.4 1.6317 12.8954C1.59222 12.8415 1.55141 12.7887 1.51028 12.736C1.2642 12.4167 1.0646 12.074 0.87515 11.7188C0.854417 11.68 0.854417 11.68 0.833265 11.6404C0.473367 10.956 0.233648 10.1969 0.0939 9.43751C0.086362 9.39998 0.086362 9.39998 0.0786717 9.36169C-0.0929576 8.48426 -0.0852865 7.43783 0.0939 6.56251C0.102964 6.5158 0.102964 6.5158 0.112211 6.46814C0.406919 4.97663 1.09347 3.59239 2.1564 2.50001C2.17804 2.47757 2.19968 2.45512 2.22198 2.43199C2.52633 2.11737 2.831 1.81722 3.18765 1.56251C3.207 1.54853 3.22634 1.53455 3.24627 1.52014C4.50104 0.617982 6.04017 0.00145772 7.6011 -0.00633439ZM3.93765 2.62501C3.90611 2.64938 3.87457 2.67376 3.84207 2.69887C3.62507 2.87216 3.42103 3.0598 3.2189 3.25001C3.19832 3.26927 3.17773 3.28852 3.15652 3.30836C2.02168 4.40389 1.30113 6.09606 1.2709 7.66566C1.26963 7.76996 1.26944 7.87423 1.26968 7.97853C1.2697 8.00587 1.26972 8.03322 1.26973 8.06139C1.27384 9.50519 1.73541 10.9165 2.62515 12.0625C2.64952 12.0941 2.67389 12.1256 2.699 12.1581C2.87229 12.3751 3.05994 12.5791 3.25015 12.7813C3.26941 12.8018 3.28866 12.8224 3.3085 12.8436C4.46359 14.0402 6.20995 14.7061 7.8533 14.7499C9.74512 14.7683 11.416 14.0349 12.7814 12.75C12.802 12.7308 12.8226 12.7115 12.8438 12.6917C13.9786 11.5961 14.6992 9.90397 14.7294 8.33436C14.7307 8.23007 14.7309 8.1258 14.7306 8.0215C14.7306 7.99415 14.7306 7.96681 14.7306 7.93864C14.7265 6.49484 14.2649 5.0835 13.3751 3.93751C13.3508 3.90597 13.3264 3.87443 13.3013 3.84193C13.128 3.62493 12.9404 3.4209 12.7501 3.21876C12.7309 3.19818 12.7116 3.17759 12.6918 3.15639C11.5319 1.95486 9.78071 1.28793 8.13296 1.25099C6.62835 1.2355 5.13169 1.69796 3.93765 2.62501Z" fill="#666666"/>
<path d="M9.81234 3.18751C10.4191 3.68221 10.8765 4.36501 10.9686 5.15626C11.0313 6.04324 10.8783 6.82002 10.3075 7.52015C9.79425 8.10836 9.09871 8.54478 8.30553 8.60087C7.41131 8.64062 6.64981 8.46277 5.96273 7.86329C5.38329 7.32001 4.99235 6.62518 4.95663 5.82155C4.93439 4.93091 5.14932 4.17423 5.77059 3.51161C6.84889 2.41707 8.57879 2.24431 9.81234 3.18751ZM6.90609 4.21876C6.88627 4.23246 6.86645 4.24615 6.84603 4.26027C6.5268 4.50335 6.33534 4.8982 6.24984 5.28126C6.20551 5.80307 6.28062 6.22697 6.59359 6.65626C6.60728 6.67608 6.62098 6.6959 6.63509 6.71632C6.872 7.02744 7.27492 7.24819 7.65609 7.31251C8.17452 7.36889 8.60564 7.27892 9.03109 6.96876C9.05091 6.95507 9.07073 6.94137 9.09115 6.92726C9.41037 6.68418 9.60184 6.28932 9.68734 5.90626C9.73166 5.38446 9.65655 4.96055 9.34359 4.53126C9.32989 4.51144 9.3162 4.49162 9.30208 4.4712C9.059 4.15198 8.66415 3.96051 8.28109 3.87501C7.75928 3.83069 7.33538 3.9058 6.90609 4.21876Z" fill="#666666"/>
<path d="M7.55542 9.64987C7.61342 9.6496 7.61342 9.6496 7.67258 9.64933C7.75437 9.64904 7.83616 9.64883 7.91796 9.64871C8.04146 9.64851 8.16496 9.64744 8.28846 9.64645C8.70283 9.6447 9.09608 9.65162 9.5 9.74997C9.52912 9.75665 9.55824 9.76333 9.58825 9.77022C9.66122 9.7881 9.73283 9.80813 9.80469 9.83005C9.83023 9.83781 9.85577 9.84557 9.88208 9.85356C10.4908 10.0482 11.0177 10.3659 11.5 10.7812C11.5294 10.8064 11.5588 10.8316 11.5891 10.8575C12.1499 11.3511 12.1499 11.3511 12.1863 11.7142C12.1901 11.925 12.1121 12.0977 11.9688 12.25C11.799 12.3909 11.6377 12.3978 11.42 12.3908C11.1409 12.3497 10.9834 12.1438 10.8125 11.9375C10.3454 11.4036 9.5705 11.0558 8.875 10.9687C8.84765 10.9653 8.8203 10.9618 8.79212 10.9582C7.61184 10.841 6.45617 10.9741 5.51514 11.7444C5.35015 11.8891 5.1985 12.0475 5.04749 12.2066C4.86705 12.3776 4.72937 12.3955 4.48511 12.3899C4.29563 12.3642 4.1713 12.2804 4.05005 12.1351C3.94164 11.9679 3.91854 11.7862 3.95508 11.5937C3.99944 11.4437 4.08705 11.3362 4.1875 11.2187C4.20821 11.1939 4.22892 11.169 4.25025 11.1434C4.42038 10.9461 4.607 10.7842 4.8125 10.625C4.83961 10.6025 4.86673 10.5801 4.89466 10.557C5.47758 10.0901 6.20527 9.81109 6.9375 9.68747C6.9673 9.68212 6.9971 9.67676 7.02781 9.67125C7.20268 9.64667 7.37917 9.65051 7.55542 9.64987Z" fill="#666666"/>
</g>
<defs>
<clipPath id="clip0_1349_249">
<rect width="16" height="16" fill="white"/>
</clipPath>
</defs>
</svg>
