<svg width="49" height="36" viewBox="0 0 49 36" fill="none" xmlns="http://www.w3.org/2000/svg">
<path d="M0.300491 27.0523L0.360371 27.4563L0.422642 27.4419C0.848217 29.44 1.8286 31.2764 3.25035 32.7385C4.6721 34.2005 6.47711 35.2285 8.45653 35.7035C10.436 36.1786 12.5089 36.0812 14.4355 35.4226C16.362 34.7641 18.0635 33.5713 19.3431 31.9823C20.6226 30.3933 21.4279 28.4731 21.6658 26.4437C21.9036 24.4144 21.5643 22.3589 20.6871 20.5151C19.8099 18.6713 18.4307 17.1145 16.709 16.0249C14.9873 14.9354 12.9935 14.3575 10.9584 14.3582C10.4243 14.3582 9.91175 14.4399 9.40161 14.5145C9.56686 13.9566 9.73691 13.3891 10.0099 12.8793C10.283 12.1387 10.7093 11.4966 11.1332 10.8498C11.4877 10.15 12.1128 9.67631 12.5726 9.07755C13.054 8.49563 13.7103 8.10848 14.23 7.62515C14.7401 7.12017 15.4083 6.86768 15.94 6.51179C16.4957 6.19197 16.9795 5.83849 17.4968 5.67016L18.7877 5.13634L19.923 4.66262L18.7638 0L17.3339 0.346272C16.8765 0.461697 16.3184 0.596355 15.6838 0.757465C15.0347 0.877701 14.3426 1.20714 13.5714 1.50772C12.8121 1.85158 11.9284 2.08002 11.1093 2.63069C10.2854 3.1549 9.33455 3.59255 8.49628 4.29471C7.68437 5.01851 6.7048 5.64612 5.98151 6.5647C5.19115 7.42556 4.41037 8.32971 3.80442 9.35889C3.10268 10.34 2.62607 11.4173 2.12312 12.4825C1.66806 13.5478 1.30162 14.6371 1.00224 15.6951C0.434616 17.816 0.18074 19.8311 0.0825462 21.5553C0.00111389 23.2818 0.049015 24.7174 0.149605 25.7562C0.183266 26.19 0.233597 26.6224 0.300491 27.0523ZM26.6458 27.0523L26.7057 27.4563L26.768 27.4419C27.1935 29.44 28.1739 31.2764 29.5957 32.7385C31.0174 34.2005 32.8224 35.2285 34.8019 35.7035C36.7813 36.1786 38.8542 36.0812 40.7808 35.4226C42.7074 34.7641 44.4089 33.5713 45.6884 31.9823C46.968 30.3933 47.7732 28.4731 48.0111 26.4437C48.249 24.4144 47.9097 22.3589 47.0325 20.5151C46.1553 18.6713 44.776 17.1145 43.0543 16.0249C41.3327 14.9354 39.3389 14.3575 37.3037 14.3582C36.7696 14.3582 36.2571 14.4399 35.7469 14.5145C35.9122 13.9566 36.0822 13.3891 36.3553 12.8793C36.6283 12.1387 37.0546 11.4966 37.4785 10.8498C37.833 10.15 38.4581 9.67631 38.9179 9.07755C39.3993 8.49563 40.0556 8.10848 40.5753 7.62515C41.0854 7.12017 41.7537 6.86768 42.2854 6.51179C42.841 6.19197 43.3248 5.83849 43.8421 5.67016L45.133 5.13634C45.854 4.84056 46.2659 4.66743 46.2659 4.66743L45.1067 0.00481415L43.6769 0.351082C43.2194 0.466503 42.6614 0.601166 42.0267 0.76228C41.3776 0.882511 40.6855 1.21195 39.9143 1.51253C39.1551 1.8564 38.2713 2.08484 37.4522 2.6355C36.6283 3.15971 35.6775 3.59735 34.8392 4.29951C34.0273 5.02331 33.0477 5.65093 32.3244 6.5695C31.5341 7.43037 30.7533 8.33452 30.1474 9.36371C29.4456 10.3448 28.969 11.4221 28.466 12.4873C28.011 13.5526 27.6445 14.6419 27.3452 15.7C26.7775 17.8209 26.5237 19.836 26.4255 21.5601C26.344 23.2866 26.3919 24.7222 26.4925 25.761C26.5283 26.1931 26.5794 26.6238 26.6458 27.0523Z" fill="#111111" fill-opacity="0.25"/>
</svg>
