<svg width="52" height="52" viewBox="0 0 52 52" fill="none" xmlns="http://www.w3.org/2000/svg">
<path d="M23.41 -0.0538338C23.6182 -0.0541083 23.8264 -0.0545033 24.0347 -0.0550116C24.4686 -0.0556066 24.9026 -0.0547526 25.3365 -0.052842C25.8887 -0.0505277 26.4407 -0.0518625 26.9928 -0.0542933C27.4221 -0.0557717 27.8513 -0.0552894 28.2805 -0.0542414C28.4839 -0.0539733 28.6873 -0.0542927 28.8907 -0.0552487C30.394 -0.0607659 31.7678 0.0639819 33.1283 0.768188C33.1952 0.802301 33.2621 0.836414 33.331 0.87156C34.0391 1.2523 34.5856 1.76129 35.1405 2.33606C35.2154 2.4078 35.2903 2.47955 35.3674 2.55347C35.8042 2.99701 36.1023 3.48122 36.3846 4.03088C36.433 4.12391 36.433 4.12391 36.4823 4.21881C37.1388 5.56993 37.229 6.83151 37.2114 8.30206C37.2106 8.4913 37.2101 8.68054 37.2097 8.86978C37.2081 9.36301 37.2041 9.85619 37.1996 10.3494C37.1954 10.8546 37.1936 11.3598 37.1916 11.8651C37.1872 12.8528 37.1803 13.8405 37.1717 14.8282C37.274 14.8273 37.3762 14.8264 37.4815 14.8255C38.451 14.8172 39.4205 14.8112 40.3901 14.8072C40.8884 14.8051 41.3867 14.8022 41.8849 14.7976C42.367 14.7931 42.849 14.7907 43.3311 14.7897C43.5138 14.789 43.6965 14.7875 43.8792 14.7853C45.3256 14.7685 46.6485 14.9193 47.9564 15.5963C48.0233 15.6304 48.0902 15.6645 48.1591 15.6997C48.8673 16.0804 49.4138 16.5894 49.9686 17.1642C50.0435 17.2359 50.1184 17.3077 50.1955 17.3816C50.6323 17.8251 50.9304 18.3093 51.2127 18.859C51.2611 18.952 51.2611 18.952 51.3104 19.0469C51.9951 20.456 52.0609 21.7866 52.0538 23.321C52.0541 23.5317 52.0545 23.7423 52.055 23.9529C52.0556 24.3923 52.0547 24.8316 52.0528 25.271C52.0505 25.83 52.0518 26.389 52.0543 26.9481C52.0557 27.3825 52.0553 27.8168 52.0542 28.2512C52.0539 28.4572 52.0543 28.6631 52.0552 28.8691C52.0607 30.3805 51.9399 31.7604 51.2318 33.1285C51.1977 33.1954 51.1636 33.2623 51.1284 33.3313C50.7477 34.0394 50.2387 34.5859 49.6639 35.1407C49.5922 35.2156 49.5204 35.2905 49.4465 35.3677C49.005 35.8025 48.522 36.1022 47.9754 36.3849C47.8837 36.4332 47.8837 36.4332 47.7901 36.4826C46.4284 37.1476 45.0926 37.2297 43.6087 37.2117C43.4218 37.2109 43.235 37.2103 43.0482 37.2099C42.5618 37.2084 42.0755 37.2044 41.5891 37.1999C41.0907 37.1957 40.5923 37.1939 40.0938 37.1918C39.1198 37.1875 38.1458 37.1806 37.1717 37.172C37.1726 37.2742 37.1735 37.3764 37.1745 37.4818C37.1827 38.4513 37.1888 39.4208 37.1928 40.3904C37.1949 40.8886 37.1977 41.3869 37.2024 41.8852C37.2068 42.3672 37.2092 42.8493 37.2103 43.3313C37.211 43.514 37.2125 43.6968 37.2147 43.8795C37.2315 45.3259 37.0806 46.6488 36.4037 47.9567C36.3696 48.0236 36.3354 48.0905 36.3003 48.1594C35.9195 48.8675 35.4106 49.414 34.8358 49.9689C34.764 50.0438 34.6923 50.1186 34.6184 50.1958C34.1768 50.6306 33.6939 50.9303 33.1473 51.213C33.0556 51.2614 33.0556 51.2614 32.962 51.3107C31.5424 52.004 30.1369 52.0613 28.5897 52.0541C28.3815 52.0544 28.1733 52.0547 27.9651 52.0553C27.5311 52.0559 27.0972 52.055 26.6632 52.0531C26.1111 52.0508 25.559 52.0521 25.0069 52.0545C24.5776 52.056 24.1484 52.0555 23.7192 52.0545C23.5158 52.0542 23.3124 52.0545 23.109 52.0555C21.6057 52.061 20.2319 51.9363 18.8714 51.2321C18.8045 51.1979 18.7376 51.1638 18.6687 51.1287C17.9606 50.7479 17.4141 50.239 16.8592 49.6642C16.7843 49.5924 16.7095 49.5207 16.6323 49.4468C16.1955 49.0032 15.8975 48.519 15.6151 47.9694C15.5828 47.9073 15.5506 47.8453 15.5174 47.7814C14.8609 46.4303 14.7708 45.1687 14.7883 43.6982C14.7891 43.5089 14.7896 43.3197 14.79 43.1305C14.7916 42.6372 14.7956 42.1441 14.8001 41.6509C14.8043 41.1456 14.8061 40.6404 14.8081 40.1352C14.8125 39.1474 14.8194 38.1597 14.828 37.172C14.7258 37.1729 14.6235 37.1738 14.5182 37.1747C13.5487 37.183 12.5792 37.1891 11.6096 37.193C11.1113 37.1952 10.6131 37.198 10.1148 37.2026C9.63273 37.2071 9.15071 37.2095 8.66865 37.2105C8.48593 37.2113 8.30322 37.2127 8.12051 37.215C6.6741 37.2318 5.35119 37.0809 4.04331 36.4039C3.97641 36.3698 3.90951 36.3357 3.84058 36.3006C3.13245 35.9198 2.58594 35.4108 2.03111 34.8361C1.95622 34.7643 1.88133 34.6926 1.80418 34.6187C1.36741 34.1751 1.06933 33.6909 0.786965 33.1412C0.754726 33.0792 0.722486 33.0172 0.68927 32.9533C0.000587702 31.5359 -0.061164 30.1969 -0.0540998 28.6534C-0.0543742 28.4403 -0.054769 28.2271 -0.0552776 28.014C-0.0558731 27.5694 -0.055017 27.1249 -0.053108 26.6803C-0.0507936 26.1142 -0.0521274 25.5481 -0.0545585 24.982C-0.0560356 24.5424 -0.0555559 24.1029 -0.0545074 23.6634C-0.0542388 23.4548 -0.05456 23.2462 -0.0555147 23.0377C-0.0608666 21.5401 0.0750119 20.2357 0.767922 18.878C0.802035 18.8107 0.836148 18.7433 0.871294 18.6739C1.25127 17.9624 1.75919 17.4161 2.33579 16.8595C2.40754 16.7846 2.47928 16.7097 2.5532 16.6326C2.99476 16.1977 3.4777 15.898 4.02427 15.6154C4.08543 15.5831 4.1466 15.5509 4.20962 15.5177C5.57132 14.8526 6.90711 14.7706 8.39106 14.7886C8.57788 14.7893 8.7647 14.7899 8.95152 14.7903C9.43789 14.7918 9.92422 14.7958 10.4106 14.8004C10.909 14.8045 11.4074 14.8064 11.9059 14.8084C12.8799 14.8127 13.854 14.8196 14.828 14.8282C14.8271 14.7245 14.8262 14.6208 14.8252 14.5139C14.817 13.5309 14.8109 12.5479 14.8069 11.5649C14.8048 11.0597 14.802 10.5544 14.7973 10.0492C14.7929 9.56058 14.7905 9.07198 14.7894 8.58333C14.7887 8.39798 14.7872 8.21262 14.785 8.02728C14.7686 6.59561 14.9341 5.34688 15.596 4.04993C15.6472 3.94889 15.6472 3.94889 15.6994 3.84581C16.0794 3.1343 16.5873 2.58798 17.1639 2.03137C17.2357 1.95648 17.3074 1.8816 17.3813 1.80444C17.8229 1.36962 18.3058 1.0699 18.8524 0.787231C18.9136 0.754992 18.9747 0.722752 19.0377 0.689536C20.4573 -0.00375998 21.8629 -0.0611054 23.41 -0.0538338ZM19.113 4.52759C17.864 5.90799 17.8588 7.52039 17.8649 9.28397C17.8651 9.44433 17.8653 9.60469 17.8654 9.76506C17.8658 10.1843 17.8668 10.6035 17.8679 11.0228C17.8689 11.4517 17.8694 11.8807 17.8699 12.3096C17.871 13.1492 17.8727 13.9887 17.8749 14.8282C17.9832 14.8288 18.0914 14.8294 18.203 14.8301C19.2237 14.8359 20.2444 14.8433 21.265 14.8522C21.7897 14.8567 22.3145 14.8607 22.8392 14.8634C23.3456 14.8661 23.852 14.8702 24.3584 14.8753C24.5516 14.877 24.7448 14.8782 24.938 14.8788C25.2086 14.8798 25.4792 14.8826 25.7498 14.8859C25.8296 14.8857 25.9095 14.8856 25.9918 14.8855C26.4521 14.8934 26.7507 14.95 27.117 15.2345C27.405 15.6066 27.4634 15.8856 27.4598 16.3517C27.4606 16.4543 27.4614 16.557 27.4622 16.6627C27.4151 17.0103 27.3313 17.192 27.117 17.4689C26.7013 17.7843 26.3415 17.8171 25.836 17.8127C25.7204 17.8135 25.7204 17.8135 25.6025 17.8143C25.3447 17.8157 25.0869 17.815 24.8291 17.8142C24.6441 17.8148 24.459 17.8155 24.274 17.8164C23.8755 17.8179 23.4771 17.8185 23.0786 17.8184C22.4477 17.8182 21.8167 17.8202 21.1858 17.8225C19.959 17.8266 18.7323 17.8285 17.5056 17.8302C15.9471 17.8325 14.3886 17.8359 12.8301 17.8411C12.2039 17.8431 11.5777 17.8441 10.9515 17.8442C10.5603 17.8445 10.1691 17.8456 9.77789 17.8469C9.59763 17.8473 9.41738 17.8474 9.23713 17.8471C7.33504 17.8445 5.72896 17.9743 4.28492 19.3557C3.05467 20.7154 3.03054 22.3041 3.02967 24.0435C3.02934 24.1984 3.029 24.3533 3.02865 24.5082C3.02804 24.8319 3.02785 25.1556 3.02791 25.4793C3.02792 25.8905 3.02653 26.3017 3.02478 26.7129C3.02365 27.0327 3.02345 27.3525 3.0235 27.6723C3.02338 27.8237 3.02294 27.9751 3.02215 28.1265C3.01333 29.9815 3.19833 31.4977 4.52732 32.8869C5.90772 34.136 7.52012 34.1412 9.2837 34.135C9.44406 34.1348 9.60443 34.1347 9.76479 34.1346C10.184 34.1342 10.6033 34.1332 11.0225 34.1321C11.4515 34.1311 11.8804 34.1306 12.3093 34.1301C13.1489 34.129 13.9884 34.1273 14.828 34.1251C14.8289 33.9627 14.8289 33.9627 14.8298 33.7969C14.8356 32.7763 14.843 31.7556 14.8519 30.735C14.8565 30.2102 14.8604 29.6855 14.8632 29.1608C14.8658 28.6544 14.8699 28.148 14.875 27.6416C14.8767 27.4484 14.8779 27.2552 14.8785 27.062C14.8795 26.7914 14.8823 26.5208 14.8856 26.2502C14.8854 26.1304 14.8854 26.1304 14.8852 26.0082C14.8931 25.5481 14.9378 25.2414 15.2342 24.8829C15.6474 24.5728 15.9998 24.5342 16.501 24.5378C16.5765 24.5371 16.652 24.5364 16.7298 24.5357C16.9823 24.5338 17.2347 24.5341 17.4872 24.5343C17.6684 24.5334 17.8495 24.5324 18.0307 24.5312C18.5223 24.5284 19.0139 24.5275 19.5056 24.5268C20.0194 24.5259 20.5333 24.5232 21.0471 24.5208C22.0201 24.5163 22.993 24.5134 23.966 24.5111C25.0737 24.5083 26.1814 24.5039 27.2892 24.4993C29.5677 24.4898 31.8463 24.4825 34.1249 24.4767C34.1296 22.3013 34.1332 20.1259 34.1354 17.9505C34.1364 16.9404 34.1379 15.9302 34.1402 14.92C34.1422 14.0391 34.1435 13.1582 34.144 12.2773C34.1442 11.8112 34.1448 11.3452 34.1463 10.8792C34.1477 10.4396 34.1481 10.0001 34.1478 9.56051C34.1479 9.40007 34.1483 9.23963 34.1491 9.0792C34.1577 7.22363 33.9803 5.68179 32.6443 4.28519C31.2846 3.05493 29.6959 3.03081 27.9565 3.02994C27.8016 3.02961 27.6467 3.02927 27.4917 3.02891C27.1681 3.02831 26.8444 3.02812 26.5207 3.02818C26.1095 3.02819 25.6983 3.0268 25.2871 3.02505C24.9673 3.02391 24.6475 3.02372 24.3277 3.02377C24.1763 3.02365 24.0249 3.02321 23.8735 3.02242C22.0185 3.01359 20.5022 3.1986 19.113 4.52759ZM37.1717 17.8751C37.1711 17.9834 37.1705 18.0917 37.1699 18.2033C37.1641 19.224 37.1567 20.2446 37.1478 21.2653C37.1432 21.79 37.1393 22.3147 37.1365 22.8395C37.1339 23.3459 37.1298 23.8523 37.1247 24.3587C37.123 24.5518 37.1218 24.745 37.1212 24.9382C37.1202 25.2089 37.1174 25.4794 37.1141 25.7501C37.1142 25.8299 37.1144 25.9098 37.1145 25.992C37.1066 26.4522 37.062 26.7589 36.7655 27.1173C36.3523 27.4275 36 27.466 35.4987 27.4625C35.4232 27.4632 35.3477 27.4638 35.2699 27.4645C35.0174 27.4664 34.765 27.4662 34.5125 27.4659C34.3313 27.4668 34.1502 27.4679 33.969 27.469C33.4774 27.4718 32.9858 27.4728 32.4942 27.4734C31.9803 27.4743 31.4664 27.477 30.9526 27.4795C29.9796 27.4839 29.0067 27.4868 28.0337 27.4892C26.926 27.4919 25.8183 27.4964 24.7105 27.501C22.432 27.5104 20.1534 27.5177 17.8749 27.5236C17.8701 29.6989 17.8665 31.8743 17.8643 34.0497C17.8633 35.0599 17.8619 36.0701 17.8595 37.0802C17.8575 37.9611 17.8562 38.8421 17.8557 39.723C17.8555 40.189 17.8549 40.655 17.8534 41.1211C17.852 41.5606 17.8516 42.0002 17.8519 42.4397C17.8518 42.6002 17.8514 42.7606 17.8506 42.921C17.842 44.7766 18.0194 46.3185 19.3554 47.7151C20.7151 48.9453 22.3039 48.9694 24.0432 48.9703C24.1981 48.9706 24.353 48.971 24.508 48.9713C24.8317 48.9719 25.1554 48.9721 25.479 48.9721C25.8902 48.9721 26.3014 48.9734 26.7126 48.9752C27.0324 48.9763 27.3522 48.9765 27.672 48.9765C27.8234 48.9766 27.9748 48.977 28.1263 48.9778C29.9812 48.9866 31.4975 48.8016 32.8867 47.4727C34.1357 46.0923 34.1409 44.4799 34.1348 42.7163C34.1346 42.5559 34.1344 42.3955 34.1343 42.2352C34.134 41.8159 34.133 41.3967 34.1318 40.9775C34.1308 40.5485 34.1303 40.1196 34.1298 39.6906C34.1287 38.8511 34.127 38.0115 34.1249 37.172C34.0166 37.1714 33.9083 37.1708 33.7967 37.1702C32.776 37.1644 31.7554 37.157 30.7347 37.1481C30.21 37.1435 29.6853 37.1395 29.1605 37.1368C28.6541 37.1342 28.1477 37.1301 27.6413 37.125C27.4481 37.1233 27.2549 37.1221 27.0617 37.1215C26.7911 37.1205 26.5205 37.1176 26.2499 37.1143C26.1701 37.1145 26.0902 37.1146 26.008 37.1148C25.5476 37.1069 25.249 37.0502 24.8827 36.7657C24.5948 36.3936 24.5363 36.1147 24.5399 35.6486C24.5387 35.4946 24.5387 35.4946 24.5375 35.3375C24.5847 34.99 24.6684 34.8083 24.8827 34.5314C25.2984 34.216 25.6582 34.1831 26.1637 34.1876C26.2793 34.1868 26.2793 34.1868 26.3972 34.1859C26.655 34.1845 26.9128 34.1853 27.1706 34.186C27.3556 34.1854 27.5407 34.1847 27.7257 34.1838C28.1242 34.1823 28.5226 34.1817 28.9211 34.1819C29.5521 34.1821 30.183 34.1801 30.814 34.1778C32.0407 34.1736 33.2674 34.1717 34.4941 34.1701C36.0526 34.1678 37.6111 34.1644 39.1696 34.1592C39.7958 34.1572 40.422 34.1562 41.0482 34.156C41.4394 34.1557 41.8306 34.1546 42.2218 34.1533C42.4021 34.1529 42.5823 34.1528 42.7626 34.1531C44.6647 34.1558 46.2708 34.026 47.7148 32.6445C48.945 31.2849 48.9692 29.6961 48.97 27.9568C48.9704 27.8019 48.9707 27.6469 48.9711 27.492C48.9717 27.1683 48.9719 26.8446 48.9718 26.5209C48.9718 26.1097 48.9732 25.6985 48.9749 25.2874C48.9761 24.9676 48.9763 24.6478 48.9762 24.328C48.9763 24.1765 48.9768 24.0251 48.9776 23.8737C48.9864 22.0188 48.8014 20.5025 47.4724 19.1133C46.092 17.8643 44.4796 17.859 42.716 17.8652C42.5556 17.8654 42.3953 17.8655 42.2349 17.8656C41.8157 17.866 41.3964 17.867 40.9772 17.8681C40.5482 17.8692 40.1193 17.8696 39.6904 17.8702C38.8508 17.8712 38.0113 17.873 37.1717 17.8751Z" fill="#111111"/>
</svg>
