<svg width="24" height="17" viewBox="0 0 24 17" fill="none" xmlns="http://www.w3.org/2000/svg">
<path d="M2.01093 0.023369C2.04586 0.0232442 2.08078 0.0231194 2.11677 0.0229908C2.23446 0.0226288 2.35215 0.0226025 2.46984 0.0225744C2.55481 0.0223855 2.63978 0.0221766 2.72475 0.0219495C2.95879 0.0213861 3.19282 0.0211206 3.42685 0.0209057C3.67906 0.0206256 3.93128 0.0200792 4.18349 0.0195745C4.7929 0.0184202 5.40231 0.0177321 6.01172 0.0171247C6.18384 0.01695 6.35596 0.0167631 6.52808 0.0165717C7.59684 0.0153841 8.66561 0.0143463 9.73437 0.0137611C9.98197 0.0136232 10.2296 0.0134838 10.4772 0.013342C10.5387 0.0133069 10.6002 0.0132718 10.6637 0.0132356C11.6604 0.0126403 12.6571 0.0110771 13.6538 0.00911623C14.6771 0.00711969 15.7004 0.00601102 16.7236 0.00576517C17.2982 0.00560456 17.8727 0.0050519 18.4473 0.00350163C18.9366 0.00218337 19.426 0.00166671 19.9153 0.00219324C20.1649 0.00243714 20.4145 0.00230249 20.6641 0.00113609C20.8929 7.60082e-05 21.1216 0.000113781 21.3504 0.00100451C21.4329 0.00113604 21.5154 0.000874124 21.5979 0.000166296C22.3356 -0.00577322 22.8909 0.146067 23.4399 0.66894C23.7506 1.00013 23.9748 1.45351 23.976 1.91137C23.9762 1.9589 23.9765 2.00644 23.9767 2.05541C23.9768 2.13361 23.9768 2.13361 23.9768 2.21339C23.977 2.26884 23.9772 2.3243 23.9774 2.38143C23.9779 2.53542 23.9782 2.6894 23.9785 2.84338C23.9787 3.00946 23.9793 3.17553 23.9798 3.3416C23.9809 3.74275 23.9816 4.14391 23.9822 4.54507C23.9824 4.65843 23.9826 4.7718 23.9828 4.88516C23.9839 5.58956 23.985 6.29397 23.9856 6.99837C23.9857 7.1615 23.9858 7.32463 23.986 7.48777C23.986 7.52831 23.986 7.56885 23.9861 7.61063C23.9867 8.26687 23.9882 8.9231 23.9902 9.57934C23.9922 10.2536 23.9933 10.9278 23.9935 11.602C23.9937 11.9803 23.9942 12.3587 23.9958 12.737C23.9971 13.0594 23.9976 13.3817 23.9971 13.7041C23.9968 13.8684 23.9969 14.0326 23.9981 14.1969C23.9992 14.3756 23.9988 14.5542 23.998 14.7328C23.9987 14.784 23.9993 14.8352 24 14.8879C23.9937 15.5073 23.7511 15.9941 23.3346 16.4371C22.9604 16.7926 22.4962 16.9775 21.9891 16.9766C21.9541 16.9768 21.9192 16.9769 21.8832 16.977C21.7655 16.9774 21.6479 16.9774 21.5302 16.9774C21.4452 16.9776 21.3602 16.9778 21.2752 16.9781C21.0412 16.9786 20.8072 16.9789 20.5731 16.9791C20.3209 16.9794 20.0687 16.9799 19.8165 16.9804C19.2071 16.9816 18.5977 16.9823 17.9883 16.9829C17.8162 16.983 17.644 16.9832 17.4719 16.9834C16.4032 16.9846 15.3344 16.9857 14.2656 16.9862C14.018 16.9864 13.7704 16.9865 13.5228 16.9867C13.4305 16.9867 13.4305 16.9867 13.3363 16.9868C12.3396 16.9874 11.3429 16.9889 10.3462 16.9909C9.32289 16.9929 8.29963 16.994 7.27636 16.9942C6.70181 16.9944 6.12727 16.9949 5.55272 16.9965C5.06336 16.9978 4.57401 16.9983 4.08465 16.9978C3.83505 16.9976 3.58546 16.9977 3.33587 16.9989C3.10711 16.9999 2.87837 16.9999 2.64961 16.999C2.56711 16.9989 2.4846 16.9991 2.4021 16.9998C1.66436 17.0058 1.1091 16.8539 0.560055 16.3311C0.249393 15.9999 0.0252039 15.5465 0.0239885 15.0886C0.0237512 15.0411 0.023514 14.9936 0.0232695 14.9446C0.0232462 14.8925 0.0232229 14.8403 0.0231989 14.7866C0.022994 14.7312 0.0227891 14.6757 0.022578 14.6186C0.022061 14.4646 0.0217546 14.3106 0.0215408 14.1566C0.0212621 13.9905 0.0207193 13.8245 0.0202181 13.6584C0.019072 13.2572 0.0183876 12.8561 0.017784 12.4549C0.0176104 12.3416 0.0174246 12.2282 0.0172345 12.1148C0.0160543 11.4104 0.0150235 10.706 0.0144419 10.0016C0.0143049 9.8385 0.0141663 9.67536 0.0140254 9.51223C0.0139905 9.47169 0.0139558 9.43114 0.0139198 9.38937C0.0133287 8.73313 0.0117758 8.0769 0.00982662 7.42066C0.00784055 6.74645 0.00674099 6.07224 0.00649698 5.39803C0.00633764 5.01968 0.00579142 4.64133 0.00424785 4.26298C0.00293487 3.94063 0.00242597 3.61829 0.00294777 3.29593C0.00318934 3.13164 0.00306157 2.96737 0.0018974 2.80308C0.000833361 2.62442 0.0012258 2.44582 0.00196679 2.26716C0.00131771 2.21598 0.000668744 2.16479 0 2.11205C0.0062946 1.49269 0.248901 1.0059 0.66544 0.562879C1.03961 0.207379 1.50379 0.0224892 2.01093 0.023369ZM2.50848 1.44151C2.72881 1.7023 2.72881 1.7023 2.96016 1.94934C2.99119 1.98075 3.02223 2.01217 3.0542 2.04453C3.10404 2.09463 3.10404 2.09463 3.15489 2.14574C3.19086 2.18208 3.22683 2.21842 3.26389 2.25586C3.38383 2.37699 3.50395 2.49795 3.62406 2.6189C3.71034 2.70595 3.7966 2.793 3.88285 2.88007C4.11669 3.11604 4.3507 3.35184 4.58475 3.5876C4.73094 3.73486 4.8771 3.88216 5.02325 4.02946C5.42816 4.43754 5.83312 4.84558 6.23823 5.25346C6.26411 5.27951 6.28999 5.30557 6.31665 5.33241C6.34259 5.35852 6.36852 5.38464 6.39525 5.41154C6.4478 5.46446 6.50035 5.51737 6.55291 5.57028C6.57897 5.59653 6.60504 5.62277 6.6319 5.64981C7.05497 6.07579 7.47772 6.50208 7.90034 6.9285C8.33455 7.36662 8.76902 7.80447 9.20376 8.24205C9.44773 8.48763 9.69158 8.73332 9.93514 8.9793C10.164 9.2104 10.3932 9.44114 10.6226 9.67163C10.7068 9.75638 10.791 9.84125 10.875 9.92625C10.9894 10.042 11.1043 10.1574 11.2193 10.2726C11.2526 10.3065 11.2859 10.3404 11.3203 10.3754C11.5658 10.6201 11.7311 10.7192 12.086 10.7288C12.4143 10.6732 12.6207 10.4361 12.8439 10.209C12.881 10.1719 12.9181 10.1347 12.9563 10.0964C13.0804 9.97177 13.2041 9.84665 13.3278 9.72152C13.4167 9.63207 13.5056 9.54264 13.5946 9.45326C13.8111 9.23567 14.0272 9.01771 14.2431 8.79962C14.4945 8.5458 14.7463 8.29237 14.998 8.03895C15.447 7.58699 15.8957 7.13469 16.3442 6.68221C16.7797 6.24277 17.2155 5.80355 17.6515 5.36458C17.6784 5.33752 17.7052 5.31045 17.7329 5.28257C17.7871 5.22805 17.8412 5.17353 17.8954 5.11901C17.9221 5.09212 17.9488 5.06523 17.9763 5.03753C18.003 5.0107 18.0296 4.98388 18.0571 4.95625C18.4722 4.53826 18.8872 4.1201 19.3021 3.70191C19.4527 3.55015 19.6033 3.39842 19.7539 3.24671C19.9926 3.00623 20.2313 2.76567 20.4698 2.52495C20.5788 2.41491 20.6879 2.30492 20.7971 2.195C20.9151 2.07613 21.033 1.95712 21.1508 1.83806C21.1857 1.80296 21.2207 1.76786 21.2566 1.73169C21.3035 1.68422 21.3035 1.68422 21.3514 1.6358C21.3786 1.60831 21.4059 1.58081 21.434 1.55249C21.4968 1.49713 21.4968 1.49713 21.4915 1.44151C15.2271 1.44151 8.96271 1.44151 2.50848 1.44151ZM1.43308 2.47676C1.43308 6.4521 1.43308 10.4274 1.43308 14.5232C1.63639 14.3479 1.82672 14.18 2.01452 13.9908C2.0379 13.9673 2.06128 13.9438 2.08537 13.9196C2.16265 13.8419 2.23976 13.764 2.31687 13.6862C2.37265 13.63 2.42844 13.5739 2.48423 13.5178C2.63492 13.3661 2.78546 13.2143 2.93598 13.0625C3.09358 12.9036 3.25132 12.7448 3.40904 12.586C3.70736 12.2857 4.00555 11.9852 4.3037 11.6846C4.64329 11.3423 4.98301 11.0002 5.32273 10.658C6.02127 9.95452 6.71963 9.25084 7.41789 8.54706C7.34364 8.36554 7.2286 8.25073 7.09156 8.11289C7.05569 8.07662 7.05569 8.07662 7.0191 8.03961C6.93895 7.95869 6.85847 7.8781 6.77799 7.79751C6.72045 7.73955 6.66293 7.68157 6.60543 7.62357C6.44925 7.46616 6.29278 7.30904 6.13625 7.15198C5.97269 6.98778 5.80937 6.82334 5.64602 6.65892C5.37178 6.38297 5.09737 6.10719 4.82283 5.83154C4.50497 5.51238 4.18736 5.19297 3.86988 4.87342C3.56487 4.56643 3.25974 4.25957 2.95452 3.95278C2.82441 3.82201 2.69435 3.69119 2.56431 3.56034C2.41141 3.40651 2.25839 3.25279 2.10528 3.09918C2.04894 3.04261 1.99264 2.986 1.93638 2.92935C1.85993 2.85239 1.78334 2.77558 1.70671 2.6988C1.66378 2.65567 1.62084 2.61253 1.57661 2.56809C1.49627 2.47139 1.49627 2.47139 1.43308 2.47676ZM22.3587 2.63317C22.3243 2.66805 22.3243 2.66805 22.2891 2.70364C22.2648 2.72804 22.2405 2.75245 22.2155 2.77759C22.1335 2.86007 22.0516 2.94271 21.9698 3.02535C21.9113 3.08424 21.8527 3.14312 21.7942 3.20199C21.6348 3.36239 21.4756 3.52295 21.3164 3.68352C21.1501 3.8511 20.9838 4.01855 20.8174 4.18601C20.5022 4.5034 20.1871 4.8209 19.8721 5.13845C19.5135 5.49985 19.1548 5.86112 18.7961 6.22238C18.058 6.96575 17.32 7.70929 16.5821 8.45294C16.6564 8.63446 16.7714 8.74927 16.9084 8.88711C16.9443 8.92338 16.9443 8.92338 16.9809 8.96039C17.0611 9.04131 17.1415 9.1219 17.222 9.20249C17.2795 9.26045 17.3371 9.31843 17.3946 9.37643C17.5507 9.53384 17.7072 9.69096 17.8637 9.84802C18.0273 10.0122 18.1906 10.1767 18.354 10.3411C18.6282 10.617 18.9026 10.8928 19.1772 11.1685C19.495 11.4876 19.8126 11.807 20.1301 12.1266C20.4351 12.4336 20.7403 12.7404 21.0455 13.0472C21.1756 13.178 21.3057 13.3088 21.4357 13.4397C21.5886 13.5935 21.7416 13.7472 21.8947 13.9008C21.9511 13.9574 22.0074 14.014 22.0636 14.0706C22.1401 14.1476 22.2167 14.2244 22.2933 14.3012C22.3362 14.3443 22.3792 14.3875 22.4234 14.4319C22.5037 14.5286 22.5037 14.5286 22.5669 14.5232C22.5669 10.5479 22.5669 6.57256 22.5669 2.47676C22.4737 2.47676 22.4209 2.57086 22.3587 2.63317ZM8.28507 9.69144C8.25062 9.72627 8.25062 9.72627 8.21547 9.76181C8.19118 9.78618 8.16689 9.81055 8.14187 9.83566C8.05984 9.91802 7.97798 10.0006 7.89612 10.0831C7.83762 10.1419 7.77911 10.2007 7.72059 10.2595C7.56119 10.4197 7.40194 10.5801 7.24272 10.7405C7.07649 10.9079 6.91014 11.0752 6.74381 11.2425C6.46445 11.5236 6.18519 11.8047 5.90599 12.086C5.58266 12.4116 5.25917 12.7371 4.93559 13.0625C4.65834 13.3413 4.38119 13.6202 4.10411 13.8992C3.93837 14.0661 3.7726 14.2329 3.60675 14.3997C3.45087 14.5564 3.29511 14.7133 3.13944 14.8702C3.0821 14.928 3.02473 14.9857 2.96731 15.0434C2.88929 15.1218 2.81143 15.2003 2.73359 15.2789C2.71052 15.302 2.68745 15.3251 2.66368 15.3489C2.55515 15.4382 2.55515 15.4382 2.50848 15.5585C8.77288 15.5585 15.0373 15.5585 21.4915 15.5585C21.3173 15.3539 21.1505 15.1623 20.9625 14.9733C20.9275 14.938 20.9275 14.938 20.8917 14.902C20.8145 14.8242 20.7372 14.7466 20.6598 14.669C20.604 14.6129 20.5482 14.5567 20.4925 14.5006C20.3418 14.3489 20.191 14.1974 20.0401 14.0459C19.8822 13.8873 19.7245 13.7286 19.5667 13.5698C19.2682 13.2696 18.9696 12.9695 18.671 12.6694C18.3309 12.3277 17.9909 11.9858 17.651 11.6439C16.952 10.9408 16.2528 10.238 15.5535 9.53524C15.5017 9.5796 15.4499 9.62401 15.3981 9.66844C15.3693 9.69317 15.3405 9.71789 15.3108 9.74336C15.1919 9.84765 15.0803 9.95817 14.969 10.0705C14.928 10.1116 14.8871 10.1528 14.8448 10.1951C14.7447 10.2985 14.6501 10.4057 14.5563 10.515C13.9468 11.2214 13.2872 11.9677 12.3273 12.1234C11.9154 12.15 11.5466 12.1263 11.1584 11.9822C11.1217 11.9694 11.0851 11.9567 11.0473 11.9436C10.6231 11.7652 10.3109 11.4079 9.98948 11.0881C9.93329 11.0328 9.8771 10.9776 9.8209 10.9223C9.58529 10.6891 9.357 10.4534 9.14294 10.1997C9.01873 10.0598 8.88788 9.92696 8.75628 9.79405C8.73118 9.76857 8.70607 9.74309 8.6802 9.71684C8.48333 9.50668 8.48333 9.50668 8.28507 9.69144Z" fill="#111111"/>
</svg>
