<svg width="15" height="15" viewBox="0 0 15 15" fill="none" xmlns="http://www.w3.org/2000/svg">
<path d="M9.99 7.63593C9.99 8.07896 9.85863 8.51204 9.61249 8.8804C9.36636 9.24877 9.01652 9.53588 8.60721 9.70542C8.1979 9.87496 7.74752 9.91932 7.313 9.83288C6.87848 9.74645 6.47935 9.53311 6.16608 9.21984C5.85281 8.90657 5.63947 8.50745 5.55304 8.07293C5.46661 7.63841 5.51097 7.18802 5.68051 6.77871C5.85005 6.36941 6.13716 6.01957 6.50552 5.77343C6.87389 5.5273 7.30697 5.39593 7.75 5.39593C8.34388 5.3966 8.91323 5.63282 9.33317 6.05276C9.7531 6.47269 9.98932 7.04205 9.99 7.63593ZM14.75 4.55593V10.7159C14.7488 11.7552 14.3354 12.7516 13.6006 13.4865C12.8657 14.2214 11.8693 14.6347 10.83 14.6359H4.67C3.63071 14.6347 2.63433 14.2214 1.89944 13.4865C1.16455 12.7516 0.751177 11.7552 0.75 10.7159V4.55593C0.751177 3.51664 1.16455 2.52025 1.89944 1.78537C2.63433 1.05048 3.63071 0.637102 4.67 0.635925H10.83C11.8693 0.637102 12.8657 1.05048 13.6006 1.78537C14.3354 2.52025 14.7488 3.51664 14.75 4.55593ZM11.11 7.63593C11.11 6.97138 10.9129 6.32176 10.5437 5.76921C10.1745 5.21666 9.64978 4.786 9.03582 4.53169C8.42186 4.27738 7.74627 4.21084 7.0945 4.34049C6.44272 4.47013 5.84403 4.79014 5.37412 5.26005C4.90422 5.72995 4.58421 6.32865 4.45456 6.98042C4.32492 7.6322 4.39145 8.30778 4.64577 8.92174C4.90008 9.5357 5.33073 10.0605 5.88328 10.4297C6.43583 10.7989 7.08545 10.9959 7.75 10.9959C8.64082 10.9949 9.49486 10.6406 10.1248 10.0107C10.7547 9.38079 11.109 8.52674 11.11 7.63593ZM12.23 3.99593C12.23 3.82979 12.1807 3.66738 12.0884 3.52925C11.9961 3.39111 11.8649 3.28344 11.7115 3.21987C11.558 3.15629 11.3891 3.13965 11.2261 3.17207C11.0632 3.20448 10.9135 3.28448 10.796 3.40196C10.6786 3.51943 10.5986 3.66911 10.5661 3.83205C10.5337 3.99499 10.5504 4.16389 10.6139 4.31738C10.6775 4.47087 10.7852 4.60206 10.9233 4.69436C11.0615 4.78666 11.2239 4.83593 11.39 4.83593C11.6128 4.83593 11.8264 4.74743 11.984 4.5899C12.1415 4.43236 12.23 4.21871 12.23 3.99593Z" fill="#888888"/>
</svg>
