<svg width="9" height="10" viewBox="0 0 9 10" fill="none" xmlns="http://www.w3.org/2000/svg">
<path fill-rule="evenodd" clip-rule="evenodd" d="M8.26856 0.533191C8.401 0.650316 8.48151 0.815287 8.49232 0.991747L8.89651 7.57903C8.91906 7.9465 8.6394 8.26272 8.27193 8.28526C7.90445 8.30781 7.58824 8.02816 7.56569 7.66068L7.26007 2.67986L1.25992 9.46448C1.016 9.74029 0.594693 9.76614 0.31888 9.52222C0.0430665 9.27829 0.0172157 8.85699 0.261138 8.58118L6.26129 1.79657L1.28047 2.10218C0.91298 2.12472 0.596786 1.84509 0.574223 1.4776C0.551665 1.11011 0.831317 0.793898 1.1988 0.771358L7.78609 0.367167C7.96254 0.356326 8.13612 0.416065 8.26856 0.533191Z" fill="black"/>
</svg>
