<svg width="14" height="14" viewBox="0 0 14 14" fill="none" xmlns="http://www.w3.org/2000/svg">
<path d="M9 7C9 7.39556 8.8827 7.78224 8.66294 8.11114C8.44318 8.44004 8.13082 8.69638 7.76537 8.84776C7.39991 8.99913 6.99778 9.03874 6.60982 8.96157C6.22186 8.8844 5.86549 8.69392 5.58579 8.41421C5.30608 8.13451 5.1156 7.77814 5.03843 7.39018C4.96126 7.00222 5.00087 6.60009 5.15224 6.23463C5.30362 5.86918 5.55996 5.55682 5.88886 5.33706C6.21776 5.1173 6.60444 5 7 5C7.53025 5.00061 8.0386 5.21151 8.41354 5.58646C8.78849 5.9614 8.99939 6.46975 9 7ZM13.25 4.25V9.75C13.2489 10.6779 12.8799 11.5676 12.2237 12.2237C11.5676 12.8799 10.6779 13.2489 9.75 13.25H4.25C3.32206 13.2489 2.43244 12.8799 1.77629 12.2237C1.12014 11.5676 0.751051 10.6779 0.75 9.75V4.25C0.751051 3.32206 1.12014 2.43244 1.77629 1.77629C2.43244 1.12014 3.32206 0.751051 4.25 0.75H9.75C10.6779 0.751051 11.5676 1.12014 12.2237 1.77629C12.8799 2.43244 13.2489 3.32206 13.25 4.25ZM10 7C10 6.40666 9.82405 5.82664 9.49441 5.33329C9.16476 4.83994 8.69623 4.45542 8.14805 4.22836C7.59987 4.0013 6.99667 3.94189 6.41473 4.05764C5.83279 4.1734 5.29824 4.45912 4.87868 4.87868C4.45912 5.29824 4.1734 5.83279 4.05764 6.41473C3.94189 6.99667 4.0013 7.59987 4.22836 8.14805C4.45542 8.69623 4.83994 9.16476 5.33329 9.49441C5.82664 9.82405 6.40666 10 7 10C7.79537 9.9991 8.55791 9.68274 9.12033 9.12033C9.68274 8.55791 9.9991 7.79537 10 7ZM11 3.75C11 3.60166 10.956 3.45666 10.8736 3.33332C10.7912 3.20999 10.6741 3.11386 10.537 3.05709C10.4 3.00032 10.2492 2.98547 10.1037 3.01441C9.9582 3.04335 9.82456 3.11478 9.71967 3.21967C9.61478 3.32456 9.54335 3.4582 9.51441 3.60368C9.48547 3.74917 9.50033 3.89997 9.55709 4.03701C9.61386 4.17406 9.70999 4.29119 9.83332 4.3736C9.95666 4.45601 10.1017 4.5 10.25 4.5C10.4489 4.5 10.6397 4.42098 10.7803 4.28033C10.921 4.13968 11 3.94891 11 3.75Z" fill="#888888"/>
</svg>
