<svg width="23" height="30" viewBox="0 0 23 30" fill="none" xmlns="http://www.w3.org/2000/svg">
<path d="M12.25 7.5L15.8301 0H7.16987L10.75 7.5H12.25ZM11.5 28L10.9697 28.5303L11.5 29.0607L12.0303 28.5303L11.5 28ZM22.5303 18.0303C22.8232 17.7374 22.8232 17.2626 22.5303 16.9697C22.2374 16.6768 21.7626 16.6768 21.4697 16.9697L22.5303 18.0303ZM1.53033 16.9697C1.23744 16.6768 0.762563 16.6768 0.46967 16.9697C0.176777 17.2626 0.176777 17.7374 0.46967 18.0303L1.53033 16.9697ZM10.75 6.75V28H12.25V6.75H10.75ZM12.0303 28.5303L22.5303 18.0303L21.4697 16.9697L10.9697 27.4697L12.0303 28.5303ZM12.0303 27.4697L1.53033 16.9697L0.46967 18.0303L10.9697 28.5303L12.0303 27.4697Z" fill="#FE5E3A"/>
</svg>
